<?xml version="1.0" encoding="UTF-8" ?>
<!DOCTYPE svg PUBLIC "-//W3C//DTD SVG 1.1//EN" "http://www.w3.org/Graphics/SVG/1.1/DTD/svg11.dtd">
<svg width="470pt" height="470pt" viewBox="0 0 470 470" version="1.1" xmlns="http://www.w3.org/2000/svg">
<g>
<path fill="#000" opacity="1.00" d=" M 227.03 14.94 C 226.90 10.69 230.73 6.88 234.98 7.02 C 256.30 6.96 277.63 6.98 298.95 7.01 C 293.67 12.38 288.30 17.66 283.00 23.01 C 288.34 28.31 293.64 33.66 298.98 38.96 C 280.32 39.06 261.66 38.99 243.00 39.00 C 243.12 68.69 242.81 98.40 243.15 128.08 C 247.56 149.09 252.45 170.01 257.02 190.99 C 242.34 191.02 227.65 191.03 212.97 190.99 C 217.42 170.97 221.85 150.94 226.34 130.93 C 227.28 127.03 226.95 123.00 227.00 119.03 C 227.00 84.33 226.95 49.64 227.03 14.94 Z" />
<path fill="#000" opacity="1.00" d=" M 153.95 190.97 C 175.23 159.05 196.50 127.12 217.82 95.23 C 210.84 127.14 203.61 159.01 196.64 190.93 C 182.41 191.09 168.18 191.01 153.95 190.97 Z" />
<path fill="#000" opacity="1.00" d=" M 252.21 95.38 C 273.63 127.15 294.74 159.13 316.05 190.97 C 301.83 191.02 287.62 191.05 273.40 190.96 C 266.36 159.09 259.20 127.25 252.21 95.38 Z" />
<path fill="#000" opacity="1.00" d=" M 277.24 103.92 C 309.67 132.78 341.83 161.96 374.12 190.99 C 361.17 191.01 348.22 191.04 335.28 190.98 C 315.92 161.97 296.57 132.95 277.24 103.92 Z" />
<path fill="#000" opacity="1.00" d=" M 95.88 190.97 C 128.09 162.14 159.99 132.95 192.35 104.29 C 173.37 133.34 153.91 162.08 134.72 190.99 C 121.77 191.01 108.83 191.05 95.88 190.97 Z" />
<path fill="#000" opacity="1.00" d=" M 38.30 190.99 C 77.20 165.97 116.04 140.85 155.06 116.00 C 127.51 141.17 99.60 165.97 71.91 190.99 C 60.71 191.02 49.50 191.03 38.30 190.99 Z" />
<path fill="#000" opacity="1.00" d=" M 314.73 115.83 C 353.78 140.78 392.72 165.92 431.71 190.98 C 420.50 191.04 409.29 191.01 398.08 191.00 C 370.31 165.92 342.36 141.04 314.73 115.83 Z" />
<path fill="#000" opacity="1.00" d=" M 10.94 199.01 C 160.31 198.96 309.69 199.00 459.07 198.99 C 459.00 209.54 453.56 219.94 444.66 225.68 C 434.40 232.68 420.17 232.68 409.74 226.03 C 422.78 264.99 435.73 303.97 448.73 342.94 C 454.31 343.57 461.67 341.07 465.58 346.42 C 469.38 351.31 465.25 359.30 459.05 358.99 C 448.33 359.02 437.61 359.07 426.90 358.98 C 423.06 359.06 419.45 355.91 419.06 352.08 C 418.44 348.16 421.21 344.11 425.07 343.25 C 427.32 342.86 429.61 342.97 431.88 342.93 C 417.88 300.79 403.71 258.70 389.82 216.53 C 385.43 223.10 378.67 228.07 370.98 229.99 C 361.90 232.43 351.77 230.47 344.21 224.90 C 355.30 264.23 366.13 303.63 377.07 343.00 C 382.55 343.60 389.86 341.05 393.58 346.46 C 397.08 351.01 393.79 358.47 388.06 358.91 C 377.35 359.21 366.62 358.88 355.90 359.05 C 352.79 359.28 349.58 357.75 348.05 354.98 C 345.98 351.55 347.03 346.64 350.39 344.43 C 353.31 342.33 357.11 343.17 360.46 343.01 C 348.83 301.00 337.03 259.03 325.52 216.99 C 321.66 222.46 316.23 226.86 309.89 229.09 C 299.60 232.96 287.46 230.86 278.93 223.97 C 287.79 263.61 296.65 303.26 305.34 342.94 C 309.23 343.14 313.16 342.62 317.02 343.27 C 321.40 344.29 324.28 349.49 322.55 353.71 C 321.36 357.17 317.67 359.38 314.06 359.06 C 303.66 358.91 293.27 359.13 282.87 358.98 C 279.34 359.04 276.02 356.44 275.24 352.99 C 274.05 348.85 276.89 344.18 281.07 343.25 C 283.69 342.82 286.37 343.04 289.02 343.01 C 279.74 301.19 270.39 259.39 261.17 217.55 C 258.38 221.24 254.94 224.38 251.00 226.79 C 251.04 278.85 250.97 330.90 251.04 382.96 C 312.36 383.03 373.68 382.97 434.99 382.99 C 435.02 393.66 435.01 404.32 434.99 415.00 C 301.67 415.03 168.34 415.00 35.01 415.01 C 34.98 404.34 34.99 393.67 35.01 383.00 C 96.34 382.98 157.68 382.97 219.01 383.01 C 218.97 330.94 218.99 278.86 219.00 226.79 C 215.15 224.51 211.95 221.41 209.07 218.03 C 207.96 219.36 208.15 221.54 207.60 223.20 C 198.73 263.14 189.87 303.08 180.97 343.01 C 184.90 343.18 189.70 342.08 192.68 345.37 C 197.38 349.63 194.41 358.44 188.07 358.91 C 176.69 359.13 165.29 359.02 153.91 358.95 C 147.89 358.39 144.75 350.32 148.83 345.85 C 152.76 341.26 159.39 343.58 164.61 342.98 C 173.37 303.31 182.20 263.66 191.04 224.01 C 183.08 230.44 171.94 232.65 162.12 229.77 C 154.93 227.75 148.78 223.01 144.39 217.03 C 133.06 259.07 121.11 300.95 109.57 342.94 C 113.94 342.81 119.59 342.49 121.95 347.05 C 125.20 352.03 120.88 359.25 115.03 359.04 C 104.33 358.95 93.63 359.10 82.93 358.98 C 79.35 359.06 75.99 356.43 75.22 352.93 C 73.98 348.53 77.34 343.56 81.89 343.12 C 85.56 342.87 89.24 343.06 92.91 342.93 C 103.91 303.62 114.68 264.24 125.76 224.95 C 111.76 235.60 89.68 231.61 80.33 216.71 C 66.00 258.71 52.23 300.92 38.09 342.99 C 42.08 342.91 47.12 342.52 49.57 346.40 C 53.07 350.98 49.82 358.47 44.06 358.91 C 33.39 359.21 22.70 358.89 12.03 359.05 C 8.37 359.36 4.59 357.20 3.44 353.64 C 1.57 349.10 5.12 343.57 9.92 343.07 C 13.66 342.80 17.41 343.07 21.14 343.07 C 34.33 304.11 47.15 265.02 60.26 226.03 C 51.69 231.38 40.65 232.62 31.24 228.77 C 19.21 224.22 10.89 211.84 10.94 199.01 Z" />
<path fill="#000" opacity="1.00" d=" M 11.00 431.00 C 160.34 430.98 309.68 430.98 459.01 431.01 C 458.99 441.67 459.05 452.33 458.99 462.99 C 309.65 463.06 160.31 462.95 10.97 463.05 C 11.05 452.36 10.94 441.68 11.00 431.00 Z" />
</g>
</svg>
