<?xml version="1.0" encoding="UTF-8" ?>
<!DOCTYPE svg PUBLIC "-//W3C//DTD SVG 1.1//EN" "http://www.w3.org/Graphics/SVG/1.1/DTD/svg11.dtd">
<svg width="512pt" height="512pt" viewBox="0 0 512 512" version="1.1" xmlns="http://www.w3.org/2000/svg">
<g id="#1d1d1bff">
<path fill="#000" opacity="1.00" d=" M 251.58 0.00 L 261.32 0.00 C 266.08 1.30 270.91 2.45 275.41 4.53 C 291.94 12.28 303.77 29.58 304.05 47.97 C 304.07 58.47 303.81 69.47 299.42 79.20 C 299.69 71.46 300.14 63.73 300.30 55.98 C 300.44 48.88 301.36 41.36 298.28 34.69 C 293.43 24.00 282.45 16.67 270.94 15.18 C 261.64 14.45 252.28 14.84 242.97 14.89 C 227.14 15.20 210.68 27.37 209.85 43.96 C 209.59 55.72 210.75 67.46 210.75 79.21 C 207.60 71.59 206.67 63.25 206.33 55.07 C 205.80 46.14 206.89 36.96 210.81 28.83 C 218.12 12.95 234.07 1.42 251.58 0.00 Z" />
<path fill="#000" opacity="1.00" d=" M 236.36 21.50 C 242.46 20.02 248.79 20.65 255.00 20.53 C 262.70 20.68 270.81 19.66 278.06 22.91 C 287.23 26.71 295.29 35.53 294.85 45.96 C 294.56 55.59 294.40 65.24 293.85 74.87 C 293.45 83.73 287.82 92.11 279.71 95.73 C 272.06 99.62 263.23 97.88 255.00 98.26 C 246.78 97.89 237.95 99.63 230.35 95.62 C 222.29 91.88 216.77 83.49 216.44 74.61 C 215.94 64.76 215.65 54.88 215.52 45.02 C 215.53 33.36 225.73 24.28 236.36 21.50 M 233.33 47.31 C 229.78 48.16 226.77 51.30 226.47 55.00 C 225.82 59.39 228.76 63.97 233.12 64.95 C 239.15 66.85 245.92 60.59 244.48 54.45 C 243.54 49.61 238.16 45.99 233.33 47.31 M 272.36 47.42 C 269.35 48.44 266.66 50.88 265.91 54.04 C 264.44 59.51 269.45 65.42 275.00 65.27 C 280.25 65.37 284.66 60.22 283.88 55.06 C 283.46 49.67 277.49 45.70 272.36 47.42 Z" />
<path fill="#000" opacity="1.00" d=" M 198.05 55.06 C 198.10 49.27 198.26 42.95 201.56 37.96 C 201.24 41.32 200.74 44.67 200.57 48.05 C 200.26 54.81 201.52 61.55 201.02 68.31 C 198.44 64.45 198.42 59.53 198.05 55.06 Z" />
<path fill="#000" opacity="1.00" d=" M 309.19 37.79 C 312.12 44.40 312.71 51.84 311.97 58.97 C 311.51 62.22 311.19 65.69 309.19 68.43 C 308.89 61.97 309.85 55.52 309.75 49.06 C 309.61 45.30 309.04 41.56 309.19 37.79 Z" />
<path fill="#000" opacity="1.00" d=" M 175.37 103.46 C 184.42 101.14 194.89 102.65 202.10 108.87 C 204.67 111.33 207.27 115.09 205.77 118.77 C 203.46 124.74 200.92 130.63 198.62 136.60 C 196.94 140.52 195.23 145.36 190.81 146.86 C 186.39 147.26 182.51 144.20 178.10 144.10 C 172.15 143.15 166.43 145.25 160.82 146.91 C 157.47 147.96 152.64 147.38 151.55 143.45 C 148.07 126.76 158.57 107.87 175.37 103.46 Z" />
<path fill="#000" opacity="1.00" d=" M 320.36 103.43 C 328.13 101.52 336.69 102.29 343.67 106.36 C 356.43 113.45 363.23 129.27 360.45 143.44 C 359.06 148.07 353.21 147.86 349.53 146.47 C 342.99 144.05 335.67 142.83 328.91 145.17 C 326.05 145.96 322.75 148.15 319.94 146.05 C 316.04 143.16 314.87 138.14 313.10 133.87 C 310.93 127.51 307.94 121.39 306.24 114.88 C 307.46 108.36 314.57 105.10 320.36 103.43 Z" />
<path fill="#000" opacity="1.00" d=" M 233.45 108.75 C 249.25 107.27 265.21 107.10 280.99 108.92 C 286.58 109.72 292.94 112.30 294.92 118.09 C 302.07 136.88 309.10 155.72 316.37 174.46 C 318.48 179.70 317.82 185.48 317.97 191.00 C 317.93 203.69 318.00 216.39 317.95 229.08 C 317.96 232.94 316.66 237.04 313.44 239.41 C 310.83 241.58 307.30 241.90 304.04 241.95 C 272.01 241.94 239.97 241.94 207.94 241.95 C 204.01 241.97 199.68 241.16 197.03 237.99 C 194.57 235.31 194.01 231.54 194.02 228.05 C 194.05 214.03 194.03 200.01 194.04 186.00 C 194.14 182.16 193.94 178.15 195.54 174.57 C 203.00 156.30 210.36 138.00 217.74 119.70 C 220.18 113.26 226.91 109.59 233.45 108.75 Z" />
<path fill="#000" opacity="1.00" d=" M 167.15 157.15 C 172.61 154.31 179.61 154.72 184.58 158.39 C 186.88 160.33 187.03 163.81 186.32 166.53 C 185.08 170.67 182.72 174.54 182.71 178.98 C 182.49 190.30 182.85 201.63 182.57 212.95 C 182.63 215.26 181.80 217.44 180.02 218.95 C 176.13 216.87 172.71 213.88 168.43 212.61 C 164.00 211.12 159.23 210.98 154.64 211.67 C 152.47 211.80 149.82 212.49 148.13 210.69 C 147.58 208.60 148.01 206.42 148.28 204.33 C 149.90 195.23 151.68 186.16 153.34 177.07 C 154.90 168.95 159.54 160.92 167.15 157.15 Z" />
<path fill="#000" opacity="1.00" d=" M 331.32 156.33 C 336.62 154.19 342.81 155.39 347.40 158.63 C 354.04 163.21 357.73 170.99 359.03 178.77 C 360.56 187.89 362.63 196.91 363.98 206.06 C 364.19 208.13 364.74 211.53 361.82 211.81 C 356.90 212.06 351.96 210.56 347.06 211.72 C 341.34 212.45 336.80 216.15 331.98 218.95 C 330.25 217.41 329.37 215.26 329.43 212.95 C 329.13 201.63 329.55 190.30 329.26 178.98 C 329.13 172.79 324.09 167.36 325.81 161.05 C 326.29 158.35 329.07 157.23 331.32 156.33 Z" />
<path fill="#000" opacity="1.00" d=" M 155.31 223.30 C 160.51 221.73 166.38 223.02 170.56 226.44 C 176.20 231.26 179.59 238.54 179.72 245.95 C 180.32 254.95 176.16 263.21 173.48 271.56 C 171.03 277.72 169.81 284.52 166.02 290.05 C 162.06 293.01 156.89 290.52 152.60 289.61 C 146.85 287.73 140.83 288.71 135.00 289.46 C 131.69 288.58 129.98 284.91 129.14 281.83 C 127.00 271.99 131.37 262.53 134.41 253.40 C 136.44 247.74 138.16 241.95 140.51 236.41 C 143.34 230.27 148.82 225.29 155.31 223.30 Z" />
<path fill="#000" opacity="1.00" d=" M 347.33 223.34 C 357.53 220.28 367.96 227.97 371.79 237.15 C 374.99 245.46 377.69 253.95 380.65 262.35 C 382.98 269.03 384.54 276.46 382.38 283.39 C 381.41 285.88 379.79 288.83 377.00 289.46 C 373.00 289.17 369.04 288.05 365.01 288.56 C 359.29 288.89 353.89 292.22 348.08 291.16 C 345.12 290.54 344.34 287.21 343.18 284.86 C 340.04 276.23 337.07 267.54 334.13 258.84 C 331.07 249.81 331.38 239.05 337.17 231.15 C 339.59 227.53 343.07 224.51 347.33 223.34 Z" />
<path fill="#000" opacity="1.00" d=" M 214.35 254.45 C 222.28 251.66 231.48 257.70 232.31 265.99 C 233.64 273.80 226.88 281.59 219.01 281.57 C 212.27 281.99 205.80 276.70 204.85 270.03 C 203.62 263.43 207.97 256.42 214.35 254.45 Z" />
<path fill="#000" opacity="1.00" d=" M 289.34 254.42 C 297.25 251.71 306.36 257.73 307.20 265.98 C 308.51 273.74 301.85 281.54 294.01 281.56 C 286.87 282.08 280.03 276.16 279.59 269.02 C 278.97 262.67 283.25 256.29 289.34 254.42 Z" />
<path fill="#000" opacity="1.00" d=" M 191.97 261.48 C 192.63 261.64 193.93 261.98 194.58 262.15 C 194.28 268.73 194.67 275.77 198.73 281.28 C 203.36 288.14 211.73 292.30 220.00 291.69 C 229.59 291.27 238.38 284.46 241.37 275.37 C 243.12 271.06 242.18 266.35 242.93 261.88 C 244.41 260.85 246.03 262.37 246.09 263.88 C 247.51 270.82 246.97 277.96 247.07 285.00 C 246.95 296.59 247.44 308.20 246.51 319.76 C 245.05 334.27 241.92 348.53 239.66 362.93 C 238.99 367.60 237.44 372.58 233.30 375.33 C 229.57 378.38 224.51 378.07 219.99 378.08 C 213.64 377.95 207.28 378.26 200.94 377.94 C 196.60 377.79 192.46 374.97 190.98 370.86 C 189.65 367.05 190.04 362.95 189.98 359.00 C 190.02 331.32 189.99 303.65 190.00 275.98 C 190.12 271.10 190.19 266.09 191.97 261.48 Z" />
<path fill="#000" opacity="1.00" d=" M 265.91 263.88 C 265.89 262.02 267.67 261.59 269.19 261.57 C 269.63 265.91 269.00 270.40 270.38 274.61 C 272.37 281.12 277.19 286.73 283.41 289.53 C 289.90 292.60 297.80 292.47 304.19 289.19 C 311.17 285.77 316.26 278.72 317.21 270.99 C 317.54 268.05 317.40 265.08 317.42 262.13 C 318.08 261.97 319.38 261.64 320.03 261.47 C 321.92 266.41 321.90 271.78 322.01 277.00 C 321.97 306.35 322.03 335.70 321.98 365.05 C 322.26 370.54 319.01 376.45 313.30 377.55 C 307.26 378.59 301.09 377.84 295.00 378.06 C 289.32 377.92 282.75 379.01 278.13 374.89 C 273.46 371.47 272.80 365.40 271.91 360.13 C 269.74 346.67 266.85 333.33 265.49 319.76 C 264.56 308.20 265.05 296.59 264.93 285.00 C 265.03 277.96 264.50 270.82 265.91 263.88 Z" />
<path fill="#000" opacity="1.00" d=" M 140.29 300.31 C 147.36 298.49 154.33 302.01 159.89 306.09 C 162.66 308.25 166.03 310.09 167.62 313.37 C 169.42 317.43 165.87 323.02 161.21 321.90 C 157.45 320.21 154.77 316.86 151.18 314.86 C 148.29 313.15 144.59 311.52 141.33 313.23 C 134.41 316.70 132.06 324.78 126.63 329.73 C 121.22 332.64 116.32 325.10 119.61 320.61 C 124.62 312.41 130.65 303.32 140.29 300.31 Z" />
<path fill="#000" opacity="1.00" d=" M 363.32 300.37 C 368.75 298.90 374.67 300.47 378.94 304.05 C 384.49 308.57 388.80 314.46 392.39 320.61 C 394.80 324.23 392.67 330.16 388.03 330.36 C 383.54 330.26 381.94 325.40 379.62 322.38 C 376.62 318.33 373.40 313.31 368.02 312.49 C 361.61 312.65 357.18 317.84 352.24 321.18 C 350.02 322.83 346.74 321.89 345.21 319.74 C 343.01 316.97 343.77 312.67 346.48 310.52 C 351.47 306.28 356.89 302.11 363.32 300.37 Z" />
<path fill="#000" opacity="1.00" d=" M 192.51 391.51 C 194.88 388.24 199.04 386.99 202.92 387.01 C 211.28 386.93 219.64 387.06 228.00 386.97 C 231.92 386.96 236.26 386.95 239.47 389.55 C 243.03 392.13 244.07 396.77 243.98 400.94 C 243.94 424.63 243.98 448.32 243.95 472.01 C 243.78 476.41 244.04 481.36 240.94 484.91 C 237.95 482.30 237.07 478.26 234.91 475.06 C 231.26 468.96 224.06 465.14 216.95 465.85 C 210.60 466.27 204.84 470.27 201.78 475.78 C 199.54 479.01 198.21 483.43 194.21 484.93 C 190.40 481.80 190.05 476.59 190.00 472.04 C 189.99 448.34 190.02 424.64 189.99 400.94 C 190.02 397.67 190.37 394.14 192.51 391.51 Z" />
<path fill="#000" opacity="1.00" d=" M 272.52 389.55 C 276.34 386.56 281.45 387.01 286.01 386.98 C 294.02 387.09 302.04 386.86 310.06 387.06 C 314.40 387.08 318.80 389.37 320.68 393.41 C 322.23 396.70 321.98 400.46 322.03 404.01 C 321.96 426.68 322.02 449.36 322.00 472.04 C 321.94 476.59 321.60 481.81 317.79 484.92 C 313.79 483.43 312.46 479.01 310.22 475.78 C 307.15 470.27 301.39 466.27 295.05 465.85 C 287.93 465.14 280.74 468.97 277.08 475.06 C 274.92 478.25 274.03 482.28 271.06 484.91 C 267.95 481.36 268.22 476.41 268.05 472.01 C 268.02 448.32 268.06 424.63 268.02 400.94 C 267.93 396.77 268.97 392.14 272.52 389.55 Z" />
<path fill="#000" opacity="1.00" d=" M 215.40 476.51 C 220.62 474.36 227.08 478.34 227.31 484.02 C 228.23 491.09 218.84 496.51 213.35 491.67 C 207.74 488.03 209.18 478.62 215.40 476.51 Z" />
<path fill="#000" opacity="1.00" d=" M 290.39 476.48 C 295.58 474.39 301.95 478.38 302.16 484.01 C 303.15 491.07 293.72 496.45 288.23 491.72 C 282.61 488.01 284.03 478.52 290.39 476.48 Z" />
<path fill="#000" opacity="1.00" d=" M 309.96 495.93 C 312.38 494.30 315.67 491.03 318.64 493.30 C 322.79 497.22 323.17 504.88 318.82 508.82 C 316.82 510.66 314.12 511.40 311.54 512.00 L 278.46 512.00 C 275.22 511.25 271.70 510.09 269.80 507.16 C 267.40 503.44 267.85 498.51 269.58 494.61 C 270.10 492.95 272.16 491.78 273.60 493.16 C 279.24 496.80 283.76 502.94 290.99 503.43 C 298.27 504.70 304.74 500.46 309.96 495.93 Z" />
<path fill="#000" opacity="1.00" d=" M 193.44 493.22 C 196.49 491.25 199.62 494.27 202.04 495.94 C 207.06 500.21 213.06 504.37 220.02 503.53 C 226.45 503.37 231.31 498.85 235.89 494.91 C 237.52 493.83 239.60 491.46 241.57 493.20 C 243.97 496.85 244.57 501.81 242.94 505.89 C 241.31 509.59 237.25 511.20 233.55 512.00 L 200.46 512.00 C 196.96 511.28 193.18 509.88 191.37 506.56 C 189.11 502.36 189.85 496.45 193.44 493.22 Z" />
</g>
</svg>
