<?xml version="1.0" encoding="UTF-8" ?>
<!DOCTYPE svg PUBLIC "-//W3C//DTD SVG 1.1//EN" "http://www.w3.org/Graphics/SVG/1.1/DTD/svg11.dtd">
<svg width="225pt" height="225pt" viewBox="0 0 225 225" version="1.1" xmlns="http://www.w3.org/2000/svg">
<g>
<path fill="#000000" opacity="1.00" d=" M 101.00 0.00 L 123.93 0.00 L 124.63 0.13 C 125.47 0.74 126.30 1.37 127.13 2.01 C 127.18 6.28 127.20 10.55 127.19 14.83 C 130.71 15.30 137.14 13.08 138.08 17.99 C 138.41 29.42 138.17 40.89 138.16 52.33 C 140.38 52.25 143.44 50.79 144.89 53.22 C 145.77 54.62 145.46 56.40 145.60 57.97 C 145.51 68.38 145.60 78.80 145.52 89.22 C 147.36 89.13 149.27 88.46 151.10 88.98 C 153.28 90.18 153.03 92.91 153.07 95.04 C 152.98 105.32 153.09 115.61 152.99 125.89 C 154.89 125.92 156.91 125.34 158.73 126.06 C 160.57 127.02 160.19 129.29 160.36 131.02 C 160.33 142.85 160.37 154.69 160.32 166.52 C 162.63 166.12 165.00 166.16 167.26 166.83 C 168.46 180.06 167.47 193.39 167.80 206.66 C 182.88 206.68 197.96 206.70 213.05 206.64 C 214.60 206.69 216.21 206.63 217.71 207.11 C 220.03 208.46 219.89 212.45 217.30 213.46 C 214.40 214.40 211.26 213.93 208.26 214.02 C 207.95 217.71 209.61 222.56 205.94 225.00 L 202.95 225.00 C 200.26 221.93 201.02 217.75 201.01 214.00 C 197.33 214.00 193.65 214.00 189.98 214.00 C 189.91 217.74 190.68 221.91 188.04 225.00 L 185.31 225.00 C 184.45 224.40 183.61 223.79 182.78 223.16 C 182.78 220.11 182.63 217.05 182.68 214.00 C 178.92 214.00 175.16 214.00 171.39 214.01 C 171.03 217.69 172.80 222.77 168.90 225.00 L 165.95 225.00 C 163.50 221.83 164.19 217.73 164.14 214.00 C 160.43 214.00 156.73 214.00 153.02 214.00 C 153.06 216.95 152.97 219.90 153.02 222.85 C 152.23 223.54 151.43 224.22 150.62 224.88 L 149.87 225.00 L 149.01 225.00 L 148.10 224.98 C 144.52 222.48 146.12 217.69 145.81 214.00 C 142.05 214.00 138.30 214.00 134.54 214.00 C 134.53 217.71 135.10 221.69 133.02 225.00 L 129.10 225.00 C 126.46 221.93 127.47 217.69 127.30 214.00 C 123.57 214.00 119.83 214.00 116.10 214.00 C 116.14 216.99 116.05 219.98 116.09 222.97 C 115.27 223.62 114.45 224.25 113.62 224.88 L 112.87 225.00 L 112.03 225.00 L 111.36 224.87 C 110.53 224.25 109.72 223.62 108.92 222.97 C 108.95 219.98 108.86 216.99 108.90 214.00 C 105.16 214.00 101.43 214.00 97.70 214.00 C 97.50 217.69 98.60 221.99 95.85 225.00 L 91.94 225.00 C 89.93 221.67 90.46 217.71 90.46 214.00 C 86.70 214.00 82.94 214.00 79.18 214.00 C 79.24 217.03 79.10 220.06 79.15 223.09 C 78.33 223.70 77.49 224.29 76.64 224.86 L 75.86 225.00 L 75.02 225.00 L 74.38 224.87 C 73.58 224.24 72.78 223.59 72.00 222.93 C 72.05 219.95 71.93 216.97 71.97 214.00 C 68.27 214.00 64.56 214.00 60.86 214.00 C 60.79 217.73 61.54 221.86 59.01 225.00 L 56.08 225.00 C 52.21 222.76 53.96 217.69 53.61 214.01 C 49.84 214.00 46.08 214.00 42.31 214.00 C 41.99 217.70 43.66 222.61 39.91 225.00 L 36.94 225.00 C 34.32 221.90 35.07 217.74 35.03 214.00 C 31.35 214.00 27.67 214.00 23.99 214.00 C 23.97 217.75 24.75 221.94 22.03 225.00 L 19.00 225.00 C 15.44 222.48 17.03 217.70 16.74 214.02 C 13.74 213.93 10.63 214.39 7.72 213.48 C 5.71 212.68 5.15 210.14 6.05 208.31 C 7.28 206.24 9.94 206.85 11.95 206.64 C 27.03 206.70 42.11 206.67 57.19 206.67 C 57.39 200.13 56.83 193.56 57.44 187.04 C 58.46 184.09 62.18 184.44 64.66 183.67 C 64.75 172.78 64.47 161.89 64.76 151.01 C 64.71 147.33 69.43 147.48 71.96 146.49 C 71.94 133.97 72.04 121.44 71.91 108.92 C 74.20 107.43 76.80 106.49 79.44 105.82 C 79.44 94.53 79.45 83.23 79.41 71.93 C 79.56 70.39 79.25 68.33 80.72 67.31 C 82.61 66.32 84.75 65.95 86.79 65.35 C 86.88 49.52 86.58 33.67 86.91 17.85 C 87.98 13.12 94.32 15.31 97.81 14.82 C 97.80 10.53 97.82 6.25 97.87 1.96 C 98.69 1.34 99.52 0.74 100.35 0.15 L 101.00 0.00 M 105.07 7.28 C 105.07 9.78 105.07 12.28 105.06 14.77 C 110.02 14.79 114.98 14.78 119.94 14.77 C 119.93 12.28 119.92 9.78 119.93 7.28 C 114.98 7.27 110.02 7.27 105.07 7.28 M 94.05 22.09 C 94.03 35.93 94.09 49.77 94.01 63.60 C 106.31 60.58 118.58 57.40 130.90 54.45 C 131.02 43.67 130.92 32.88 130.95 22.09 C 118.65 22.12 106.35 22.12 94.05 22.09 M 86.56 72.95 C 86.56 83.36 86.57 93.77 86.56 104.18 C 103.87 99.95 121.13 95.55 138.43 91.26 C 138.43 80.81 138.47 70.37 138.41 59.92 C 121.14 64.31 103.84 68.57 86.56 72.95 M 79.17 113.49 C 79.20 123.92 79.19 134.35 79.18 144.79 C 101.39 139.17 123.63 133.70 145.83 128.07 C 145.79 117.67 145.83 107.27 145.81 96.86 C 123.59 102.38 101.39 107.97 79.17 113.49 M 71.99 154.08 C 72.01 163.54 72.00 173.01 71.99 182.47 C 99.00 177.62 126.01 172.82 153.01 167.95 C 152.99 156.54 153.01 145.14 152.99 133.74 C 126.01 140.57 98.97 147.21 71.99 154.08 M 64.42 191.22 C 64.46 196.36 64.45 201.50 64.44 206.64 C 96.48 206.61 128.52 206.61 160.56 206.64 C 160.54 195.75 160.56 184.86 160.55 173.97 C 128.52 179.81 96.43 185.29 64.42 191.22 Z" />
<path fill="#000000" opacity="1.00" d=" M 103.21 30.05 C 105.39 28.88 108.58 30.17 108.63 32.83 C 108.85 37.96 108.83 43.12 108.65 48.25 C 108.71 52.05 102.44 52.70 101.74 48.98 C 101.30 44.67 101.65 40.32 101.52 36.00 C 101.65 33.97 101.15 31.31 103.21 30.05 Z" />
<path fill="#000000" opacity="1.00" d=" M 117.03 30.95 C 118.61 28.81 122.66 29.35 123.23 32.06 C 123.72 36.37 123.34 40.72 123.47 45.05 C 123.34 47.00 123.85 49.41 122.10 50.82 C 119.99 52.50 116.26 51.03 116.35 48.19 C 116.11 43.82 116.30 39.45 116.24 35.09 C 116.35 33.70 116.10 32.11 117.03 30.95 Z" />
</g>
</svg>
