<!-- Generated by IcoMoon.io -->
<svg version="1.1" xmlns="http://www.w3.org/2000/svg" width="1152" height="1024" viewBox="0 0 1152 1024">
<title></title>
<g id="icomoon-ignore">
</g>
<path fill="#000" d="M160 704q66 0 113 47t47 113-47 113-113 47-113-47-47-113 47-113 113-47zM576 320q-66 0-113-47t-47-113 47-113 113-47 113 47 47 113-47 113-113 47zM512 496q0 66-47 113t-113 47-113-47-47-113 47-113 113-47 113 47 47 113zM576 704q66 0 113 47t47 113-47 113-113 47-113-47-47-113 47-113 113-47zM992 704q66 0 113 47t47 113-47 113-113 47-113-47-47-113 47-113 113-47zM960 496q0 66-47 113t-113 47-113-47-47-113 47-113 113-47 113 47 47 113z"></path>
</svg>
