<!-- Generated by IcoMoon.io -->
<svg version="1.1" xmlns="http://www.w3.org/2000/svg" width="896" height="1024" viewBox="0 0 896 1024">
<title></title>
<g id="icomoon-ignore">
</g>
<path fill="#000" d="M544 272q-14 0-23-9t-9-23 9-23 23-9 23 9 9 23-9 23-23 9zM896 716q0 30-20 40-4 18-4 70t4 76q20 20 20 38v32q0 24-15 38t-37 14h-652q-82 0-137-55t-55-137v-640q0-82 55-137t137-55h652q52 0 52 52v664zM480 112q-66 0-113 38t-47 90q0 64 64 102v26q0 14 9 23t23 9h128q14 0 23-9t9-23v-26q64-38 64-102 0-52-47-90t-113-38zM250 446q-6 16 8 22l142 60-142 60q-14 6-8 22l12 28q6 16 22 10l196-86 196 86q16 6 22-10l12-28q6-16-8-22l-140-60 140-60q14-6 8-22l-12-28q-6-16-22-10l-196 84-196-84q-16-6-22 10zM762 896v-128h-570q-26 0-45 18t-19 46 18 46 46 18h570zM416 272q-14 0-23-9t-9-23 9-23 23-9 23 9 9 23-9 23-23 9z"></path>
</svg>
