<!-- Generated by IcoMoon.io -->
<svg version="1.1" xmlns="http://www.w3.org/2000/svg" width="896" height="1024" viewBox="0 0 896 1024">
<title></title>
<g id="icomoon-ignore">
</g>
<path fill="#000" d="M896 716q0 30-20 40-4 18-4 70t4 76q20 20 20 38v32q0 24-15 38t-37 14h-652q-82 0-137-55t-55-137v-640q0-82 55-137t137-55h652q52 0 52 52v664zM544 320l-54 106-106 54 106 54 54 106 54-106 106-54-106-54zM320 192l-64 32 64 32 32 64 32-64 64-32-64-32-32-64zM762 896v-128h-570q-26 0-45 18t-19 46 18 46 46 18h570z"></path>
</svg>
