<!-- Generated by IcoMoon.io -->
<svg version="1.1" xmlns="http://www.w3.org/2000/svg" width="1024" height="1024" viewBox="0 0 1024 1024">
<title></title>
<g id="icomoon-ignore">
</g>
<path fill="#000" d="M292 574l-282-282q-24-22 0-46l44-44q24-24 46 0l8 8q126-82 276-82 148 0 274 80l-94 92q-84-44-180-44-98 0-184 46l182 182zM816 364q80 126 80 274 0 152-82 276l10 10q22 22 0 46l-46 44q-22 24-44 0l-284-282 90-92 182 182q46-86 46-184 0-96-44-180zM986 0q16-2 28 10t10 28l-52 256q-4 20-22 25t-30-9l-70-68-502 502 34 98q2 6 2 14 0 16-12 28l-128 128q-16 16-38 11t-30-27l-36-112-112-36q-22-8-27-30t11-38l128-128q12-12 28-12 8 0 14 2l98 34 502-502-68-68q-14-14-9-32t25-22z"></path>
</svg>
