<?xml version="1.0" encoding="iso-8859-1"?>
<!-- Generator: Adobe Illustrator 18.1.1, SVG Export Plug-In . SVG Version: 6.00 Build 0)  -->
<svg version="1.1" id="Capa_1" xmlns="http://www.w3.org/2000/svg" xmlns:xlink="http://www.w3.org/1999/xlink" x="0px" y="0px"
	 viewBox="0 0 19.025 19.025" style="enable-background:new 0 0 19.025 19.025;" xml:space="preserve">
<g>
	<path fill="#000" d="M10.273,3.458c0.249,0,0.449-0.043,0.449-0.097c0-0.055-0.201-0.098-0.449-0.098c-0.25,0-0.451,0.043-0.451,0.098
		C9.822,3.415,10.023,3.458,10.273,3.458z M8.471,3.26c-0.25,0-0.451,0.043-0.451,0.096c0,0.056,0.201,0.097,0.451,0.097
		c0.249,0,0.449-0.041,0.449-0.097C8.92,3.303,8.72,3.26,8.471,3.26z M17.969,16.86c0.042-0.129,0.166-0.578,0.047-1.219
		c-0.141-0.758-0.679-1.551-1.41-1.611c-0.729-0.061-1.246,0.007-1.439-0.08c-0.191-0.094-0.364-0.215-0.526-0.235s-0.214,0-0.214,0
		s0.285-0.262,0.275-0.566c-0.012-0.303-0.052-1.533,0.01-1.785c0.059-0.252,0.081-1.908-0.123-2.645
		c-0.204-0.744-0.901-1.484-1.37-1.664c-0.466-0.186-1.408-0.457-1.669-0.57c-0.267-0.108-0.186-0.141-0.346-0.129
		c-0.164,0.008-0.307,0.09-0.377,0.039c-0.069-0.051-0.101-0.252-0.051-0.404c0.051-0.151,0.083-0.233,0.083-0.233
		s0.004,0.051,0.019,0.119c0.003,0.008,0,0.014,0.005,0.022c0.032,0.152,0.105,0.375,0.261,0.354
		c0.233-0.031,0.152-0.64,0.131-0.842c0,0,0.254-0.601,0.254-1.113c0-0.519,0.03-0.711,0.082-0.844
		c0.051-0.132,0.141-0.576,0.101-0.994c-0.042-0.416-0.242-0.922-0.608-1.174c-0.365-0.255-0.72-0.519-0.771-0.572
		C10.28,0.663,9.731,0.47,9.377,0.48C9.021,0.49,8.616,0.519,8.22,0.836C7.825,1.15,7.409,1.484,7.338,1.554
		c-0.07,0.072-0.345,0.721-0.294,1.279c0.051,0.557,0.184,0.78,0.192,0.873c0.013,0.09-0.029,0.78,0.122,1.166
		C7.511,5.256,7.562,5.48,7.551,5.663C7.542,5.847,7.45,6.17,7.603,6.189C7.754,6.21,7.846,6.148,7.917,5.997
		c0.068-0.148,0.009-0.306,0.009-0.306S8.108,6.158,8.028,6.26C7.946,6.361,7.783,6.331,7.65,6.361
		C7.522,6.392,5.92,6.898,5.585,6.993c-0.335,0.09-1.33,0.737-1.449,1.56c-0.124,0.82-0.071,2.575-0.082,2.858
		c-0.012,0.284,0.142,1.573,0.212,1.817c0.07,0.242,0.185,0.404,0.092,0.484c-0.092,0.082-0.231,0.133-0.263,0.205
		c-0.031,0.071-0.195,0-0.204,0.09c-0.012,0.094-0.315,0.062-0.589,0.039c-0.274-0.019-0.943-0.039-1.45,0.315
		s-0.822,0.892-0.881,1.392c-0.054,0.426,0.059,0.961,0.091,1.104H0v1.688h19.025v-1.688h-1.057L17.969,16.86L17.969,16.86z
		 M11.418,7.047h-0.005C11.411,7.02,11.41,7.002,11.41,7.002S11.414,7.019,11.418,7.047z M7.906,5.408
		C7.562,4.902,7.45,4.345,7.459,4.161c0.006-0.101,0.022-0.22,0.034-0.318c0.039-0.076,0.081-0.189,0.081-0.34
		c0-0.283,0.074-1.119,0.164-1.254c0.09-0.136,0.491-0.326,0.808-0.345c0.312-0.012,2.223,0.062,2.371,0.209
		c0.148,0.148,0.269,0.521,0.284,0.806c0.014,0.287,0.029,0.553,0.043,0.717c0.007,0.066,0.029,0.146,0.052,0.217
		c-0.004,0.223-0.053,0.601-0.113,0.787c-0.081,0.252-0.364,0.932-0.67,1.123C10.209,5.96,9.712,5.997,9.276,5.989
		C8.84,5.976,8.25,5.917,7.906,5.408z M8.793,14.288c0.291,0.03,0.352-0.076,0.352-0.076s0.029-0.318,0.135-0.318
		s0.152,0.045,0.152,0.18c0,0.14,0,0.429-0.152,0.474c-0.152,0.047-0.902,0.145-1.281-0.037c-0.381-0.185-1.102-0.422-1.01-0.682
		c0,0,0.329-0.449,0.68-0.375c0.089,0.018,0.53-0.017,0.942-0.017c0.388-0.002,0.748-0.014,0.775,0.029
		c0.062,0.092,0.123,0.229-0.075,0.26c-0.197,0.029-0.808,0.045-0.896,0.105C8.322,13.893,8.503,14.256,8.793,14.288z M8.061,11.079
		c-0.006-0.015-0.01-0.025-0.016-0.035c0.153-0.019,0.514,0.084,0.84-0.113c0.426-0.258,0.578-0.75,0.578-0.75
		s-0.169,0.212-0.533,0.456c-0.294,0.197-0.779,0.213-0.955,0.213C7.564,9.538,7.871,6.669,7.871,6.669l0.421-0.215l0.151,0.075
		c0,0,0.366,0.646,0.923,0.685c0.557,0.041,1.035-0.724,1.035-0.724s0.23,0.039,0.366,0.039c0.134,0,0.343,0.14,0.343,0.14
		s0.209,0.918,0.192,2.537c-0.008,0.688-0.11,1.229-0.265,1.645c-0.177,0-0.657-0.016-0.953-0.213
		c-0.362-0.244-0.53-0.457-0.53-0.457s0.151,0.492,0.576,0.75c0.32,0.193,0.673,0.094,0.829,0.111
		c-0.201,0.448-0.47,0.727-0.731,0.875C9.711,12.21,8.598,12.247,8.061,11.079z M10.881,13.299c-0.012,0.004-0.034,0.01-0.034,0.01
		s0.01-0.006,0.017-0.012C10.87,13.297,10.875,13.299,10.881,13.299z M10.93,14.596c-0.379,0.184-1.133-0.004-1.286-0.051
		c-0.151-0.045-0.151-0.334-0.151-0.474c0-0.135,0.046-0.18,0.151-0.18c0.107,0,0.139,0.318,0.139,0.318s0.06,0.106,0.35,0.076
		c0.289-0.031,0.471-0.396,0.38-0.457s-0.699-0.076-0.896-0.105c-0.2-0.031-0.138-0.168-0.077-0.26
		c0.028-0.043,0.391-0.031,0.773-0.029c0.417,0,0.858-0.008,0.945,0.016c0.168,0.048,0.65,0.388,0.65,0.388
		C11.998,14.096,11.311,14.415,10.93,14.596z M9.832,4.472H8.998c0,0,0.209,0.285,0.388,0.285S9.832,4.472,9.832,4.472z"/>
</g>
</svg>
