<?xml version="1.0" encoding="UTF-8" ?>
<!DOCTYPE svg PUBLIC "-//W3C//DTD SVG 1.1//EN" "http://www.w3.org/Graphics/SVG/1.1/DTD/svg11.dtd">
<svg width="200pt" height="200pt" viewBox="0 0 200 200" version="1.1" xmlns="http://www.w3.org/2000/svg">
<g id="#000000ff">
<path fill="#000000" opacity="1.00" d=" M 97.47 23.66 C 98.91 23.70 100.35 23.72 101.80 23.72 C 101.74 38.54 101.78 53.36 101.77 68.18 C 106.72 68.19 111.66 68.17 116.60 68.20 C 116.59 71.01 116.60 73.83 116.59 76.65 C 119.41 76.67 122.23 76.68 125.06 76.67 C 125.06 73.84 125.09 71.01 125.08 68.19 C 130.73 68.18 136.39 68.18 142.04 68.19 C 142.03 71.01 142.06 73.84 142.06 76.66 C 143.44 76.68 144.82 76.70 146.21 76.72 C 146.27 73.88 146.33 71.04 146.27 68.19 C 151.92 68.17 157.58 68.19 163.23 68.19 C 163.48 71.94 162.73 75.77 163.65 79.47 C 171.02 106.08 178.25 132.74 185.61 159.36 C 188.73 159.36 191.85 159.36 194.97 159.33 C 195.13 164.99 195.02 170.65 195.04 176.31 C 130.73 176.32 66.42 176.32 2.11 176.31 C 2.11 170.65 2.09 165.00 2.12 159.35 C 4.67 159.37 7.23 159.35 9.78 159.34 C 17.52 132.03 25.34 104.74 33.08 77.43 C 30.65 75.03 32.22 71.22 31.81 68.19 C 36.76 68.18 41.70 68.17 46.64 68.19 C 46.66 70.99 46.65 73.79 46.60 76.58 C 49.42 76.68 52.25 76.71 55.08 76.66 C 55.09 73.83 55.13 71.01 55.11 68.18 C 60.76 68.18 66.42 68.18 72.07 68.19 C 72.06 71.02 72.09 73.84 72.09 76.67 C 74.91 76.68 77.74 76.67 80.56 76.66 C 80.54 73.84 80.57 71.01 80.57 68.18 C 86.20 68.19 91.82 68.16 97.45 68.20 C 97.41 53.36 97.81 38.50 97.47 23.66 M 59.37 93.63 C 59.35 99.28 59.36 104.94 59.36 110.59 C 60.77 110.58 62.18 110.58 63.59 110.59 C 63.59 104.94 63.61 99.28 63.58 93.63 C 62.18 93.63 60.77 93.63 59.37 93.63 M 97.52 93.68 C 97.51 99.32 97.51 104.96 97.52 110.60 C 98.94 110.58 100.36 110.57 101.78 110.57 C 101.65 104.88 101.98 99.17 101.59 93.49 C 100.58 93.54 98.54 93.63 97.52 93.68 M 129.33 110.60 C 130.74 110.59 132.15 110.58 133.56 110.59 C 133.56 104.93 133.57 99.28 133.55 93.63 C 132.50 93.63 130.40 93.62 129.35 93.62 C 129.31 99.28 129.33 104.94 129.33 110.60 Z" />
<path fill="#000000" opacity="1.00" d=" M 65.21 40.69 C 75.89 35.43 86.54 30.12 97.28 24.97 C 97.49 31.05 97.42 37.13 97.26 43.21 C 86.57 42.38 75.89 41.52 65.21 40.69 Z" />
</g>
</svg>
