<!-- Generated by IcoMoon.io -->
<svg version="1.1" xmlns="http://www.w3.org/2000/svg" width="1024" height="1024" viewBox="0 0 1024 1024">
<title></title>
<g id="icomoon-ignore">
</g>
<path fill="#000" d="M928 448q40 0 68 28t28 68v128q0 92-66 158t-158 66h-96v64q0 26-19 45t-45 19h-256q-26 0-45-19t-19-45v-320h-96q-92 0-158-66t-66-158v-128q0-40 28-68t68-28 68 28 28 68v128q0 14 9 23t23 9h96v-256q0-80 56-136t136-56h10q78 4 130 64t52 138v502h96q14 0 23-9t9-23v-128q0-40 28-68t68-28zM448 352q14 0 23-9t9-23-9-23-23-9-23 9-9 23 9 23 23 9zM576 800q14 0 23-9t9-23-9-23-23-9-23 9-9 23 9 23 23 9z"></path>
</svg>
