<!-- Generated by IcoMoon.io -->
<svg version="1.1" xmlns="http://www.w3.org/2000/svg" width="1024" height="1024" viewBox="0 0 1024 1024">
<title></title>
<g id="icomoon-ignore">
</g>
<path fill="#000" d="M998.396 819.738q11.2 0 18.399 7.205t7.205 18.399v51.196q0 11.2-7.205 18.399t-18.399 7.205h-972.793q-11.2 0-18.399-7.205t-7.205-18.399v-51.196q0-11.2 7.205-18.399t18.399-7.205h40.003l382.396-527.995-84.8-118.404q-14.398-20.796 6.398-35.193l40.003-30.399q20.796-14.398 36.797 6.398l65.595 89.595 65.595-89.595q16.001-20.796 36.797-6.398l40.003 30.399q20.796 14.398 6.398 35.193l-84.8 118.404 382.396 527.995h40.003zM512.009 563.735l-185.602 256.006h371.201z"></path>
</svg>
