<!-- Generated by IcoMoon.io -->
<svg version="1.1" xmlns="http://www.w3.org/2000/svg" width="1024" height="1024" viewBox="0 0 1024 1024">
<title></title>
<g id="icomoon-ignore">
</g>
<path fill="#000" d="M1002 900q12 4 18 16t2 24l-18 62q-4 12-15 18t-25 2l-452-144-452 144q-12 4-24-2t-16-18l-18-62q-4-12 2-24t18-16l280-90-280-88q-12-4-18-16t-2-24l18-62q4-12 15-18t25-2l452 144 452-144q12-4 24 2t16 18l18 62q2 8 1 16t-7 15-14 9l-280 88zM512 640q-120 0-204-84t-84-204q0-68 61-168t155-184q74 66 128 138 34-40 72-74 66 60 113 148t47 140q0 120-84 204t-204 84zM440 184l-39 52t-27 41-17 39-5 36q0 72 46 116t114 44q52 0 94-30 44-34 56-91t-14-105q-8-14-14-26l-72 86q-112-150-122-162z"></path>
</svg>
