<!-- Generated by IcoMoon.io -->
<svg version="1.1" xmlns="http://www.w3.org/2000/svg" width="1024" height="1024" viewBox="0 0 1024 1024">
<title></title>
<g id="icomoon-ignore">
</g>
<path fill="#000" d="M582 384q8 44 31 82t56 65 75 42 88 15q30 0 64-8v412q0 14-9 23t-23 9h-64q-14 0-23-9t-9-23v-288l-256 192h64q26 0 45 19t19 45v32q0 14-9 23t-23 9h-352q-52 0-90-38t-38-90v-512q0-26-19-45t-45-19-45-19-19-45 19-45 45-19q80 0 136 56t56 136v172q38-58 89-97t102-53 79-18 56-4zM896 192l128-128v268q0 80-56 136t-136 56-136-56-56-136v-268l128 128h128zM752 352q14 0 23-9t9-23-9-23-23-9-23 9-9 23 9 23 23 9zM912 352q14 0 23-9t9-23-9-23-23-9-23 9-9 23 9 23 23 9z"></path>
</svg>
