<?xml version="1.0" encoding="UTF-8" ?>
<!DOCTYPE svg PUBLIC "-//W3C//DTD SVG 1.1//EN" "http://www.w3.org/Graphics/SVG/1.1/DTD/svg11.dtd">
<svg width="225pt" height="225pt" viewBox="0 0 225 225" version="1.1" xmlns="http://www.w3.org/2000/svg">
<g>
<path fill="#000000" opacity="1.00" d=" M 84.98 19.98 C 90.49 14.87 96.80 10.71 102.81 6.21 C 106.05 10.65 108.87 15.41 112.56 19.52 C 115.70 15.09 118.71 10.57 121.92 6.19 C 129.63 12.34 138.54 17.40 144.36 25.58 C 151.58 35.90 154.55 48.55 155.27 60.97 C 167.30 58.49 179.97 56.55 191.97 60.25 C 201.95 62.86 209.54 70.20 218.00 75.66 C 215.30 80.50 211.50 84.58 208.45 89.17 C 213.88 91.10 219.37 92.86 225.00 94.12 L 225.00 94.65 C 220.60 102.78 219.19 112.26 213.88 119.93 C 206.47 131.13 194.40 138.13 182.21 143.06 C 187.63 152.67 192.88 162.77 193.99 173.94 C 195.64 185.59 190.62 196.60 187.63 207.59 C 182.39 205.73 177.17 203.77 171.79 202.35 C 171.68 207.83 171.88 213.31 172.07 218.79 C 162.43 218.45 152.48 219.88 143.16 216.72 C 130.76 212.75 120.57 203.95 112.56 193.92 C 108.43 197.67 104.92 202.04 100.68 205.68 C 94.95 210.65 88.30 214.67 81.01 216.89 C 71.76 219.80 61.95 218.52 52.42 218.72 C 52.66 213.31 52.77 207.89 52.75 202.47 C 47.30 204.07 42.01 206.13 36.59 207.84 C 34.19 197.62 29.60 187.65 30.31 176.94 C 30.69 164.68 36.22 153.43 42.38 143.10 C 35.16 139.73 27.80 136.44 21.58 131.37 C 15.32 126.31 9.78 120.03 6.75 112.48 C 4.36 106.55 2.95 100.25 0.00 94.55 L 0.00 93.89 C 5.41 92.57 10.76 90.99 16.00 89.10 C 13.13 84.73 9.72 80.77 6.88 76.38 C 14.01 70.94 20.73 64.54 29.32 61.45 C 42.11 56.49 56.15 58.08 69.21 61.00 C 70.39 46.28 74.16 30.71 84.98 19.98 M 81.55 49.77 C 79.77 59.06 79.18 68.87 81.52 78.11 C 69.73 70.97 55.41 68.03 41.73 69.41 C 34.32 70.05 27.61 73.67 21.90 78.24 C 25.47 84.29 30.71 89.17 34.06 95.35 C 27.47 97.15 20.92 99.05 14.38 100.99 C 16.60 113.80 26.69 123.56 37.91 129.16 C 45.69 132.92 54.00 136.38 62.77 136.46 C 53.81 144.09 47.45 154.47 43.38 165.44 C 40.03 174.55 40.48 184.68 43.89 193.70 C 50.72 191.92 57.23 189.16 63.92 186.97 C 63.75 194.08 63.57 201.18 63.62 208.29 C 71.10 208.46 78.78 207.19 85.31 203.36 C 97.18 196.40 106.53 185.44 112.41 173.07 C 116.94 183.82 124.89 192.90 134.05 199.99 C 141.71 205.99 151.52 208.82 161.21 208.23 C 160.93 201.17 160.63 194.10 160.72 187.03 C 167.49 189.05 173.99 191.97 180.90 193.53 C 183.24 186.13 184.56 178.18 182.60 170.52 C 179.38 157.48 171.94 145.57 162.14 136.45 C 173.08 136.06 183.40 131.34 192.59 125.68 C 201.25 120.38 207.71 111.79 210.29 101.96 L 209.90 101.19 C 203.46 98.72 196.68 97.29 190.16 95.04 C 194.45 89.64 198.47 84.04 202.78 78.66 C 195.82 71.66 185.70 68.64 176.01 68.78 C 164.59 69.28 153.24 72.20 143.21 77.72 C 145.55 67.59 144.77 56.92 142.33 46.89 C 139.83 36.59 133.71 26.83 124.21 21.71 C 120.12 27.36 116.31 33.20 112.30 38.90 C 108.24 33.18 104.60 27.14 100.15 21.71 C 89.93 27.54 83.70 38.45 81.55 49.77 Z" />
<path fill="#000000" opacity="1.00" d=" M 107.87 82.85 C 109.43 79.09 115.81 79.22 116.94 83.23 C 118.22 86.37 114.64 88.83 114.79 91.96 C 114.69 97.23 114.64 102.53 114.98 107.80 C 118.50 103.80 120.66 98.84 123.40 94.32 C 125.19 91.76 123.32 87.96 125.83 85.79 C 128.01 83.42 132.51 84.36 133.64 87.34 C 134.00 88.74 133.98 90.22 133.70 91.63 C 131.78 93.79 128.76 94.84 127.43 97.55 C 125.03 101.80 122.36 105.92 120.42 110.42 C 125.01 108.63 129.15 105.93 133.42 103.51 C 136.11 102.17 137.12 99.13 139.33 97.27 C 141.02 97.00 142.85 96.92 144.47 97.60 C 146.66 99.37 147.35 103.07 145.18 105.14 C 143.00 107.66 139.16 105.70 136.62 107.55 C 132.10 110.30 127.12 112.44 123.17 116.01 C 128.77 116.02 134.38 116.13 139.98 115.89 C 142.68 115.71 145.01 112.83 147.77 114.04 C 151.52 115.14 151.99 120.96 148.59 122.76 C 145.68 124.93 142.90 121.49 139.96 121.26 C 134.53 121.02 129.08 121.11 123.65 121.31 C 126.44 125.54 131.80 126.74 135.90 129.31 C 138.76 131.52 143.23 129.39 145.52 132.48 C 148.15 135.64 145.18 140.90 141.15 140.44 C 137.38 140.24 136.97 135.49 133.94 134.03 C 129.52 131.42 125.13 128.68 120.41 126.64 C 122.45 131.35 125.21 135.70 127.75 140.14 C 128.98 142.64 131.97 143.32 133.62 145.43 C 134.07 147.08 134.01 148.88 133.45 150.50 C 131.87 152.69 128.41 153.66 126.26 151.73 C 123.25 149.68 125.16 145.54 123.34 142.82 C 120.68 138.36 118.60 133.45 115.03 129.60 C 114.85 134.74 114.65 139.90 114.77 145.05 C 114.57 148.22 118.14 150.63 117.04 153.83 C 115.87 158.17 108.36 158.08 107.54 153.54 C 106.72 150.75 109.60 148.65 109.71 145.97 C 109.89 140.64 109.71 135.31 109.72 129.98 C 109.23 130.16 108.25 130.51 107.76 130.69 C 105.97 135.07 103.44 139.07 101.13 143.17 C 99.51 145.76 101.53 149.66 98.67 151.61 C 95.55 154.64 89.82 151.42 90.54 147.24 C 90.58 144.85 92.88 143.77 94.58 142.61 C 96.53 141.48 97.39 139.30 98.54 137.48 C 100.60 133.65 103.51 130.28 104.89 126.10 C 99.86 127.95 95.68 131.46 90.94 133.90 C 87.66 135.35 87.13 140.67 83.01 140.47 C 79.09 140.54 76.69 135.18 79.36 132.31 C 81.32 129.50 85.14 131.41 87.72 129.84 C 91.87 127.58 95.88 125.01 100.28 123.24 C 100.47 122.74 100.84 121.74 101.03 121.24 C 95.69 121.23 90.35 121.02 85.02 121.21 C 82.14 121.35 79.76 124.73 76.76 123.19 C 73.03 121.94 72.87 115.89 76.39 114.26 C 79.36 112.43 82.05 115.77 85.00 115.92 C 90.45 116.08 95.92 116.07 101.38 116.02 C 97.81 112.49 93.05 110.60 88.83 107.99 C 86.64 106.52 83.96 106.71 81.47 106.31 C 78.52 105.48 77.30 101.52 79.06 99.06 C 80.24 96.60 83.37 96.98 85.61 97.32 C 87.56 99.12 88.41 101.97 90.87 103.24 C 95.32 105.80 99.64 108.61 104.37 110.63 C 102.19 105.72 99.37 101.12 96.57 96.54 C 95.02 93.88 90.64 93.41 90.53 89.86 C 90.08 86.09 94.63 83.09 97.89 85.07 C 100.24 85.96 100.08 88.76 100.38 90.81 C 100.48 93.90 102.55 96.36 103.95 98.97 C 105.72 101.84 106.95 105.15 109.59 107.38 C 109.86 102.24 109.79 97.09 109.75 91.95 C 110.10 88.70 106.01 86.09 107.87 82.85 Z" />
</g>
</svg>
