<!-- Generated by IcoMoon.io -->
<svg version="1.1" xmlns="http://www.w3.org/2000/svg" width="512" height="1024" viewBox="0 0 512 1024">
<title></title>
<g id="icomoon-ignore">
</g>
<path fill="#000" d="M128 576q-14 0-23-9t-9-23v-32q0-14 9-23t23-9h32q-26-20-45-58t-19-70q0-66 47-113t113-47 113 47 47 113q0 32-19 70t-45 58h32q14 0 23 9t9 23v32q0 14-9 23t-23 9h-30q6 98 30 192h-256q24-94 30-192h-30zM494 920q18 8 18 28v44q0 14-9 23t-23 9h-448q-14 0-23-9t-9-23v-44q0-20 18-28l46-24v-32q0-14 9-23t23-9h320q14 0 23 9t9 23v32z"></path>
</svg>
