<!-- Generated by IcoMoon.io -->
<svg version="1.1" xmlns="http://www.w3.org/2000/svg" width="640" height="1024" viewBox="0 0 640 1024">
<title></title>
<g id="icomoon-ignore">
</g>
<path fill="#000" d="M212 416l-68-180q-2-6-2-12 0-14 9-23t23-9h114v-64h-48q-16 0-16-16v-32q0-16 16-16h48v-48q0-16 16-16h32q16 0 16 16v48h48q16 0 16 16v32q0 16-16 16h-48v64h114q14 0 23 9t9 23q0 6-2 12l-68 180h20q14 0 23 9t9 23v32q0 14-9 23t-23 9h-32q0 130 32 256h-256q32-126 32-256h-32q-14 0-23-9t-9-23v-32q0-14 9-23t23-9h20zM558 920q18 8 18 28v44q0 14-9 23t-23 9h-448q-14 0-23-9t-9-23v-44q0-20 18-28l46-24v-32q0-14 9-23t23-9h320q14 0 23 9t9 23v32z"></path>
</svg>
