<!-- Generated by IcoMoon.io -->
<svg version="1.1" xmlns="http://www.w3.org/2000/svg" width="640" height="1024" viewBox="0 0 640 1024">
<title></title>
<g id="icomoon-ignore">
</g>
<path fill="#000" d="M622 920q18 8 18 28v44q0 14-9 23t-23 9h-576q-14 0-23-9t-9-23v-44q0-20 18-28l46-24v-32q0-14 9-23t23-9h448q14 0 23 9t9 23v32zM144 420l-62-62q-18-18-18-44v-170q0-16 16-16h70q16 0 16 16v80h66v-80q0-16 16-16h144q16 0 16 16v80h66v-80q0-16 16-16h70q16 0 16 16v170q0 26-18 44l-62 62 30 348h-412zM272 464v94h96v-94q0-20-14-34t-34-14-34 14-14 34z"></path>
</svg>
