<!-- Generated by IcoMoon.io -->
<svg version="1.1" xmlns="http://www.w3.org/2000/svg" width="512" height="1024" viewBox="0 0 512 1024">
<title></title>
<g id="icomoon-ignore">
</g>
<path fill="#000" d="M128 576q-14 0-23-9t-9-23v-32q0-14 9-23t23-9h24q-54-22-54-100 0-60 38-132t82-104q-26-8-26-38 0-12 5-21t14-15 21-6h48q18 0 29 12t11 30q0 30-26 38 34 24 68 80l-104 104q-2 2-2 5t2 5l12 12q2 2 5 2t5-2l98-98q36 72 36 128 0 78-54 100h24q14 0 23 9t9 23v32q0 14-9 23t-23 9h-30q6 98 30 192h-256q24-94 30-192h-30zM494 920q18 8 18 28v44q0 14-9 23t-23 9h-448q-14 0-23-9t-9-23v-44q0-20 18-28l46-24v-32q0-14 9-23t23-9h320q14 0 23 9t9 23v32z"></path>
</svg>
