<!-- Generated by IcoMoon.io -->
<svg version="1.1" xmlns="http://www.w3.org/2000/svg" width="640" height="1024" viewBox="0 0 640 1024">
<title></title>
<g id="icomoon-ignore">
</g>
<path fill="#000" d="M622 920q18 8 18 28v44q0 14-9 23t-23 9h-576q-14 0-23-9t-9-23v-44q0-20 18-28l46-24v-32q0-14 9-23t23-9h448q14 0 23 9t9 23v32zM92 472q-28-14-28-42v-196q0-14 10-24l12-14-20-40q-2-6-2-10v0q0-18 18-18h184q114 0 196 82t82 196v298q0 28-32 64h-384q-48-48-37-114t71-96l92-48q14-6 24-21t10-31v-74l-28 10q-14 8-18 24l-14 42q-6 22-26 30l-18 8q-8 2-16 2-10 0-20-4zM160 256q-14 0-23 9t-9 23 10 23 23 9 22-9 9-23-9-23-23-9z"></path>
</svg>
