<!-- Generated by IcoMoon.io -->
<svg version="1.1" xmlns="http://www.w3.org/2000/svg" width="512" height="1024" viewBox="0 0 512 1024">
<title></title>
<g id="icomoon-ignore">
</g>
<path fill="#000" d="M134 384l-88-192q-2-2-2-6 0-6 6-10l20-14q4-2 8-2 8 0 12 6 12 16 32 16h2q16-2 27-14t11-28q0-12 10-12h34q8 0 10 8 4 14 15 23t25 9q8 0 17-4t15-11 8-16 10-9h34q10 0 10 12 0 36 34 42h6q20 0 32-16 10-12 20-4l20 14q6 4 6 10 0 4-2 6l-88 192h6q14 0 23 9t9 23v32q0 14-9 23t-23 9h-32v28q0 132 32 260h-256q32-128 32-260v-28h-32q-14 0-23-9t-9-23v-32q0-14 9-23t23-9h6zM256 96q-20 0-34-14t-14-34 14-34 34-14 34 14 14 34-14 34-34 14zM494 920q18 8 18 28v44q0 14-9 23t-23 9h-448q-14 0-23-9t-9-23v-44q0-20 18-28l46-24v-32q0-14 9-23t23-9h320q14 0 23 9t9 23v32z"></path>
</svg>
