<!-- Generated by IcoMoon.io -->
<svg version="1.1" xmlns="http://www.w3.org/2000/svg" width="1024" height="1024" viewBox="0 0 1024 1024">
<title></title>
<g id="icomoon-ignore">
</g>
<path fill="#000" d="M0 640v-60q36 42 96 80v128q-96-66-96-148zM512 704q-212 0-362-84t-150-204 150-204 362-84 362 84 150 204-150 204-362 84zM160 826v-130q86 40 192 58v128q-108-18-192-56zM928 788v-128q60-38 96-80v60q0 82-96 148zM672 882v-128q106-18 192-58v130q-84 38-192 56zM416 762q48 6 96 6t96-6v128q-56 6-96 6t-96-6v-128z"></path>
</svg>
