<!-- Generated by IcoMoon.io -->
<svg version="1.1" xmlns="http://www.w3.org/2000/svg" width="1024" height="1024" viewBox="0 0 1024 1024">
<title></title>
<g id="icomoon-ignore">
</g>
<path fill="#000" d="M238 742q124-126 301-132t309 110q8 6 5 16t-13 12l-196 38-180 182q-56 56-136 56t-136-56l-90-90zM402 570q-120 38-210 126l-136 136q-56-56-56-136t56-136l182-180 38-196q2-10 12-13t16 5q72 82 97 186t1 208zM1024 90q-2 48-44 70 30 34 18 76-14 42-54 54 22 38 4 76-16 38-60 46 20 38-2 76-22 36-64 40 16 38-10 72-2 4-10 12-154-86-332-56 30-178-56-334 8-10 16-16 34-24 74-10 4-42 40-62 36-22 74-4 8-42 48-60 40-16 74 8 14-42 56-54 44-14 76 18 26-46 78-42 16 2 31 9t24 18 14 26 5 31v6z"></path>
</svg>
