<!-- Generated by IcoMoon.io -->
<svg version="1.1" xmlns="http://www.w3.org/2000/svg" width="1280" height="1024" viewBox="0 0 1280 1024">
<title></title>
<g id="icomoon-ignore">
</g>
<path fill="#000" d="M1268 554q16 22 10 48l-42 218q-8 34-34 55t-60 21q-20 0-43-12t-35-30l-82-124q-22-32-22-72v-82l-64-64v352q0 14-9 23t-23 9h-128q-14 0-23-9t-9-23v-224q-26 26-64 44v52q0 14-9 23t-23 9-23-9-9-23v-34q-32 4-64 0v34q0 14-9 23t-23 9-23-9-9-23v-52q-38-18-64-44v224q0 14-9 23t-23 9h-128q-14 0-23-9t-9-23v-608q0-14 2-26-50 20-50 74v208q0 54-37 91t-91 37h-16v-64q0-60 48-100v-172q0-72 52-124t124-52h638q40 0 86 23t70 57l132 182q22-32 52-46 16-8 31 1t15 27v154zM754 334q24-22 8-50t-52-28h-332q-36 0-52 28t8 50l46 46q68 68 164 68t164-68zM1152 704q6 0 10-2t8-5 7-7 5-8 2-10q0-14-9-23t-23-9-23 9-9 23 9 23 23 9z"></path>
</svg>
