<?xml version="1.0" encoding="UTF-8" ?>
<!DOCTYPE svg PUBLIC "-//W3C//DTD SVG 1.1//EN" "http://www.w3.org/Graphics/SVG/1.1/DTD/svg11.dtd">
<svg width="512pt" height="512pt" viewBox="0 0 512 512" version="1.1" xmlns="http://www.w3.org/2000/svg">
<g>
<path fill="#000" opacity="1.00" d=" M 156.68 8.62 C 167.90 2.25 182.31 1.35 193.97 7.09 C 203.63 11.92 210.67 20.93 214.57 30.86 C 211.87 29.25 209.25 27.51 206.64 25.75 C 211.75 33.93 215.98 44.22 212.53 53.84 C 207.57 70.03 199.84 85.30 195.79 101.79 C 194.34 107.72 193.20 113.82 193.68 119.95 C 193.71 128.66 202.55 133.30 209.42 136.49 C 232.86 145.00 256.31 153.60 279.00 164.00 C 291.60 169.94 304.32 176.01 315.44 184.50 C 321.47 189.78 327.09 195.51 332.93 201.00 C 324.52 198.38 316.20 195.52 307.77 192.99 C 312.83 196.47 318.36 199.17 323.61 202.33 C 329.74 207.14 335.43 212.58 340.26 218.71 C 342.94 222.41 345.74 226.71 345.25 231.49 C 344.84 235.09 341.51 237.28 338.44 238.55 C 331.33 241.47 323.67 242.65 316.12 243.80 C 294.50 246.62 272.66 247.34 250.88 247.49 C 246.86 243.51 242.78 239.59 238.68 235.69 C 249.05 254.69 264.86 270.71 283.73 281.31 C 301.23 291.28 319.17 300.48 337.48 308.88 C 330.43 309.85 323.34 310.37 316.26 310.96 C 320.79 316.97 324.90 323.35 330.34 328.61 C 333.58 332.06 337.41 335.00 340.17 338.88 C 341.00 340.32 342.10 342.36 340.95 343.92 C 338.67 346.96 335.48 349.16 332.52 351.49 C 314.37 364.97 294.77 376.33 276.17 389.15 C 269.56 393.72 264.05 399.91 260.58 407.18 C 262.49 412.59 263.86 418.54 262.14 424.19 C 261.22 427.78 258.92 430.75 256.38 433.36 C 256.94 425.97 254.98 418.68 252.47 411.81 C 245.31 418.47 246.55 429.41 241.12 437.14 C 237.07 442.65 233.75 448.79 232.62 455.61 C 229.37 451.16 229.49 445.30 230.47 440.12 C 231.89 433.75 233.18 427.35 234.62 420.98 C 232.01 426.21 229.32 431.39 226.43 436.47 C 223.98 440.54 225.13 445.49 223.87 449.86 C 222.29 451.13 221.18 448.54 220.67 447.40 C 219.73 444.22 217.72 440.66 219.40 437.40 C 223.18 427.94 227.17 418.45 232.92 409.99 C 236.25 404.96 241.39 401.61 246.00 397.89 C 270.87 379.04 296.15 360.74 321.68 342.80 C 313.97 332.53 305.95 322.49 298.13 312.29 C 288.86 312.54 279.56 312.45 270.35 311.33 C 272.05 319.51 273.89 327.66 275.57 335.85 C 276.16 339.71 278.62 342.99 279.03 346.89 C 280.25 353.85 275.34 360.00 276.06 366.97 C 272.30 369.56 268.63 372.29 264.80 374.77 C 264.58 371.18 264.35 367.59 264.07 364.00 C 263.94 359.51 261.20 355.53 261.48 350.99 C 261.24 346.54 263.46 342.26 262.54 337.83 C 261.00 327.53 259.38 317.24 257.92 306.92 C 244.86 299.98 233.95 289.80 223.27 279.72 C 214.51 271.32 205.97 262.68 196.99 254.52 C 200.19 261.92 203.39 269.39 207.93 276.08 C 192.28 268.04 177.15 257.16 168.64 241.36 C 153.99 215.60 144.51 185.83 147.11 155.94 C 148.18 139.54 149.95 123.18 152.24 106.91 C 154.29 93.29 156.39 79.61 160.26 66.37 C 167.06 63.57 174.02 60.94 180.23 56.93 C 172.63 58.68 164.63 60.36 156.90 58.41 C 151.62 57.16 146.60 53.72 144.54 48.57 C 143.71 45.70 143.47 42.71 142.96 39.78 C 139.66 37.57 136.85 34.13 136.35 30.13 C 140.93 21.27 147.99 13.58 156.68 8.62 M 158.43 29.73 C 155.03 33.05 150.81 35.51 147.38 38.84 C 151.53 37.47 155.62 35.91 159.79 34.57 C 163.88 37.71 170.22 36.30 172.86 31.98 C 174.94 28.68 178.41 26.69 181.20 24.06 C 178.17 24.62 175.14 25.23 172.10 25.71 C 167.83 21.23 160.31 24.47 158.43 29.73 Z" />
<path fill="#000" opacity="1.00" d=" M 60.38 80.54 C 83.67 65.40 106.66 49.71 130.68 35.72 C 131.44 37.70 131.85 40.16 133.94 41.24 C 137.14 42.92 136.67 47.05 137.97 49.96 C 138.89 53.33 141.44 56.06 144.90 56.87 C 117.16 66.14 89.35 75.88 60.38 80.54 Z" />
<path fill="#000" opacity="1.00" d=" M 342.07 209.07 C 351.84 210.84 361.54 213.09 371.05 215.96 C 376.08 217.42 380.93 219.66 385.06 222.91 C 386.16 223.64 386.66 224.88 387.25 226.01 C 381.07 227.93 374.43 226.72 368.07 226.75 C 376.54 230.79 384.06 236.80 389.76 244.26 C 396.10 252.56 401.58 261.53 406.17 270.91 C 406.79 272.18 407.55 273.39 408.59 274.37 C 420.73 285.98 432.14 298.48 441.62 312.38 C 445.53 318.10 448.87 324.21 451.50 330.61 C 432.85 327.52 414.11 324.54 395.87 319.45 C 377.39 313.10 358.65 307.44 340.40 300.41 C 312.00 289.34 283.51 276.54 260.42 256.20 C 283.43 255.34 306.60 254.30 329.21 249.62 C 336.09 247.97 343.38 246.44 349.08 242.00 C 353.20 238.76 354.70 233.01 353.27 228.04 C 351.51 220.76 346.80 214.69 342.07 209.07 Z" />
<path fill="#000" opacity="1.00" d=" M 267.26 405.85 C 270.49 402.78 273.71 399.72 276.94 396.67 C 277.98 412.43 278.70 428.22 280.55 443.91 C 281.22 448.72 282.06 454.53 286.47 457.40 C 291.03 458.17 294.75 460.98 298.56 463.40 C 303.55 466.79 308.44 470.41 312.66 474.75 C 305.93 473.78 299.26 472.33 292.77 470.27 C 289.48 469.21 285.98 468.57 282.54 469.28 C 277.60 484.59 266.34 496.77 255.80 508.52 C 257.05 498.06 266.18 490.54 267.02 480.00 C 267.51 476.53 264.34 472.22 260.59 473.39 C 250.09 475.96 239.59 478.56 229.07 481.07 C 232.10 478.12 234.84 474.75 238.60 472.67 C 246.72 468.07 255.76 465.37 263.97 460.96 C 268.54 458.48 271.06 453.15 270.62 448.05 C 269.62 433.97 268.31 419.92 267.26 405.85 Z" />
</g>
</svg>
