<!-- Generated by IcoMoon.io -->
<svg version="1.1" xmlns="http://www.w3.org/2000/svg" width="1024" height="1024" viewBox="0 0 1024 1024">
<title></title>
<g id="icomoon-ignore">
</g>
<path fill="#000" d="M418 776l30 174v10q0 26-19 45t-45 19q-12 0-22-4-80-30-142-88zM1020 362q4 10 4 22 0 26-19 45t-45 19h-10l-174-30 156-198q58 62 88 142zM470 46l128 416q2 8 2 18 0 26-18 46l-56 56q-20 18-46 18-10 0-18-2l-416-128q-20-6-33-24t-13-38q0-8 2-14 32-130 147-245t245-147q6-2 14-2 20 0 38 13t24 33zM896 132v8q0 22-14 38l-192 246q-10 14-30 20v-1t-2-1l-128-416q0-4-4-10t-4-8q44-8 86-8 62 0 138 26t124 62q22 16 26 44zM444 660q-8 20-20 30l-246 192q-16 14-38 14h-8q-28-4-44-26-36-46-62-123t-26-137q0-44 10-86 8 4 16 6l416 128q0 2 2 2z"></path>
</svg>
