<?xml version="1.0" encoding="UTF-8" ?>
<!DOCTYPE svg PUBLIC "-//W3C//DTD SVG 1.1//EN" "http://www.w3.org/Graphics/SVG/1.1/DTD/svg11.dtd">
<svg width="408pt" height="408pt" viewBox="0 0 408 408" version="1.1" xmlns="http://www.w3.org/2000/svg">
<g>
<path fill="#000" opacity="1.00" d=" M 107.26 3.21 C 113.22 -0.14 120.80 0.98 126.35 4.62 C 135.84 10.64 141.31 21.05 144.85 31.39 C 159.78 26.81 175.16 23.48 190.77 22.51 C 196.32 15.14 202.97 7.73 212.18 5.14 C 217.90 3.32 224.50 5.03 228.61 9.40 C 232.40 13.39 233.93 18.88 234.89 24.16 C 268.63 29.58 300.90 43.97 327.23 65.78 C 355.62 89.07 377.17 120.63 388.27 155.64 C 398.24 186.74 400.15 220.40 393.68 252.42 C 383.79 302.85 352.53 348.54 309.30 376.27 C 280.69 394.77 247.07 405.48 213.02 406.76 C 186.06 408.05 158.87 403.39 133.81 393.39 C 98.37 379.39 67.35 354.53 45.91 323.04 C 26.02 294.26 14.74 259.91 12.50 225.06 C 15.47 246.92 21.63 268.45 32.04 287.97 C 40.25 303.36 50.32 317.96 62.86 330.13 C 65.87 323.74 68.59 317.09 69.39 310.02 C 70.82 297.59 67.39 285.23 63.11 273.67 C 61.28 268.95 62.90 262.32 68.01 260.47 C 71.53 260.00 70.69 264.68 72.60 266.42 C 76.87 269.85 82.67 269.93 87.88 269.65 C 85.73 251.59 81.35 233.47 72.56 217.43 C 69.54 211.86 65.43 207.03 61.00 202.54 C 67.92 201.74 75.58 203.85 81.79 199.88 C 87.91 196.06 93.54 191.53 99.44 187.40 C 103.47 184.40 105.35 179.46 108.93 176.05 C 113.40 174.54 118.25 174.68 122.88 175.31 C 122.20 170.65 123.36 165.32 127.44 162.52 C 132.16 159.18 138.41 160.49 143.26 162.84 C 147.50 164.71 151.05 168.66 156.00 168.49 C 162.43 168.20 167.72 163.86 172.44 159.90 C 172.99 156.31 172.04 152.64 172.19 149.01 C 171.90 142.86 172.78 136.77 174.11 130.78 C 169.63 133.35 165.41 136.33 160.93 138.89 C 133.49 155.20 102.05 165.36 70.01 165.99 C 53.37 166.27 36.60 164.14 20.78 158.87 C 26.10 139.48 35.40 121.29 46.72 104.72 C 59.94 85.71 76.54 69.02 95.66 55.94 C 92.37 44.32 91.21 31.73 94.87 20.05 C 97.00 13.34 100.77 6.54 107.26 3.21 M 115.02 13.75 C 113.91 18.73 114.17 23.83 114.05 28.88 C 111.54 24.56 111.65 19.38 110.86 14.59 C 109.95 15.28 109.38 16.17 109.13 17.27 C 107.30 24.73 107.33 32.48 107.62 40.11 C 103.68 33.60 103.61 25.83 104.46 18.51 C 102.24 19.86 101.80 22.61 101.04 24.88 C 98.42 33.52 99.21 43.02 102.98 51.20 C 113.59 45.04 124.22 38.67 135.91 34.71 C 135.62 28.96 134.43 22.13 129.44 18.58 C 130.16 23.02 131.55 27.73 129.77 32.11 C 128.44 25.84 126.68 19.00 121.69 14.59 C 122.65 20.38 123.42 26.28 122.52 32.14 C 121.13 27.39 120.17 22.51 118.39 17.88 C 117.67 16.19 117.30 13.82 115.02 13.75 M 200.78 22.80 C 187.86 35.35 180.71 53.84 182.38 71.82 C 183.05 80.92 194.50 88.09 202.41 82.38 C 214.64 71.80 221.58 55.74 222.64 39.76 L 221.37 40.63 C 219.37 45.62 218.27 51.13 214.86 55.44 C 216.31 47.88 218.65 40.45 218.88 32.69 C 218.49 32.88 217.69 33.24 217.30 33.43 C 214.51 42.00 211.26 50.58 206.15 58.08 C 210.66 46.47 214.27 34.34 214.77 21.82 C 207.90 27.79 205.13 36.82 200.78 44.50 C 201.86 36.41 205.90 29.16 208.79 21.63 C 205.58 23.49 204.09 27.11 202.11 30.08 C 198.09 36.52 195.45 43.67 191.91 50.35 C 192.71 39.41 198.67 29.86 204.19 20.70 C 202.95 21.21 201.72 21.82 200.78 22.80 M 239.71 42.84 C 247.94 51.18 259.71 55.63 271.34 55.89 C 270.85 54.71 270.21 53.56 269.11 52.87 C 260.73 46.44 250.28 42.83 239.71 42.84 M 232.83 61.15 C 238.79 70.03 249.52 74.92 260.06 75.17 C 253.78 66.60 243.45 61.30 232.83 61.15 M 117.18 70.17 C 109.43 76.38 103.96 85.61 102.49 95.44 C 104.00 94.30 105.23 92.87 106.43 91.43 C 112.20 84.41 119.49 78.64 127.67 74.68 C 139.29 68.93 152.61 67.76 165.35 69.22 C 161.15 65.14 155.19 63.56 149.58 62.63 C 138.42 61.42 126.30 63.22 117.18 70.17 M 289.73 65.85 C 296.04 75.98 306.81 82.89 318.29 85.73 C 312.09 75.62 301.36 68.16 289.73 65.85 M 143.96 77.07 C 145.88 79.13 148.02 81.17 149.01 83.87 C 150.02 86.62 149.44 89.58 149.28 92.41 C 156.47 88.33 162.39 81.97 166.48 74.82 C 158.92 74.79 151.36 75.53 143.96 77.07 M 223.50 78.22 C 225.98 87.16 233.77 94.49 242.98 96.01 C 240.14 87.24 232.75 79.80 223.50 78.22 M 278.74 81.86 C 282.41 91.73 291.60 98.94 301.69 101.45 C 297.86 91.67 288.86 84.35 278.74 81.86 M 106.95 100.72 C 115.92 102.39 125.24 102.21 134.10 99.94 C 131.36 98.15 128.25 96.42 126.80 93.32 C 125.18 90.40 125.54 87.00 125.73 83.81 C 118.29 87.83 111.21 93.28 106.95 100.72 M 185.42 119.53 C 185.11 123.83 187.25 128.29 188.27 132.54 C 188.67 132.72 189.48 133.08 189.88 133.26 C 190.37 129.99 191.12 126.76 191.83 123.53 C 195.39 125.54 198.63 128.07 202.16 130.13 C 201.41 126.21 199.94 122.49 198.93 118.65 C 202.97 120.16 206.85 122.15 211.04 123.23 C 209.35 119.53 207.28 116.02 205.64 112.30 C 210.58 113.59 215.22 115.78 220.16 117.09 C 217.70 112.79 214.45 109.02 211.90 104.79 C 216.79 105.48 221.52 107.08 226.45 107.47 C 225.16 105.76 223.38 104.55 221.61 103.40 C 217.05 100.45 212.67 97.23 208.02 94.41 C 202.25 104.19 194.57 112.81 185.42 119.53 M 263.78 98.88 C 265.55 108.07 273.54 115.34 282.55 117.32 C 280.25 108.29 272.77 101.13 263.78 98.88 M 333.12 98.82 C 335.23 110.22 340.96 121.61 350.63 128.35 C 349.27 119.30 345.33 110.64 339.27 103.76 C 337.50 101.82 335.84 99.41 333.12 98.82 M 314.65 111.77 C 315.51 122.17 321.21 132.58 330.46 137.73 C 329.47 127.27 323.65 117.32 314.65 111.77 M 59.46 119.76 C 62.10 125.22 65.27 130.41 68.37 135.62 C 69.54 137.92 72.20 138.59 74.33 139.70 C 80.35 142.39 86.20 145.49 92.35 147.90 C 90.51 144.96 87.21 143.51 84.58 141.41 C 80.07 137.94 75.23 134.91 70.92 131.19 C 84.43 132.92 97.92 135.24 111.49 136.35 C 110.02 134.45 107.52 134.38 105.40 133.73 C 93.53 130.68 81.66 127.57 69.82 124.40 C 85.64 123.44 101.46 122.70 117.29 122.01 C 117.10 121.61 116.74 120.82 116.55 120.43 C 97.52 120.36 78.49 119.73 59.46 119.76 M 46.32 123.21 C 41.89 131.78 38.05 140.73 35.48 150.05 C 44.17 152.83 53.16 154.71 62.27 155.22 C 59.92 143.68 54.84 132.70 47.64 123.38 C 47.31 123.34 46.65 123.25 46.32 123.21 M 238.86 123.89 C 226.25 138.36 207.76 146.51 189.09 149.55 C 189.72 154.48 190.74 159.34 191.61 164.23 C 194.40 162.08 195.40 158.46 197.21 155.57 C 199.80 158.52 200.97 162.44 203.72 165.26 C 204.53 161.51 205.44 157.78 206.25 154.03 C 209.02 156.96 211.49 160.20 214.62 162.78 C 214.91 158.48 214.84 154.16 214.99 149.85 C 218.60 152.43 221.66 155.69 225.27 158.26 C 224.80 153.70 224.13 149.17 223.70 144.61 C 227.92 147.30 231.28 151.24 235.83 153.42 C 235.33 148.51 234.34 143.68 233.69 138.80 C 237.89 140.81 241.83 143.33 246.12 145.18 C 244.91 141.22 243.15 137.47 241.82 133.56 C 246.18 134.37 250.48 135.49 254.86 136.17 C 251.47 131.91 246.88 128.84 242.98 125.07 C 241.77 124.22 240.08 121.74 238.86 123.89 M 355.93 140.64 C 354.27 148.70 357.34 157.73 364.49 162.15 C 365.89 154.21 363.59 144.56 355.93 140.64 M 284.95 147.93 C 283.37 150.72 284.26 154.36 286.39 156.60 C 289.03 159.89 294.08 159.94 296.35 163.63 C 297.93 165.69 298.36 168.53 300.44 170.22 C 303.09 161.48 298.93 151.21 290.65 147.20 C 288.89 146.17 286.10 145.87 284.95 147.93 M 256.12 177.19 C 254.54 177.22 252.96 177.29 251.39 177.39 C 250.16 179.40 249.16 181.63 249.30 184.04 C 249.10 189.73 252.95 194.45 256.65 198.35 C 259.70 201.26 262.77 204.41 266.76 206.01 C 265.60 201.05 263.40 196.26 263.54 191.07 C 262.87 183.38 264.59 175.63 268.09 168.78 C 279.71 173.47 288.19 184.00 292.19 195.67 C 292.53 195.67 293.20 195.65 293.54 195.65 C 295.55 188.87 296.52 181.61 295.33 174.59 C 294.37 170.68 291.74 166.67 287.75 165.40 C 285.65 164.78 284.20 166.70 282.85 167.93 C 277.53 159.40 269.87 152.41 260.89 147.90 C 256.40 156.89 255.04 167.26 256.12 177.19 M 325.38 159.52 C 317.96 160.88 312.13 166.86 310.29 174.09 C 312.81 172.50 315.24 170.69 318.07 169.66 C 322.30 168.29 326.90 171.06 331.02 168.97 C 333.95 167.78 336.54 164.39 335.20 161.16 C 332.79 158.42 328.60 159.08 325.38 159.52 M 238.28 164.31 C 232.66 172.35 235.57 185.14 244.26 189.86 C 243.50 185.48 241.93 180.55 244.50 176.46 C 246.41 173.27 247.23 169.11 245.19 165.77 C 243.89 163.45 240.12 161.44 238.28 164.31 M 308.10 185.15 C 305.61 189.73 302.94 194.49 302.24 199.72 C 303.79 198.84 305.30 197.87 306.75 196.83 C 315.84 190.23 327.61 187.74 338.64 189.63 C 336.77 196.83 335.03 204.40 330.39 210.41 C 327.25 214.96 322.69 218.18 318.81 222.05 C 326.22 221.78 333.92 221.07 340.58 217.53 C 344.44 215.47 347.63 211.60 347.52 207.05 C 347.31 205.07 345.32 204.17 343.93 203.11 C 347.58 200.00 349.21 195.40 351.30 191.23 C 353.58 186.43 355.45 181.28 355.54 175.91 C 345.65 175.02 335.55 176.59 326.56 180.83 C 325.97 178.82 325.49 176.05 322.93 175.78 C 316.42 175.01 311.11 179.89 308.10 185.15 M 128.07 180.26 C 125.59 181.80 123.13 183.77 121.78 186.42 C 129.88 186.62 137.93 187.94 146.05 187.70 C 151.38 187.74 156.61 186.61 161.83 185.64 C 163.84 189.35 168.86 190.91 169.95 195.00 C 166.51 201.67 162.35 208.07 160.06 215.29 C 157.80 222.32 155.94 229.53 155.23 236.91 C 153.56 252.61 154.92 269.27 162.71 283.31 C 169.29 295.23 179.28 305.66 191.84 311.24 C 195.77 312.65 200.85 314.62 204.49 311.55 C 207.63 309.03 206.90 304.48 205.71 301.16 C 204.74 297.86 201.84 295.81 199.55 293.46 C 184.35 278.62 174.75 258.22 173.10 237.04 C 171.61 223.57 173.92 210.08 177.10 197.02 C 177.62 194.70 178.92 192.48 178.85 190.07 C 177.65 185.68 175.83 181.48 174.70 177.06 C 159.78 181.93 143.46 184.68 128.07 180.26 M 274.72 189.15 C 272.33 197.07 274.15 208.13 282.92 211.21 C 284.96 208.05 286.20 204.17 284.64 200.53 C 283.62 195.31 279.96 190.61 274.72 189.15 M 98.65 200.63 C 93.83 203.23 88.93 206.02 83.43 206.83 C 83.03 210.93 84.53 214.85 85.24 218.84 C 88.56 219.06 91.99 219.19 95.14 217.96 C 99.02 216.77 101.81 213.70 105.02 211.41 C 109.05 213.40 111.91 217.19 115.17 220.22 C 106.62 225.54 96.17 224.40 86.57 224.66 C 87.59 229.72 88.46 234.82 89.04 239.95 C 101.80 234.95 115.66 236.19 128.95 234.03 C 134.87 233.27 142.46 232.49 146.26 238.20 C 146.63 230.72 148.11 223.31 150.56 216.23 C 143.15 217.44 136.62 221.42 130.35 225.34 C 128.41 226.40 126.41 228.09 124.04 227.47 C 121.13 226.56 119.92 223.37 119.21 220.68 C 118.81 218.79 117.96 216.30 119.81 214.88 C 124.54 212.93 129.80 213.55 134.79 213.14 C 140.04 212.37 145.18 211.03 150.25 209.46 C 151.90 208.88 153.95 208.28 154.51 206.39 C 156.17 202.51 157.90 198.48 157.85 194.17 C 148.12 194.79 139.07 199.16 129.47 200.66 C 125.95 201.11 122.00 202.20 118.74 200.24 C 115.77 197.99 115.56 193.99 115.23 190.60 C 109.10 192.87 104.29 197.47 98.65 200.63 M 211.75 202.78 C 209.81 206.10 214.08 208.99 217.10 208.70 C 220.52 208.97 223.39 206.96 225.35 204.33 C 228.21 200.62 233.13 199.93 237.45 199.23 C 236.38 197.58 234.67 196.55 232.76 196.20 C 225.37 193.95 216.17 196.13 211.75 202.78 M 359.57 199.47 C 355.40 201.12 353.93 205.83 353.76 209.93 C 353.56 214.52 349.36 217.15 346.69 220.35 C 356.57 221.11 365.99 212.03 365.76 202.19 C 365.93 199.02 361.81 198.45 359.57 199.47 M 303.98 210.94 C 303.24 212.91 301.60 216.17 303.89 217.61 C 312.58 218.30 319.97 210.83 321.38 202.63 C 314.69 201.61 307.49 205.20 303.98 210.94 M 229.54 209.58 C 228.37 211.30 229.39 213.29 230.33 214.83 C 220.70 217.24 211.83 222.31 204.78 229.28 C 211.43 236.78 221.24 240.78 230.83 243.02 C 230.42 244.94 229.23 247.39 230.97 249.02 C 235.14 253.28 241.85 253.13 247.03 250.96 C 252.40 248.73 257.80 246.01 261.96 241.86 C 249.30 242.41 235.49 238.82 226.93 228.99 C 235.06 218.90 248.40 214.65 260.99 214.36 C 256.42 210.01 250.31 207.60 244.41 205.60 C 239.38 204.55 232.45 204.51 229.54 209.58 M 285.43 219.30 C 279.13 221.81 278.28 231.45 284.21 234.83 C 289.46 238.66 297.62 234.33 297.64 227.93 C 298.36 221.75 290.89 216.54 285.43 219.30 M 248.20 228.91 C 254.76 233.84 266.14 235.68 271.44 227.99 C 269.57 225.64 267.11 223.46 263.97 223.30 C 258.36 222.94 251.63 223.95 248.20 228.91 M 319.64 231.31 C 320.36 232.26 321.16 233.17 322.14 233.87 C 331.66 240.57 338.82 251.18 340.06 262.89 C 331.82 264.41 323.14 263.88 315.35 260.70 C 311.13 259.12 307.42 256.51 303.46 254.41 C 305.56 261.01 308.64 267.50 313.41 272.60 C 316.48 276.02 321.29 278.10 325.89 277.16 C 328.13 276.56 328.47 274.05 328.99 272.15 C 338.16 275.91 348.27 276.66 358.04 275.45 C 356.98 265.41 351.53 256.30 344.90 248.90 C 346.63 247.84 348.92 246.42 348.49 244.03 C 347.71 239.48 344.10 235.85 339.92 234.16 C 333.53 231.52 326.47 231.14 319.64 231.31 M 346.65 231.69 C 348.60 233.27 350.72 234.70 352.33 236.67 C 355.91 240.34 353.85 246.60 358.03 249.94 C 360.22 252.71 366.61 253.40 366.91 248.87 C 366.82 238.92 356.59 229.94 346.65 231.69 M 304.00 237.12 C 302.56 239.36 304.25 242.41 305.63 244.40 C 309.80 248.99 316.17 251.32 322.33 250.87 C 322.10 245.68 318.13 241.67 314.18 238.79 C 311.30 236.61 307.43 235.89 304.00 237.12 M 93.37 247.39 C 92.18 248.27 90.15 248.96 90.34 250.77 C 90.48 256.83 90.82 262.88 90.71 268.95 C 94.12 268.26 97.53 267.49 101.01 267.35 C 102.23 269.16 103.57 270.91 105.22 272.36 C 104.94 268.17 104.58 263.16 108.16 260.16 C 109.44 258.68 111.45 259.23 113.12 259.48 C 113.62 261.53 113.73 264.12 115.79 265.30 C 120.27 268.10 125.85 268.31 130.94 267.51 C 135.16 267.00 139.19 265.10 143.49 265.38 C 144.82 266.92 145.79 268.72 147.10 270.28 C 146.52 262.53 145.75 254.77 145.84 246.99 C 143.38 248.13 140.75 249.15 137.98 248.92 C 131.41 248.90 126.06 244.28 119.61 243.61 C 110.79 242.53 101.31 243.06 93.37 247.39 M 277.47 249.42 C 274.88 254.72 274.67 261.14 277.05 266.57 C 282.34 264.12 285.24 258.47 286.42 253.02 C 287.11 249.85 285.64 246.87 284.06 244.23 C 281.41 245.24 278.73 246.74 277.47 249.42 M 213.45 256.44 C 219.59 263.84 232.61 265.21 239.42 258.02 C 235.30 257.67 230.44 257.98 227.42 254.59 C 224.69 251.47 220.52 248.59 216.20 250.13 C 213.55 250.71 211.13 254.13 213.45 256.44 M 254.28 263.32 C 251.16 267.89 250.06 274.85 254.16 279.17 C 255.65 279.72 257.26 279.37 258.80 279.32 C 258.17 289.25 260.04 299.49 264.96 308.20 C 273.77 303.54 280.78 296.03 285.80 287.50 C 287.39 288.37 288.97 290.14 290.97 289.46 C 295.41 287.54 297.96 282.69 298.29 278.02 C 298.79 271.08 296.91 264.26 294.78 257.72 C 293.81 258.96 293.25 260.43 292.76 261.91 C 289.29 272.74 281.37 282.15 271.14 287.18 C 264.39 275.93 264.02 261.99 267.93 249.70 C 262.40 253.07 257.88 257.98 254.28 263.32 M 240.09 290.94 C 241.03 292.66 242.60 294.97 244.90 294.29 C 247.84 293.21 249.58 290.06 249.39 287.01 C 249.62 283.10 246.29 280.36 245.49 276.76 C 245.09 273.56 245.89 270.39 246.35 267.25 C 238.46 271.90 236.23 282.98 240.09 290.94 M 117.90 273.20 C 118.99 278.78 119.99 284.39 120.45 290.06 C 129.63 288.78 139.32 285.85 148.41 288.92 C 146.41 292.82 144.32 297.03 140.83 299.76 C 138.00 298.92 135.60 297.07 132.79 296.20 C 128.99 294.84 124.91 295.51 121.04 296.09 C 120.81 305.34 120.85 314.62 119.66 323.82 C 132.37 318.40 145.01 312.03 158.91 310.37 C 154.14 300.43 150.62 289.88 148.74 279.00 C 138.33 277.88 128.13 275.39 117.90 273.20 M 75.13 275.03 C 76.33 280.58 77.18 286.21 77.55 291.88 C 86.70 290.54 96.36 288.06 105.44 290.97 C 103.81 295.20 100.89 298.71 97.93 302.07 C 95.01 300.67 92.23 298.95 89.14 297.90 C 85.47 296.78 81.58 297.36 77.85 297.92 C 77.93 307.20 77.29 316.45 76.36 325.68 C 86.82 320.97 97.43 316.38 108.67 313.87 C 109.81 313.45 111.41 313.50 112.04 312.27 C 114.12 301.51 111.84 290.61 108.78 280.28 C 97.30 281.99 86.20 277.32 75.13 275.03 M 313.19 279.86 C 315.84 289.50 327.05 296.12 336.62 292.76 C 340.59 291.23 338.43 285.91 335.49 284.45 C 330.68 281.06 324.86 285.40 319.78 283.24 C 317.47 282.35 315.39 280.97 313.19 279.86 M 302.25 285.06 C 300.75 288.61 299.38 292.82 295.50 294.43 C 291.89 295.96 288.35 298.86 288.10 303.06 C 287.63 305.79 289.72 309.48 292.90 308.28 C 301.65 304.94 306.50 294.16 303.66 285.28 C 303.31 285.23 302.61 285.12 302.25 285.06 M 132.99 323.02 C 126.06 329.70 119.50 336.79 112.22 343.12 C 109.68 339.59 106.67 336.41 104.19 332.84 C 106.69 327.29 109.96 321.99 111.05 315.90 C 103.23 317.33 95.55 320.33 89.23 325.20 C 83.86 330.07 79.03 335.54 73.42 340.16 C 76.28 343.15 79.61 345.61 82.86 348.15 C 111.27 369.90 146.25 382.99 181.99 384.98 C 208.37 386.59 235.08 382.26 259.65 372.55 C 286.11 362.06 310.02 345.21 328.80 323.83 C 329.45 322.94 329.97 321.97 330.35 320.94 C 326.40 322.33 322.58 324.10 318.58 325.37 C 294.66 333.05 268.18 331.58 244.91 322.35 C 238.13 331.47 228.22 338.54 216.94 340.68 C 204.14 343.26 190.88 339.54 179.66 333.35 C 171.12 328.58 165.06 320.65 160.01 312.49 C 150.43 313.71 140.72 317.07 132.99 323.02 Z" />
</g>
</svg>
