<svg xmlns="http://www.w3.org/2000/svg" viewBox="0 0 512 512" style="height: 512px; width: 512px;"><g class="" transform="translate(0,0)" style=""><path transform="translate(-50, 120) rotate(-25)" d="M179.125 20.625c-28.052.12-54.046 5.813-66.72 9.78 0 0 114.968 19.51 124.532 98.876C149.573 3.32 54.28 155.657 54.28 155.657c19.868-5.212 76.76-20.682 114.75-14.156 25.992 4.465 51.33 28.03 50.236 27.733-61.943 15.24-160.35 290.92-143.64 313.308 14.9 17.12 29.816 11.28 44.718 2.595 7.376-58.425 64.938-314.765 135.375-294.072.01.003.02-.003.03 0 5.93 2.03 11.54 5.59 11.844 11.03.58 10.363-6.11 27.3-4.53 39.063 3.662 27.296 9.007 36.79 16.78 46.313 18.564-10.435 36.326-48.057 40-67.564 16.634 7.284 43.373 24.155 65.187 86.813 11.404-58.716-5.042-105.03-59.03-125.595 23.38-10.105 125.142 41.03 137.563 69.53C475.648 199.264 390.167 136.378 319 139.72c13.644-3.56 28.638.6 42.906-9.907 19.146-14.098 41.474-26.24 62.28-39.282-69.972-30.435-134.545-15.407-139.092 16.095-3.573-69.916-57.83-86.204-105.97-86z" fill="#000" fill-opacity="1"></path><path  transform="translate(0, 140)" d="M18 494l36.35-330.4c6.728 107.62 4.086 231.82 35.556 295.67 11.205-84.926 15.707-168.18 10.562-249.01 15.225 71.69 35.543 141.68 39.468 217.14 7.395-55.935 12.667-111.52 31.798-169.41-.76 65.19-17.16 124.9 12.677 157.47 14.433-51.01 28.992-101.9 31.46-164.88 21.27 61.862 18.342 135.82 24.948 205.02 8.417-68.06 15.28-257.84 46.907-318.17-3.11 124.98-3.862 223.94 27.398 274.23 30.897-38.673 33.566-114.44 34.28-186.34 21.812 61.75 36.457 132.1 37.857 218.34 8.626-71.955 18.667-143.91 43.39-215.86-5.748 88.29-1.284 156.95 19.525 194.17 13.76-55.55 25.504-111.1 29.12-166.66 18.42 82.78 13 159.59 16.706 238.69z" fill="#000" fill-opacity="1"></path></g></svg>