<!-- Generated by IcoMoon.io -->
<svg version="1.1" xmlns="http://www.w3.org/2000/svg" width="960" height="1024" viewBox="0 0 960 1024">
<title></title>
<g id="icomoon-ignore">
</g>
<path fill="#000" d="M214 430l216 380-416-44q-8 0-12-8t0-16zM14 630q-2 6-8 4t-6-8v-324q0-6 4-8t8 0l154 92zM36 848q-6-4-4-10t8-6l408 44v132q0 8-7 13t-15 1zM198 332l-162-98q-4-2-4-6t4-8l302-196q10-6 19 3t1 19zM480 352h-218l190-336q10-16 28-16t28 16l190 336h-218zM948 294q4-2 8 0t4 8v324q0 6-6 8t-8-4l-152-244zM762 332l-160-286q-4-8-2-15t9-9 13 2l302 196q4 4 4 8t-4 6zM920 832q6 0 8 6t-4 10l-390 174q-4 2-8 2t-7-2-5-6-2-8v-132zM746 430l212 312q4 8 0 16t-12 8l-416 44zM480 416h200l-200 352-200-352h200z"></path>
</svg>
