<!-- Generated by IcoMoon.io -->
<svg version="1.1" xmlns="http://www.w3.org/2000/svg" width="1024" height="1024" viewBox="0 0 1024 1024">
<title></title>
<g id="icomoon-ignore">
</g>
<path fill="#000" d="M512 548l218 108-118 368h-200l-118-368zM544 492v-214l362-130 102 206-246 248zM480 492l-218 110-246-248 102-206 362 130v214zM844 102l-332 120-332-120 176-88q28-14 58-14h196q30 0 58 14zM796 658l228-228v180q0 30-14 58l-94 190q-20 38-58 58l-172 84zM0 430l228 228 110 342-172-84q-38-20-58-58l-94-190q-14-28-14-58v-180z"></path>
</svg>
