<!-- Generated by IcoMoon.io -->
<svg version="1.1" xmlns="http://www.w3.org/2000/svg" width="1024" height="1024" viewBox="0 0 1024 1024">
<title></title>
<g id="icomoon-ignore">
</g>
<path fill="#000" d="M22 510q-12 4-18-7t2-21l384-468q8-12 20-4t8 22l-136 424zM742 456l-136-424q-4-14 8-22t20 4l384 468q8 10 2 21t-18 7zM528 12l146 460-162 114-162-114 146-460q4-12 16-12t16 12zM1010 584q10 2 13 13t-5 19l-444 404q-8 8-18 3t-10-17v-358l176-124zM14 584l288-60 176 124v358q0 12-10 17t-18-3l-444-404q-8-8-5-19t13-13z"></path>
</svg>
