<!-- Generated by IcoMoon.io -->
<svg version="1.1" xmlns="http://www.w3.org/2000/svg" width="1024" height="1024" viewBox="0 0 1024 1024">
<title></title>
<g id="icomoon-ignore">
</g>
<path fill="#000" d="M992 192q14 0 23 9t9 23v64q0 54-37 91t-91 37h-64v72l-256-92v-300q0-22 20-30t34 8l56 54h106q16 0 33 10t25 26l14 28h128zM768 288q14 0 23-9t9-23-9-23-23-9-23 9-9 23 9 23 23 9zM192 448h340l300 108v436q0 14-9 23t-23 9h-128q-14 0-23-9t-9-23v-224h-320v224q0 14-9 23t-23 9h-128q-14 0-23-9t-9-23v-428q-56-20-92-69t-36-111q0-26 19-45t45-19 45 19 19 45 19 45 45 19z"></path>
</svg>
