<!-- Generated by IcoMoon.io -->
<svg version="1.1" xmlns="http://www.w3.org/2000/svg" width="1024" height="1024" viewBox="0 0 1024 1024">
<title></title>
<g id="icomoon-ignore">
</g>
<path fill="#000" d="M28.791 511.996q-19.194 1.599-26.392-15.995t7.198-28.791l187.14-187.14q27.191-22.393 60.781-23.992t62.38 17.594l191.938 139.155v68.778q0 67.178 23.992 132.757h-356.686q-17.594 0-23.992-15.995t6.398-27.191l145.553-110.365zM919.705 566.379q51.184 25.592 79.175 73.576t24.792 103.967q-4.798 75.176-62.38 126.36t-134.357 51.184h-798.144q-12.796 0-20.793-7.997t-7.997-20.793q0-22.393 22.393-27.191 113.564-25.592 181.542-39.187t218.33-33.589 294.306-24.792q-71.977-47.985-112.764-123.96t-40.787-162.348v-174.344l-95.969-39.987q-6.398-3.199-6.398-11.196t6.398-11.196l95.969-39.987-99.168-79.974q-4.798-6.398-1.599-14.395t11.196-7.997h379.079q25.592 0 41.587 20.793l119.962 158.349q9.597 14.395 9.597 30.39 0 12.796-4.798 23.992l-23.992 44.786q-4.798 12.796-18.394 20.793t-26.392 7.997h-49.584q-22.393 0-36.788-14.395l-44.786-36.788h-102.367v59.181q0 19.194 12.796 39.187t30.39 29.591zM782.15 208.093q-4.798 19.194 6.398 32.789t28.791 15.195q30.39 1.599 38.388-28.791z"></path>
</svg>
