<!-- Generated by IcoMoon.io -->
<svg version="1.1" xmlns="http://www.w3.org/2000/svg" width="1024" height="1024" viewBox="0 0 1024 1024">
<title></title>
<g id="icomoon-ignore">
</g>
<path fill="#000" d="M224 448q-92 0-158-66t-66-158 66-158 158-66 158 66 66 158q0 16-4 32l-98-72q-8-24-27-44t-45-32-50-12q-54 0-91 37t-37 91q0 24 12 50t32 45 44 27l72 98q-16 4-32 4zM678 184l-98 72q-4-16-4-32 0-92 66-158t158-66 158 66 66 158-66 158-158 66q-16 0-32-4l72-98q36-12 62-48t26-74q0-54-37-91t-91-37q-38 0-74 26t-48 62zM346 840l98-72q4 16 4 32 0 92-66 158t-158 66-158-66-66-158 66-158 158-66q16 0 32 4l-72 98q-36 12-62 48t-26 74q0 54 37 91t91 37q38 0 74-26t48-62zM800 576q92 0 158 66t66 158-66 158-158 66-158-66-66-158q0-16 4-32l98 72q12 36 48 62t74 26q54 0 91-37t37-91q0-18-7-38t-19-36-28-29-34-19l-72-98q16-4 32-4zM802 288l-98 136v176l98 136q26 2 44 20t18 44-19 45-45 19q-12 0-24-5t-20-13-14-20-6-24l-136-98h-176l-136 98q0 16-9 31t-24 23-31 8q-26 0-45-19t-19-45 18-44 44-20l98-136v-176l-98-136q-12 0-24-6t-20-14-13-20-5-24q0-26 19-45t45-19 44 18 20 44l136 98h176l136-98q0-16 9-31t24-23 31-8q26 0 45 19t19 45q0 16-8 31t-23 24-31 9z"></path>
</svg>
