<!-- Generated by IcoMoon.io -->
<svg version="1.1" xmlns="http://www.w3.org/2000/svg" width="1024" height="1024" viewBox="0 0 1024 1024">
<title></title>
<g id="icomoon-ignore">
</g>
<path fill="#000" d="M258 390q22 14 12 40t-12 54q-4 28-30 28h-194q-10 0-17-5t-12-12-3-17q6-92 44-178 6-12 20-16t26 4zM638 16q14 4 20 17t0 25l-74 208q-8 22-30 22h-84q-22 0-30-22l-74-208q-6-12 0-25t20-17q62-16 126-16t126 16zM224 576q14 0 23 9t9 23v128q0 14-9 23t-23 9h-192q-14 0-23-9t-9-23v-128q0-14 9-23t23-9h192zM224 832q14 0 23 9t9 23v128q0 14-9 23t-23 9h-192q-14 0-23-9t-9-23v-128q0-14 9-23t23-9h192zM378 264q10 24-12 40-18 12-34 28-18 18-40 4l-166-102q-12-8-15-22t7-26q60-72 144-120 12-6 25-1t19 19zM796 512q-26 0-30-28-2-28-12-54t12-40l166-102q12-8 26-4t20 16q38 86 44 178 2 14-8 24t-24 10h-194zM906 186q10 12 7 26t-15 22l-166 102q-22 14-40-4-16-16-34-28-22-16-12-40l72-180q6-14 19-19t25 1q84 48 144 120zM992 576q14 0 23 9t9 23v128q0 14-9 23t-23 9h-192q-14 0-23-9t-9-23v-128q0-14 9-23t23-9h192zM992 832q14 0 23 9t9 23v128q0 14-9 23t-23 9h-192q-14 0-23-9t-9-23v-128q0-14 9-23t23-9h192zM480 356q20-4 32-4t32 4v588q0 16-16 16h-32q-16 0-16-16v-588zM352 438q24-36 64-60v566q0 16-16 16h-32q-16 0-16-16v-506zM608 378q40 24 64 60v506q0 16-16 16h-32q-16 0-16-16v-566z"></path>
</svg>
