<?xml version="1.0" encoding="UTF-8" ?>
<!DOCTYPE svg PUBLIC "-//W3C//DTD SVG 1.1//EN" "http://www.w3.org/Graphics/SVG/1.1/DTD/svg11.dtd">
<svg width="512pt" height="512pt" viewBox="0 0 512 512" version="1.1" xmlns="http://www.w3.org/2000/svg">
<g id="#010101ff">
<path fill="#000" opacity="1.00" d=" M 231.69 3.64 C 235.05 2.33 238.29 0.23 242.02 0.34 C 251.01 0.36 260.00 0.36 268.99 0.34 C 271.68 0.20 274.14 1.41 276.56 2.44 C 295.66 10.75 315.02 18.52 334.02 27.04 C 338.37 34.85 341.74 43.22 345.80 51.21 C 348.73 55.79 346.01 61.19 345.68 66.10 C 343.48 74.74 340.14 83.05 337.34 91.51 C 334.59 98.24 334.70 105.62 333.59 112.70 C 313.37 113.77 293.16 114.81 272.95 115.95 C 266.63 117.52 261.55 122.24 255.39 124.33 C 249.98 122.00 245.07 118.63 239.68 116.27 C 236.82 115.58 233.83 115.73 230.92 115.54 C 213.09 114.58 195.26 113.66 177.44 112.68 C 176.63 107.50 176.32 102.25 175.38 97.10 C 171.68 83.70 165.06 71.04 163.93 57.01 C 163.28 54.70 164.57 52.59 165.50 50.57 C 169.35 42.72 173.01 34.76 176.81 26.88 C 195.15 19.24 213.38 11.35 231.69 3.64 M 217.23 50.21 C 212.61 51.33 209.25 56.26 210.19 60.98 C 210.90 65.92 216.03 69.52 220.92 68.70 C 226.07 68.05 229.92 62.61 228.72 57.53 C 227.82 52.42 222.27 48.82 217.23 50.21 M 288.35 50.49 C 281.66 52.52 279.93 62.28 285.40 66.57 C 290.59 71.41 300.04 67.82 300.83 60.79 C 302.18 54.03 294.72 48.00 288.35 50.49 Z" />
<path fill="#000" opacity="1.00" d=" M 114.02 82.02 C 127.83 74.09 141.58 66.06 155.39 58.12 C 157.26 64.73 158.31 71.59 161.00 77.95 C 163.21 83.42 165.25 88.97 167.49 94.44 C 169.99 100.47 170.66 107.03 172.27 113.32 C 165.17 114.05 157.91 113.89 151.03 116.04 C 146.90 117.33 142.41 117.59 138.53 119.54 C 133.48 123.55 128.74 127.93 123.82 132.10 C 105.89 130.22 87.96 128.18 70.04 126.20 C 72.86 116.97 75.68 107.74 78.57 98.53 C 90.33 92.91 102.29 87.71 114.02 82.02 Z" />
<path fill="#000" opacity="1.00" d=" M 349.97 78.00 C 352.58 71.60 353.81 64.77 355.60 58.12 C 366.04 64.11 376.42 70.19 386.86 76.18 C 401.27 85.12 417.24 91.07 432.43 98.52 C 435.30 107.73 438.08 116.97 441.01 126.15 C 424.38 128.13 407.73 129.80 391.10 131.76 C 389.38 131.82 387.31 132.49 385.97 131.03 C 382.15 127.87 378.45 124.56 374.71 121.30 C 371.06 117.54 365.44 117.79 360.77 116.23 C 353.65 113.98 346.14 114.11 338.79 113.27 C 340.23 107.27 340.89 101.04 343.21 95.28 C 345.48 89.53 347.71 83.76 349.97 78.00 Z" />
<path fill="#000" opacity="1.00" d=" M 151.08 124.46 C 154.67 123.54 158.15 121.75 161.93 121.81 C 187.59 124.06 213.25 126.30 238.92 128.46 C 240.40 128.67 242.11 128.58 243.25 129.74 C 245.83 132.05 248.67 134.19 250.77 136.96 C 251.05 176.88 250.83 216.83 250.88 256.77 C 242.55 258.75 234.18 260.58 225.86 262.60 C 219.73 264.50 214.30 268.10 208.36 270.47 C 206.95 271.06 205.39 270.66 203.93 270.62 C 185.65 268.81 167.35 267.14 149.07 265.37 C 146.81 265.39 144.97 264.09 143.34 262.69 C 137.34 257.64 131.14 252.84 125.12 247.82 C 123.30 227.03 121.61 206.23 119.74 185.44 C 119.54 183.18 120.33 181.01 120.93 178.88 C 125.00 165.42 128.57 151.81 132.78 138.40 C 135.27 134.76 138.80 131.94 141.72 128.64 C 144.04 125.86 147.87 125.59 151.08 124.46 Z" />
<path fill="#000" opacity="1.00" d=" M 342.02 122.42 C 346.03 122.16 350.19 121.20 354.08 122.64 C 358.44 124.11 362.97 125.08 367.21 126.88 C 369.84 128.82 371.87 131.46 374.21 133.73 C 375.92 135.62 378.14 137.30 378.78 139.89 C 382.56 152.90 386.24 165.94 390.09 178.93 C 390.87 181.51 391.51 184.19 391.12 186.91 C 389.32 207.22 387.64 227.54 385.87 247.85 C 379.25 253.19 372.67 258.59 366.04 263.91 C 364.70 265.13 362.86 265.32 361.14 265.48 C 342.76 267.13 324.40 268.98 306.02 270.71 C 303.04 271.31 300.47 269.43 297.88 268.29 C 293.31 266.20 288.98 263.43 284.04 262.33 C 276.07 260.46 268.08 258.64 260.12 256.76 C 260.06 217.84 260.16 178.92 260.07 140.00 C 260.22 138.64 259.75 136.95 260.98 135.96 C 263.50 133.52 265.97 130.96 268.87 128.97 C 271.87 128.24 275.01 128.30 278.08 127.97 C 299.39 126.14 320.71 124.30 342.02 122.42 Z" />
<path fill="#000" opacity="1.00" d=" M 37.00 150.04 C 45.33 143.99 53.46 137.68 61.81 131.67 C 82.76 134.36 103.81 136.11 124.82 138.21 C 120.24 151.64 116.23 165.26 111.77 178.73 C 110.44 182.54 111.10 186.61 111.20 190.55 C 111.80 209.72 112.49 228.88 113.10 248.05 C 103.14 252.07 93.16 256.06 83.23 260.16 C 80.66 261.38 77.80 260.68 75.11 260.41 C 64.84 259.10 54.48 258.25 44.25 256.72 C 39.20 252.16 34.82 246.88 30.07 242.00 C 31.49 212.64 32.90 183.27 34.30 153.91 C 33.99 152.00 35.75 151.05 37.00 150.04 Z" />
<path fill="#000" opacity="1.00" d=" M 386.20 138.08 C 407.24 136.25 428.27 134.31 449.22 131.66 C 457.55 137.72 465.71 144.01 474.04 150.06 C 475.30 151.06 476.99 152.10 476.70 153.98 C 478.11 183.33 479.51 212.69 480.93 242.04 C 476.13 246.87 471.85 252.27 466.72 256.74 C 456.50 258.24 446.18 259.10 435.92 260.41 C 433.26 260.66 430.42 261.38 427.88 260.18 C 417.88 256.10 407.85 252.07 397.83 248.03 C 398.60 228.53 399.14 209.03 399.85 189.53 C 399.92 185.68 400.37 181.69 399.00 177.99 C 394.64 164.72 390.57 151.35 386.20 138.08 Z" />
<path fill="#000" opacity="1.00" d=" M 26.97 247.79 C 30.96 251.47 34.35 255.79 38.46 259.32 C 44.13 261.02 50.12 261.43 55.79 263.13 C 57.51 264.54 57.82 267.07 58.85 268.97 C 52.32 271.18 45.57 272.74 39.14 275.21 C 35.43 278.53 32.82 282.94 29.54 286.68 C 27.23 278.59 23.04 270.59 24.19 261.95 C 24.48 257.13 25.94 252.49 26.97 247.79 Z" />
<path fill="#000" opacity="1.00" d=" M 472.56 259.31 C 476.65 255.75 480.09 251.49 484.02 247.76 C 485.99 256.10 488.63 265.07 485.66 273.49 C 484.26 277.89 482.95 282.33 481.60 286.75 C 478.38 283.14 475.71 279.06 472.38 275.55 C 465.88 272.74 458.86 271.21 452.13 269.01 C 453.10 267.06 453.59 264.75 455.12 263.14 C 460.82 261.39 466.87 261.08 472.56 259.31 Z" />
<path fill="#000" opacity="1.00" d=" M 84.10 262.96 C 93.42 260.13 102.75 257.36 112.06 254.52 C 111.43 259.49 111.16 264.52 111.74 269.52 C 102.43 268.45 93.10 267.57 83.79 266.42 C 83.87 265.56 84.02 263.83 84.10 262.96 Z" />
<path fill="#000" opacity="1.00" d=" M 398.94 254.57 C 408.30 257.33 417.64 260.16 426.98 262.97 C 426.96 264.16 426.94 265.36 426.92 266.56 C 417.69 267.48 408.48 268.52 399.26 269.52 C 399.77 264.53 399.58 259.53 398.94 254.57 Z" />
<path fill="#000" opacity="1.00" d=" M 61.03 262.90 C 66.08 262.89 71.14 262.82 76.19 262.76 C 76.11 263.49 75.93 264.96 75.84 265.70 C 71.39 266.42 66.95 267.16 62.50 267.85 C 62.01 266.19 61.52 264.54 61.03 262.90 Z" />
<path fill="#000" opacity="1.00" d=" M 214.83 277.10 C 228.42 272.39 242.00 267.64 255.62 263.03 C 269.11 267.79 282.67 272.38 296.17 277.11 C 291.43 285.33 286.65 293.53 281.88 301.74 C 279.42 305.77 279.24 310.62 278.19 315.11 C 271.75 316.97 265.31 318.82 258.87 320.63 C 257.30 320.97 255.68 321.66 254.08 321.11 C 246.95 319.25 239.91 317.11 232.82 315.13 C 231.70 310.68 231.63 305.82 229.20 301.81 C 224.36 293.60 219.55 285.38 214.83 277.10 Z" />
<path fill="#000" opacity="1.00" d=" M 434.78 262.77 C 439.83 262.75 444.88 262.85 449.93 262.96 C 449.45 264.59 448.96 266.22 448.49 267.85 C 444.07 267.15 439.65 266.45 435.23 265.76 C 435.12 265.01 434.89 263.52 434.78 262.77 Z" />
<path fill="#000" opacity="1.00" d=" M 47.94 276.02 C 57.62 273.88 67.25 271.52 76.90 269.21 C 80.28 268.06 83.71 269.34 87.04 270.04 C 95.87 272.10 104.77 273.90 113.58 276.10 C 113.63 294.04 113.82 311.99 113.96 329.93 C 114.01 334.06 113.29 338.13 112.73 342.21 C 110.48 358.88 108.15 375.53 105.92 392.19 C 96.03 394.54 86.17 396.99 76.25 399.17 C 65.75 381.89 55.19 364.64 44.64 347.38 C 43.58 345.72 42.93 343.86 42.54 341.94 C 39.10 325.68 35.32 309.49 31.92 293.22 C 35.76 288.27 39.32 283.10 43.20 278.17 C 44.25 276.60 46.29 276.51 47.94 276.02 Z" />
<path fill="#000" opacity="1.00" d=" M 397.45 276.06 C 407.62 273.62 417.86 271.47 428.05 269.11 C 431.71 268.02 435.36 269.64 438.92 270.38 C 448.25 272.57 457.55 274.86 466.91 276.94 C 470.95 282.39 474.99 287.83 479.06 293.26 C 475.69 309.40 471.95 325.47 468.50 341.61 C 467.79 346.14 464.75 349.72 462.53 353.58 C 453.31 368.81 443.96 383.96 434.73 399.19 C 424.83 396.94 414.96 394.58 405.10 392.21 C 402.58 373.76 400.06 355.32 397.52 336.87 C 396.78 331.95 397.10 326.96 397.11 322.01 C 397.22 306.69 397.36 291.38 397.45 276.06 Z" />
<path fill="#000" opacity="1.00" d=" M 135.04 272.04 C 157.27 274.19 179.48 276.52 201.72 278.57 C 206.57 285.97 211.19 293.53 215.98 300.98 C 217.98 303.90 218.88 307.36 219.87 310.72 C 213.28 309.13 206.74 307.33 200.17 305.69 C 198.31 305.22 196.38 305.11 194.48 305.28 C 175.62 307.16 156.75 309.04 137.87 310.82 C 136.94 297.89 135.98 284.96 135.04 272.04 Z" />
<path fill="#000" opacity="1.00" d=" M 309.28 278.58 C 331.51 276.48 353.73 274.21 375.96 272.04 C 375.05 284.97 373.99 297.90 373.16 310.84 C 353.44 309.01 333.75 306.84 314.02 305.18 C 306.28 306.44 298.78 308.98 291.14 310.77 C 292.12 307.40 293.02 303.91 295.02 300.97 C 299.82 293.54 304.42 285.97 309.28 278.58 Z" />
<path fill="#000" opacity="1.00" d=" M 142.62 317.60 C 156.04 316.05 169.44 313.70 183.00 314.07 C 191.54 314.32 200.43 312.54 208.63 315.68 C 221.93 319.52 235.08 323.82 248.24 328.09 C 245.16 356.01 241.99 383.93 238.83 411.84 C 225.20 410.22 211.58 408.58 197.96 406.92 C 195.94 406.63 193.89 406.74 191.92 407.24 C 179.32 410.09 166.74 413.06 154.10 415.76 C 150.34 383.03 146.51 350.31 142.62 317.60 Z" />
<path fill="#000" opacity="1.00" d=" M 262.76 328.07 C 277.50 323.32 292.21 318.51 307.11 314.32 C 310.00 313.52 313.02 313.86 315.97 313.89 C 324.32 314.14 332.68 313.95 341.03 314.36 C 350.16 315.28 359.25 316.53 368.37 317.54 C 364.52 350.28 360.65 383.01 356.89 415.75 C 343.21 412.98 329.70 409.33 315.99 406.77 C 301.32 408.05 286.72 410.32 272.05 411.79 C 269.16 383.86 265.75 355.99 262.76 328.07 Z" />
<path fill="#000" opacity="1.00" d=" M 95.11 399.43 C 99.49 397.70 103.86 395.94 108.20 394.11 C 109.06 395.15 109.91 396.18 110.77 397.23 C 105.82 399.16 100.83 401.00 95.84 402.85 C 95.61 401.70 95.36 400.56 95.11 399.43 Z" />
<path fill="#000" opacity="1.00" d=" M 400.11 397.14 C 401.01 396.18 401.89 395.20 402.88 394.32 C 407.32 395.71 411.51 397.80 415.87 399.44 C 415.63 400.57 415.41 401.70 415.20 402.85 C 410.16 400.95 405.09 399.17 400.11 397.14 Z" />
<path fill="#000" opacity="1.00" d=" M 111.42 399.42 C 114.46 398.33 116.40 401.69 117.05 404.15 C 120.80 415.57 113.54 428.99 101.96 432.17 C 89.53 436.39 74.89 427.06 73.42 414.04 C 73.00 412.00 74.16 409.80 76.30 409.44 C 82.81 408.22 89.69 409.37 96.00 406.95 C 101.49 405.17 106.01 401.34 111.42 399.42 Z" />
<path fill="#000" opacity="1.00" d=" M 397.35 399.38 C 401.66 398.95 405.10 402.43 408.80 404.15 C 415.14 408.04 422.67 408.88 429.95 408.88 C 432.82 409.01 437.48 409.01 437.59 412.95 C 437.09 422.77 428.79 431.28 419.17 432.79 C 413.27 433.95 407.06 432.28 402.24 428.78 C 394.66 423.41 391.08 412.95 393.99 404.09 C 394.57 402.25 395.44 400.18 397.35 399.38 Z" />
<path fill="#000" opacity="1.00" d=" M 76.31 402.02 C 80.90 401.37 85.51 400.78 90.11 400.19 C 90.37 401.80 90.61 403.41 90.86 405.03 C 85.67 405.57 80.48 406.08 75.29 406.60 C 75.62 405.07 75.96 403.54 76.31 402.02 Z" />
<path fill="#000" opacity="1.00" d=" M 420.67 400.29 C 425.37 400.68 430.04 401.38 434.71 402.04 C 435.03 403.55 435.37 405.06 435.70 406.57 C 430.53 406.05 425.37 405.57 420.20 405.08 C 420.34 403.48 420.50 401.88 420.67 400.29 Z" />
<path fill="#000" opacity="1.00" d=" M 192.95 412.12 C 195.22 411.55 197.57 410.82 199.92 411.40 C 210.80 413.59 221.68 415.78 232.56 418.00 C 228.49 433.68 224.11 449.28 220.13 464.98 C 212.56 468.52 204.90 471.87 197.33 475.40 C 194.76 476.83 191.77 476.22 188.99 476.07 C 183.03 475.53 177.06 475.20 171.11 474.65 C 168.61 465.16 165.20 455.93 162.87 446.40 C 161.80 437.81 160.96 429.18 160.13 420.56 C 171.08 417.81 182.04 415.06 192.95 412.12 Z" />
<path fill="#000" opacity="1.00" d=" M 278.48 417.98 C 289.35 415.76 300.23 413.62 311.10 411.39 C 313.98 410.70 316.79 411.91 319.56 412.56 C 329.98 415.25 340.41 417.97 350.86 420.58 C 349.96 429.40 349.25 438.25 347.97 447.03 C 345.56 456.35 342.44 465.48 339.76 474.72 C 332.82 475.21 325.89 475.78 318.95 476.27 C 315.01 476.85 311.66 474.31 308.19 472.90 C 302.55 470.06 296.50 468.04 291.08 464.82 C 286.56 449.31 282.61 433.60 278.48 417.98 Z" />
<path fill="#000" opacity="1.00" d=" M 202.95 478.42 C 207.94 476.02 212.91 473.56 217.96 471.26 C 218.18 473.81 218.40 476.36 218.61 478.91 C 214.88 481.39 211.20 483.93 207.40 486.29 C 205.92 483.66 204.42 481.04 202.95 478.42 Z" />
<path fill="#000" opacity="1.00" d=" M 293.00 471.23 C 298.04 473.54 302.97 476.07 308.02 478.35 C 306.57 481.02 305.07 483.66 303.58 486.32 C 299.76 483.93 296.04 481.39 292.35 478.81 C 292.59 476.28 292.80 473.75 293.00 471.23 Z" />
<path fill="#000" opacity="1.00" d=" M 165.22 481.07 C 167.33 480.01 169.51 478.54 171.99 478.99 C 180.17 479.94 188.32 481.11 196.48 482.27 C 198.04 484.45 199.61 486.62 201.17 488.80 C 194.83 493.90 188.41 498.92 182.15 504.13 C 178.95 506.69 175.32 508.77 172.72 512.00 L 171.34 512.00 C 163.89 507.83 154.84 507.84 147.39 503.65 C 143.67 501.44 140.09 498.99 136.42 496.70 C 146.01 491.48 155.66 486.35 165.22 481.07 Z" />
<path fill="#000" opacity="1.00" d=" M 315.08 482.34 C 322.62 480.78 330.36 480.25 337.98 479.07 C 341.62 478.15 344.71 480.59 347.73 482.18 C 356.62 487.05 365.59 491.79 374.50 496.63 C 368.52 500.39 362.88 505.14 355.82 506.70 C 350.46 508.47 344.59 509.00 339.72 512.00 L 338.30 512.00 C 329.22 503.79 319.27 496.60 309.82 488.82 C 311.50 486.63 312.78 483.95 315.08 482.34 Z" />
</g>
</svg>
