<?xml version="1.0" encoding="UTF-8" ?>
<!DOCTYPE svg PUBLIC "-//W3C//DTD SVG 1.1//EN" "http://www.w3.org/Graphics/SVG/1.1/DTD/svg11.dtd">
<svg width="512pt" height="512pt" viewBox="0 0 512 512" version="1.1" xmlns="http://www.w3.org/2000/svg">
<g id="#030303ff">
<path fill="#000" opacity="1.00" d=" M 245.01 0.00 L 266.66 0.00 C 283.96 0.96 301.25 2.80 318.22 6.39 C 354.46 13.96 390.05 27.66 419.53 50.44 C 443.96 69.14 461.93 95.41 472.98 123.96 C 483.57 151.47 487.88 181.82 482.61 210.99 C 479.58 228.36 471.97 244.45 464.08 260.07 C 455.57 276.52 445.11 291.98 432.78 305.81 C 428.95 310.32 424.57 314.43 421.43 319.47 C 419.82 321.68 420.41 324.49 421.25 326.87 C 423.79 334.28 428.53 341.03 429.16 349.01 C 429.67 354.30 427.60 360.04 422.92 362.88 C 412.62 369.26 399.80 368.73 389.06 374.03 C 380.09 378.66 377.66 390.09 368.93 394.98 C 364.25 397.68 359.28 394.60 354.79 393.10 C 350.41 391.39 345.63 391.24 341.20 389.77 C 339.67 389.28 339.56 387.39 339.37 386.07 C 338.71 375.76 341.68 365.39 339.64 355.13 C 339.04 351.82 336.71 348.22 332.97 348.25 C 329.08 347.91 325.86 350.92 324.48 354.31 C 320.62 363.42 321.14 373.81 316.77 382.75 C 315.21 386.04 312.43 388.84 308.83 389.76 C 298.07 392.85 286.89 395.77 275.61 394.60 C 272.96 394.13 269.16 393.96 268.43 390.73 C 267.08 385.22 268.24 379.52 268.36 373.95 C 268.84 364.92 268.63 355.20 263.77 347.27 C 261.75 343.90 256.75 343.24 253.83 345.78 C 248.32 350.13 245.65 357.11 245.02 363.93 C 243.81 372.54 245.52 381.33 244.01 389.90 C 243.48 393.72 239.20 394.21 236.14 394.77 C 224.35 396.52 211.82 394.51 201.34 388.79 C 193.13 383.08 192.39 372.13 190.36 363.19 C 189.10 357.89 188.02 351.01 182.31 348.71 C 178.34 347.02 173.69 349.51 172.80 353.70 C 169.88 364.62 173.59 375.87 172.63 386.92 C 172.46 388.18 172.01 389.82 170.59 390.16 C 165.86 391.37 160.93 391.77 156.35 393.53 C 152.17 394.93 147.46 397.55 143.21 394.88 C 134.73 389.73 131.89 378.71 122.98 374.05 C 112.44 368.85 99.96 369.22 89.72 363.28 C 85.34 360.84 82.79 355.95 82.81 351.00 C 82.66 342.78 87.40 335.72 90.25 328.32 C 91.28 325.53 92.51 322.14 90.58 319.44 C 86.98 313.83 82.03 309.26 77.79 304.15 C 63.40 287.78 51.82 269.08 42.64 249.35 C 38.36 240.02 34.15 230.59 31.57 220.62 C 27.17 204.16 26.29 186.90 27.92 169.99 C 31.30 137.36 43.90 105.76 63.64 79.58 C 83.54 52.94 112.38 34.33 142.82 21.83 C 175.24 8.51 210.09 1.79 245.01 0.00 M 104.16 151.27 C 100.04 159.15 97.20 167.68 95.69 176.43 C 93.54 188.80 92.54 201.42 93.54 213.95 C 93.54 216.63 93.95 219.86 91.87 221.93 C 90.18 223.09 87.89 223.52 86.01 222.56 C 78.21 219.39 74.15 211.10 66.90 207.25 C 63.50 219.22 66.02 232.73 72.94 243.03 C 79.29 252.91 88.57 261.33 99.89 264.98 C 103.90 266.23 107.79 268.13 110.67 271.26 C 117.09 277.99 121.90 286.06 128.22 292.89 C 137.96 303.61 148.95 313.73 162.31 319.70 C 169.98 323.22 178.97 323.74 186.89 320.75 C 198.01 316.70 205.55 306.52 209.98 295.94 C 216.43 280.17 217.54 262.86 218.10 246.01 C 217.89 233.54 217.36 220.76 213.08 208.91 C 180.21 194.64 148.98 175.89 122.76 151.31 C 119.11 147.99 115.75 144.35 111.99 141.15 C 108.43 143.67 106.17 147.50 104.16 151.27 M 386.75 153.77 C 361.07 177.17 330.82 195.12 299.04 208.95 C 293.34 225.96 293.66 244.28 294.88 261.97 C 296.36 277.58 299.02 293.87 308.24 306.98 C 313.84 315.25 322.80 321.59 332.91 322.53 C 342.00 323.72 350.80 319.90 358.36 315.23 C 368.94 308.50 378.07 299.74 386.22 290.27 C 392.01 283.64 396.51 275.90 402.97 269.87 C 407.65 265.51 414.37 264.97 419.72 261.78 C 430.84 255.51 439.56 245.11 444.21 233.27 C 446.70 224.91 448.15 215.46 445.06 207.09 C 438.11 211.53 433.74 219.42 425.93 222.65 C 423.13 223.98 419.07 222.31 418.82 218.98 C 418.08 213.67 419.38 208.35 419.11 203.02 C 418.46 186.02 416.67 168.51 408.94 153.08 C 406.64 148.70 404.33 143.95 400.04 141.18 C 395.50 145.27 391.32 149.73 386.75 153.77 Z" />
<path fill="#000" opacity="1.00" d=" M 165.20 406.27 C 168.74 405.98 174.00 404.23 176.19 408.09 C 177.26 412.74 175.39 417.38 174.85 421.99 C 173.69 428.49 175.84 434.95 177.99 441.01 C 179.52 445.25 182.54 449.51 187.13 450.68 C 189.54 451.27 191.72 449.20 192.22 446.97 C 194.28 439.81 193.52 432.27 192.70 424.99 C 192.53 419.38 191.91 412.44 196.42 408.27 C 200.98 405.23 206.19 408.94 211.02 409.12 C 221.32 409.94 231.91 410.55 241.99 407.84 C 244.99 408.08 245.85 411.43 245.98 413.92 C 246.60 423.85 245.44 434.25 249.21 443.71 C 251.82 450.43 258.86 454.86 265.98 454.89 C 269.23 454.44 270.55 450.83 270.76 447.96 C 271.72 439.35 267.41 431.48 266.38 423.11 C 265.92 418.58 265.13 413.53 267.34 409.34 C 269.55 406.43 273.19 408.93 276.05 409.15 C 284.29 410.15 292.67 409.86 300.93 409.13 C 305.46 408.92 309.85 405.97 314.40 407.56 C 318.57 409.62 319.15 414.88 319.42 419.01 C 319.65 428.40 316.89 437.98 319.87 447.20 C 320.42 449.33 322.54 451.23 324.85 450.69 C 329.20 449.60 332.20 445.66 333.76 441.66 C 335.48 437.23 336.88 432.63 337.42 427.90 C 338.07 421.51 335.01 415.40 335.59 409.02 C 335.76 406.83 338.04 405.72 340.01 405.70 C 344.34 405.57 348.59 406.80 352.93 406.77 C 357.41 407.00 362.84 407.14 365.91 410.94 C 367.65 412.97 366.97 415.70 366.41 418.05 C 364.00 427.25 366.84 436.77 365.57 446.09 C 364.02 461.64 355.13 475.40 344.20 486.14 C 332.73 497.91 316.98 504.40 301.13 507.75 C 280.11 512.17 258.44 512.36 237.06 511.27 C 214.87 509.65 191.49 505.50 173.58 491.36 C 160.39 480.25 149.11 465.38 146.67 447.89 C 144.90 437.57 148.27 426.96 145.33 416.77 C 144.27 413.93 145.43 410.63 148.05 409.12 C 153.26 406.10 159.49 407.19 165.20 406.27 Z" />
</g>
</svg>
