<?xml version="1.0" encoding="UTF-8" ?>
<!DOCTYPE svg PUBLIC "-//W3C//DTD SVG 1.1//EN" "http://www.w3.org/Graphics/SVG/1.1/DTD/svg11.dtd">
<svg width="460pt" height="460pt" viewBox="0 0 460 460" version="1.1" xmlns="http://www.w3.org/2000/svg">
<g>
<path fill="#000" opacity="1.00" d=" M 209.41 15.56 C 213.36 7.58 221.85 1.72 230.96 2.48 C 239.22 2.72 246.50 8.21 250.04 15.52 C 261.96 16.93 273.78 19.19 285.32 22.51 C 291.00 17.73 298.82 15.30 306.12 17.30 C 315.62 19.53 322.46 28.50 323.03 38.12 C 333.58 43.88 343.51 50.70 352.95 58.13 C 360.57 55.66 369.54 56.82 375.48 62.47 C 382.43 68.38 384.64 78.48 381.83 87.01 C 389.22 96.31 395.82 106.21 401.67 116.53 C 405.06 117.81 408.90 117.94 412.01 119.99 C 420.02 124.41 424.46 134.15 422.80 143.10 C 422.16 147.34 419.78 151.02 417.22 154.36 C 420.53 165.88 422.88 177.68 424.22 189.60 C 433.28 193.79 438.88 204.29 436.71 214.13 C 435.47 221.16 430.40 226.91 424.19 230.17 C 422.92 242.17 420.41 253.99 417.26 265.63 C 420.17 269.14 422.42 273.31 422.94 277.89 C 424.29 286.81 419.36 296.15 411.42 300.33 C 408.36 302.04 404.87 302.67 401.46 303.29 C 395.90 313.86 388.96 323.64 381.61 333.03 C 383.82 339.99 383.24 348.01 378.74 353.96 C 373.12 362.01 362.07 365.11 352.93 361.73 C 341.51 371.15 329.02 379.25 315.69 385.69 C 325.58 409.49 335.41 433.31 345.22 457.14 C 335.23 457.15 325.25 457.21 315.26 457.11 C 306.83 436.80 298.49 416.45 289.91 396.20 C 276.94 400.42 263.53 403.17 249.98 404.70 C 246.43 411.93 239.18 417.40 230.99 417.75 C 221.96 418.43 213.18 412.90 209.47 404.71 C 195.91 403.13 182.47 400.46 169.49 396.21 C 160.97 416.49 152.64 436.86 144.14 457.15 C 134.10 457.17 124.06 457.17 114.02 457.15 C 123.84 433.31 133.73 409.51 143.56 385.68 C 130.48 379.16 118.05 371.29 106.73 362.02 C 98.86 364.28 89.64 363.27 83.64 357.28 C 76.91 351.31 74.87 341.40 77.63 332.98 C 70.21 323.62 63.37 313.75 57.73 303.20 C 49.98 302.50 42.40 298.30 38.88 291.17 C 34.44 283.10 36.03 272.64 42.11 265.85 C 39.10 254.15 36.53 242.32 35.21 230.30 C 29.56 227.32 24.74 222.37 23.18 216.05 C 20.54 207.24 24.11 196.94 31.89 191.93 C 33.18 190.77 35.52 190.18 35.47 188.10 C 36.80 176.67 39.09 165.37 42.24 154.30 C 36.46 147.87 34.56 138.18 38.17 130.24 C 41.39 122.33 49.47 117.28 57.85 116.75 C 63.60 106.19 70.32 96.18 77.86 86.83 C 75.03 78.50 76.95 68.57 83.71 62.68 C 89.76 56.80 98.99 55.52 106.83 58.11 C 116.11 50.49 126.19 43.92 136.67 38.09 C 137.17 30.15 141.71 22.45 149.00 18.99 C 157.13 14.73 167.46 16.47 174.21 22.53 C 185.73 19.24 197.51 16.90 209.41 15.56 M 180.88 41.80 C 179.77 48.44 175.91 54.34 170.31 58.07 C 186.44 97.06 202.62 136.03 218.81 175.00 C 221.40 174.44 224.00 173.94 226.61 173.47 C 226.56 131.25 226.60 89.02 226.59 46.80 C 219.93 45.64 214.12 41.61 210.42 36.00 C 200.40 36.89 190.55 39.09 180.88 41.80 M 249.30 35.99 C 245.66 41.67 239.78 45.65 233.10 46.74 C 233.06 88.96 233.01 131.17 233.12 173.38 C 234.83 173.69 236.54 174.01 238.25 174.33 C 254.47 135.02 270.72 95.72 286.96 56.42 C 282.69 52.57 279.65 47.48 278.72 41.77 C 269.09 39.07 259.27 36.94 249.30 35.99 M 120.25 73.12 C 121.70 79.99 120.31 87.25 116.19 92.96 C 146.02 122.73 175.73 152.62 205.63 182.32 C 207.86 180.52 210.20 178.86 212.64 177.35 C 196.48 138.39 180.36 99.41 164.14 60.48 C 157.54 61.78 150.58 60.50 145.12 56.51 C 136.42 61.39 128.04 66.88 120.25 73.12 M 292.08 59.49 C 276.19 98.37 260.28 137.24 244.37 176.11 C 247.33 177.58 250.20 179.24 252.94 181.10 C 282.63 151.28 312.57 121.69 342.12 91.74 C 341.17 88.80 339.36 86.15 338.95 83.04 C 338.29 79.75 338.73 76.40 339.18 73.12 C 331.35 66.96 323.12 61.29 314.36 56.51 C 307.98 61.25 299.49 62.18 292.08 59.49 M 257.35 185.75 C 259.25 188.24 261.00 190.84 262.60 193.54 C 301.47 177.38 340.39 161.34 379.27 145.22 C 377.63 138.44 379.06 131.24 383.01 125.52 C 378.41 116.65 372.70 108.37 366.43 100.61 C 359.59 102.14 352.35 100.56 346.79 96.30 C 316.98 126.12 287.14 155.92 257.35 185.75 M 92.85 100.57 C 86.63 108.35 81.07 116.64 76.19 125.32 C 80.28 131.19 81.71 138.67 79.78 145.60 C 118.60 162.01 157.63 177.93 196.57 194.07 C 197.97 191.68 199.44 189.34 200.97 187.04 C 171.13 157.14 141.25 127.28 111.37 97.42 C 105.85 100.87 99.19 101.92 92.85 100.57 M 265.06 199.45 C 265.59 202.34 266.04 205.26 266.43 208.18 C 308.54 208.19 350.64 208.18 392.75 208.18 C 393.57 200.93 397.68 194.38 403.84 190.47 C 402.69 180.52 400.73 170.67 397.99 161.04 C 391.50 160.16 385.77 156.47 382.06 151.11 C 343.08 167.27 304.03 183.27 265.06 199.45 M 61.24 161.25 C 58.65 170.91 56.40 180.71 55.50 190.69 C 61.77 194.47 65.95 201.08 66.67 208.37 C 108.79 208.34 150.91 208.37 193.03 208.35 C 193.41 205.56 193.84 202.77 194.31 200.00 C 155.21 183.86 116.14 167.65 77.04 151.53 C 73.27 156.72 67.58 160.25 61.24 161.25 M 66.31 214.84 C 64.76 220.94 60.90 226.16 55.60 229.54 C 56.74 239.43 58.76 249.19 61.41 258.78 C 68.34 259.87 74.44 264.05 78.12 270.00 C 117.09 254.00 155.96 237.75 194.92 221.72 C 194.32 219.43 193.74 217.13 193.19 214.84 C 150.90 214.83 108.61 214.82 66.31 214.84 M 266.03 214.66 C 265.51 217.14 264.97 219.61 264.42 222.08 C 303.32 238.20 342.23 254.31 381.16 270.38 C 384.79 264.26 390.92 259.87 397.97 258.67 C 400.72 249.04 402.69 239.19 403.84 229.25 C 398.53 225.95 394.87 220.64 393.13 214.68 C 350.76 214.63 308.39 214.68 266.03 214.66 M 80.35 275.97 C 81.53 282.47 80.00 289.16 76.19 294.54 C 81.20 303.14 86.56 311.56 92.84 319.30 C 99.21 318.11 105.87 319.17 111.37 322.66 C 141.26 292.77 171.14 262.89 201.03 233.00 C 199.76 231.16 198.51 229.31 197.27 227.46 C 158.30 243.63 119.31 259.78 80.35 275.97 M 257.32 234.32 C 287.16 264.12 316.96 293.96 346.81 323.76 C 352.49 319.57 359.77 318.11 366.65 319.65 C 372.78 311.80 378.49 303.60 383.26 294.84 C 379.69 289.48 378.08 282.99 379.12 276.59 C 340.08 260.37 301.04 244.11 261.90 228.16 C 260.15 230.03 258.81 232.24 257.32 234.32 M 116.17 327.11 C 120.50 332.71 121.86 340.04 120.48 346.92 C 130.11 354.75 140.64 361.43 151.73 366.97 C 169.34 324.21 187.07 281.49 204.66 238.72 C 175.07 268.09 145.69 297.66 116.17 327.11 M 256.65 242.82 C 273.53 284.29 290.89 325.57 307.93 366.97 C 319.04 361.45 329.47 354.63 339.18 346.91 C 337.82 340.59 338.87 333.92 342.35 328.44 C 313.81 299.87 285.34 271.23 256.65 242.82 M 226.51 258.40 C 210.01 298.02 193.67 337.70 177.23 377.34 C 188.05 380.66 199.16 382.95 210.39 384.35 C 214.03 378.61 219.83 374.42 226.58 373.26 C 226.55 334.97 226.69 296.69 226.51 258.40 M 232.95 258.50 C 232.87 296.68 232.75 334.88 233.01 373.05 C 239.49 374.75 245.50 378.32 249.10 384.12 C 260.38 382.83 271.54 380.45 282.41 377.14 C 265.89 337.60 249.58 297.98 232.95 258.50 Z" />
</g>
</svg>
