<!-- Generated by IcoMoon.io -->
<svg version="1.1" xmlns="http://www.w3.org/2000/svg" width="1280" height="1024" viewBox="0 0 1280 1024">
<title></title>
<g id="icomoon-ignore">
</g>
<path fill="#000" d="M726 128q108 0 215 49t178 115 116 128 45 92-45 92-116 128-178 115-215 49q-136 0-260-72t-210-172l-194 158q-22 18-44 4t-18-38l54-264-54-264q-4-24 18-38t44 4l194 158q86-100 210-172t260-72zM492 524q4 4 11 4t11-4l170-170q4-4 4-11t-4-11l-24-24q-4-4-11-4t-11 4l-170 170q-4 4-4 11t4 11zM610 684l298-298q4-4 4-11t-4-11l-24-24q-4-4-11-4t-11 4l-298 298q-4 4-4 11t4 11l24 24q4 4 11 4t11-4zM1004 546q4-4 4-11t-4-11l-24-24q-4-4-11-4t-11 4l-170 170q-4 4-4 11t4 11l24 24q4 4 11 4t11-4z"></path>
</svg>
