<!-- Generated by IcoMoon.io -->
<svg version="1.1" xmlns="http://www.w3.org/2000/svg" width="768" height="1024" viewBox="0 0 768 1024">
<title></title>
<g id="icomoon-ignore">
</g>
<path fill="#000" d="M512 320h-96q-16 0-32 6v-294q0-14 9-23t23-9h64q14 0 23 9t9 23v288zM768 512v176q0 34-16 73t-40 63l-72 72v128h-512v-128l-54-54q-74-74-74-180v-156q16 6 32 6h64q36 0 64-24 28 24 64 24h64q22 0 44-12 24 52 78 70-42 36-96 116l-12 18q-2 4-2 10 0 8 6 14l28 16q4 4 8 4 8 0 14-8l12-18q36-54 60-81t56-45 76-20q16 0 16-16v-32q0-16-26-16h-70q-40 0-68-28t-28-68q0-14 9-23t23-9h224q52 0 90 37t38 91zM704 332q-34-12-64-12h-64v-224q0-14 9-23t23-9h64q14 0 23 9t9 23v236zM32 448q-14 0-23-9t-9-23v-256q0-14 9-23t23-9h64q14 0 23 9t9 23v256q0 14-9 23t-23 9h-64zM224 448q-14 0-23-9t-9-23v-320q0-14 9-23t23-9h64q14 0 23 9t9 23v320q0 14-9 23t-23 9h-64z"></path>
</svg>
