<!-- Generated by IcoMoon.io -->
<svg version="1.1" xmlns="http://www.w3.org/2000/svg" width="832" height="1024" viewBox="0 0 832 1024">
<title></title>
<g id="icomoon-ignore">
</g>
<path fill="#000" d="M160 96v-64q0-14 9-23t23-9h448q14 0 23 9t9 23v64q0 14-9 23t-23 9h-448q-14 0-23-9t-9-23zM336 576q20 0 34 14t14 34-14 34-34 14-34-14-14-34 14-34 34-14zM832 714q-4 154-106 268-38 42-96 42h-428q-58 0-94-40-108-120-108-280 0-118 61-216t163-152v-144h384v146q68 36 119 93t79 130 26 153zM640 624q0-72-66-124t-158-52-158 52-66 124q0 92 96 144v64q0 14 9 23t23 9h192q14 0 23-9t9-23v-64q96-52 96-144zM496 576q20 0 34 14t14 34-14 34-34 14-34-14-14-34 14-34 34-14z"></path>
</svg>
