<!-- Generated by IcoMoon.io -->
<svg version="1.1" xmlns="http://www.w3.org/2000/svg" width="832" height="1024" viewBox="0 0 832 1024">
<title></title>
<g id="icomoon-ignore">
</g>
<path fill="#000" d="M832 714q-4 154-106 268-38 42-96 42h-428q-58 0-94-40-108-120-108-280 0-118 61-216t163-152v-144h128v222q-2 0-23 10t-35 19-39 24-42 34-36 44-31 57-16 68q190-94 364-8 14 8 27 13t24 9 25 7 23 5 22 4 20 3 20 1h49q0-60-20-109t-58-83-64-51-68-39q-2-2-4-3t-5-2-5-3v-222h128v146q102 56 164 157t60 219zM192 128q-14 0-23-9t-9-23v-64q0-14 9-23t23-9h448q14 0 23 9t9 23v64q0 14-9 23t-23 9h-448z"></path>
</svg>
