<!-- Generated by IcoMoon.io -->
<svg version="1.1" xmlns="http://www.w3.org/2000/svg" width="1024" height="1024" viewBox="0 0 1024 1024">
<title></title>
<g id="icomoon-ignore">
</g>
<path fill="#000" d="M992 640q14 0 24 10t8 24q-16 148-144 249t-304 101h-128q-176 0-304-101t-144-249q-2-14 8-24t24-10h94q190 0 322 116v-194q-30 14-64 14-66 0-113-47t-47-113q0-32 19-70t45-58q-26-20-45-58t-19-70q0-66 47-113t113-47q32 0 70 19t58 45q20-26 58-45t70-19q66 0 113 47t47 113q0 32-19 70t-45 58q16 12 31 34t24 47 9 47q0 66-47 113t-113 47q-34 0-64-14v194q132-116 322-116h94zM512 384q40 0 68-28t28-68-28-68-68-28-68 28-28 68 28 68 68 28z"></path>
</svg>
