<?xml version="1.0" encoding="UTF-8" ?>
<!DOCTYPE svg PUBLIC "-//W3C//DTD SVG 1.1//EN" "http://www.w3.org/Graphics/SVG/1.1/DTD/svg11.dtd">
<svg width="450pt" height="450pt" viewBox="0 0 450 450" version="1.1" xmlns="http://www.w3.org/2000/svg">
<g>
<path fill="#000000" opacity="1.00" d=" M 111.20 7.06 C 113.55 5.25 115.30 2.38 118.01 1.21 C 141.25 12.47 164.36 24.04 187.55 35.41 C 192.28 37.95 197.61 39.68 201.41 43.64 C 206.61 48.61 209.22 55.87 208.89 63.00 C 208.59 69.98 209.85 77.28 207.11 83.93 C 205.19 88.97 201.45 93.13 196.99 96.08 C 183.70 105.54 170.43 115.03 157.16 124.50 C 157.21 124.74 157.31 125.21 157.37 125.44 C 179.92 135.97 202.38 146.70 224.96 157.18 C 225.05 167.33 225.01 177.48 224.99 187.63 C 180.43 165.63 135.91 143.51 91.38 121.45 C 89.66 121.05 89.25 118.81 90.98 118.10 C 124.36 96.80 157.79 75.56 191.17 54.25 C 193.72 53.11 193.39 49.19 190.76 48.37 C 164.26 34.56 137.73 20.81 111.20 7.06 Z" />
<path fill="#000000" opacity="1.00" d=" M 102.42 15.00 C 123.89 25.64 145.18 36.70 166.60 47.46 C 167.98 47.75 169.53 49.76 167.60 50.56 C 129.32 72.31 91.00 94.00 52.70 115.72 C 47.92 117.83 48.21 125.31 53.04 127.20 C 110.35 158.85 167.67 190.48 224.98 222.13 C 225.02 230.31 225.08 238.49 224.92 246.67 C 188.95 255.18 154.62 270.07 123.11 289.30 C 122.19 290.06 121.26 288.92 120.43 288.60 C 91.30 271.01 62.10 253.54 32.97 235.95 C 22.99 230.05 16.70 218.58 16.99 207.00 C 17.00 182.35 16.97 157.71 17.01 133.07 C 16.87 123.86 20.70 114.66 27.48 108.40 C 32.05 103.91 38.14 101.62 43.71 98.69 C 68.47 86.07 93.30 73.60 118.03 60.92 C 111.09 56.83 103.99 53.02 97.01 49.00 C 96.90 40.65 97.03 32.29 97.01 23.94 C 96.74 20.05 99.88 17.41 102.42 15.00 Z" />
<path fill="#000000" opacity="1.00" d=" M 338.95 50.97 C 342.31 48.58 347.06 48.27 350.53 50.61 C 381.32 70.08 412.06 89.62 442.86 109.09 C 445.13 110.63 448.37 111.86 448.84 114.93 C 449.13 118.97 449.11 123.05 448.86 127.09 C 448.85 129.16 446.97 130.39 445.65 131.68 C 437.01 139.01 429.93 149.34 429.70 161.03 C 433.93 161.03 438.56 160.40 442.38 162.68 C 446.77 165.07 449.36 170.08 449.01 175.04 C 449.02 226.69 448.99 278.33 449.02 329.98 C 448.98 333.69 449.21 337.44 448.60 341.12 C 447.17 348.68 440.61 354.63 433.09 355.86 C 378.37 368.62 328.89 402.45 297.38 449.00 L 169.21 449.00 C 178.92 429.54 190.52 411.00 204.17 394.05 C 239.42 350.34 286.00 316.72 336.38 292.48 C 352.12 284.91 368.31 278.27 384.95 272.97 C 385.03 259.65 385.00 246.32 384.97 233.00 C 385.08 221.81 380.12 210.71 371.76 203.29 C 363.78 195.98 352.71 192.23 341.93 193.14 C 326.25 194.05 311.91 205.31 307.07 220.22 C 304.41 227.53 305.10 235.39 304.99 243.01 C 305.08 253.01 304.93 263.01 305.03 273.01 C 288.29 277.25 272.11 283.43 256.25 290.20 C 193.87 317.42 137.37 359.88 97.70 415.56 C 90.02 426.29 83.11 437.55 76.58 449.00 L 0.95 449.00 C 8.18 436.66 15.40 424.28 23.68 412.60 C 53.81 368.83 92.56 330.79 137.86 302.86 C 169.62 283.54 204.28 268.15 240.97 261.28 C 241.00 232.51 241.02 203.74 240.96 174.97 C 240.77 170.52 242.73 165.98 246.44 163.41 C 250.39 160.39 255.61 160.99 260.28 160.94 C 260.11 148.76 252.75 137.94 243.40 130.66 C 240.46 128.73 241.03 124.99 240.96 121.97 C 241.07 118.22 239.98 113.17 244.06 111.06 C 275.68 91.02 307.32 71.00 338.95 50.97 Z" />
</g>
</svg>
