<?xml version="1.0" encoding="UTF-8" ?>
<!DOCTYPE svg PUBLIC "-//W3C//DTD SVG 1.1//EN" "http://www.w3.org/Graphics/SVG/1.1/DTD/svg11.dtd">
<svg width="512pt" height="512pt" viewBox="0 0 512 512" version="1.1" xmlns="http://www.w3.org/2000/svg">
<g id="#010101ff">
<path fill="#000" opacity="1.00" d=" M 227.99 8.10 C 239.03 1.50 252.44 -0.90 265.10 1.26 C 281.17 3.86 295.78 14.11 303.73 28.32 C 311.50 41.71 312.95 58.44 308.06 73.09 C 301.70 92.31 284.02 107.09 263.97 109.95 C 264.10 105.42 263.67 100.87 264.02 96.35 C 264.50 96.11 265.46 95.64 265.95 95.40 C 265.51 94.12 265.07 92.85 264.65 91.58 C 266.54 90.92 268.43 90.26 270.32 89.59 C 270.86 91.18 271.40 92.77 271.94 94.36 C 275.67 92.70 280.46 91.22 281.90 86.94 C 282.81 83.03 278.92 80.65 276.20 78.76 C 275.81 80.19 275.42 81.63 275.04 83.08 C 273.12 82.60 271.19 82.13 269.28 81.66 C 269.67 80.01 270.07 78.35 270.47 76.69 C 267.72 76.14 264.96 75.63 262.19 75.19 C 261.60 77.58 261.01 79.97 260.42 82.36 C 258.48 81.84 256.54 81.33 254.61 80.82 C 255.10 78.84 255.58 76.85 256.07 74.87 C 253.36 75.01 250.66 75.18 247.96 75.39 C 248.39 77.21 248.83 79.03 249.28 80.84 C 247.34 81.33 245.41 81.82 243.49 82.30 C 242.99 80.38 242.48 78.47 241.99 76.55 C 237.45 78.22 231.36 79.71 229.84 84.98 C 229.50 89.93 234.95 92.19 238.69 93.96 C 239.39 92.43 240.09 90.90 240.80 89.37 C 242.61 90.19 244.41 91.01 246.22 91.83 C 245.69 93.04 245.17 94.25 244.65 95.46 C 245.17 95.55 246.21 95.74 246.73 95.83 C 246.54 100.46 246.59 105.10 246.59 109.74 C 231.40 107.05 217.45 97.86 209.33 84.70 C 202.10 73.38 199.41 59.33 201.73 46.12 C 204.29 30.39 214.26 16.12 227.99 8.10 M 226.27 48.29 C 219.94 50.52 218.85 59.96 224.36 63.69 C 229.34 67.66 237.62 64.28 238.37 57.95 C 239.77 51.43 232.30 45.52 226.27 48.29 M 278.43 48.49 C 272.36 51.02 271.57 60.42 277.24 63.83 C 282.55 67.86 291.06 63.65 291.09 57.00 C 291.68 50.58 284.18 45.44 278.43 48.49 Z" />
<path fill="#000" opacity="1.00" d=" M 188.44 44.32 C 190.90 42.18 194.18 41.54 197.29 41.00 C 195.05 50.55 195.08 60.48 197.28 70.04 C 192.66 69.61 188.06 67.53 185.49 63.52 C 181.28 57.63 182.72 48.71 188.44 44.32 Z" />
<path fill="#000" opacity="1.00" d=" M 314.56 41.03 C 319.22 41.40 323.84 43.55 326.40 47.61 C 330.48 53.42 329.15 62.15 323.59 66.55 C 321.09 68.81 317.71 69.52 314.48 70.03 C 316.82 60.51 316.75 50.57 314.56 41.03 Z" />
<path fill="#000" opacity="1.00" d=" M 189.46 83.62 C 192.60 81.13 196.35 79.63 200.20 78.62 C 208.12 97.65 226.20 112.01 246.61 115.14 C 246.72 121.74 246.32 128.37 246.77 134.97 C 247.48 137.15 250.59 136.17 250.18 134.03 C 250.41 127.89 250.19 121.74 250.26 115.60 C 253.60 115.75 256.93 115.82 260.28 115.74 C 260.40 127.77 260.11 139.83 260.41 151.86 C 260.64 154.39 264.54 153.46 263.90 151.05 C 264.00 139.14 263.93 127.22 263.92 115.31 C 284.91 112.66 303.50 98.02 311.72 78.63 C 315.28 79.62 318.84 80.89 321.79 83.20 C 333.92 92.38 346.00 101.64 358.12 110.84 C 361.80 113.57 364.97 117.08 366.74 121.36 C 377.79 146.66 388.69 172.03 399.71 197.34 C 404.03 205.98 404.29 215.84 406.04 225.18 C 407.86 224.38 409.78 223.90 411.77 223.72 C 411.47 224.29 410.87 225.41 410.58 225.97 C 409.19 226.83 407.89 227.79 406.61 228.80 C 407.20 231.74 407.72 234.69 408.25 237.65 C 410.43 235.08 412.18 231.07 416.07 230.98 C 417.21 231.15 419.44 230.73 418.87 232.60 C 417.78 234.19 415.16 233.38 413.95 234.91 C 412.22 236.80 410.61 238.80 408.67 240.48 C 409.16 243.99 409.75 247.48 410.60 250.93 C 411.84 248.67 412.47 246.12 413.83 243.92 C 415.64 241.87 418.60 242.82 420.92 243.06 C 420.58 246.08 417.76 245.07 415.77 245.82 C 414.75 248.76 413.91 252.02 410.82 253.50 C 410.92 254.15 411.11 255.46 411.21 256.11 C 412.49 255.88 413.79 255.65 415.08 255.42 C 415.20 252.21 417.49 249.96 420.73 250.20 C 420.10 251.45 419.37 252.63 418.54 253.75 C 418.07 254.88 417.69 256.05 417.10 257.12 C 415.64 258.45 413.49 258.36 411.69 258.84 C 411.80 259.58 412.02 261.07 412.13 261.81 C 415.20 261.74 418.31 261.97 421.37 261.46 C 422.44 259.04 422.16 256.02 423.95 253.96 C 425.38 252.43 427.46 253.53 429.15 253.89 C 428.81 254.30 428.14 255.11 427.81 255.52 C 423.31 255.76 425.99 261.85 422.74 263.69 C 419.53 264.98 415.99 264.34 412.63 264.46 C 412.72 265.06 412.89 266.25 412.98 266.84 C 414.96 266.49 416.94 266.21 418.94 265.98 C 418.88 266.61 418.77 267.89 418.71 268.52 C 416.95 268.93 415.20 269.34 413.47 269.82 C 413.85 272.07 414.25 274.32 414.68 276.57 C 416.67 274.64 418.08 272.09 420.41 270.55 C 423.06 269.16 425.34 271.62 427.13 273.24 C 425.19 274.96 423.36 273.08 421.36 273.04 C 419.42 275.27 417.71 277.76 415.08 279.27 C 415.30 280.69 415.54 282.11 415.77 283.54 C 417.84 282.81 419.88 282.00 421.87 281.05 C 422.35 281.48 423.32 282.33 423.81 282.76 C 421.52 284.36 418.94 285.46 416.24 286.16 C 417.49 295.15 419.46 304.05 420.47 313.07 C 421.45 325.04 411.90 336.61 400.03 338.10 C 391.98 339.31 383.42 336.15 378.22 329.85 C 375.00 326.23 373.35 321.53 372.56 316.82 C 369.18 296.57 365.89 276.31 362.48 256.07 C 361.98 252.78 360.94 249.38 362.06 246.09 C 368.41 222.27 364.79 197.14 358.26 173.76 C 356.42 173.76 354.59 173.77 352.76 173.78 C 359.37 196.71 363.05 221.42 356.96 244.89 C 352.74 261.31 342.21 275.89 327.95 285.04 C 307.62 298.29 282.74 302.01 258.91 302.33 C 235.01 302.36 210.13 299.15 189.25 286.75 C 174.64 278.15 163.24 264.16 158.44 247.84 C 151.09 223.61 154.89 197.64 161.75 173.77 C 159.91 173.76 158.08 173.77 156.24 173.78 C 150.29 195.19 146.73 217.89 151.02 239.96 C 151.77 243.17 150.93 246.41 150.43 249.58 C 146.54 272.42 142.92 295.30 139.00 318.13 C 138.01 324.29 134.62 330.04 129.53 333.70 C 121.82 339.48 110.51 339.94 102.45 334.59 C 94.67 329.73 90.17 320.14 91.53 311.05 C 92.81 302.79 94.26 294.56 95.61 286.31 C 92.59 285.69 89.69 284.56 87.19 282.72 C 87.69 282.30 88.70 281.48 89.20 281.07 C 91.34 282.24 93.65 283.04 96.03 283.59 C 96.27 282.22 96.52 280.86 96.77 279.49 C 93.37 278.19 91.35 275.13 89.13 272.45 C 87.72 274.05 85.71 274.65 83.88 273.23 C 85.72 271.35 88.47 268.98 91.16 270.81 C 93.21 272.77 94.74 275.22 97.07 276.90 C 97.48 274.83 97.87 272.77 98.28 270.71 C 96.52 269.41 94.43 268.84 92.30 268.58 C 92.24 267.93 92.11 266.62 92.05 265.97 C 94.47 266.13 96.85 266.66 99.14 267.44 C 99.05 266.77 98.86 265.43 98.77 264.76 C 95.33 264.02 91.63 265.03 88.31 263.71 C 84.97 261.88 87.71 255.77 83.18 255.51 C 82.85 255.10 82.18 254.29 81.85 253.88 C 83.55 253.50 85.62 252.46 87.10 253.94 C 88.87 255.95 88.69 258.84 89.15 261.32 C 92.62 261.93 96.16 261.79 99.67 261.88 C 99.80 260.86 99.94 259.84 100.08 258.83 C 98.03 258.37 95.55 258.66 93.91 257.12 C 93.30 256.05 92.94 254.86 92.48 253.73 C 91.58 252.64 90.83 251.46 90.23 250.19 C 91.63 250.51 93.44 250.28 94.48 251.49 C 95.17 252.80 95.61 254.21 96.25 255.55 C 97.70 255.84 99.19 255.91 100.66 256.05 C 100.75 255.42 100.92 254.16 101.01 253.54 C 97.18 252.59 96.27 248.86 95.14 245.63 C 93.89 245.06 92.47 245.51 91.15 245.53 C 90.93 244.92 90.50 243.71 90.28 243.11 C 92.53 242.81 95.30 241.97 97.14 243.82 C 98.77 246.14 98.79 249.39 101.25 251.19 C 102.06 247.76 102.62 244.28 103.01 240.78 C 100.30 239.24 98.64 236.58 96.58 234.36 C 94.94 233.43 91.83 234.11 91.98 231.43 C 97.37 229.07 100.48 234.80 103.41 238.13 C 103.98 235.45 104.46 232.75 105.01 230.06 C 103.79 228.34 102.25 226.88 100.34 225.96 C 100.05 225.40 99.46 224.26 99.17 223.70 C 101.55 223.75 103.77 224.59 105.67 226.00 C 107.14 217.78 107.67 209.29 110.41 201.35 C 121.72 175.08 133.17 148.87 144.52 122.61 C 146.25 118.33 148.96 114.42 152.68 111.64 C 164.95 102.31 177.20 92.96 189.46 83.62 M 200.31 153.50 C 197.11 154.45 193.42 156.39 192.75 159.99 C 192.88 163.72 197.44 164.61 200.43 164.22 C 204.57 163.71 209.74 161.64 210.57 157.04 C 209.69 152.53 203.83 152.46 200.31 153.50 M 307.29 153.42 C 304.79 153.92 303.06 156.90 304.65 159.15 C 307.50 163.28 313.20 164.97 317.99 163.97 C 320.43 163.59 322.71 160.92 321.28 158.47 C 318.53 153.88 312.30 152.19 307.29 153.42 M 255.21 252.24 C 250.29 253.18 247.39 259.44 250.38 263.62 C 253.72 269.06 263.15 268.08 264.99 261.84 C 266.97 256.16 260.75 250.50 255.21 252.24 Z" />
<path fill="#000" opacity="1.00" d=" M 250.57 92.87 C 252.47 92.24 254.38 91.60 256.28 90.96 C 257.29 93.08 257.17 96.72 260.28 96.83 C 260.35 101.34 260.28 105.85 260.27 110.36 C 256.93 110.46 253.59 110.43 250.25 110.30 C 250.26 105.65 250.27 101.01 250.27 96.36 L 251.86 96.34 C 251.54 95.47 250.90 93.74 250.57 92.87 Z" />
<path fill="#000" opacity="1.00" d=" M 162.19 268.47 C 163.64 270.86 166.85 272.98 166.10 276.13 C 165.76 278.63 165.43 281.13 165.21 283.66 C 177.22 291.57 188.22 301.07 200.90 307.96 C 200.42 309.66 199.93 311.36 199.45 313.07 C 187.25 307.00 176.83 298.04 165.57 290.47 C 166.55 293.74 167.90 297.12 170.80 299.16 C 185.40 310.22 199.10 322.38 213.13 334.13 C 210.67 322.82 208.19 311.53 205.76 300.22 C 207.71 300.82 209.66 301.43 211.61 302.03 C 220.31 341.95 229.03 381.86 237.68 421.78 C 241.64 420.66 245.75 419.59 249.89 420.23 C 255.55 421.03 261.24 422.15 266.98 421.64 C 271.67 421.02 275.47 417.88 278.85 414.79 C 283.59 377.97 288.48 341.16 293.29 304.34 C 295.15 303.91 297.00 303.49 298.86 303.07 C 297.37 314.16 295.97 325.27 294.50 336.37 C 308.42 325.34 322.10 313.98 336.31 303.32 C 339.16 301.13 342.35 299.31 344.74 296.59 C 347.34 293.43 347.67 289.15 348.07 285.25 C 334.20 295.26 320.93 306.26 305.91 314.57 C 305.19 312.92 304.46 311.28 303.74 309.65 C 319.33 300.90 333.10 289.35 347.57 278.94 C 347.40 277.74 347.23 276.55 347.07 275.36 C 348.48 273.52 349.89 271.67 351.29 269.81 C 353.76 280.39 355.47 293.27 347.34 301.94 C 348.64 358.96 349.96 415.99 351.31 473.01 C 351.63 479.33 352.14 486.01 349.16 491.85 C 341.99 507.12 323.10 514.24 307.14 510.61 C 295.59 508.23 284.76 499.23 283.14 487.11 C 280.04 466.43 277.12 445.73 274.07 425.05 C 266.45 428.56 257.82 426.87 249.88 425.59 C 245.62 424.78 241.45 426.36 237.44 427.61 C 234.75 445.09 232.35 462.62 229.74 480.12 C 228.95 485.44 228.54 491.01 225.79 495.77 C 220.81 504.73 210.91 510.11 200.92 511.24 C 186.23 513.10 170.00 506.19 163.10 492.70 C 160.18 487.30 159.90 481.04 160.46 475.06 C 161.84 416.97 163.19 358.87 164.52 300.78 C 157.78 291.34 159.64 279.02 162.19 268.47 Z" />
<path fill="#000" opacity="1.00" d=" M 219.58 304.59 C 221.43 304.65 223.27 304.78 225.11 304.93 C 230.24 327.91 234.56 351.12 241.24 373.72 C 239.57 374.32 237.90 374.92 236.24 375.52 C 229.28 352.24 224.81 328.30 219.58 304.59 Z" />
<path fill="#000" opacity="1.00" d=" M 231.93 306.13 C 233.80 306.32 235.68 306.51 237.56 306.71 C 239.53 315.04 241.55 323.36 243.49 331.69 C 241.76 332.11 240.03 332.51 238.30 332.92 C 236.16 323.99 234.06 315.06 231.93 306.13 Z" />
<path fill="#000" opacity="1.00" d=" M 279.80 306.52 C 281.64 306.24 283.49 306.00 285.33 305.74 C 280.67 340.71 275.82 375.66 271.20 410.65 C 269.42 410.36 267.65 410.08 265.88 409.80 C 270.48 375.37 275.25 340.96 279.80 306.52 Z" />
</g>
</svg>
