<!-- Generated by IcoMoon.io -->
<svg version="1.1" xmlns="http://www.w3.org/2000/svg" width="1152" height="1024" viewBox="0 0 1152 1024">
<title></title>
<g id="icomoon-ignore">
</g>
<path fill="#000" d="M448 448q-76 0-134-58t-58-134v-64q0-80 56-136t136-56h256q80 0 136 56t56 136v68q0 112-84 194t-200 88l-36 2 108-106q84-84 84-182v-64q0-26-19-45t-45-19h-256q-26 0-45 19t-19 45v64q0 22 19 43t45 21q56 0 104-16t68-32l20-16q0 80-56 136t-136 56zM1130 656q22 20 21 50t-23 48l-302 242q-36 28-80 28h-714q-14 0-23-9t-9-23v-192q0-14 9-23t23-9h110l94-76q64-52 148-52h320q20 0 35 10t23 28 6 36q-4 24-24 39t-44 15h-156q-14 0-23 9t-9 23 9 23 23 9h236q46 0 80-28l186-148q18-14 42-15t42 15z"></path>
</svg>
