<svg height="461pt" viewBox="-54 0 461 461.76" width="461pt" xmlns="http://www.w3.org/2000/svg">
	<path fill="#000" d="m234.796875 279.769531c2.863281-6.417969 4.703125-13.371093 5.3125-20.679687-1.386719-16.386719-15-29.328125-31.730469-29.328125-10.109375 0-19.429687 4.734375-25.582031 13l-6.417969 8.605469-6.414062-8.613282c-6.160156-8.265625-15.480469-13-25.585938-13-16.734375 0-30.351562 12.941406-31.726562 29.324219.609375 7.3125 2.441406 14.273437 5.3125 20.683594 5.765625 8.429687 15.445312 13.980469 26.414062 13.980469 10.113282 0 19.433594-4.734376 25.585938-13l6.414062-8.605469 6.417969 8.617187c6.160156 8.261719 15.480469 13 25.582031 13 10.96875 0 20.65625-5.554687 26.417969-13.984375zm0 0"/>
	<path fill="#000" d="m207.4375 309.664062c-11.648438-.230468-22.5625-4.535156-31.058594-12.265624-8.503906 7.730468-19.40625 12.042968-31.054687 12.265624 9.207031 5.136719 19.792969 8.089844 31.054687 8.089844 11.265625 0 21.847656-2.953125 31.058594-8.089844zm0 0"/>
	<path fill="#000" d="m136.378906 178.441406 4.6875-4.6875-4.6875-4.691406c-4.277344-4.261719-11.71875-4.261719-16 0l-4.6875 4.691406 4.6875 4.6875c4.28125 4.261719 11.722656 4.261719 16 0zm0 0"/>
	<path fill="#000" d="m192.378906 381.753906c0 8.835938-7.164062 16-16 16-8.835937 0-16-7.164062-16-16 0-8.839844 7.164063-16 16-16 8.835938 0 16 7.160156 16 16zm0 0"/>
	<path fill="#000" d="m202.898438 363.863281c9.402343-8.742187 12.832031-20.472656 13.480468-23.046875v-17.886718c-11.78125 6.839843-25.421875 10.824218-40 10.824218-14.574218 0-28.214844-3.984375-40-10.824218v17.886718c.648438 2.574219 4.082032 14.304688 13.480469 23.046875 5.761719-8.503906 15.496094-14.101562 26.519531-14.101562 11.023438 0 20.761719 5.589843 26.519532 14.101562zm0 0"/>
	<path fill="#000" d="m192.378906 85.753906c0-3.441406-1.144531-6.84375-3.199218-9.609375l-12.800782-17.054687-12.808594 17.0625c-2.046874 2.757812-3.191406 6.167968-3.191406 9.601562 0 8.820313 7.175782 16 16 16 8.824219 0 16-7.179687 16-16zm0 0"/>
	<path fill="#000" d="m268.804688 188.726562c-1.328126 5.410157-2.90625 10.769532-5 15.992188-3.234376 8.097656-5.3125 16.480469-6.441407 25.035156h13.121094c12.917969 0 24.535156-7.179687 30.3125-18.738281 2.351563-4.671875 3.582031-9.917969 3.582031-15.152344v-27.855469l-.101562.023438c-12.960938 3.234375-24.800782 9.9375-34.242188 19.382812zm0 0"/>
	<path fill="#000" d="m255.914062 169.976562c.304688-3.234374.464844-6.488281.464844-9.761718 0-23.414063-19.046875-42.460938-42.464844-42.460938h-75.078124c-23.414063 0-42.464844 19.046875-42.464844 42.460938 0 3.273437.160156 6.527344.464844 9.769531l12.222656-12.222656c10.3125-10.3125 28.3125-10.3125 38.625 0l16 16-16 16c-5.160156 5.160156-12.015625 8-19.3125 8s-14.160156-2.839844-19.3125-8l-10.972656-10.976563c1.238281 6.808594 3.117187 13.503906 5.71875 20.007813 3.671874 9.183593 6.039062 18.703125 7.359374 28.390625 8.632813-8.296875 20.328126-13.421875 33.214844-13.421875 12.007813 0 23.265625 4.414062 32 12.351562 8.738282-7.9375 19.992188-12.351562 32-12.351562 12.890625 0 24.585938 5.125 33.21875 13.421875 1.308594-9.695313 3.6875-19.214844 7.359375-28.390625 2.597657-6.503907 4.480469-13.191407 5.71875-20.007813l-10.976562 10.976563c-5.160157 5.160156-12.015625 8-19.3125 8-7.292969 0-14.160157-2.839844-19.3125-8l-16-16 16-16c10.3125-10.3125 28.3125-10.3125 38.625 0zm-71.535156-20.222656h-16v-16h16zm0 0"/>
	<path fill="#000" d="m216.378906 169.0625-4.6875 4.691406 4.6875 4.6875c4.28125 4.261719 11.722656 4.261719 16 0l4.6875-4.6875-4.6875-4.691406c-4.277344-4.261719-11.71875-4.261719-16 0zm0 0"/>
	<path fill="#000" d="m201.980469 66.558594c4.128906 5.511718 6.398437 12.328125 6.398437 19.195312 0 5.855469-1.695312 11.269532-4.445312 16h9.992187c32.230469 0 58.460938 26.222656 58.460938 58.460938 0 1.714844-.167969 3.402344-.238281 5.105468 5.121093-3.457031 10.480468-6.503906 16.175781-8.832031-.65625-50.257812-40.089844-91.214843-89.703125-94.425781zm0 0"/>
	<path fill="#000" d="m208.21875 380.199219c.023438.527343.160156 1.023437.160156 1.554687 0 17.644532-14.351562 32-32 32-17.648437 0-32-14.355468-32-32 0-.539062.128906-1.035156.160156-1.554687-12.078124-8.457031-18.382812-20.535157-21.445312-28.550781l-26.425781 7.765624 13.648437 102.339844h132.136719l13.648437-102.339844-26.425781-7.765624c-3.070312 8.007812-9.367187 20.085937-21.457031 28.550781zm0 0"/>
	<path fill="#000" d="m258.589844 461.753906h15.855468l12.4375-93.28125-15.261718-4.488281zm0 0"/>
	<path fill="#000" d="m323.667969 379.296875-21.257813-6.25-11.820312 88.714844h61.789062v-44.089844c0-17.625-11.808594-33.398437-28.710937-38.375zm0 0"/>
	<path fill="#000" d="m256.378906 245.753906v8c0 1.351563-.136718 2.660156-.199218 4 .113281 1.316406.199218 2.644532.199218 4 0 9.519532-2.824218 18.382813-7.621094 25.855469-5.625 11.964844-14.105468 22.292969-24.585937 30.144531h8.207031v16h3.359375c2.226563 0 4.410157-.355468 6.496094-1.058594 6.945313-2.3125 11.9375-8.046874 13.511719-14.941406h-7.367188v-16h15.9375c6.160156 0 11.597656-3.929687 13.542969-9.777344 1.191406-3.550781.929687-7.351562-.703125-10.730468-3.417969 1.761718-6.984375 3.296875-10.839844 4.257812l-3.871094-15.511718c13.375-3.34375 23.207032-14.230469 25.445313-27.457032-5.46875 2.03125-11.320313 3.21875-17.40625 3.21875zm0 0"/>
	<path fill="#000" d="m65.875 368.472656 12.441406 93.28125h15.855469l-13.03125-97.769531zm0 0"/>
	<path fill="#000" d="m82.269531 229.753906h13.117188c-1.117188-8.554687-3.199219-16.9375-6.4375-25.035156-2.105469-5.261719-3.695313-10.664062-5.023438-16.109375l-1.203125-1.203125c-9.445312-9.445312-21.277344-16.148438-34.230468-19.375l-.113282-.023438v27.855469c0 5.234375 1.234375 10.480469 3.578125 15.160157 5.773438 11.550781 17.390625 18.730468 30.3125 18.730468zm0 0"/>
	<path fill="#000" d="m80.378906 160.214844c0-32.230469 26.226563-58.460938 58.464844-58.460938h9.992188c-2.75-4.730468-4.449219-10.144531-4.449219-16 0-6.867187 2.273437-13.683594 6.394531-19.1875l3.375-4.496094c-49.609375 3.210938-89.039062 44.167969-89.695312 94.425782 5.710937 2.328125 11.070312 5.367187 16.175781 8.808594-.089844-1.695313-.257813-3.382813-.257813-5.089844zm0 0"/>
	<path fill="#000" d="m90.316406 270-3.871094 15.511719c-3.867187-.96875-7.433593-2.496094-10.839843-4.253907-1.632813 3.367188-1.898438 7.167969-.714844 10.71875 1.953125 5.847657 7.402344 9.785157 13.554687 9.785157h15.933594v16h-7.367187c1.578125 6.902343 6.566406 12.628906 13.503906 14.933593 2.105469.710938 4.28125 1.066407 6.503906 1.066407h3.359375v-16h8.210938c-10.480469-7.851563-18.960938-18.175781-24.585938-30.144531-4.800781-7.480469-7.625-16.335938-7.625-25.863282 0-1.355468.097656-2.683594.199219-4-.0625-1.339844-.199219-2.648437-.199219-4v-8h-14.109375c-6.089843 0-11.929687-1.195312-17.410156-3.21875 2.25 13.226563 12.089844 24.113282 25.457031 27.464844zm0 0"/>
	<path fill="#000" d="m166.378906 45.753906 10-13.339844 10 13.339844h6c4.785156 0 9.464844.398438 14.089844.980469-5.234375-18.199219-15.671875-34.429687-30.089844-46.734375-14.414062 12.3125-24.855468 28.542969-30.09375 46.742188 4.628906-.589844 9.3125-.988282 14.09375-.988282zm0 0"/>
	<path fill="#000" d="m29.09375 379.296875c-16.90625 4.976563-28.714844 20.75-28.714844 38.375v44.089844h61.792969l-11.824219-88.714844zm0 0"/>
</svg>