<!-- Generated by IcoMoon.io -->
<svg version="1.1" xmlns="http://www.w3.org/2000/svg" width="1024" height="1024" viewBox="0 0 1024 1024">
<title></title>
<g id="icomoon-ignore">
</g>
<path fill="#000" d="M832 64q80 0 136 56t56 136q0 38-32 134t-64 174l-32 76h-120l24-302q0-16-14-16l-32-4h-2q-14 0-16 16l-24 306h-170v-304q0-16-16-16h-32q-16 0-16 16v304h-166l-24-306q-2-16-16-16h-2l-32 4q-14 0-14 16l24 302h-120q-128-300-128-384 0-80 56-136t136-56q64 0 116 40 76-104 204-104t204 104q52-40 116-40zM128 960v-256h768v256q0 26-19 45t-45 19h-640q-26 0-45-19t-19-45z"></path>
</svg>
