<!-- Generated by IcoMoon.io -->
<svg version="1.1" xmlns="http://www.w3.org/2000/svg" width="1024" height="1024" viewBox="0 0 1024 1024">
<title></title>
<g id="icomoon-ignore">
</g>
<path fill="#000" d="M992 896q14 0 23 9t9 23v64q0 14-9 23t-23 9h-960q-14 0-23-9t-9-23v-64q0-14 9-23t23-9h960zM384 768l32 64h-288l222-500q14-32 45-66t61-52l376-214-112 338q-8 20-8 40 0 26 12 50l172 404h-416l32-64 128-64-128-64-64-128-64 128-128 64zM512 320l-64 32 64 32 32 64 32-64 64-32-64-32-32-64z"></path>
</svg>
