<?xml version="1.0" encoding="UTF-8" ?>
<!DOCTYPE svg PUBLIC "-//W3C//DTD SVG 1.1//EN" "http://www.w3.org/Graphics/SVG/1.1/DTD/svg11.dtd">
<svg width="185" height="186" viewBox="0 0 185 186" version="1.1" xmlns="http://www.w3.org/2000/svg">
<g id="berg">
<path fill="#000000" opacity="1.00" d=" M 80.24 11.44 C 83.78 8.53 86.90 5.18 90.02 1.84 C 94.08 6.91 100.79 10.57 101.57 17.57 C 102.81 18.00 104.06 18.42 105.30 18.84 C 107.15 22.65 108.22 26.86 110.52 30.43 C 114.93 33.07 119.74 35.25 122.97 39.45 C 123.67 39.45 125.08 39.46 125.78 39.46 C 126.45 42.06 127.14 44.65 127.82 47.24 C 129.48 47.25 131.14 47.25 132.80 47.25 C 133.84 52.82 134.89 58.39 135.91 63.96 C 105.07 63.94 74.23 63.98 43.38 63.95 C 47.62 60.50 51.89 57.10 56.14 53.67 C 56.56 51.33 56.99 49.00 57.51 46.69 C 59.23 45.78 61.22 44.95 61.89 42.94 C 64.38 37.39 68.94 33.20 72.21 28.16 C 73.00 26.13 72.40 23.82 72.46 21.69 C 74.97 19.45 77.61 17.38 80.19 15.23 C 80.20 13.97 80.22 12.70 80.24 11.44 M 73.50 33.70 C 75.00 34.62 76.51 35.54 78.01 36.47 C 80.82 35.29 83.63 34.08 86.37 32.74 C 86.61 28.08 87.22 23.39 89.26 19.14 C 91.19 15.53 89.96 11.46 89.63 7.64 C 81.74 14.45 76.95 24.03 73.50 33.70 M 78.97 39.94 C 77.74 42.84 77.42 46.08 75.85 48.85 C 73.65 52.71 71.32 56.50 69.12 60.35 C 72.04 60.36 74.95 60.36 77.87 60.35 C 81.53 56.02 85.65 52.11 90.50 49.13 C 90.21 47.02 89.93 44.92 89.63 42.82 C 90.48 41.64 91.33 40.46 92.18 39.29 C 90.67 38.01 89.17 36.73 87.69 35.41 C 84.80 36.92 81.50 37.85 78.97 39.94 Z" />
<path fill="#000000" opacity="1.00" d=" M 30.70 66.52 C 72.35 66.51 113.99 66.51 155.63 66.52 C 155.63 67.16 155.62 68.45 155.62 69.09 C 113.98 69.09 72.34 69.10 30.71 69.09 C 30.70 68.45 30.70 67.16 30.70 66.52 Z" />
<path fill="#000000" opacity="1.00" d=" M 43.38 71.66 C 74.23 71.65 105.07 71.66 135.92 71.66 C 135.15 75.71 134.82 79.84 133.82 83.85 C 132.21 87.01 128.80 88.95 127.65 92.40 C 125.99 97.33 123.84 102.10 122.54 107.13 C 121.37 114.56 120.33 122.01 119.26 129.46 C 118.69 133.80 116.81 137.87 114.52 141.56 C 112.30 144.57 112.76 148.54 111.98 152.02 C 111.63 156.02 108.57 158.99 107.57 162.78 C 106.71 165.98 106.13 169.24 105.35 172.46 C 100.76 175.26 96.00 177.95 92.66 182.30 C 91.09 179.58 89.25 177.02 87.82 174.22 C 86.51 171.58 86.43 168.50 85.04 165.90 C 82.53 162.49 79.26 159.71 76.75 156.29 C 75.24 152.29 75.45 147.84 74.15 143.77 C 72.12 139.76 68.86 136.51 66.86 132.49 C 66.12 127.34 66.06 122.10 65.58 116.92 C 65.35 112.79 63.01 109.23 61.69 105.42 C 60.04 101.09 61.27 96.30 60.04 91.90 C 58.40 88.64 56.99 85.18 54.78 82.25 C 51.08 78.61 47.13 75.24 43.38 71.66 M 64.93 76.52 C 67.15 81.80 69.42 87.06 71.62 92.35 C 73.28 96.64 78.14 98.39 80.59 102.06 C 81.39 107.65 81.27 113.35 82.08 118.95 C 85.20 122.12 89.35 124.20 92.84 126.99 C 91.17 114.28 89.04 101.64 86.91 89.00 C 79.60 84.82 72.26 80.67 64.93 76.52 M 67.40 106.17 C 72.10 118.13 76.49 130.19 80.31 142.46 C 82.23 149.60 87.03 155.41 90.48 161.83 C 90.23 152.58 89.89 143.33 89.67 134.08 C 86.68 132.53 83.67 131.04 80.66 129.54 C 79.99 123.25 79.63 116.92 78.72 110.66 C 74.89 109.30 71.18 107.66 67.40 106.17 Z" />
</g>
</svg>
