<!-- Generated by IcoMoon.io -->
<svg version="1.1" xmlns="http://www.w3.org/2000/svg" width="768" height="1024" viewBox="0 0 768 1024">
<title></title>
<g id="icomoon-ignore">
</g>
<path fill="#000" d="M162 944l70-276 104 106-50 202q-6 22-23 35t-39 13q-8 0-16-2-16-4-28-16t-17-28-1-34zM192 552q-4 12-15 19t-25 5l-128-32q-8-2-14-8t-9-14-1-16l52-196q16-62 74-96t124-18q14 4 21 15t3 23zM736 320q14 0 23 9t9 23v640q0 14-9 23t-23 9h-32q-14 0-23-9t-9-23v-480h-96q-26 0-46-18l-44-46-40 160-2 2 94 94q38 38 38 90v166q0 26-19 45t-45 19-45-19-19-45v-166l-174-172q-18-20-18-46 0-8 2-16l54-214q10-40 42-65t72-25q48 0 82 34l94 94h70v-32q0-14 9-23t23-9h32zM480 192q-40 0-68-28t-28-68 28-68 68-28 68 28 28 68-28 68-68 28z"></path>
</svg>
