<!-- Generated by IcoMoon.io -->
<svg version="1.1" xmlns="http://www.w3.org/2000/svg" width="1152" height="1024" viewBox="0 0 1152 1024">
<title></title>
<g id="icomoon-ignore">
</g>
<path fill="#000" d="M1142 472q10 10 10 24 0 12-8 22l-42 48q-10 10-24 10t-22-8l-458-404q-10-8-22-8t-22 8l-458 404q-8 8-22 8t-22-10l-44-48q-8-10-8-22 0-14 10-24l512-452q24-20 54-20t54 20l202 180v-104q0-14 9-23t23-9h128q14 0 23 9t9 23v272zM576 230l438 386q2 2 5 4t5 2v370q0 14-9 23t-23 9h-256q-14 0-23-9t-9-23v-256q0-14-9-23t-23-9h-192q-14 0-23 9t-9 23v256q0 14-9 23t-23 9h-256q-14 0-23-9t-9-23v-370q2 0 6-2t4-4z"></path>
</svg>
