<!-- Generated by IcoMoon.io -->
<svg version="1.1" xmlns="http://www.w3.org/2000/svg" width="1152" height="1024" viewBox="0 0 1152 1024">
<title></title>
<g id="icomoon-ignore">
</g>
<path fill="#000" d="M256 320q0 68 47 123t113 65v146l-44-8-48 128 54 210v8q0 14-9 23t-23 9h-132q-24 0-30-24l-50-200q-4-14-4-30 0-24 8-46l52-136q-26-24-44-65t-18-75q0-4 1-9t1-7q-34 26-34 64v112q0 14-9 23t-23 9h-32q-14 0-23-9t-9-23v-112q0-72 52-124t124-52v2q34-38 80-54v52zM576 320q0 52-38 90t-90 38-90-38-38-90v-64h256v64zM1152 154v154q0 18-12 36t-28 24l-66 26q-10 4-24 4-16 0-33-10t-23-24l-38-76-32-14v206q0 24-9 54t-23 57-32 45v356q0 14-9 23t-23 9h-128q-14 0-23-9t-9-23v-300l-160-28v-156q66-10 113-65t47-123v-66q0-106 75-180t181-74h240q16 0 16 16v4q-8 38-44 60 6 6 15 16t11 14q18 18 18 42v2zM1024 192q14 0 23-9t9-23-9-23-23-9-23 9-9 23 9 23 23 9z"></path>
</svg>
