<!-- Generated by IcoMoon.io -->
<svg version="1.1" xmlns="http://www.w3.org/2000/svg" width="1152" height="1024" viewBox="0 0 1152 1024">
<title></title>
<g id="icomoon-ignore">
</g>
<path fill="#000" d="M1152 154v154q0 12-5 24t-15 22-20 14l-66 26q-22 10-46 1t-34-31l-38-76-32-14v206q0 90-64 156v356q0 14-9 23t-23 9h-128q-14 0-23-9t-9-23v-300l-268-46-48 128 52 210q4 16-5 28t-25 12h-132q-24 0-30-24l-50-200q-4-14-4-30 0-24 8-46l52-136q-62-58-62-140v-10l2-6q-34 26-34 64v112q0 14-9 23t-23 9h-32q-14 0-23-9t-9-23v-112q0-72 52-124t124-52v2q58-66 144-66h320q0-106 75-181t181-75h240q8 0 13 6t3 14q-8 38-44 60 14 16 26 30 18 18 18 44zM1024 192q14 0 23-9t9-23-9-23-23-9-23 9-9 23 9 23 23 9z"></path>
</svg>
