<!-- Generated by IcoMoon.io -->
<svg version="1.1" xmlns="http://www.w3.org/2000/svg" width="1152" height="1024" viewBox="0 0 1152 1024">
<title></title>
<g id="icomoon-ignore">
</g>
<path fill="#000" d="M576 230l438 386q2 2 5 4t5 2v370q0 14-9 23t-23 9h-352l-80-110 208-128-296-274 120 238-208 128 74 146h-298q-14 0-23-9t-9-23v-370q2 0 6-2t4-4zM1142 472q24 22 2 46l-42 48q-22 24-46 2l-458-404q-22-20-44 0l-458 404q-24 22-44-2l-44-48q-22-24 2-46l512-452q24-20 54-20t54 20l202 180v-104q0-14 9-23t23-9h128q14 0 23 9t9 23v272z"></path>
</svg>
