<!-- Generated by IcoMoon.io -->
<svg version="1.1" xmlns="http://www.w3.org/2000/svg" width="1024" height="1024" viewBox="0 0 1024 1024">
<title></title>
<g id="icomoon-ignore">
</g>
<path fill="#000" d="M896 0q54 0 91 37t37 91v256q0 54-37 91t-91 37h-308l-160 160 74 74q24 22 0 46l-30 30q-24 24-46 0l-74-74-62 62 72 72q24 24 0 46l-86 86q-22 22-46 0l-72-72-72 72q-22 24-46 0l-30-30q-24-24 0-46l502-502v-308q0-54 37-91t91-37h256zM749 365q19-19 19-45t-19-45-45-19-45 19-19 45 19 45 45 19 45-19zM877 237q19-19 19-45t-19-45-45-19-45 19-19 45 19 45 45 19 45-19z"></path>
</svg>
