<!-- Generated by IcoMoon.io -->
<svg version="1.1" xmlns="http://www.w3.org/2000/svg" width="1280" height="1024" viewBox="0 0 1280 1024">
<title></title>
<g id="icomoon-ignore">
</g>
<path fill="#000" d="M228 632q-16-12-36-12t-36 12l-106 70q-16 12-33 3t-17-29v-136q0-20 17-29t33 3l94 62v-128q0-34-23-57t-57-23h-32q-14 0-23-9t-9-23v-32q0-14 9-23t23-9h32q72 0 124 52t52 124v128l94-62q16-12 33-3t17 29v136q0 20-17 29t-33-3zM1232 4l-278 276-276-278q10-2 12-2h526q4 0 16 4zM662 662l292-292 280 280-1 1t-3 1l-682 156q-2 2-10 2l-176 176q-36 38-92 38t-94-46q-32-38-32-92v-170l48-32 48 32v180q0 22 19 30t35-8l176-176q0-8 2-10l156-682q0-2 1-3l1-1 280 280-292 292q-12 10 0 22l22 22q12 12 22 0zM1276 48q4 12 4 16v526q0 2-2 12l-278-276z"></path>
</svg>
