<!-- Generated by IcoMoon.io -->
<svg version="1.1" xmlns="http://www.w3.org/2000/svg" width="1152" height="1024" viewBox="0 0 1152 1024">
<title></title>
<g id="icomoon-ignore">
</g>
<path fill="#000" d="M536 434l258 248q8 10 8 23t-8 23l-122 118q-128 122-303 162t-347-16q-16-4-21-22t9-30zM1132 86q20 20 20 46t-20 46l-236 238v90q0 26-20 44l-68 56-224-216 384-372q20-18 47-18t47 18zM888 300q10-10 10-23t-10-23q-22-22-46 0-10 10-10 23t10 23q24 22 46 0zM1010 182q10-8 10-22t-10-22q-24-24-48 0-10 8-10 22t10 22q24 24 48 0z"></path>
</svg>
