<!-- Generated by IcoMoon.io -->
<svg version="1.1" xmlns="http://www.w3.org/2000/svg" width="1024" height="1024" viewBox="0 0 1024 1024">
<title></title>
<g id="icomoon-ignore">
</g>
<path fill="#000" d="M1004 184q20 8 20 30v74q0 14-9 23t-23 9h-960q-14 0-23-9t-9-23v-74q0-22 20-30l470-180q10-4 22-4t22 4zM128 384h128v320h192v-320h128v320h192v-320h128v320h32q14 0 23 9t9 23v96h-896v-96q0-14 9-23t23-9h32v-320zM992 896q14 0 23 9t9 23v64q0 14-9 23t-23 9h-960q-14 0-23-9t-9-23v-64q0-14 9-23t23-9h960z"></path>
</svg>
