<?xml version="1.0" encoding="UTF-8" ?>
<!DOCTYPE svg PUBLIC "-//W3C//DTD SVG 1.1//EN" "http://www.w3.org/Graphics/SVG/1.1/DTD/svg11.dtd">
<svg width="465pt" height="465pt" viewBox="0 0 465 465" version="1.1" xmlns="http://www.w3.org/2000/svg">
<g id="#ffffffff">
<path fill="#000" opacity="1.00" d=" M 291.18 71.14 C 292.47 71.80 292.44 72.48 291.12 73.17 C 289.83 72.52 289.85 71.84 291.18 71.14 Z" />
</g>
<g id="#313131ff">
<path fill="#000" opacity="1.00" d=" M 207.87 5.07 C 225.87 4.89 243.87 5.07 261.87 4.98 C 261.33 7.60 261.03 10.25 260.90 12.92 C 263.00 13.02 265.10 13.17 267.16 13.63 C 264.62 13.67 262.10 14.00 259.60 14.39 C 265.20 15.19 270.88 15.12 276.47 14.33 C 276.93 14.28 277.86 14.18 278.33 14.13 C 272.96 22.60 267.93 31.31 261.88 39.33 C 265.50 36.85 267.98 33.13 271.26 30.25 C 274.66 27.25 277.15 23.42 280.28 20.17 C 283.61 20.62 286.70 22.08 289.85 23.18 C 295.28 25.36 300.93 26.95 306.26 29.39 C 304.29 31.13 302.10 32.56 299.84 33.87 C 284.47 43.71 270.13 55.89 260.74 71.77 C 255.25 79.38 252.75 88.55 250.18 97.44 C 249.66 90.45 250.34 83.43 249.79 76.45 C 246.58 79.27 246.25 83.89 244.61 87.63 C 241.30 95.88 238.96 104.48 235.62 112.71 C 235.30 112.74 234.66 112.81 234.35 112.84 C 230.33 100.31 225.73 87.96 221.16 75.61 C 220.68 81.87 221.27 88.15 220.75 94.40 C 217.95 87.95 216.71 80.89 213.30 74.68 C 206.95 63.82 198.82 53.86 188.67 46.32 C 181.31 39.98 172.99 34.87 164.28 30.62 C 164.26 30.32 164.23 29.71 164.22 29.41 C 171.69 26.32 179.37 23.80 186.89 20.84 C 187.93 20.55 189.28 19.67 190.21 20.73 C 193.73 23.58 196.08 27.54 199.27 30.72 C 201.98 33.46 204.58 36.31 207.21 39.13 C 202.50 30.85 196.76 23.19 191.97 14.95 C 197.57 13.33 203.53 14.63 209.10 12.84 C 208.73 10.25 208.26 7.67 207.87 5.07 Z" />
<path fill="#000" opacity="1.00" d=" M 137.29 34.12 C 149.46 37.37 160.19 44.51 170.63 51.37 C 175.71 54.49 179.52 59.14 183.77 63.24 C 193.31 72.02 200.65 83.20 205.18 95.33 C 197.55 91.12 192.21 83.91 185.46 78.54 C 182.49 76.07 179.66 73.45 176.71 70.96 C 182.04 79.52 189.18 88.44 188.03 99.16 C 180.77 92.96 173.10 87.27 165.68 81.27 C 162.03 82.36 158.58 84.05 154.88 84.99 C 152.09 85.77 150.04 83.45 147.96 82.04 C 139.06 75.86 128.52 72.18 117.73 71.28 C 104.24 71.22 90.19 77.11 82.75 88.76 C 78.74 94.63 78.51 102.07 79.12 108.92 C 79.83 115.38 82.97 121.18 85.95 126.83 C 83.54 129.11 80.92 131.16 78.19 133.05 C 75.22 128.16 71.90 123.43 69.92 118.02 C 65.26 106.36 65.72 92.40 72.77 81.77 C 79.33 72.25 88.94 65.21 99.32 60.31 C 106.45 57.09 110.04 49.07 117.57 46.52 C 121.00 45.00 124.83 45.33 128.42 44.53 C 131.70 41.34 134.04 37.34 137.29 34.12 Z" />
<path fill="#000" opacity="1.00" d=" M 328.88 34.83 C 329.79 34.49 330.74 34.27 331.71 34.17 C 335.09 37.26 337.07 41.56 340.50 44.59 C 344.14 45.26 347.97 45.02 351.43 46.53 C 355.38 47.86 358.42 50.81 361.25 53.75 C 365.64 58.31 371.45 60.99 376.80 64.21 C 386.52 69.82 395.02 78.01 399.60 88.38 C 403.22 97.57 402.98 108.18 399.22 117.29 C 396.89 122.77 394.05 128.03 390.83 133.04 C 388.49 131.37 385.97 129.87 384.12 127.63 C 383.49 124.47 385.91 121.75 386.81 118.86 C 390.17 111.47 391.28 102.93 388.97 95.07 C 386.51 86.54 379.45 80.13 371.70 76.27 C 366.01 72.95 359.37 71.94 352.96 71.05 C 341.35 71.80 329.97 75.77 320.42 82.42 C 318.29 83.74 315.94 85.80 313.26 84.80 C 309.89 83.71 306.63 82.30 303.26 81.22 C 295.38 87.13 288.17 93.97 279.93 99.36 C 280.31 93.81 282.06 88.45 284.52 83.49 C 286.18 80.31 288.53 77.42 289.27 73.82 C 280.42 80.53 273.14 89.20 263.93 95.40 C 264.28 93.96 264.62 92.50 265.14 91.11 C 270.16 80.43 277.32 70.93 285.25 62.25 C 297.99 50.61 312.56 40.70 328.88 34.83 M 291.18 71.14 C 289.85 71.84 289.83 72.52 291.12 73.17 C 292.44 72.48 292.47 71.80 291.18 71.14 Z" />
<path fill="#000" opacity="1.00" d=" M 146.30 108.29 C 148.51 107.10 150.87 106.22 153.34 105.76 C 152.26 109.57 148.41 111.24 145.67 113.67 C 137.22 120.22 129.06 127.11 120.44 133.44 C 103.05 147.39 85.62 161.31 68.15 175.16 C 58.27 182.22 49.40 190.61 39.35 197.44 C 40.63 186.12 43.17 175.00 44.70 163.73 C 45.13 160.99 45.60 157.64 48.65 156.65 C 81.23 140.61 113.94 124.81 146.30 108.29 Z" />
<path fill="#000" opacity="1.00" d=" M 312.62 105.82 C 325.41 110.65 337.38 117.38 349.67 123.33 C 370.71 134.14 392.18 144.07 413.34 154.64 C 415.52 155.76 417.87 156.66 419.76 158.27 C 421.68 162.43 421.60 167.16 422.46 171.60 C 424.10 180.16 425.45 188.77 426.87 197.37 C 422.57 195.10 419.01 191.76 415.23 188.77 C 392.46 170.51 369.34 152.72 346.67 134.33 C 336.20 126.52 326.21 118.12 315.83 110.19 C 314.28 109.13 313.28 107.53 312.62 105.82 Z" />
<path fill="#000" opacity="1.00" d=" M 111.56 152.55 C 117.66 148.83 123.19 143.94 130.22 142.00 C 129.51 149.83 126.45 157.15 124.81 164.79 C 123.12 172.59 120.97 180.28 119.03 188.02 C 118.38 190.44 117.90 193.16 115.78 194.78 C 107.55 201.17 99.78 208.11 91.82 214.83 C 88.67 217.67 85.85 220.86 82.54 223.54 C 73.11 231.40 65.45 241.18 55.82 248.83 C 49.05 255.13 42.88 262.05 36.03 268.28 C 36.00 251.29 35.94 234.30 36.06 217.31 C 42.38 211.22 48.52 204.94 54.64 198.65 C 60.44 193.45 65.43 187.38 71.54 182.53 C 84.12 171.58 97.43 161.43 111.56 152.55 Z" />
<path fill="#000" opacity="1.00" d=" M 336.05 142.05 C 346.59 147.00 356.15 153.74 365.80 160.20 C 376.21 167.69 386.45 175.44 396.01 183.99 C 401.21 188.10 405.28 193.43 410.56 197.44 C 412.98 199.33 415.20 201.48 417.11 203.89 C 420.88 208.83 425.54 212.96 429.94 217.31 C 429.99 234.02 430.15 250.74 429.85 267.45 C 426.46 265.52 423.96 262.48 421.24 259.76 C 413.91 252.42 406.54 245.13 399.26 237.74 C 395.65 233.99 391.25 231.12 387.73 227.26 C 381.83 220.81 374.74 215.61 368.71 209.28 C 362.66 204.31 356.68 199.25 350.40 194.57 C 348.43 193.17 348.22 190.55 347.50 188.44 C 343.68 173.73 339.51 159.12 335.60 144.45 C 335.25 143.55 335.41 142.75 336.05 142.05 Z" />
<path fill="#000" opacity="1.00" d=" M 82.25 243.25 C 96.77 228.49 112.20 214.53 128.83 202.19 C 135.49 210.11 141.60 218.85 150.37 224.65 C 156.50 228.60 163.11 231.82 169.97 234.27 C 169.98 236.55 169.99 238.83 169.98 241.12 C 161.07 239.58 152.00 239.07 143.24 236.76 C 137.24 235.71 131.72 232.94 125.75 231.81 C 127.46 239.09 131.28 245.60 134.98 252.01 C 140.53 261.37 146.27 270.61 152.43 279.58 C 154.10 281.92 155.33 284.55 156.21 287.29 C 148.85 284.30 144.63 276.92 137.85 272.98 C 136.54 272.75 135.66 274.03 134.74 274.72 C 121.06 287.74 110.16 303.30 100.28 319.29 C 91.21 332.56 83.77 346.82 75.72 360.70 C 73.97 363.91 72.43 367.23 70.64 370.43 C 67.41 365.86 66.34 360.21 63.69 355.32 C 55.21 335.32 46.75 315.30 38.26 295.30 C 51.71 276.98 66.72 259.84 82.25 243.25 Z" />
<path fill="#000" opacity="1.00" d=" M 337.16 201.96 C 360.71 220.12 382.62 240.44 401.84 263.15 C 410.91 273.50 419.60 284.19 427.90 295.17 C 419.42 315.51 410.55 335.69 401.95 355.98 C 399.71 360.78 398.09 365.87 395.37 370.44 C 381.33 344.45 366.98 318.47 349.21 294.79 C 343.53 286.61 336.48 279.41 328.99 272.91 C 321.87 276.19 318.32 285.52 309.92 286.27 C 318.87 272.30 328.26 258.54 335.69 243.68 C 337.59 239.88 339.29 235.96 340.25 231.81 C 334.27 232.94 328.76 235.71 322.76 236.76 C 314.00 239.07 304.92 239.58 296.02 241.12 C 296.01 238.83 296.01 236.54 296.02 234.25 C 311.00 229.68 324.00 219.75 333.15 207.14 C 334.44 205.38 335.78 203.66 337.16 201.96 Z" />
</g>
<g id="#030303ff">
<path fill="#030303" opacity="1.00" d=" M 259.60 14.39 C 262.10 14.00 264.62 13.67 267.16 13.63 C 270.26 13.86 273.36 14.09 276.47 14.33 C 270.88 15.12 265.20 15.19 259.60 14.39 Z" />
<path fill="#000" opacity="1.00" d=" M 199.86 187.14 C 204.59 179.04 211.76 169.58 222.40 171.03 C 218.85 174.01 214.22 175.59 211.26 179.27 C 206.27 185.15 203.99 192.79 203.36 200.37 C 202.25 213.33 200.76 226.29 200.93 239.32 C 199.63 238.93 198.04 238.92 197.16 237.71 C 196.11 224.74 199.32 210.86 193.27 198.71 C 190.88 197.08 187.81 197.16 185.05 196.81 C 178.76 196.04 172.07 195.09 166.99 190.96 C 163.52 188.52 161.75 184.52 160.27 180.69 C 159.31 178.17 156.96 176.65 154.99 175.00 C 161.52 173.16 168.37 174.28 175.05 173.97 C 185.07 173.85 192.26 181.78 199.86 187.14 Z" />
<path fill="#000" opacity="1.00" d=" M 243.65 170.98 C 248.52 170.87 253.52 172.45 256.81 176.19 C 260.35 179.20 262.27 183.48 264.95 187.15 C 271.00 183.61 275.31 177.39 282.18 175.21 C 286.61 173.59 291.38 174.00 296.00 173.99 C 300.42 174.04 304.94 173.56 309.23 174.89 C 303.65 179.50 302.88 187.65 296.70 191.72 C 289.81 196.26 281.09 196.92 273.05 197.04 C 271.38 199.24 269.90 201.64 269.33 204.37 C 266.64 215.35 268.33 226.72 267.98 237.88 C 266.65 238.62 265.32 239.35 263.99 240.09 C 263.94 234.91 264.37 229.69 263.48 224.56 C 262.75 220.43 263.19 216.23 262.83 212.08 C 261.81 204.31 261.69 196.34 259.17 188.85 C 257.91 184.87 255.40 181.44 252.75 178.28 C 250.21 175.26 246.50 173.64 243.65 170.98 Z" />
<path fill="#000" opacity="1.00" d=" M 267.76 260.69 C 268.24 258.62 270.46 257.91 271.99 256.78 C 277.44 258.73 277.12 265.27 277.09 270.03 C 277.34 275.03 274.95 279.98 271.21 283.23 C 266.28 287.16 259.53 285.74 253.93 287.92 C 245.82 290.63 238.16 297.24 237.18 306.18 C 236.72 312.99 237.07 319.84 237.08 326.66 C 254.43 337.79 272.83 347.11 290.71 357.34 C 291.82 357.93 293.37 358.54 294.51 357.66 C 313.40 344.31 327.72 325.58 339.36 305.81 C 355.96 329.93 372.20 354.99 380.77 383.24 C 381.77 385.43 379.53 386.89 378.26 388.28 C 375.10 391.14 372.57 394.57 369.65 397.65 C 359.95 407.29 350.54 417.22 340.70 426.71 C 334.81 430.94 327.65 432.87 321.31 436.30 C 308.63 442.27 295.89 448.11 283.25 454.17 C 277.61 456.33 272.37 460.34 266.05 460.02 C 244.02 459.93 222.00 459.97 199.97 460.00 C 194.55 460.03 189.74 457.30 185.02 454.99 C 172.64 449.41 160.45 443.46 148.04 437.96 C 140.95 434.25 133.28 431.71 126.45 427.53 C 122.89 424.80 120.09 421.22 116.87 418.13 C 109.09 408.95 100.15 400.85 91.75 392.26 C 89.16 389.46 84.63 386.75 86.20 382.27 C 94.80 354.40 110.98 329.74 127.26 305.82 C 135.47 319.20 144.33 332.39 155.67 343.34 C 161.11 348.65 166.39 354.34 173.13 358.03 C 174.44 358.06 175.57 357.27 176.70 356.74 C 193.46 346.77 210.44 337.17 227.21 327.23 C 229.65 326.09 228.90 323.20 229.06 321.04 C 228.85 313.77 229.86 306.08 226.79 299.24 C 223.45 293.19 217.27 289.17 210.78 287.18 C 205.52 285.63 199.46 286.64 194.84 283.18 C 190.54 280.40 189.27 275.10 188.57 270.36 C 187.86 266.67 188.57 262.72 190.54 259.52 C 191.20 257.34 193.94 257.82 195.64 258.26 C 199.82 259.61 198.18 265.48 201.25 267.82 C 206.37 268.23 211.66 267.53 216.59 269.40 C 222.94 270.89 228.30 274.71 232.98 279.09 C 237.37 275.67 241.58 271.65 247.10 270.12 C 252.78 268.13 258.81 268.01 264.75 267.82 C 266.88 266.15 266.68 263.00 267.76 260.69 M 216.60 351.62 C 207.23 354.87 198.13 358.83 188.85 362.31 C 192.34 371.80 195.71 381.34 199.10 390.87 C 199.49 392.26 200.43 393.38 202.02 393.01 C 223.29 392.99 244.56 393.05 265.83 392.96 C 269.95 382.79 273.39 372.35 276.99 361.99 C 269.67 358.92 262.23 356.13 254.90 353.06 C 252.38 352.03 249.83 350.85 247.04 350.96 C 239.70 350.92 232.35 351.06 225.00 350.94 C 222.19 350.98 219.30 350.72 216.60 351.62 Z" />
</g>
</svg>
