<?xml version="1.0" encoding="UTF-8" ?>
<!DOCTYPE svg PUBLIC "-//W3C//DTD SVG 1.1//EN" "http://www.w3.org/Graphics/SVG/1.1/DTD/svg11.dtd">
<svg width="630pt" height="630pt" viewBox="0 0 630 630" version="1.1" xmlns="http://www.w3.org/2000/svg">
<g>
<path fill="#000" opacity="1.00" d=" M 322.41 8.77 C 324.94 8.68 327.49 8.64 330.01 8.99 C 336.30 9.80 342.67 9.44 348.98 9.96 C 355.16 10.12 360.89 12.70 367.08 12.94 C 370.49 13.57 374.21 13.34 377.25 15.27 C 382.96 16.09 388.77 16.58 394.00 19.25 C 397.54 19.52 401.00 20.35 404.24 21.82 C 408.51 23.00 412.87 23.98 416.81 26.11 C 423.21 27.28 429.08 30.54 435.21 32.73 C 438.70 33.90 441.71 36.37 445.51 36.58 L 445.46 37.19 C 446.68 37.81 447.91 38.45 449.13 39.11 C 451.86 40.27 454.43 41.75 457.07 43.11 C 462.21 44.98 466.59 48.33 471.46 50.72 C 475.06 52.57 478.17 55.28 481.91 56.86 C 483.76 58.21 485.65 59.52 487.64 60.68 L 487.48 61.22 C 489.78 62.30 491.99 63.59 494.02 65.13 C 494.94 65.84 495.89 66.54 496.83 67.24 C 498.92 68.75 501.04 70.25 503.06 71.87 C 507.04 74.46 510.64 77.56 514.20 80.69 C 515.07 81.50 515.97 82.29 516.84 83.11 C 520.79 86.08 524.55 89.28 528.04 92.78 C 529.39 94.11 530.74 95.44 532.17 96.69 C 533.04 97.54 533.90 98.41 534.74 99.30 C 540.88 105.93 547.58 112.10 552.88 119.47 C 553.19 119.77 553.82 120.37 554.13 120.67 C 555.37 122.17 556.62 123.69 557.86 125.20 C 561.02 129.10 564.05 133.11 566.89 137.25 C 573.42 146.22 579.20 155.69 584.80 165.26 C 585.45 166.61 586.09 167.97 586.77 169.32 C 588.56 171.66 589.61 174.42 590.68 177.13 C 591.94 178.50 592.54 180.26 592.87 182.06 C 596.96 187.56 597.83 194.76 601.47 200.56 C 602.66 205.86 605.62 210.52 606.76 215.83 C 608.82 220.03 609.31 224.68 610.68 229.09 C 612.92 232.73 612.02 237.31 613.83 241.13 C 615.91 246.20 615.73 251.76 616.77 257.06 C 617.69 258.84 617.77 260.83 617.64 262.78 C 612.45 262.27 607.24 262.40 602.05 262.45 C 510.70 262.43 419.34 262.44 327.99 262.43 C 326.10 262.45 324.21 262.54 322.33 262.67 C 322.37 219.67 322.26 176.66 322.39 133.65 C 382.81 133.66 443.24 133.85 503.65 133.56 C 503.65 131.23 503.65 128.73 501.99 126.90 C 498.27 125.02 495.92 121.34 492.33 119.26 L 492.49 118.86 C 490.66 117.57 488.92 116.17 487.23 114.72 C 484.95 112.93 482.78 111.00 480.44 109.28 C 478.32 107.79 476.21 106.29 474.10 104.79 C 473.13 104.12 472.17 103.44 471.22 102.75 C 467.49 100.47 463.87 98.03 460.13 95.79 C 456.29 93.18 451.91 91.46 448.20 88.64 C 445.57 87.22 442.65 86.38 440.15 84.74 C 435.89 83.04 432.05 80.44 427.60 79.24 C 421.53 75.00 413.99 74.26 407.57 70.82 C 402.80 70.09 398.71 67.30 393.94 66.65 C 391.13 66.40 388.83 64.57 386.12 64.03 C 379.30 63.26 373.05 59.95 366.11 59.88 C 358.57 57.83 350.82 56.55 342.99 56.23 C 336.18 55.19 329.37 53.59 322.43 54.24 C 322.29 39.09 322.27 23.92 322.41 8.77 M 361.09 183.02 C 361.39 189.03 361.24 195.05 360.87 201.05 C 361.07 206.71 361.65 212.41 360.81 218.05 C 360.35 220.48 360.66 222.93 361.58 225.21 C 362.31 226.01 363.04 226.82 363.76 227.64 C 366.78 228.43 369.91 228.15 373.00 228.18 C 429.65 228.18 486.31 228.19 542.97 228.19 C 548.74 228.27 554.54 228.35 560.25 227.45 C 560.49 225.61 561.39 223.56 560.19 221.86 C 558.63 218.93 557.85 215.66 556.25 212.75 C 552.79 205.17 548.73 197.88 545.01 190.42 C 540.84 184.38 537.18 178.01 532.36 172.44 C 525.64 171.14 518.79 172.11 512.02 172.13 C 469.67 171.95 427.32 172.46 384.99 171.82 C 377.75 171.98 370.47 171.37 363.29 172.47 C 360.12 175.09 360.09 179.34 361.09 183.02 Z" />
<path fill="#000" opacity="1.00" d=" M 266.59 10.80 C 268.39 10.09 270.38 10.26 272.28 10.06 C 272.19 68.78 272.35 127.51 272.20 186.23 C 257.95 186.51 243.68 186.28 229.42 186.36 C 229.62 149.59 229.43 112.81 229.53 76.04 C 229.41 71.39 230.08 66.57 228.29 62.14 C 223.67 62.38 219.25 63.93 215.08 65.86 C 207.87 67.73 201.59 71.93 194.76 74.74 C 187.73 78.56 180.79 82.54 174.11 86.93 C 171.22 88.86 168.41 90.89 165.52 92.82 L 165.56 93.38 C 164.51 93.79 163.47 94.20 162.43 94.60 L 162.57 95.28 C 159.91 97.07 157.57 99.30 154.80 100.94 C 148.68 106.08 142.59 111.22 136.96 116.90 C 135.65 118.27 134.32 119.63 132.84 120.83 C 132.13 121.44 131.51 122.14 130.98 122.91 C 127.14 127.16 122.86 131.00 119.29 135.49 C 117.82 137.29 116.27 139.03 114.86 140.88 C 111.45 145.77 107.11 149.95 104.03 155.08 C 99.53 161.42 95.07 167.81 91.04 174.47 C 89.60 177.78 87.33 180.63 85.71 183.86 C 85.05 184.88 84.40 186.49 82.91 186.33 C 66.92 186.36 50.93 186.31 34.94 186.36 C 33.68 186.48 32.68 185.58 31.61 185.09 C 32.00 184.92 32.79 184.58 33.18 184.40 C 35.08 179.99 36.31 175.22 39.08 171.25 C 39.82 169.08 40.78 167.00 42.00 165.06 C 42.94 163.06 43.91 161.07 45.19 159.26 C 47.91 153.47 51.54 148.17 54.78 142.66 C 56.84 139.42 59.12 136.34 61.27 133.16 C 62.27 131.85 63.25 130.51 64.23 129.18 C 67.09 124.74 70.81 120.97 73.82 116.64 C 74.16 116.30 74.85 115.61 75.19 115.27 C 77.02 112.97 78.99 110.79 80.88 108.54 C 81.22 108.24 81.90 107.63 82.24 107.33 C 82.79 106.69 83.34 106.05 83.90 105.41 C 84.61 104.67 85.31 103.92 85.98 103.13 C 87.30 101.77 88.67 100.46 90.04 99.15 C 90.70 98.47 91.37 97.79 92.04 97.12 C 94.74 94.11 97.77 91.44 100.72 88.69 C 106.06 84.09 111.16 79.16 116.95 75.13 C 118.63 73.82 120.30 72.47 122.02 71.19 C 123.08 70.53 124.10 69.80 125.10 69.04 C 129.14 66.31 132.97 63.27 137.06 60.61 C 137.98 60.12 138.90 59.63 139.82 59.14 C 141.75 57.61 143.82 56.27 146.04 55.20 C 151.85 51.69 157.56 47.86 163.85 45.28 C 169.10 41.81 175.16 39.94 180.52 36.69 C 182.01 36.09 183.60 35.74 185.14 35.29 C 190.10 32.63 195.23 29.95 200.82 28.96 C 201.91 28.39 202.99 27.80 204.09 27.22 C 206.80 26.23 209.56 25.40 212.23 24.30 C 216.03 22.82 220.31 22.75 223.86 20.62 C 228.36 19.77 232.82 18.67 236.96 16.66 C 240.34 16.26 243.75 16.06 247.09 15.37 C 253.01 11.71 260.44 13.69 266.59 10.80 Z" />
<path fill="#000" opacity="1.00" d=" M 19.78 230.17 C 103.78 230.20 187.78 230.22 271.78 230.18 C 271.98 359.70 271.84 489.22 271.85 618.74 C 270.17 618.33 268.49 617.92 266.83 617.51 C 262.66 615.13 257.60 616.38 253.27 614.53 C 249.06 612.75 244.51 612.19 240.06 611.41 C 237.85 610.14 235.37 609.52 232.94 608.85 C 230.84 608.44 228.74 607.88 226.98 606.64 C 224.90 606.10 222.79 605.70 220.67 605.36 C 219.07 604.47 217.45 603.60 215.87 602.69 C 210.38 601.98 205.87 598.37 200.41 597.50 L 200.56 596.70 C 193.20 593.93 185.75 590.95 179.12 586.66 C 175.15 585.30 171.69 582.91 168.15 580.72 C 163.70 578.28 159.26 575.79 155.14 572.82 C 151.68 571.07 148.67 568.58 145.28 566.69 C 142.35 565.02 139.82 562.78 137.18 560.71 C 136.19 560.09 135.21 559.47 134.22 558.85 C 132.53 557.49 130.88 556.09 129.18 554.74 C 127.73 553.58 126.29 552.39 124.84 551.23 C 122.46 549.10 119.94 547.12 117.29 545.35 C 114.98 543.06 112.61 540.83 110.04 538.84 C 102.57 531.66 95.03 524.54 88.12 516.81 C 82.94 510.98 78.00 504.95 73.20 498.80 C 67.30 491.32 61.60 483.67 56.60 475.55 C 54.55 472.82 52.88 469.84 51.25 466.85 C 50.45 465.57 49.71 464.26 48.95 462.96 C 46.65 460.65 46.15 457.31 44.29 454.71 C 42.83 452.13 41.50 449.47 40.16 446.82 C 39.41 445.09 38.56 443.41 37.63 441.77 C 31.36 429.06 26.35 415.74 21.92 402.30 C 19.95 398.82 20.02 394.74 18.80 391.03 C 16.35 387.05 16.69 382.27 15.30 377.98 C 12.90 372.55 13.35 366.48 12.09 360.77 C 10.18 356.80 10.40 352.29 9.82 348.02 C 9.50 340.29 7.72 332.72 7.46 324.99 C 6.99 313.69 6.86 302.29 8.37 291.06 C 10.21 284.41 9.21 277.41 10.88 270.73 C 13.35 262.59 12.92 253.88 15.85 245.85 C 16.47 240.45 18.79 235.48 19.78 230.17 M 56.78 267.65 C 55.75 269.99 54.46 272.32 54.44 274.95 C 54.07 282.30 53.60 289.65 53.77 297.02 C 53.38 312.02 53.27 327.09 54.75 342.03 C 56.82 348.43 56.80 355.23 58.21 361.76 C 60.25 366.67 60.02 372.18 62.20 377.04 C 63.92 380.63 63.75 384.75 65.37 388.37 C 66.77 391.48 67.61 394.79 68.75 398.01 C 71.36 404.62 73.75 411.34 76.83 417.78 C 78.93 423.79 82.68 429.04 84.81 435.03 C 87.22 438.43 88.93 442.25 90.91 445.90 C 92.03 447.75 93.15 449.61 94.09 451.56 C 95.21 453.17 96.32 454.79 97.40 456.42 C 99.59 460.43 102.43 464.01 104.90 467.83 C 107.53 472.13 110.82 475.96 113.81 480.01 C 116.14 483.11 118.28 486.38 121.04 489.13 C 122.41 490.81 123.69 492.57 125.22 494.12 C 126.78 495.61 128.72 493.94 130.24 493.23 C 129.94 421.49 130.21 349.75 130.10 278.01 C 130.06 274.98 130.19 271.95 130.48 268.94 C 130.35 269.93 130.22 270.93 130.10 271.94 C 129.88 269.23 128.08 266.49 125.03 266.80 C 104.36 266.50 83.66 267.09 62.99 266.60 C 60.88 266.65 58.82 267.17 56.78 267.65 M 169.20 268.23 C 167.56 269.66 167.44 271.96 167.45 273.98 C 167.42 358.34 167.61 442.70 167.44 527.05 C 167.21 529.01 168.31 530.68 169.14 532.35 C 173.41 536.02 178.78 537.93 183.29 541.23 C 184.90 541.75 186.54 542.28 187.97 543.22 C 192.06 545.53 196.19 547.86 200.73 549.14 C 201.87 549.82 203.00 550.51 204.14 551.22 C 205.70 551.61 207.26 552.03 208.81 552.51 C 211.81 554.66 215.50 555.39 218.85 556.84 C 220.55 557.92 222.14 556.32 223.53 555.53 C 223.72 547.34 223.58 539.15 223.73 530.96 C 223.64 444.63 223.81 358.30 223.62 271.97 C 223.87 269.37 222.01 266.87 219.29 266.87 C 204.84 265.85 190.36 267.32 175.90 266.63 C 173.58 266.42 171.07 266.75 169.20 268.23 Z" />
<path fill="#000" opacity="1.00" d=" M 322.29 312.20 C 422.34 312.24 522.41 312.07 622.45 312.29 C 622.43 322.82 622.21 333.38 621.04 343.85 C 619.12 351.78 619.90 360.07 617.73 367.95 C 616.04 373.82 615.80 379.96 615.04 385.99 C 614.85 384.74 614.71 383.49 614.46 382.26 C 614.86 386.62 612.75 390.52 612.18 394.74 C 611.69 398.63 609.42 402.02 609.16 405.96 C 608.70 408.36 608.13 410.79 606.69 412.82 C 606.38 418.08 603.20 422.42 602.25 427.48 C 600.24 431.71 599.05 436.31 596.66 440.35 C 595.87 443.39 594.63 446.30 592.64 448.76 C 592.54 449.39 592.33 450.67 592.23 451.30 C 588.82 456.93 586.26 463.04 582.83 468.67 C 580.56 473.13 577.88 477.38 575.30 481.66 C 574.48 482.67 573.69 483.69 572.92 484.74 C 569.75 491.27 565.09 496.93 560.75 502.71 C 558.79 505.73 556.51 508.52 554.19 511.28 C 549.41 517.39 544.29 523.22 538.95 528.85 C 533.80 534.79 527.79 539.89 522.05 545.24 C 520.64 546.40 519.23 547.58 517.79 548.70 C 516.92 549.60 516.08 550.51 515.25 551.44 C 514.48 551.86 513.72 552.30 512.98 552.74 C 509.02 556.54 504.52 559.71 500.12 562.96 C 496.51 565.94 492.59 568.54 488.48 570.77 L 488.61 571.29 C 484.28 573.55 480.39 576.54 476.17 578.99 C 474.91 579.58 473.65 580.15 472.38 580.70 L 472.63 581.39 C 470.05 582.12 467.71 583.41 465.48 584.86 L 465.55 585.36 C 464.32 585.72 463.11 586.11 461.91 586.52 C 457.88 589.08 453.50 591.25 448.96 592.76 C 447.92 593.40 446.89 594.07 445.88 594.77 C 442.18 595.95 438.74 597.75 435.22 599.38 C 434.14 599.49 433.06 599.61 431.99 599.74 C 431.61 600.17 430.84 601.04 430.46 601.47 C 427.81 602.04 424.97 602.24 422.69 603.85 C 419.90 605.87 416.36 605.63 413.20 606.62 C 411.45 608.12 409.14 608.37 406.95 608.64 C 403.01 609.15 399.71 611.82 395.70 612.06 C 391.67 612.40 387.94 614.02 384.02 614.86 C 380.10 615.88 375.92 615.53 372.11 617.04 C 367.96 618.71 363.42 618.46 359.05 618.82 C 353.27 619.36 347.46 619.74 341.74 620.76 C 335.34 622.05 328.79 621.51 322.32 621.82 C 322.32 518.61 322.40 415.40 322.29 312.20 M 354.62 349.52 C 354.67 371.24 354.61 392.95 354.60 414.67 C 359.01 415.50 363.51 415.18 367.97 415.21 C 383.64 415.23 399.31 415.19 414.98 415.23 C 420.58 415.44 426.18 414.25 431.74 415.41 C 431.99 413.96 432.23 412.50 432.24 411.04 C 432.34 390.52 432.18 370.00 432.29 349.48 C 406.40 349.55 380.51 349.48 354.62 349.52 M 468.50 354.06 C 468.33 359.37 469.04 364.68 468.60 369.99 C 468.44 383.47 468.75 396.94 468.48 410.42 C 469.58 411.34 470.55 412.66 472.11 412.82 C 480.35 414.11 488.70 412.92 497.00 413.21 C 512.68 413.62 528.37 413.65 544.05 413.41 C 548.41 413.82 552.78 413.49 557.14 413.26 C 558.37 412.87 559.57 412.42 560.75 411.89 C 563.27 408.61 565.12 404.80 565.75 400.69 C 566.26 399.81 566.78 398.93 567.30 398.05 C 568.20 392.43 571.46 387.51 571.91 381.83 C 572.33 377.06 575.29 372.93 575.41 368.11 C 575.30 363.27 578.77 358.93 577.72 354.07 C 577.06 351.11 573.69 350.11 571.03 350.34 C 548.05 350.53 525.06 350.39 502.07 350.44 C 491.84 350.52 481.59 349.95 471.38 350.83 C 470.41 351.90 469.46 352.99 468.50 354.06 M 356.30 450.28 C 355.58 453.11 355.32 456.04 355.37 458.96 C 355.51 496.99 355.24 535.02 355.48 573.05 C 355.34 575.51 355.87 577.94 356.72 580.25 C 361.07 581.17 364.74 578.16 369.02 578.20 C 373.19 577.94 376.89 575.71 381.02 575.12 C 387.16 573.53 393.26 571.61 399.15 569.23 C 405.25 568.07 410.62 564.88 416.62 563.35 L 416.40 562.53 C 421.42 561.90 425.55 558.78 430.28 557.26 C 432.07 555.73 432.01 553.14 432.20 551.01 C 432.25 520.02 432.16 489.02 432.23 458.03 C 432.30 455.11 431.76 452.17 430.13 449.71 C 407.77 449.62 385.40 449.76 363.03 449.65 C 360.76 449.61 358.52 449.89 356.30 450.28 M 470.77 449.76 C 469.88 452.41 469.28 455.17 469.47 457.99 C 469.80 481.68 469.22 505.38 469.75 529.06 C 470.32 529.40 471.45 530.08 472.02 530.43 C 473.81 529.52 475.51 528.46 477.17 527.34 C 477.81 526.61 478.46 525.90 479.11 525.19 C 481.57 523.19 483.92 521.06 486.43 519.12 L 486.49 518.77 C 491.20 515.09 495.45 510.87 499.83 506.82 C 501.26 505.55 502.63 504.20 503.97 502.83 C 505.72 501.09 507.40 499.29 509.03 497.44 C 510.98 495.32 512.95 493.22 515.01 491.20 C 522.86 481.87 531.17 472.84 537.80 462.56 C 538.81 460.85 539.85 459.14 541.29 457.75 C 542.18 455.45 542.48 452.99 542.60 450.54 C 538.53 449.14 534.18 449.78 529.97 449.61 C 510.24 449.81 490.50 449.51 470.77 449.76 Z" />
</g>
</svg>
