<!-- Generated by IcoMoon.io -->
<svg version="1.1" xmlns="http://www.w3.org/2000/svg" width="1024" height="1024" viewBox="0 0 1024 1024">
<title></title>
<g id="icomoon-ignore">
</g>
<path fill="#000" d="M1014 170q24 22 0 44l-86 88q-18 18-46 18h-770q-20 0-34-14t-14-34v-160q0-20 14-34t34-14h336v-32q0-14 9-23t23-9h64q14 0 23 9t9 23v32h306q28 0 46 18zM448 992v-224h128v224q0 14-9 23t-23 9h-64q-14 0-23-9t-9-23zM912 448q20 0 34 14t14 34v160q0 20-14 34t-34 14h-770q-28 0-46-18l-86-88q-24-22 0-44l86-88q18-18 46-18h306v-64h128v64h336z"></path>
</svg>
