<!-- Generated by IcoMoon.io -->
<svg version="1.1" xmlns="http://www.w3.org/2000/svg" width="1024" height="1024" viewBox="0 0 1024 1024">
<title></title>
<g id="icomoon-ignore">
</g>
<path fill="#000" d="M513.183 205.381q343.35 0 461.526 174.070 79.849 116.579 30.343 255.516-43.118 114.982-143.728 162.891-46.312 20.761-95.818 20.761-100.609 0-161.294-89.431l-41.521-60.685q-19.164-27.149-50.305-27.149t-50.305 27.149l-39.924 60.685q-60.685 89.431-162.891 89.431-126.161 0-203.614-108.594t-47.111-236.352q36.73-153.31 218.786-223.576 118.176-44.715 285.859-44.715zM294.398 595.043q75.058 0 127.758-65.476 14.373-17.567 0-35.133-52.7-65.476-127.758-65.476t-127.758 65.476q-14.373 17.567 0 35.133 52.7 65.476 127.758 65.476zM728.775 595.043q75.058 0 127.758-65.476 14.373-17.567 0-35.133-52.7-65.476-127.758-65.476t-127.758 65.476q-14.373 17.567 0 35.133 52.7 65.476 127.758 65.476z"></path>
</svg>
