<!-- Generated by IcoMoon.io -->
<svg version="1.1" xmlns="http://www.w3.org/2000/svg" width="1024" height="1024" viewBox="0 0 1024 1024">
<title></title>
<g id="icomoon-ignore">
</g>
<path fill="#000" d="M888 138q100 98 128 216t-30 192q-4 10-12 18-206 204-368 204h-202l-16 18q-30 28-12 72 8 22 8 46 0 32-16 60t-44 44-60 16q-50 0-86-36-46-44-30-112-68 16-112-30-36-36-36-86t35-85 85-35q24 0 46 8 44 18 74-12l16-16v-202q0-162 204-366l16-12q50-40 122-40 46 0 96 16t100 47 94 75zM906 496q22-28 23-73t-28-106-81-113q-34-32-72-57t-77-38-73-13q-46 0-70 24-34 34-18 108 18 96 104 182 50 50 110 80t112 30q46 0 70-24zM664 255q14-15 40-10t48 27 28 48-9 41-41 10-48-27-27-48 9-41z"></path>
</svg>
