<?xml version="1.0" encoding="UTF-8" ?>
<!DOCTYPE svg PUBLIC "-//W3C//DTD SVG 1.1//EN" "http://www.w3.org/Graphics/SVG/1.1/DTD/svg11.dtd">
<svg width="512pt" height="512pt" viewBox="0 0 512 512" version="1.1" xmlns="http://www.w3.org/2000/svg">
<g>
<path fill="#000" opacity="1.00" d=" M 251.89 24.01 C 251.48 21.02 253.64 17.50 256.99 17.99 C 259.96 18.12 261.02 21.14 261.36 23.62 C 287.26 29.20 313.17 34.70 339.04 40.41 C 338.99 40.94 338.91 42.01 338.87 42.54 C 334.96 43.77 330.89 44.32 326.95 45.38 C 327.07 45.89 327.33 46.93 327.46 47.44 C 337.53 50.38 347.84 52.53 357.99 55.21 C 361.14 56.15 364.61 56.32 367.50 57.96 C 367.43 58.45 367.28 59.41 367.20 59.90 C 349.70 63.03 332.03 65.35 314.47 68.20 C 310.02 68.80 305.61 69.81 301.12 70.02 C 300.88 69.73 300.41 69.14 300.18 68.85 C 299.63 63.25 300.30 57.61 299.92 52.01 C 299.78 50.24 297.53 50.10 296.21 50.53 C 284.54 53.09 272.83 55.49 261.16 58.07 C 261.03 70.60 261.16 83.12 261.10 95.65 C 299.82 95.88 338.62 96.91 377.12 101.32 C 386.93 102.63 396.83 103.88 406.30 106.88 C 411.04 108.42 415.99 111.06 418.11 115.83 C 420.15 120.32 418.81 125.94 415.08 129.14 C 410.15 133.50 403.50 134.91 397.25 136.27 C 417.97 170.33 438.86 204.29 459.54 238.37 C 461.67 241.50 458.61 246.06 454.96 245.68 C 452.92 245.71 451.50 244.08 450.55 242.47 C 429.32 207.70 408.07 172.93 386.85 138.15 C 362.59 141.74 338.07 143.00 313.61 144.15 C 326.86 189.57 340.12 234.98 353.37 280.39 C 354.10 282.93 355.05 285.43 355.44 288.06 C 355.82 291.35 352.15 294.11 349.07 292.98 C 346.99 292.51 346.08 290.45 345.59 288.59 C 331.58 240.53 317.60 192.47 303.57 144.42 C 293.87 145.03 284.02 144.43 274.40 145.41 C 263.06 156.23 251.86 167.22 240.61 178.14 C 240.65 167.10 240.62 156.06 240.62 145.03 C 229.75 145.00 218.88 144.69 208.01 144.35 C 193.85 192.79 179.78 241.27 165.54 289.69 C 164.72 293.25 159.65 294.42 157.29 291.68 C 154.66 289.00 156.76 285.19 157.48 282.17 C 171.00 236.13 184.42 190.07 197.83 143.99 C 173.44 142.84 148.99 141.50 124.84 137.71 C 103.45 172.69 82.13 207.71 60.73 242.68 C 59.41 245.65 55.07 246.82 52.76 244.31 C 50.77 242.53 50.90 239.46 52.42 237.43 C 73.14 203.53 93.81 169.60 114.57 135.72 C 108.69 134.24 102.28 132.58 98.17 127.78 C 94.27 123.38 94.78 116.00 99.08 112.04 C 103.65 107.74 109.96 106.21 115.89 104.82 C 130.74 101.69 145.89 100.30 160.99 98.98 C 191.23 96.70 221.57 95.76 251.90 95.69 C 251.87 71.80 251.89 47.90 251.89 24.01 M 231.06 115.57 C 202.09 116.25 173.05 117.06 144.27 120.53 C 174.11 123.48 204.08 124.84 234.06 125.27 C 279.30 125.85 324.63 125.04 369.68 120.54 C 367.48 120.12 365.27 119.79 363.05 119.61 C 319.18 115.61 275.08 114.96 231.06 115.57 Z" />
<path fill="#000" opacity="1.00" d=" M 240.85 203.00 C 251.87 192.02 263.05 181.15 274.39 170.48 C 274.45 187.37 274.43 204.26 274.40 221.14 C 263.13 232.04 251.91 242.99 240.64 253.87 C 240.76 236.92 240.32 219.91 240.85 203.00 Z" />
<path fill="#000" opacity="1.00" d=" M 22.34 238.50 C 26.46 237.08 31.15 237.82 34.74 240.25 C 46.68 248.00 58.64 255.71 70.56 263.49 C 76.04 266.77 78.45 274.11 76.14 280.03 C 68.41 296.74 45.87 303.65 29.73 295.15 C 22.20 291.45 15.83 285.21 12.50 277.45 C 7.67 266.81 8.74 253.77 15.18 244.04 C 16.87 241.47 19.42 239.47 22.34 238.50 Z" />
<path fill="#000" opacity="1.00" d=" M 480.33 238.42 C 485.82 236.57 492.31 238.71 495.73 243.36 C 503.17 253.86 503.90 268.48 497.79 279.78 C 490.40 294.03 472.62 302.00 457.10 297.62 C 448.67 295.42 441.18 289.94 436.51 282.59 C 433.66 278.11 433.70 272.01 436.66 267.59 C 438.44 264.71 441.49 263.06 444.24 261.26 C 453.76 255.12 463.26 248.95 472.76 242.79 C 475.22 241.24 477.56 239.41 480.33 238.42 Z" />
<path fill="#000" opacity="1.00" d=" M 240.58 278.88 C 251.89 267.95 263.15 256.98 274.44 246.04 C 274.38 263.01 274.46 279.98 274.41 296.96 C 263.16 307.88 251.91 318.81 240.64 329.71 C 240.57 312.77 240.69 295.82 240.58 278.88 Z" />
<path fill="#000" opacity="1.00" d=" M 130.48 297.62 C 133.28 297.01 136.14 297.62 138.86 298.32 C 151.81 301.68 164.81 304.87 177.78 308.18 C 186.51 309.68 191.50 319.94 187.81 327.87 C 183.71 340.73 171.52 350.40 158.10 351.60 C 147.00 352.70 135.33 348.51 127.84 340.17 C 119.71 331.45 116.54 318.38 119.97 306.94 C 121.44 302.22 125.65 298.55 130.48 297.62 Z" />
<path fill="#000" opacity="1.00" d=" M 375.45 297.67 C 383.23 295.73 391.31 301.96 392.17 309.76 C 396.02 327.40 383.93 346.42 366.39 350.51 C 351.69 354.86 334.79 348.20 326.94 335.07 C 324.04 329.98 321.29 323.92 322.93 317.96 C 324.27 313.20 328.32 309.38 333.15 308.30 C 347.26 304.81 361.32 301.10 375.45 297.67 Z" />
<path fill="#000" opacity="1.00" d=" M 240.64 354.74 C 251.91 343.81 263.14 332.85 274.44 321.96 C 274.37 338.92 274.47 355.87 274.40 372.82 C 263.15 383.73 251.91 394.65 240.65 405.55 C 240.59 388.61 240.62 371.67 240.64 354.74 Z" />
<path fill="#000" opacity="1.00" d=" M 242.59 428.64 C 253.24 418.42 263.76 408.07 274.40 397.84 C 274.48 414.04 274.36 430.25 274.45 446.45 C 299.97 446.46 325.48 446.43 351.00 446.47 C 357.42 446.18 362.52 453.31 360.28 459.32 C 358.92 463.56 354.47 466.26 350.08 465.91 C 288.03 465.89 225.97 465.94 163.92 465.89 C 158.59 466.11 153.71 461.40 153.98 456.03 C 153.89 450.76 158.75 446.23 163.97 446.47 C 189.52 446.43 215.08 446.44 240.63 446.47 C 240.64 441.62 240.53 436.77 240.65 431.93 C 240.39 430.45 241.75 429.58 242.59 428.64 Z" />
<path fill="#000" opacity="1.00" d=" M 96.21 475.28 C 137.78 474.92 179.38 475.23 220.97 475.13 C 286.34 475.15 351.71 475.08 417.09 475.16 C 422.70 474.98 427.46 480.45 426.66 485.98 C 426.19 491.16 421.11 495.02 416.01 494.58 C 311.35 494.59 206.69 494.55 102.04 494.60 C 97.36 494.98 91.68 494.29 89.25 489.68 C 85.81 484.11 89.69 476.00 96.21 475.28 Z" />
</g>
</svg>
