<!-- Generated by IcoMoon.io -->
<svg version="1.1" xmlns="http://www.w3.org/2000/svg" width="1280" height="1024" viewBox="0 0 1280 1024">
<title></title>
<g id="icomoon-ignore">
</g>
<path fill="#000" d="M0 960v-640h256v640q0 26-19 45t-45 19h-128q-26 0-45-19t-19-45zM1158 576h-716q-58-56-58-118 0-134 176-246 138-86 224-192l16-20 16 20q86 106 224 192 176 112 176 246 0 62-58 118zM1216 640q26 0 45 19t19 45v256q0 26-19 45t-45 19h-64v-128q0-26-19-45t-45-19-45 19-19 45v128h-128v-144q0-42-24-78t-48-50l-24-16q-10 6-26 16t-43 48-27 80v144h-128v-128q0-26-19-45t-45-19-45 19-19 45v128h-64q-26 0-45-19t-19-45v-256q0-26 19-45t45-19h832zM128 0q6 2 14 7t30 23 39 39 31 54 14 69v64h-256v-64q0-56 32-104t64-68z"></path>
</svg>
