<?xml version="1.0" encoding="UTF-8" ?>
<!DOCTYPE svg PUBLIC "-//W3C//DTD SVG 1.1//EN" "http://www.w3.org/Graphics/SVG/1.1/DTD/svg11.dtd">
<svg width="512pt" height="512pt" viewBox="0 0 512 512" version="1.1" xmlns="http://www.w3.org/2000/svg">
<g id="#000000ff">
<path fill="#000000" opacity="1.00" d=" M 244.57 19.74 C 253.33 18.51 262.19 18.97 271.01 18.90 C 281.69 18.98 292.46 18.43 303.05 20.15 C 325.77 23.68 347.58 34.70 362.88 52.02 C 376.99 67.86 385.05 88.78 385.77 109.94 C 386.47 130.08 380.42 150.39 368.84 166.88 C 366.06 171.03 362.96 174.95 359.80 178.80 C 350.47 190.41 342.26 203.19 337.65 217.44 C 332.05 234.37 331.42 252.36 330.33 270.01 C 329.31 290.67 327.73 311.31 325.46 331.87 C 324.64 337.76 318.91 342.33 313.00 341.97 C 307.10 341.98 301.77 336.97 301.46 331.07 C 300.40 316.97 299.15 302.53 293.54 289.39 C 292.07 285.96 290.02 281.97 285.94 281.31 C 281.73 280.32 277.64 283.32 276.40 287.26 C 273.98 294.27 267.97 300.01 260.59 301.40 C 250.49 303.66 239.44 297.15 236.57 287.19 C 234.74 280.21 234.36 272.94 232.80 265.90 C 232.07 262.83 229.24 260.33 226.09 260.05 C 222.18 259.58 218.28 262.61 217.62 266.45 C 216.83 272.06 217.82 277.86 216.47 283.39 C 213.20 291.75 198.74 288.37 198.06 279.97 C 195.47 258.03 188.23 236.74 177.57 217.42 C 173.25 208.58 167.01 200.76 159.50 194.44 C 143.56 180.61 135.13 158.99 136.85 138.04 C 139.72 107.67 154.24 79.12 175.19 57.21 C 183.00 48.96 191.46 41.18 201.15 35.16 C 214.23 26.88 229.20 21.60 244.57 19.74 M 278.43 74.55 C 266.39 77.14 256.21 86.15 251.38 97.36 C 247.01 107.29 247.13 118.88 250.91 128.97 C 254.96 140.06 260.24 150.90 267.88 159.99 C 274.52 167.86 286.04 171.31 295.82 167.77 C 305.95 164.26 312.10 154.42 316.00 144.98 C 321.02 132.67 323.75 119.07 321.68 105.81 C 320.21 96.75 316.09 87.85 308.98 81.86 C 300.69 74.77 289.01 72.18 278.43 74.55 M 196.35 118.50 C 183.71 123.29 173.10 135.09 172.73 149.03 C 173.60 161.95 180.45 174.42 191.17 181.77 C 197.54 186.46 207.26 185.37 212.44 179.39 C 219.69 170.97 223.22 159.90 224.20 148.97 C 225.59 139.05 220.75 129.05 213.72 122.28 C 209.28 117.80 202.24 116.10 196.35 118.50 M 242.40 179.55 C 239.65 180.42 237.43 182.49 236.04 184.97 C 232.34 191.38 229.88 198.57 229.24 205.96 C 228.64 212.66 235.36 218.72 241.98 217.29 C 248.56 215.58 254.61 212.07 259.94 207.90 C 264.09 204.63 265.13 198.19 262.24 193.77 C 259.89 190.22 257.22 186.87 254.64 183.48 C 251.92 179.74 246.79 178.05 242.40 179.55 Z" />
<path fill="#000000" opacity="1.00" d=" M 58.46 75.71 C 66.86 73.97 75.40 77.13 81.97 82.30 C 89.20 87.83 96.85 93.80 100.65 102.32 C 103.33 108.76 103.40 116.27 100.71 122.72 C 98.54 127.94 94.71 132.24 92.34 137.36 C 88.21 146.00 87.75 156.22 90.82 165.27 C 96.98 183.75 102.31 202.64 104.48 222.05 C 104.64 224.00 104.96 226.16 103.80 227.90 C 102.03 231.09 97.24 231.95 94.53 229.47 C 92.29 227.39 90.61 224.82 88.67 222.48 C 77.14 208.09 65.03 194.13 51.93 181.15 C 45.78 175.24 38.98 169.80 34.47 162.44 C 26.05 149.51 23.10 133.17 26.54 118.13 C 29.37 105.77 34.52 93.60 43.25 84.24 C 47.25 79.89 52.61 76.74 58.46 75.71 Z" />
<path fill="#000000" opacity="1.00" d=" M 455.27 98.20 C 469.38 94.48 485.12 105.38 486.45 119.94 C 488.02 136.04 483.80 152.12 478.35 167.16 C 462.50 204.68 439.46 238.65 414.87 270.92 C 413.14 273.65 408.79 273.49 407.14 270.79 C 405.80 269.08 406.49 266.87 407.18 265.06 C 412.38 251.67 417.64 238.30 422.79 224.89 C 430.16 205.58 430.98 184.19 426.89 164.04 C 425.46 156.32 422.20 148.91 422.34 140.94 C 422.45 130.85 425.32 120.53 431.52 112.45 C 437.34 104.99 446.10 100.19 455.27 98.20 Z" />
<path fill="#000000" opacity="1.00" d=" M 378.36 201.45 C 383.26 199.83 389.08 200.42 393.19 203.69 C 396.81 206.60 398.30 211.49 398.05 216.00 C 397.61 228.76 385.73 239.82 373.03 239.64 C 366.23 239.54 359.74 233.88 359.59 226.91 C 359.40 220.71 362.92 215.25 366.72 210.65 C 369.68 206.63 373.50 202.99 378.36 201.45 Z" />
<path fill="#000000" opacity="1.00" d=" M 140.34 219.59 C 145.23 218.15 150.60 220.38 153.77 224.20 C 158.54 229.92 162.22 236.71 163.61 244.07 C 164.51 249.64 160.94 256.34 154.94 256.97 C 151.14 256.90 147.42 255.61 144.02 253.99 C 140.02 251.27 137.44 246.93 135.47 242.60 C 133.59 238.32 131.84 233.72 132.37 228.95 C 132.76 224.58 136.18 220.80 140.34 219.59 Z" />
<path fill="#000000" opacity="1.00" d=" M 378.34 309.46 C 383.07 307.78 388.57 311.96 388.10 316.99 C 387.78 323.64 387.63 330.35 388.80 336.94 C 389.45 341.68 391.62 346.14 391.63 350.98 C 391.81 356.27 389.54 361.16 387.92 366.07 C 385.12 374.56 382.97 383.28 381.55 392.11 C 378.53 412.52 384.07 433.98 396.47 450.46 C 404.36 460.89 411.97 471.70 417.28 483.72 C 418.87 487.51 416.17 492.31 412.11 492.92 C 408.75 493.32 405.36 493.07 401.98 493.11 C 375.64 493.12 349.31 493.09 322.97 493.13 C 319.40 493.11 315.76 492.90 312.40 491.60 C 307.06 489.74 303.24 485.28 298.23 482.82 C 292.03 479.45 284.99 477.92 277.97 477.81 C 265.00 477.31 252.04 476.78 239.08 476.28 C 229.49 476.73 221.53 471.01 213.99 465.93 C 199.13 456.71 183.68 448.10 166.93 442.83 C 162.74 441.58 158.66 439.60 155.73 436.27 C 152.02 432.45 150.68 427.17 148.56 422.44 C 139.61 401.79 127.29 382.51 111.69 366.24 C 109.85 364.24 107.91 361.87 108.14 358.97 C 108.20 354.91 111.91 351.33 116.00 351.54 C 126.56 352.18 136.35 357.09 144.80 363.18 C 155.83 371.04 164.70 381.38 173.23 391.78 C 188.57 410.55 210.18 424.40 234.07 429.08 C 260.53 434.78 289.10 430.34 312.30 416.31 C 329.23 406.05 344.37 391.28 351.16 372.32 C 354.59 363.19 354.04 353.25 356.46 343.88 C 359.08 333.12 363.19 322.12 371.37 314.30 C 373.46 312.39 375.65 310.44 378.34 309.46 Z" />
<path fill="#000000" opacity="1.00" d=" M 236.35 318.42 C 239.03 316.96 242.37 317.40 244.84 319.09 C 253.23 324.04 257.94 333.24 260.49 342.32 C 264.00 354.90 264.29 368.10 263.80 381.07 C 263.50 389.11 267.70 397.18 274.57 401.41 C 278.00 403.62 281.94 404.79 285.66 406.40 C 288.06 407.16 288.25 411.02 285.95 412.02 C 280.07 414.21 273.47 415.85 267.31 413.76 C 263.04 412.51 259.58 409.60 256.50 406.52 C 248.28 398.73 240.81 390.15 234.27 380.91 C 231.18 376.62 229.82 371.27 230.15 366.02 C 230.75 352.67 231.34 339.31 231.97 325.96 C 231.95 322.90 233.53 319.79 236.35 318.42 Z" />
<path fill="#000000" opacity="1.00" d=" M 165.17 321.20 C 173.62 319.98 182.53 322.35 189.11 327.84 C 197.95 335.13 202.94 345.96 206.15 356.73 C 211.40 376.58 224.08 393.40 237.44 408.56 C 239.15 410.48 237.54 413.83 235.01 413.81 C 215.93 410.90 199.99 398.57 187.09 384.89 C 182.28 380.26 180.10 373.82 177.19 367.99 C 171.88 356.68 166.39 345.46 160.82 334.29 C 159.91 332.33 158.74 330.31 158.92 328.07 C 159.08 324.69 161.81 321.67 165.17 321.20 Z" />
</g>
</svg>
