<?xml version="1.0" encoding="UTF-8" ?>
<!DOCTYPE svg PUBLIC "-//W3C//DTD SVG 1.1//EN" "http://www.w3.org/Graphics/SVG/1.1/DTD/svg11.dtd">
<svg width="492pt" height="492pt" viewBox="0 0 492 492" version="1.1" xmlns="http://www.w3.org/2000/svg">
<g>
<path fill="#000000" opacity="1.00" d=" M 182.92 12.95 C 206.40 6.88 230.83 5.71 254.98 6.12 C 277.17 6.63 299.57 9.17 320.63 16.47 C 336.80 22.39 353.18 32.08 360.67 48.30 C 363.55 55.32 366.23 63.96 362.00 70.99 C 354.71 84.61 345.59 97.15 336.62 109.69 C 332.52 98.47 322.07 91.16 311.63 86.34 C 295.43 79.11 277.58 76.64 260.00 75.66 C 238.23 74.75 216.12 75.61 194.95 81.19 C 181.84 84.70 168.80 90.36 159.18 100.20 C 156.48 102.96 154.35 106.22 152.65 109.67 C 144.67 97.41 136.27 85.38 129.53 72.38 C 128.27 69.72 126.79 67.01 126.70 64.00 C 126.71 53.22 131.83 42.94 139.34 35.40 C 151.10 23.59 167.03 17.08 182.92 12.95 Z" />
<path fill="#000000" opacity="1.00" d=" M 73.66 82.78 C 83.10 78.11 94.25 76.43 104.46 79.44 C 108.28 80.55 110.90 83.76 113.58 86.50 C 123.13 97.04 131.48 108.58 139.99 119.96 C 135.11 120.42 130.28 121.62 125.96 123.97 C 114.04 130.28 105.31 141.09 98.30 152.36 C 88.07 169.18 81.25 187.83 75.83 206.69 C 71.00 224.30 67.64 242.64 69.11 260.96 C 70.27 273.22 73.71 286.14 82.83 294.96 C 69.39 298.63 55.97 302.50 42.26 305.04 C 38.24 305.64 33.94 306.58 30.02 305.00 C 24.16 302.69 18.88 298.95 14.73 294.22 C 4.23 282.28 0.92 265.95 0.00 250.51 L 0.00 238.79 C 1.76 211.02 9.22 183.96 18.93 158.00 C 26.36 138.67 35.48 119.68 48.67 103.58 C 55.64 95.23 63.85 87.66 73.66 82.78 Z" />
<path fill="#000000" opacity="1.00" d=" M 380.48 84.66 C 386.07 78.45 395.29 78.25 403.01 79.02 C 420.90 81.52 435.12 94.51 445.64 108.39 C 460.09 127.68 469.57 150.15 477.24 172.85 C 484.68 195.55 490.57 219.06 491.17 243.04 C 491.43 257.84 489.62 273.23 482.39 286.39 C 477.22 295.90 468.57 303.87 458.02 306.83 C 453.64 307.17 449.31 306.11 445.07 305.18 C 432.29 302.25 419.86 298.05 407.32 294.25 C 416.39 286.96 420.36 275.23 421.77 264.04 C 423.78 247.49 421.19 230.77 417.28 214.69 C 413.15 198.47 407.73 182.53 400.51 167.42 C 394.54 155.11 387.29 143.20 377.51 133.53 C 370.23 126.52 361.41 120.25 351.11 119.05 C 360.51 107.27 369.74 95.27 380.48 84.66 Z" />
<path fill="#000000" opacity="1.00" d=" M 237.38 85.53 C 262.34 84.28 287.80 88.06 310.69 98.34 C 317.15 101.35 323.53 105.67 326.79 112.23 C 330.24 119.08 328.97 128.08 323.60 133.58 C 319.29 137.77 311.49 136.92 308.11 131.98 C 304.19 127.00 306.27 118.64 312.29 116.41 C 313.78 115.53 316.05 115.44 316.87 113.74 C 316.30 110.83 313.14 109.55 310.86 108.17 C 300.99 103.45 290.51 100.11 280.02 97.11 C 258.86 92.43 236.70 92.28 215.47 96.63 C 204.64 99.64 193.89 103.06 183.59 107.58 C 180.59 109.10 177.12 110.47 175.28 113.46 C 175.11 115.42 177.56 115.51 178.81 116.26 C 183.49 117.85 186.23 123.27 185.12 128.02 C 184.25 132.32 180.39 135.82 176.01 136.22 C 172.05 136.79 167.79 134.80 165.85 131.26 C 162.30 124.96 162.72 116.76 166.69 110.76 C 171.12 103.94 178.50 99.80 185.85 96.82 C 202.25 90.24 219.75 86.50 237.38 85.53 Z" />
<path fill="#000000" opacity="1.00" d=" M 225.20 119.06 C 227.60 111.21 234.81 105.15 242.95 104.09 C 251.13 102.82 259.87 106.66 264.36 113.65 C 268.55 119.76 269.04 127.91 266.20 134.68 C 270.74 131.49 276.43 129.98 281.95 130.73 C 289.69 131.71 296.69 137.20 299.44 144.51 C 302.01 150.96 301.14 158.58 297.37 164.39 C 285.89 182.64 274.30 200.82 262.79 219.05 C 259.32 217.20 255.61 215.88 251.76 215.10 C 251.72 205.39 251.77 195.68 251.74 185.97 C 251.64 182.79 251.52 179.23 249.39 176.67 C 247.51 174.31 243.49 174.31 241.61 176.65 C 239.44 179.22 239.34 182.81 239.25 186.01 C 239.23 195.80 239.25 205.58 239.25 215.36 C 235.54 216.32 231.95 217.70 228.68 219.70 C 217.36 201.26 206.05 182.80 194.74 164.35 C 191.35 159.03 190.31 152.26 192.14 146.21 C 194.33 138.52 201.12 132.39 208.98 130.94 C 214.86 129.75 221.11 131.26 225.99 134.70 C 224.00 129.76 223.49 124.15 225.20 119.06 Z" />
<path fill="#000000" opacity="1.00" d=" M 136.58 131.80 C 144.91 129.41 154.87 133.32 158.62 141.29 C 161.39 147.39 156.69 155.15 150.05 155.63 C 144.40 156.35 138.61 151.73 138.58 145.93 C 138.30 144.39 138.73 142.53 137.60 141.26 C 134.84 140.70 132.72 143.20 130.81 144.80 C 122.95 152.80 116.48 162.02 110.24 171.30 C 99.19 190.12 92.18 211.34 89.94 233.04 C 89.59 244.74 89.32 256.53 90.86 268.16 C 91.45 270.86 91.61 274.21 93.98 276.02 C 96.03 275.79 96.83 273.46 98.28 272.28 C 102.79 267.69 111.25 269.15 114.29 274.70 C 117.59 280.02 114.88 287.91 108.91 289.92 C 102.35 291.84 94.87 289.71 90.05 284.92 C 84.93 279.91 82.62 272.76 81.59 265.83 C 80.30 256.10 80.52 246.24 81.26 236.47 C 84.14 203.58 96.66 171.34 117.80 145.87 C 122.86 139.87 128.82 133.98 136.58 131.80 Z" />
<path fill="#000000" opacity="1.00" d=" M 334.16 138.17 C 339.03 132.15 347.71 129.71 355.08 132.01 C 362.85 134.25 368.94 140.02 374.04 146.05 C 395.05 171.44 408.02 203.30 411.16 236.08 C 412.00 246.04 412.19 256.11 410.92 266.05 C 409.95 272.82 407.69 279.80 402.67 284.69 C 397.27 289.89 388.61 291.40 381.82 288.20 C 376.63 285.70 374.71 278.54 377.71 273.68 C 380.03 269.52 385.45 267.46 389.96 269.04 C 393.60 269.97 395.38 273.57 398.04 275.88 C 401.30 273.70 401.41 269.42 402.02 265.94 C 403.16 255.99 403.01 245.94 402.72 235.95 C 401.27 219.59 397.00 203.51 390.48 188.46 C 387.47 181.74 384.29 175.02 379.92 169.06 C 373.72 160.37 367.59 151.51 359.92 144.03 C 358.25 142.68 356.42 140.69 354.09 140.99 C 352.34 142.98 353.65 146.20 352.34 148.50 C 350.09 154.09 342.69 156.53 337.55 153.37 C 332.31 150.56 330.47 142.92 334.16 138.17 Z" />
<path fill="#000000" opacity="1.00" d=" M 143.39 180.36 C 146.89 172.52 155.36 167.14 163.98 167.58 C 170.28 167.73 176.32 170.80 180.33 175.64 C 194.45 191.93 208.57 208.22 222.65 224.54 C 220.10 227.35 217.94 230.49 216.22 233.88 C 206.76 231.05 197.30 228.18 187.84 225.34 C 184.64 224.46 181.08 223.42 177.87 224.83 C 175.10 225.97 173.98 229.82 175.70 232.28 C 177.55 234.97 180.77 236.20 183.77 237.14 C 193.58 240.14 203.44 243.00 213.23 246.09 C 213.23 249.67 213.61 253.25 214.46 256.73 C 192.87 262.31 171.32 268.08 149.76 273.74 C 142.93 275.47 135.23 273.80 129.96 269.06 C 123.73 263.78 120.92 254.81 123.13 246.93 C 124.32 242.24 127.21 238.10 131.00 235.13 C 123.58 235.90 115.82 232.95 111.18 227.03 C 106.56 221.32 105.05 213.25 107.48 206.30 C 110.33 197.28 119.66 190.80 129.12 191.39 C 134.04 191.53 138.76 193.53 142.58 196.58 C 140.89 191.30 141.06 185.43 143.39 180.36 Z" />
<path fill="#000000" opacity="1.00" d=" M 319.61 170.64 C 327.63 166.45 338.10 168.12 344.54 174.41 C 350.80 180.17 352.82 189.66 350.03 197.62 C 353.97 194.47 358.86 192.41 363.96 192.44 C 373.12 192.23 382.04 198.41 384.93 207.13 C 387.99 215.53 385.18 225.64 378.21 231.24 C 373.58 235.22 367.32 236.75 361.31 236.20 C 366.95 240.64 370.28 247.85 369.68 255.03 C 369.15 263.53 363.18 271.40 355.09 274.12 C 350.50 275.82 345.42 275.60 340.78 274.25 C 319.89 268.24 299.03 262.13 278.13 256.17 C 278.98 252.52 279.37 248.78 279.19 245.03 C 288.75 242.27 298.31 239.48 307.86 236.70 C 310.88 235.75 314.15 234.65 316.15 232.03 C 317.93 229.69 317.18 225.88 314.53 224.52 C 311.72 223.10 308.45 223.70 305.53 224.40 C 295.67 227.10 285.92 230.25 276.04 232.87 C 273.76 229.95 271.96 226.55 269.24 223.93 C 282.81 208.95 296.40 193.98 309.99 179.01 C 312.81 175.83 315.67 172.48 319.61 170.64 Z" />
<path fill="#000000" opacity="1.00" d=" M 240.43 229.50 C 247.41 227.44 255.37 229.36 260.63 234.38 C 265.39 238.79 267.84 245.52 267.09 251.96 C 266.41 258.47 262.46 264.52 256.78 267.76 C 250.16 271.79 241.27 271.56 234.85 267.23 C 228.16 263.02 224.35 254.78 225.45 246.96 C 226.37 238.83 232.55 231.67 240.43 229.50 Z" />
<path fill="#000000" opacity="1.00" d=" M 155.88 286.81 C 176.17 278.70 196.47 270.63 216.75 262.51 C 218.45 265.62 220.55 268.49 222.96 271.08 C 216.77 279.79 210.41 288.37 204.21 297.07 C 202.48 299.67 200.64 302.67 201.17 305.93 C 201.62 308.55 204.38 310.48 207.00 309.98 C 210.17 309.41 212.41 306.78 214.31 304.39 C 220.71 295.67 226.94 286.84 233.32 278.11 C 236.54 279.31 239.88 280.07 243.27 280.60 C 241.50 303.06 239.84 325.53 238.08 347.99 C 237.48 356.36 231.62 364.06 223.69 366.81 C 212.52 371.21 199.00 364.43 195.40 353.08 C 193.88 359.86 189.14 365.91 182.69 368.62 C 175.89 371.65 167.60 370.83 161.49 366.58 C 154.55 361.95 150.84 353.08 152.30 344.87 C 153.28 338.46 157.43 332.86 162.91 329.51 C 156.32 329.46 149.82 326.42 145.73 321.23 C 140.77 315.05 139.56 306.08 142.82 298.84 C 145.24 293.22 150.15 288.85 155.88 286.81 Z" />
<path fill="#000000" opacity="1.00" d=" M 269.65 271.02 C 272.01 268.40 274.08 265.54 275.77 262.45 C 295.96 271.49 316.23 280.38 336.41 289.46 C 343.45 292.45 348.70 299.30 349.55 306.94 C 350.68 315.49 346.22 324.50 338.63 328.66 C 335.24 330.70 331.27 331.42 327.36 331.56 C 331.58 334.49 335.16 338.53 336.66 343.52 C 339.56 352.19 336.32 362.46 328.90 367.82 C 321.36 373.67 309.93 373.61 302.44 367.69 C 298.15 364.47 295.41 359.60 294.16 354.45 C 291.56 361.00 285.98 366.41 279.06 368.09 C 270.24 370.55 260.15 366.68 255.25 358.96 C 252.89 355.45 251.72 351.26 251.61 347.06 C 250.78 324.89 249.92 302.72 249.12 280.56 C 252.62 280.09 256.05 279.23 259.38 278.07 C 265.28 286.74 271.21 295.40 277.16 304.05 C 278.94 306.53 281.00 309.15 284.02 310.13 C 286.95 311.13 290.41 308.94 290.65 305.85 C 290.93 302.48 289.08 299.45 287.31 296.75 C 281.43 288.17 275.54 279.59 269.65 271.02 Z" />
<path fill="#000000" opacity="1.00" d=" M 98.12 316.01 C 98.42 307.39 105.33 299.49 113.88 298.23 C 119.53 297.50 125.01 302.34 125.23 307.99 C 125.63 312.99 121.93 317.96 116.98 318.90 C 113.60 319.71 110.41 317.75 107.03 317.91 C 106.30 322.10 108.65 325.88 110.51 329.43 C 115.30 337.78 120.88 345.65 126.70 353.30 C 140.90 369.82 158.59 383.38 178.33 392.62 C 188.22 396.48 198.29 399.96 208.61 402.54 C 212.72 403.42 217.13 404.59 221.23 403.01 C 220.56 399.81 217.71 397.43 217.80 394.02 C 217.35 388.36 222.32 382.96 228.01 383.04 C 233.87 382.78 239.37 388.16 238.80 394.09 C 238.05 400.94 233.38 407.24 227.04 409.96 C 221.34 412.45 214.88 412.57 208.82 411.59 C 201.46 410.38 194.35 408.04 187.39 405.44 C 154.30 392.94 125.19 369.69 106.26 339.75 C 101.81 332.64 97.69 324.63 98.12 316.01 Z" />
<path fill="#000000" opacity="1.00" d=" M 366.70 307.62 C 368.99 303.07 374.87 300.55 379.67 302.50 C 386.47 305.48 391.19 312.57 391.35 320.01 C 391.65 328.71 387.46 336.75 382.79 343.81 C 361.38 375.45 328.76 399.44 292.03 410.05 C 282.60 412.67 272.38 415.21 262.74 412.13 C 254.11 409.45 248.10 400.04 249.74 391.09 C 250.92 385.53 257.21 381.89 262.63 383.52 C 267.59 384.71 271.07 389.93 270.27 394.97 C 270.04 398.10 267.48 400.25 266.43 403.05 C 266.68 403.40 267.20 404.09 267.45 404.43 C 273.23 406.00 279.24 403.81 284.93 402.67 C 294.73 399.91 304.73 397.44 313.87 392.82 C 330.95 384.67 346.49 373.29 359.51 359.57 C 366.14 351.39 372.64 343.07 378.24 334.15 C 380.38 330.44 383.01 326.63 382.88 322.16 C 379.25 321.81 375.51 323.79 372.00 322.09 C 366.51 319.95 363.84 312.82 366.70 307.62 Z" />
<path fill="#000000" opacity="1.00" d=" M 44.32 325.35 C 58.46 318.56 73.50 313.88 88.39 309.05 C 85.38 319.21 88.34 330.02 92.79 339.29 C 100.81 355.34 113.62 368.36 127.10 379.93 C 139.95 390.70 153.70 400.46 168.42 408.51 C 181.96 415.72 196.53 421.78 211.98 422.97 C 220.18 423.65 228.73 422.66 236.09 418.77 C 235.36 433.25 234.78 447.78 232.53 462.12 C 231.88 465.59 231.34 469.38 228.84 472.08 C 220.60 482.08 207.55 486.51 195.09 488.16 C 189.44 489.10 183.82 487.67 178.55 485.74 C 152.14 480.46 128.38 466.71 106.53 451.47 C 92.74 441.75 79.54 431.16 67.50 419.33 C 54.98 406.86 43.45 392.86 36.56 376.43 C 31.65 364.73 29.58 351.19 33.94 338.99 C 36.00 333.63 38.70 327.74 44.32 325.35 Z" />
<path fill="#000000" opacity="1.00" d=" M 403.35 309.62 C 415.84 314.35 428.49 318.76 440.58 324.48 C 444.21 326.29 448.19 327.90 450.95 330.98 C 456.65 338.64 458.91 348.51 458.17 357.95 C 457.32 369.36 452.81 380.18 446.96 389.90 C 437.82 404.93 425.58 417.80 412.48 429.43 C 397.74 442.31 381.88 453.90 365.18 464.11 C 348.07 474.46 329.56 482.82 309.95 487.06 C 300.56 488.55 290.13 490.58 281.34 485.82 C 272.64 483.27 264.49 478.33 259.07 470.96 C 257.30 468.36 256.97 465.13 256.49 462.11 C 254.71 447.44 254.69 432.64 254.49 417.88 C 264.88 424.61 278.09 424.24 289.76 421.73 C 307.73 417.51 324.15 408.48 339.40 398.31 C 356.20 386.87 372.24 373.97 385.25 358.26 C 393.40 348.22 400.46 336.82 403.10 324.01 C 404.12 319.28 404.14 314.38 403.35 309.62 Z" />
</g>
</svg>
