<?xml version="1.0" encoding="UTF-8" ?>
<!DOCTYPE svg PUBLIC "-//W3C//DTD SVG 1.1//EN" "http://www.w3.org/Graphics/SVG/1.1/DTD/svg11.dtd">
<svg width="512pt" height="512pt" viewBox="0 0 512 512" version="1.1" xmlns="http://www.w3.org/2000/svg">
<g id="#010101ff">
<path fill="#000" opacity="1.00" d=" M 221.08 7.28 C 229.24 2.17 239.76 2.21 248.58 5.51 C 258.72 9.29 266.25 18.42 269.35 28.63 C 270.31 32.50 270.76 36.47 271.47 40.39 C 274.78 37.36 277.97 33.69 282.48 32.53 C 284.91 31.96 286.86 34.84 286.13 37.04 C 285.09 40.65 280.53 42.14 280.08 46.01 C 279.24 50.96 277.28 55.72 274.40 59.84 C 275.89 69.28 280.05 78.35 286.73 85.25 C 290.67 89.39 295.68 92.23 300.05 95.86 C 310.07 104.11 318.03 114.70 323.82 126.28 C 330.80 139.79 334.80 154.53 340.42 168.60 C 342.72 174.02 345.28 179.45 349.08 184.00 C 371.04 206.93 388.04 233.97 405.68 260.19 C 416.07 263.85 426.63 267.72 435.60 274.28 C 439.68 277.30 443.72 281.12 444.78 286.29 C 447.67 299.67 448.02 313.41 449.35 327.00 C 450.00 331.42 448.11 336.00 444.55 338.69 C 438.21 343.64 429.97 344.66 422.70 347.61 C 418.41 349.69 413.37 348.14 409.97 345.11 C 405.83 341.43 401.92 336.74 401.05 331.12 C 401.80 327.03 406.74 326.31 410.03 325.17 C 405.66 321.49 400.18 318.57 397.79 313.10 C 395.13 307.82 395.26 301.81 394.92 296.08 C 392.99 292.38 388.62 290.87 385.30 288.66 C 373.88 281.96 360.64 276.26 353.41 264.59 C 343.01 242.13 333.49 219.27 323.62 196.58 C 321.41 191.73 319.74 186.60 317.03 181.99 C 309.58 170.48 304.39 157.67 300.09 144.70 C 301.90 158.07 306.44 170.89 309.73 183.93 C 307.82 188.85 302.51 191.67 297.97 193.96 C 293.89 196.21 289.10 195.20 284.82 194.20 C 273.73 191.27 263.20 186.65 252.76 181.99 C 263.23 190.75 275.00 198.89 288.62 201.60 C 297.67 203.44 307.60 200.93 314.05 194.16 C 321.43 210.34 328.50 226.67 334.77 243.32 C 337.78 250.81 339.85 259.31 337.19 267.22 C 333.16 279.56 320.53 287.59 308.02 288.92 C 297.82 288.96 288.60 293.97 280.00 298.95 C 274.26 302.16 269.17 306.51 263.00 308.94 C 249.95 314.89 234.79 316.06 221.04 311.91 C 210.93 309.18 201.87 303.83 192.44 299.45 C 184.46 283.71 184.09 265.48 184.82 248.22 C 179.54 263.98 177.51 281.26 181.72 297.52 C 173.85 296.57 164.93 296.01 158.99 290.06 C 154.49 285.63 154.53 278.91 154.51 273.04 C 154.88 250.77 163.13 229.31 174.22 210.26 C 181.94 208.47 189.65 206.58 197.22 204.20 C 207.09 201.52 214.04 193.39 220.88 186.31 C 210.91 190.87 200.89 195.74 190.04 197.79 C 187.47 198.12 183.57 198.60 182.54 195.47 C 180.34 187.99 182.78 180.17 184.63 172.88 C 175.19 189.21 165.61 205.51 157.59 222.60 C 155.48 226.92 152.54 230.74 149.59 234.50 C 138.47 248.34 125.68 260.71 114.27 274.30 C 111.48 277.85 108.15 281.40 107.52 286.07 C 106.39 292.20 104.30 298.10 101.91 303.84 C 106.21 303.61 111.56 303.65 114.31 307.56 C 118.55 315.10 122.63 323.18 123.02 331.99 C 123.23 335.98 120.69 339.37 118.19 342.21 C 113.68 347.12 108.24 351.06 102.64 354.62 C 98.04 357.72 92.27 357.35 86.99 357.70 C 81.03 358.05 75.49 353.71 73.76 348.11 C 69.21 334.99 64.37 321.78 62.71 307.92 C 61.58 299.98 65.74 292.76 68.89 285.79 C 80.08 262.99 93.28 241.25 106.47 219.56 C 111.49 210.51 120.43 204.34 125.05 195.02 C 131.22 182.98 133.85 169.57 136.74 156.46 C 138.60 148.23 139.54 139.75 142.61 131.84 C 145.80 123.32 150.65 115.45 156.71 108.67 C 157.96 107.22 159.45 105.98 161.14 105.08 C 171.58 99.43 182.03 93.80 192.41 88.04 C 196.64 95.36 202.56 101.71 209.68 106.29 C 212.68 108.32 216.44 108.44 219.92 108.89 C 232.05 110.16 245.09 107.45 254.44 99.26 C 245.04 102.74 234.72 102.54 224.95 100.91 C 216.18 99.47 207.88 94.50 203.14 86.88 C 197.34 78.12 195.96 67.48 193.66 57.45 C 192.62 52.72 192.71 47.50 195.21 43.22 C 197.39 39.44 200.62 36.35 202.34 32.29 C 206.76 22.85 211.92 12.93 221.08 7.28 M 238.26 54.30 C 239.20 56.90 240.70 60.23 244.01 60.08 C 246.39 60.15 250.63 57.94 248.92 55.14 C 245.89 52.84 241.66 52.83 238.26 54.30 M 201.38 53.92 C 202.09 56.12 202.70 58.88 205.16 59.77 C 208.27 60.90 211.65 58.94 212.82 55.98 C 209.85 52.84 205.25 53.01 201.38 53.92 M 237.19 254.07 C 233.56 255.60 233.32 261.30 236.84 263.10 C 240.22 265.40 245.16 262.16 244.54 258.18 C 244.30 254.73 240.26 252.51 237.19 254.07 Z" />
<path fill="#000" opacity="1.00" d=" M 181.94 26.98 C 181.63 25.23 183.59 24.45 185.00 24.98 C 188.69 25.97 191.72 28.45 194.72 30.69 C 192.44 34.50 190.18 38.32 187.88 42.11 C 185.75 37.14 183.14 32.29 181.94 26.98 Z" />
<path fill="#000" opacity="1.00" d=" M 314.88 294.55 C 324.63 292.30 334.41 287.90 340.76 279.90 C 343.51 291.37 346.79 302.72 349.52 314.19 C 349.61 319.75 349.54 325.83 346.83 330.84 C 344.92 333.21 342.67 330.10 341.25 328.80 C 336.82 323.76 328.43 324.50 323.72 328.69 C 319.24 333.93 314.93 339.32 310.54 344.64 C 306.28 340.41 300.54 336.68 294.30 337.39 C 290.27 339.14 288.06 343.31 285.73 346.81 C 279.12 358.16 274.14 370.36 269.46 382.60 C 264.93 380.63 260.37 378.71 255.89 376.65 C 253.95 382.09 252.56 388.13 248.43 392.40 C 247.23 393.85 244.88 393.63 243.94 392.04 C 233.49 379.23 223.54 365.91 211.63 354.39 C 208.96 352.02 205.47 348.52 201.63 350.62 C 196.01 353.94 193.45 360.43 190.95 366.14 C 188.19 359.79 185.07 353.56 181.16 347.84 C 180.18 346.25 177.99 344.93 176.31 346.37 C 172.88 349.14 171.64 353.61 170.17 357.58 C 170.42 348.02 172.52 338.59 172.69 329.04 C 171.47 320.25 171.02 311.29 168.91 302.66 C 173.83 305.34 179.57 305.45 185.02 305.80 C 186.44 305.77 187.75 306.33 188.98 307.00 C 201.35 313.81 214.99 318.16 228.88 320.52 C 237.79 321.84 247.06 322.92 255.90 320.54 C 271.78 316.80 282.28 302.63 297.68 297.84 C 303.24 295.93 309.21 296.00 314.88 294.55 Z" />
<path fill="#000" opacity="1.00" d=" M 327.33 334.29 C 329.78 331.80 333.76 331.36 336.76 333.12 C 338.98 334.47 341.96 335.85 342.10 338.83 C 342.88 345.21 345.35 351.51 344.36 358.01 C 343.10 369.43 341.71 380.93 338.16 391.89 C 336.79 395.89 335.21 400.04 332.03 402.98 C 328.24 406.40 325.64 410.86 323.30 415.34 C 318.43 424.63 314.62 434.41 311.09 444.27 C 309.88 447.03 310.50 450.06 310.82 452.94 C 311.47 457.88 312.36 462.89 314.57 467.40 C 316.11 470.69 319.89 472.33 321.06 475.86 C 322.86 480.12 321.94 486.28 317.25 488.24 C 313.34 489.51 309.14 489.38 305.10 489.97 C 306.81 482.27 305.04 473.77 299.43 468.05 C 300.15 474.19 301.18 480.56 299.42 486.63 C 298.74 489.12 296.91 491.68 294.12 491.86 C 286.75 492.77 280.27 488.40 274.34 484.66 C 270.21 481.90 265.41 480.49 260.75 478.91 C 258.60 463.70 255.90 448.46 250.90 433.90 C 254.78 424.64 259.34 415.52 265.74 407.72 C 271.68 400.20 277.43 392.45 281.94 383.96 C 284.01 379.89 285.97 375.56 286.14 370.93 C 285.54 368.87 284.52 366.98 283.65 365.04 C 287.09 358.47 290.34 351.74 294.67 345.71 C 295.74 343.77 298.27 343.99 299.96 344.89 C 304.25 347.02 307.58 350.60 310.79 354.07 C 315.92 347.18 320.91 340.06 327.33 334.29 Z" />
<path fill="#000" opacity="1.00" d=" M 174.87 371.08 C 175.47 366.41 175.52 361.63 176.85 357.08 C 177.97 357.96 179.26 358.72 180.05 359.96 C 184.28 366.30 186.89 373.51 190.30 380.28 C 193.71 375.65 197.42 371.18 200.07 366.04 C 201.05 363.92 203.12 362.72 205.01 361.52 C 213.47 368.47 222.32 375.54 228.03 385.04 C 230.78 389.11 228.25 394.01 229.32 398.45 C 231.30 409.59 236.16 419.93 240.99 430.06 C 247.26 441.81 249.81 455.05 252.10 468.04 C 253.23 475.91 254.53 483.84 254.40 491.82 C 254.38 494.92 251.55 496.93 249.00 498.08 C 240.00 502.03 229.95 501.67 220.52 503.81 C 212.88 506.22 204.99 510.59 196.78 508.11 C 193.95 507.56 192.33 504.77 192.17 502.07 C 191.64 495.68 194.00 489.55 195.92 483.58 C 189.34 488.05 185.82 495.91 185.87 503.77 C 182.09 502.28 177.99 501.54 174.46 499.48 C 170.28 496.55 170.74 490.26 173.47 486.48 C 175.39 483.29 179.46 482.50 181.61 479.54 C 185.37 474.51 187.58 468.52 189.50 462.60 C 190.36 460.17 189.78 457.59 189.44 455.13 C 187.66 443.38 185.82 431.50 181.71 420.30 C 180.11 415.25 175.89 411.42 175.08 406.07 C 172.95 394.53 173.84 382.69 174.87 371.08 Z" />
</g>
</svg>
