<!-- Generated by IcoMoon.io -->
<svg version="1.1" xmlns="http://www.w3.org/2000/svg" width="1024" height="1024" viewBox="0 0 1024 1024">
<title></title>
<g id="icomoon-ignore">
</g>
<path fill="#000" d="M972.825 153.784q20.789 0 35.982 15.192t15.192 35.982v51.174q0 63.968-44.777 108.745t-108.745 44.777h-36.781l-147.125 79.959 87.955 175.911h44.777q20.789 0 35.982 15.192t15.192 35.982v25.587q0 11.194-7.196 18.391t-18.391 7.196h-127.935l-119.939-230.283-238.279 127.935h102.348q20.789 0 35.982 15.192t15.192 35.982v25.587q0 11.194-7.196 18.391t-18.391 7.196h-358.218q-11.194 0-18.391 7.196t-7.196 18.391 7.196 18.391 18.391 7.196h179.109q20.789 0 35.982 15.192t15.192 35.982-15.192 35.982-35.982 15.192h-172.712q-47.976 0-86.356-29.585t-46.376-75.962q-11.194-67.166 36.781-115.142 63.968-60.769 63.968-134.332v-3.198q0-127.935 89.555-217.49t217.49-89.555h89.555l244.676-140.729q23.988-12.794 51.174-12.794h33.583q41.579 0 71.964 30.385l20.789 20.789h51.174zM819.303 179.371q-11.194 0-18.391 7.196t-7.196 18.391 7.196 18.391 18.391 7.196 18.391-7.196 7.196-18.391-7.196-18.391-18.391-7.196zM870.477 332.893q23.988 0 43.978-14.393t27.986-36.781h-123.138l-190.304 94.352 22.389 44.777 163.117-87.955h55.972z"></path>
</svg>
