<?xml version="1.0" encoding="UTF-8" ?>
<!DOCTYPE svg PUBLIC "-//W3C//DTD SVG 1.1//EN" "http://www.w3.org/Graphics/SVG/1.1/DTD/svg11.dtd">
<svg width="180pt" height="180pt" viewBox="0 0 180 180" version="1.1" xmlns="http://www.w3.org/2000/svg">
<g id="#000000ff">
<path fill="#000000" opacity="1.00" d=" M 85.82 23.03 C 88.84 23.02 91.86 23.02 94.88 23.03 C 94.87 26.18 94.88 29.32 94.88 32.46 C 97.63 32.46 100.37 32.47 103.12 32.47 C 103.12 35.41 103.13 38.35 103.13 41.29 C 105.84 41.30 108.55 41.30 111.26 41.29 C 111.25 38.35 111.27 35.41 111.27 32.47 C 114.38 32.45 117.49 32.45 120.61 32.46 C 120.60 35.40 120.62 38.34 120.62 41.29 C 123.33 41.29 126.04 41.30 128.75 41.30 C 128.76 38.35 128.78 35.41 128.77 32.46 C 132.31 32.44 135.85 32.44 139.39 32.46 C 139.39 42.50 139.39 52.53 139.39 62.57 C 106.46 62.59 73.53 62.59 40.59 62.57 C 40.59 52.70 40.58 42.82 40.60 32.95 C 43.98 32.94 47.35 32.96 50.73 32.99 C 50.73 35.76 50.74 38.52 50.74 41.29 C 53.45 41.30 56.16 41.30 58.87 41.29 C 58.87 38.53 58.88 35.78 58.88 33.02 C 62.00 33.02 65.11 33.04 68.23 33.07 C 68.23 35.81 68.24 38.55 68.24 41.29 C 70.95 41.30 73.66 41.30 76.37 41.29 C 76.37 38.56 76.38 35.83 76.37 33.10 C 79.52 33.11 82.66 33.11 85.81 33.13 C 85.80 29.77 85.82 26.40 85.82 23.03 Z" />
<path fill="#000000" opacity="1.00" d=" M 143.82 32.46 C 147.07 32.45 150.33 32.44 153.59 32.46 C 153.60 36.50 153.60 40.55 153.60 44.60 C 156.51 44.62 159.42 44.61 162.34 44.60 C 162.34 40.55 162.33 36.50 162.35 32.45 C 165.63 32.44 168.91 32.45 172.19 32.46 C 171.80 42.50 171.40 52.54 170.97 62.58 C 161.92 62.57 152.87 62.60 143.82 62.57 C 143.81 52.53 143.81 42.50 143.82 32.46 Z" />
<path fill="#000000" opacity="1.00" d=" M 7.79 32.79 C 10.84 32.79 13.90 32.81 16.95 32.83 C 16.96 36.76 16.95 40.68 16.96 44.60 C 19.87 44.61 22.78 44.61 25.68 44.61 C 25.69 40.70 25.68 36.79 25.69 32.88 C 29.18 32.88 32.67 32.90 36.17 32.93 C 36.18 42.81 36.17 52.69 36.17 62.57 C 27.17 62.59 18.17 62.58 9.18 62.58 C 8.70 52.65 8.23 42.72 7.79 32.79 Z" />
<path fill="#000000" opacity="1.00" d=" M 9.17 67.98 C 18.17 67.96 27.17 67.96 36.17 67.98 C 36.18 98.17 36.18 128.37 36.17 158.57 C 25.77 157.49 15.38 156.40 4.99 155.29 C 6.37 126.18 7.77 97.08 9.17 67.98 Z" />
<path fill="#000000" opacity="1.00" d=" M 40.60 67.98 C 73.53 67.96 106.46 67.96 139.39 67.98 C 139.39 98.43 139.40 128.87 139.38 159.32 C 132.49 159.33 125.60 159.33 118.71 159.32 C 118.69 137.75 118.71 116.19 118.70 94.62 C 99.56 94.60 80.43 94.62 61.29 94.61 C 61.26 116.18 61.30 137.75 61.27 159.32 C 54.38 159.25 47.48 159.55 40.60 159.10 C 40.59 128.73 40.59 98.35 40.60 67.98 M 75.60 70.81 C 75.59 76.75 75.60 82.69 75.60 88.63 C 85.19 88.65 94.79 88.65 104.39 88.63 C 104.38 82.69 104.40 76.75 104.38 70.81 C 94.79 70.80 85.20 70.80 75.60 70.81 Z" />
<path fill="#000000" opacity="1.00" d=" M 143.82 67.98 C 152.81 67.96 161.81 67.96 170.81 67.98 C 172.21 96.53 173.61 125.09 174.99 153.65 C 164.60 155.39 154.21 157.17 143.82 158.91 C 143.81 128.60 143.81 98.29 143.82 67.98 Z" />
<path fill="#000000" opacity="1.00" d=" M 80.27 74.72 C 86.75 74.71 93.23 74.72 99.71 74.72 C 99.72 78.06 99.73 81.39 99.72 84.73 C 93.23 84.74 86.75 84.74 80.27 84.73 C 80.26 81.40 80.26 78.06 80.27 74.72 Z" />
<path fill="#000000" opacity="1.00" d=" M 67.00 101.31 C 82.33 101.30 97.66 101.31 112.99 101.31 C 113.01 121.19 113.00 141.07 113.00 160.96 C 110.65 160.96 108.31 160.96 105.97 160.95 C 105.90 150.61 106.01 140.27 105.86 129.93 C 105.62 121.37 97.62 113.89 89.01 114.47 C 80.99 114.67 73.90 121.86 74.04 129.92 C 73.97 140.27 74.05 150.61 74.01 160.95 C 71.67 160.96 69.33 160.96 66.99 160.95 C 66.98 141.07 66.97 121.19 67.00 101.31 Z" />
</g>
</svg>
