<!-- Generated by IcoMoon.io -->
<svg version="1.1" xmlns="http://www.w3.org/2000/svg" width="1152" height="1024" viewBox="0 0 1152 1024">
<title></title>
<g id="icomoon-ignore">
</g>
<path fill="#000" d="M1120 384q14 0 23 9t9 23v256q0 14-9 23t-23 9h-98q-26 36-62 62v162q0 14-9 23t-23 9h-128q-14 0-23-9t-9-23v-96h-256v96q0 14-9 23t-23 9h-128q-14 0-23-9t-9-23v-162q-40-28-68-67t-44-87-16-100h-80q-50 0-84-38t-28-88q6-42 39-70t77-28q12 0 12 12v40q0 12-12 12h-2q-12 0-22 5t-17 14-11 19q-4 24 11 41t37 17h86q22-110 110-183t204-73h256q14 0 46 4 58-68 146-68h64l-38 152q50 44 74 104h60zM864 512q14 0 23-9t9-23-9-23-23-9-23 9-9 23 9 23 23 9z"></path>
</svg>
