<!-- Generated by IcoMoon.io -->
<svg version="1.1" xmlns="http://www.w3.org/2000/svg" width="1024" height="1024" viewBox="0 0 1024 1024">
<title></title>
<g id="icomoon-ignore">
</g>
<path fill="#000" d="M494 318q-1-62-17-116t-49-111q13-33 48.5-41.5t58.5-6.5q15 76 18.5 140t-3.5 137zM1003 519q-1-83-29-149.5t-76-110.5-111-61.5-135-2.5q-25 6-49.5 15.5t-47.5 22.5q0 21-1.5 42.5t-3.5 44.5l-56-2q0-21-2-40.5t-6-38.5q-26-15-53-25t-55-16q-18-4-36-5.5t-35-1.5v0q-59 2-111.5 28t-92 70-62.5 105-22 133q1 83 29.5 161t77 142 112.5 108 136 58q36 8 81 5.5t70-26.5q24 20 70 23.5t82-4.5q72-16 132-61.5t103.5-110 67.5-143 23-160.5v0zM693 418q-7 62-39.5 92t-97.5 21q-15-54 29.5-95.5t107.5-17.5v0zM521 333q47 47 42 91t-51 86q-56-36-49.5-96.5t58.5-80.5v0zM468 511q-60 26-99 5t-61-79q55-39 108-10t52 84v0zM269 577q39-55 99-45.5t77 61.5q-48 45-92 38.5t-84-54.5v0zM307 759q-6-67 46-98.5t99-3.5q-8 66-45.5 89t-99.5 13v0zM496 850q-46-42-50.5-86t41.5-91q52 20 59 80t-50 97v0zM676 757q-61 12-99-10.5t-48-87.5q47-30 99.5 0.5t47.5 97.5v0zM553 584q27-48 87.5-46t88.5 63q-48 40-92.5 38t-83.5-55v0z"></path>
</svg>
