<!-- Generated by IcoMoon.io -->
<svg version="1.1" xmlns="http://www.w3.org/2000/svg" width="1024" height="1024" viewBox="0 0 1024 1024">
<title></title>
<g id="icomoon-ignore">
</g>
<path fill="#000" d="M440 699l264-265-14-14 60-60-87-87-60 60-14-15-11 11q-28-56-21-126t58-157v0q-124-49-244.5-8.5t-207.5 133-124.5 217 5.5 242.5q40-23 80-39.5t78.5-25 74-9 66.5 7.5l-19 19 14 14-317 317v91h84l321-321 14 15zM978 410q-88 51-158.5 58t-126.5-22l-233 232q9 31 8.5 67t-9 75-25 79.5-39.5 81.5q118 43 242.5 5.5t217-124.5 133-208-9.5-244v0z"></path>
</svg>
