<!-- Generated by IcoMoon.io -->
<svg version="1.1" xmlns="http://www.w3.org/2000/svg" width="1024" height="1024" viewBox="0 0 1024 1024">
<title></title>
<g id="icomoon-ignore">
</g>
<path fill="#000" d="M535 462l54-204-35-35-34 75-1-109-47-47-24 39-5-68-77-78-54 204-134-135-63 63 135 135-206 55 33 34 102-2-74 29 79 79 66 4-26 18 41 2-34 24 36 35 206-55 481 482h50v-76zM689 416l63 4-36 23 61 61 119-31 108 108v-113l-54-54 30-112-140-140-30 112-76-76-56 57 78 78-119 31 52 52zM344 928v0l41-156-27-27-25 39-4-68-83-83-30 111-76-76-57 57 78 79-118 31 108 108h68l-33 31 115-30 64 63h112l-121-122z"></path>
</svg>
