<!-- Generated by IcoMoon.io -->
<svg version="1.1" xmlns="http://www.w3.org/2000/svg" width="1024" height="1024" viewBox="0 0 1024 1024">
<title></title>
<g id="icomoon-ignore">
</g>
<path fill="#000" d="M215 36q30 44 13 56.5t-53 7-77-23.5-59-35q1 30 33.5 64t78.5 58.5 96.5 33 85.5-11.5q22-13 14.5-36.5t-29.5-47-51.5-42.5-51.5-23v0 0zM103 189v0 0 0zM530 371q8 52 36.5 74t62 39.5 63.5 43.5 42 87q-30-23-81-25.5t-91.5-17.5-56-57 24.5-144v0zM410 150l2 3q90 74 98 134t-27.5 83.5-95.5-1-105-118.5q12 61-11.5 80.5t-58 6.5-68-53-41.5-96q-49 102-17 160t90.5 101 117 85.5 62.5 111.5q3 39-22 48t-61.5-6-76.5-51.5-67-88.5q183 391 420.5 430t358.5-98.5 39.5-363.5-537.5-367v0zM757 510q-16 44 11 87t53 85.5 29 84-61 83.5q19-26 19.5-64.5t-20.5-73.5-64-59-111-21q88 54 110 122t4.5 110.5-62.5 40.5-91-87q2 53 17 83.5t37 45.5q-45-9-84-32.5t-68-58-45-77.5-16-92q0-58 23.5-109t63.5-87q0-22 6.5-51.5t21.5-68.5q4 27 14.5 45t24.5 31q25-12 53-18t57-6q67 0 125 27t94 77v0q33 57 17 71.5t-49.5 4-68.5-38-40-54.5v0zM528 741q31 16 31.5 1t-15-41-40-52.5-43.5-31.5q32-3 70 15t67.5 44.5 44.5 56 0 50.5q-22 31-66 5.5t-49-47.5v0 0z"></path>
</svg>
