<!-- Generated by IcoMoon.io -->
<svg version="1.1" xmlns="http://www.w3.org/2000/svg" width="1024" height="1024" viewBox="0 0 1024 1024">
<title></title>
<g id="icomoon-ignore">
</g>
<path fill="#000" d="M736 438q-35 40-39.5 47.5t-69.5 39.5l109-87q-20-26-40.5-49.5t-42.5-43.5q-39 60-72 79.5t-85 41.5l156-121q-36-34-75.5-55.5t-81.5-26.5q-12-2-24.5-0.5t-25.5 5.5q-47-71-34.5-111t45.5-106q-47 17-63.5 38t-39.5 97q-14-25-41-46.5t-61-38-72.5-28-74.5-16.5q66 46 110 90.5t43 99.5q-53-10-101.5-0.5t-108.5 42.5q48-5 95.5-5.5t88 4.5 71.5 17 45 33q-15 20-23.5 41.5t-7.5 42.5q1 106 98.5 215t216 192.5 220.5 126 112 14.5q6-13-8-70t-44-134.5-74.5-165-100.5-162.5v0z"></path>
</svg>
