<!-- Generated by IcoMoon.io -->
<svg version="1.1" xmlns="http://www.w3.org/2000/svg" width="1024" height="1024" viewBox="0 0 1024 1024">
<title></title>
<g id="icomoon-ignore">
</g>
<path fill="#000" d="M947 51q-63 14-125.5 24.5t-125.5 17.5l-141 270 93 41-230 378 83-338-45-21-143 40 119-100 87-261q-52 0-103.5-2.5t-103-9-103-16-103.5-23.5v0q23 20 42.5 54.5t33.5 80.5 22 101.5 8 116.5q0 66-10 125.5t-26 107.5q23 53 56 99.5t77 89 100 82 126 79.5q69-37 123.5-73.5t96.5-77 73.5-86 53.5-98.5q-19-49-29.5-112.5t-10.5-135.5q0-61 7.5-116.5t22-101.5 33.5-80.5 42-54.5v0z"></path>
</svg>
