<!-- Generated by IcoMoon.io -->
<svg version="1.1" xmlns="http://www.w3.org/2000/svg" width="1024" height="1024" viewBox="0 0 1024 1024">
<title></title>
<g id="icomoon-ignore">
</g>
<path fill="#000" d="M930 747v0q-49-17-95-38.5t-88.5-47-82-55-76.5-63.5l-48 49q33 37 63.5 76.5t57 81.5 49.5 85.5 42 89.5q34 83 99 40.5t-15-124.5q95 68 139 2t-45-96v0zM489 440q-33-39-63.5-81t-58-87-53-92.5-48.5-97.5q-31-65-94-21t-3 118q-72-67-114.5-10t32.5 91q48 22 94 47.5t90.5 54.5 86 61 81.5 67l50-50zM99 746q117-40 215.5-105.5t180-151 148-189 121.5-219.5q30-65 93.5-21t2.5 118q73-67 115-10t-33 91q-110 50-210.5 119t-186.5 154-154 183.5-114 208.5q-34 83-99 40.5t15-124.5q-95 68-139 2t45-96v0 0z"></path>
</svg>
