<!-- Generated by IcoMoon.io -->
<svg version="1.1" xmlns="http://www.w3.org/2000/svg" width="1024" height="1024" viewBox="0 0 1024 1024">
<title></title>
<g id="icomoon-ignore">
</g>
<path fill="#000" d="M888 307q-33-53-77.5-97.5t-94.5-79.5-102.5-61.5-101.5-42.5q-34 10-67 24.5t-65 33.5l169 132-46 47 166 127-312-98 64-61-169-54q-32 28-60.5 61t-53.5 69q34 91 51 152t17 115.5-17 115-51 151.5q92 70 186 106t188.5 37 188.5-34.5 187-108.5q-28-91-42-151.5t-14-115 14-115.5 42-152v0zM764 575q-47-23-93-38t-92-21q-9 58-13.5 115t-4 114 6 114 16.5 114h-119q14-57 20-114t6-114.5-6-114.5-16-115q-47 6-94 21t-94 39v-142q60-17 122-23t123.5-5 121.5 9 116 19v142z"></path>
</svg>
