<!-- Generated by IcoMoon.io -->
<svg version="1.1" xmlns="http://www.w3.org/2000/svg" width="1024" height="1024" viewBox="0 0 1024 1024">
<title></title>
<g id="icomoon-ignore">
</g>
<path fill="#000" d="M559 898q0 22 20 38t44 16v0q24 0 44.5-16.5t20.5-38.5q0-44-29-78t-36-110q-5 76-34.5 111.5t-29.5 77.5v0zM993 458q16-29 3.5-69t-39.5-52l-271 91q-1-4-3-7.5t-4-6.5l225-161q3-15-2.5-32.5t-16.5-31.5q-11-15-26-25.5t-31-12.5l-229 167q-3-2-5-3.5t-5-3.5l147-231q-6-26-37.5-44t-61.5-17v0q-4 0-8 0.5t-8 1.5l-201 315q-21-90-52-163t-127-32q16 44 27 89.5t20 89 16.5 84.5 17.5 76q-23 28-53 57.5t-67 58.5-82.5 56-99.5 50v302h310q35-67 69-122.5t67-95.5 63.5-63 58.5-23l12-1-63-181 42-15-67-157 137 185-55 15 71 151 299-11q23-22 25.5-65t-20.5-64l-247 7q-1-3-1-6v-6l272-94z"></path>
</svg>
