<!-- Generated by IcoMoon.io -->
<svg version="1.1" xmlns="http://www.w3.org/2000/svg" width="1024" height="1024" viewBox="0 0 1024 1024">
<title></title>
<g id="icomoon-ignore">
</g>
<path fill="#000" d="M926 37l-70 116q-45-15-104.5-13.5t-101.5 13.5l-67-114q-42 77-58 140.5t-12.5 113.5 23.5 86.5 52 61.5q-10 6-20 12.5t-20 13.5q-132-105-249.5-108t-190 56-85.5 161.5 65 208.5h2q28 40 59.5 65.5t66.5 39.5q49 18 99.5 16.5t100.5-8.5q49-7 98-13.5t95-3.5q47 3 92.5 19.5t88.5 62.5q29 32 55.5 9t-8.5-57q-52-51-107.5-73.5t-110.5-26.5-107.5 4-100.5 14q-48 7-90.5 8t-78.5-13q-17-6-33.5-16.5t-32.5-26.5h720q13-45 20-90.5t7-88.5-6.5-81-21.5-68q44-23 72.5-61t36-90.5-10.5-120-67-148.5v0zM710 348q-56 27-84 9.5t-39-62.5q55-34 86.5-14t36.5 67v0zM802 348q5-47 36.5-67t85.5 14q-10 45-38 62.5t-84-9.5v0z"></path>
</svg>
