<!-- Generated by IcoMoon.io -->
<svg version="1.1" xmlns="http://www.w3.org/2000/svg" width="1024" height="1024" viewBox="0 0 1024 1024">
<title></title>
<g id="icomoon-ignore">
</g>
<path fill="#000" d="M281 504q77 73 162.5 141t176 129 184 114.5 185.5 97.5q-44-92-97-185.5t-114.5-184-129.5-176.5-142-164q8-4 15.5-8.5t15.5-8.5l81 7 55-129-137 11q-50 30-96 63.5t-87 69.5q-37-60-85.5-106t-109.5-75q1-3 1-6v-6q0-30-21-51t-51-21-51 21-21 51 21 51 51 21q4 0 7.5-0.5t7.5-1.5q27 67 73 113.5t106 80.5q-38 41-70.5 86t-59.5 95l-12 138 129-55-7-81q5-8 10-15.5t10-15.5v0zM338 435l102-102q36 35 69 76t63 84 56 87.5 47 88.5q-45-21-89.5-47t-87.5-55.5-83.5-62.5-76.5-69v0z"></path>
</svg>
