<!-- Generated by IcoMoon.io -->
<svg version="1.1" xmlns="http://www.w3.org/2000/svg" width="1024" height="1024" viewBox="0 0 1024 1024">
<title></title>
<g id="icomoon-ignore">
</g>
<path fill="#000" d="M986 150l15-57q-30-30-69.5-40t-79.5 0l-15 57 27 7-62 231-15-4q-12 18-38.5 26.5t-57.5 2.5l-16 58q20 2 40 4.5t39 6.5q-32 62-53.5 130.5t-31 138.5-7 139.5 19.5 134.5q48-56 86-116t64.5-124 41-130.5 17.5-135.5q18 6 36.5 13.5t37.5 15.5l15-57q-30-11-48.5-31.5t-19.5-42.5l-16-4 62-231 28 8zM813 498q-16-4-24-18t-4-29q1-1 1-1.5v-1.5q2-6 6-11t9-8v0 0q1-1 2-1t1-1v0 0q1 0 2-0.5l1-0.5h1q0-1 1-1t2-1v0 0h1.5t1.5-1v0 0h15q1 0 1.5 0.5t1.5 0.5 2 0.5 2 0.5v0 0q1 0 1.5 0.5t1.5 0.5v0 1q1 0 2 0.5l1 0.5h1q0 1 1 1.5l1 0.5h1q0 1 1 1.5l1 0.5v1q1 0 1.5 0.5l1.5 1.5q0 1 0.5 1.5l3 3t0.5 1.5v0 0q1 1 1 1.5t1 1.5v0 0q0 1 0.5 1.5t0.5 1.5v0 0q1 1 1 2v1q2 5 2 9.5t-1 8.5v1.5t-1 1.5q-4 15-17.5 23t-28.5 4v0zM576 338h-16v-239h28v-59q-36-21-77-20.5t-78 20.5v59h29v239h-16q-7 21-30.5 36t-54.5 17v60q20-4 39.5-6t39.5-4q-15 69-18 140.5t5.5 141.5 29.5 136.5 53 124.5q33-66 54-134t30-136.5 6-137-19-135.5q20 2 40 4.5t40 5.5v-60q-32-2-55.5-17t-29.5-36v0zM549 442q0 16-11 27t-27 11-27-11-11-27v-3q0-6 2.5-12t6.5-11v0 0q1 0 1.5-0.5t0.5-1.5h1q0-1 1-1.5l1-0.5v-1q1 0 1.5-0.5t1.5-0.5v-1q1 0 1.5-0.5t1.5-0.5v0 0q1-1 2-1t1-1h1l1-0.5t2-0.5v0 0q1 0 1.5-0.5t1.5-0.5h4q1 0 2-0.5t2-0.5v0 0 0 0q1 0 2 0.5l1 0.5h4q1 0 2 0.5t2 0.5v0 0q1 0 1.5 0.5t1.5 0.5v0 0q1 1 1.5 1t1.5 1h1l2 1q0 1 0.5 1h0.5l1 0.5t1 1.5v0h1l5 5 0.5 1t1.5 1v0 0q0 1 0.5 1.5l1.5 1.5q2 4 3.5 8.5t1.5 8.5v0 3zM347 431l-16-58q-31 6-57.5-2.5t-38.5-26.5l-15 4-62-231 27-7-15-57q-40-10-80 0t-69 40l15 57 28-8 61 231-15 4q-1 22-20 42.5t-48 31.5l15 57q18-8 36.5-15.5t37.5-13.5q3 69 17.5 135.5t41 130.5 64 124 86.5 116q17-65 19.5-134.5t-7-139.5-31-138.5-53.5-130.5q19-4 39-6.5t40-4.5v0zM236 451q5 15-3 29t-24 18q-15 4-28.5-4t-18.5-23v-3q-1-4-1-8.5t2-9.5v0 0-1t1-2v0 0q0-1 0.5-1.5t0.5-1.5v0 0q1-1 1-1.5t1-1.5v0 0q0-1 0.5-1.5l1.5-1.5q0-1 0.5-1.5l3.5-3.5q1 0 1-0.5v-0.5l1-0.5t1-1.5v0h1l1-0.5t1-1.5v0h1l2-1 1-1 1-0.5t2-0.5v0 0q1 0 2-0.5t2-0.5l1-0.5t2-0.5v0 0h15q1 1 1.5 1h1.5q1 1 1.5 1t1.5 1v0 0q1 0 2 0.5l1 0.5h1q0 1 1 1t1 1h1q5 3 9 8t6 11v0 0 3z"></path>
</svg>
