<!-- Generated by IcoMoon.io -->
<svg version="1.1" xmlns="http://www.w3.org/2000/svg" width="1024" height="1024" viewBox="0 0 1024 1024">
<title></title>
<g id="icomoon-ignore">
</g>
<path fill="#000" d="M1006 558q-31-34-62-66.5t-62-63-62-59.5-62-56q-49-43-97.5-81.5t-95.5-73-92.5-65.5-89.5-59h-147q46 28 96.5 62t100.5 73 97 82 86 88q-66-16-140-40t-149.5-52-150-58-141.5-59v122l1 1-10-3q131 57 262.5 106t258 88.5 243 68.5 216.5 45v0zM119 578q-4 17-21 52.5t-17 55.5q0 27 19 46t46 18 46-21 19-47q0-20-17.5-54.5t-22.5-51.5q-9-32-5.5-70t16-70.5 32-55.5 42.5-27q-49-19-97.5-38.5t-96.5-40.5q16 17 30.5 55t23 83 10 90-6.5 76v0zM496 822q-5 17-23 55t-18 60q0 28 19.5 47.5t47.5 19.5q29 0 49.5-20t20.5-48q0-22-17-59.5t-23-55.5q-11-32-13-81t4-94 19.5-77 32.5-30q33 4 39.5 59t-7.5 101q-3 11-13.5 33t-10.5 35q0 17 12 29t29 12 29-12 12-30q0-12-9.5-34.5t-13.5-32.5q-13-41 6-112t51-82q-39-10-79.5-22t-82-25-84-27-85.5-29q42 28 67.5 84t37.5 119 12 122-9 95v0zM948 559q-48-10-98.5-21.5t-104.5-25.5q19 15 32 43.5t18.5 65 4 77-11.5 78.5q-6 21-26.5 65t-20.5 69q0 33 23.5 57t56.5 23q34-1 57.5-26.5t23.5-58.5q0-25-22-67.5t-27-63.5q-23-82 10-143t85-72v0z"></path>
</svg>
