<!-- Generated by IcoMoon.io -->
<svg version="1.1" xmlns="http://www.w3.org/2000/svg" width="1024" height="1024" viewBox="0 0 1024 1024">
<title></title>
<g id="icomoon-ignore">
</g>
<path fill="#000" d="M980 30q-30 52-75.5 91t-100.5 63.5-117 35-125 6.5q-45 30-107.5 63.5t-133 64.5-144 56.5-140.5 38.5v290q179-58 358.5-114t318-133 215.5-186.5 51-275.5v0zM857 551q0 22 18.5 37t40.5 15v0q22 0 39.5-14t17.5-36q0-43-23-72.5t-34-93.5q-11 64-35 91t-24 73v0zM444 681q0 18-13 33t-13 30q0 19 15 31.5t33 12.5 34-13.5 16-33.5-14-33.5-14-30.5q0-26 9.5-46.5t25.5-34.5q-32 12-65 24t-67 23q23 0 38 9t15 29v0zM175 825q-10 49-28.5 70.5t-18.5 56.5q0 19 15 31t33 12 32.5-11.5 14.5-28.5q0-35-18-58t-28-72q6-49 38-86.5t72-61.5q-42 14-84.5 27t-85.5 26q19 8 35 29t23 66v0zM835 427q-47 39-105 72.5t-124 62.5q47-5 90 15.5t57 66.5q-20 85-52 128t-32 105q0 33 27 54.5t61 21.5q33 0 61.5-23t28.5-57q0-66-33-105.5t-53-124.5q16-86 35-135.5t39-80.5v0z"></path>
</svg>
