<!-- Generated by IcoMoon.io -->
<svg version="1.1" xmlns="http://www.w3.org/2000/svg" width="1024" height="1024" viewBox="0 0 1024 1024">
<title></title>
<g id="icomoon-ignore">
</g>
<path fill="#000" d="M950 182q-12 148-83.5 135t-71.5-115v0q0-81-62-99.5t-89 70.5q-61-62-134-60.5t-133 65.5q-26-95-89.5-77.5t-63.5 99.5q0 103-71 116t-83-136q-56 63-52 129.5t54 117.5q37 36 91.5 39.5t105.5-22.5q-4 30-6 61.5t-2 66.5q32 32 54 71t35.5 84.5 19.5 98.5 6 112q18 18 37 30t38 19q8-55 4.5-108.5t-5.5-107.5l56 83 59-84q-1 54-3.5 108t2.5 107q19-7 37.5-18.5t37.5-28.5q0-58 4.5-110.5t17.5-98.5 37.5-86 65.5-71q0-34-2-64.5t-5-58.5q49 23 102 18.5t88-39.5q51-50 54.5-116.5t-51.5-129.5v0zM379 621q-23 0-41-29t-20-70q-3-40 11.5-69t37.5-29 41 29 20 69q3 41-11.5 70t-37.5 29v0zM698 522q-3 41-21 70t-41 29-37.5-29-11.5-70q2-40 20-69t41-29 37.5 29 12.5 69v0z"></path>
</svg>
