<!-- Generated by IcoMoon.io -->
<svg version="1.1" xmlns="http://www.w3.org/2000/svg" width="1024" height="1024" viewBox="0 0 1024 1024">
<title></title>
<g id="icomoon-ignore">
</g>
<path fill="#000" d="M644 536l124 34-77-48 37-91-64 73-29-18-76 91q-25-36-8.5-97t51.5-124l56-58 83 52 26 114 159 43-126-70-25-112-89-56 47-49 85-68-104 36-11-4 81-157-116 144-88-34v-118l-38 145 139 53-78 82q-23 12-41 12.5t-33-8.5l-11-22 84-67-99 34-59-129 28-62-63 45-182-40 181 75 23 50-124 26-66-83 31 91-52 11-119-77 53 60-80 64 104-36 27 31 161-34-6 88 41-95 47-10 47 101q3 15 4 28.5t0 25.5l-90-35 82 71q-9 19-29 26t-53-3l-150-100-56 37-33-74 7 92-19 12-130-98 123 149 108-71q16 11 32.5 22t32.5 22l-24 83-97 40 127-7 27-94q9 6 17.5 11.5t17.5 11.5q37 57 57.5 122.5t22.5 119.5-16.5 86.5-59.5 23.5q13 58-25.5 100t-84.5 62h385q-52-29-83.5-69t-44-88-5.5-101 33-106l73-87z"></path>
</svg>
