<!-- Generated by IcoMoon.io -->
<svg version="1.1" xmlns="http://www.w3.org/2000/svg" width="1024" height="1024" viewBox="0 0 1024 1024">
<title></title>
<g id="icomoon-ignore">
</g>
<path fill="#000" d="M92 38v0 0 0zM92 38q0 162 14.5 300.5t59 256 127 214.5 220.5 176q138-80 221.5-177t127.5-214 58-255.5 14-300.5q-103 16-209 23.5t-212.5 7.5-212-7.5-208.5-23.5v0zM517 265q66 0 113.5 47.5t47.5 114.5-47.5 114.5-113.5 47.5q-67 0-114.5-47.5t-47.5-114.5 47.5-114.5 114.5-47.5v0zM805 354q25 16 49.5 34.5t48.5 40.5q-24 21-48.5 40t-50.5 34q5-18 7.5-37t2.5-39q0-19-2.5-37.5t-6.5-35.5v0zM228 354q-4 17-6.5 35.5t-2.5 37.5q0 20 2.5 39t7.5 37q-25-15-50-34t-49-40q24-22 48.5-41t49.5-34v0zM590 427q0 30-21.5 51.5t-51.5 21.5q-31 0-52-21.5t-21-51.5 21-51.5 52-21.5q30 0 51.5 21.5t21.5 51.5v0z"></path>
</svg>
