<!-- Generated by IcoMoon.io -->
<svg version="1.1" xmlns="http://www.w3.org/2000/svg" width="1024" height="1024" viewBox="0 0 1024 1024">
<title></title>
<g id="icomoon-ignore">
</g>
<path fill="#000" d="M380 985q68 0 141.5-0.5t132.5-0.5q77-57 86.5-120.5t-23.5-114.5-94.5-80-125.5-17q57 43 65 96t-15.5 102-69.5 86-97 49v0zM744 198v4q59 139 24.5 210t-97.5 73.5-120.5-62.5-44.5-198q-31 75-75.5 81t-78.5-30.5-46.5-101.5 18.5-131v0q-138 79-141 163.5t39.5 169 85 168.5-3.5 162q-27 45-65.5 38.5t-73.5-46.5-58.5-105.5-19.5-139.5q-37 95-44 176t9.5 147.5 52.5 118.5 85 89q3 1 35 1h82q-5-1-10-3l-10-4q-32-14-34-74.5t92-101.5q-9 58 29.5 64t71-36.5 32.5-132.5-86-223v0q64 21 116.5 44t96 51.5 78.5 63.5 64 79q40-36 68-93t37-118q32 59 40 129.5t-10.5 138-65 125-123.5 90.5h79q116-26 169-110t47.5-197-67.5-240.5-177-238.5v0z"></path>
</svg>
