<!-- Generated by IcoMoon.io -->
<svg version="1.1" xmlns="http://www.w3.org/2000/svg" width="1024" height="1024" viewBox="0 0 1024 1024">
<title></title>
<g id="icomoon-ignore">
</g>
<path fill="#000" d="M990 540q-49-85-98.5-143t-98-92-97-46.5-95.5-7.5l-54-120-50 143-101-60-1 126-93 4 25 61q-26 24-52.5 51t-52.5 56l-185-90 89 151-72 78 72 6-81 119 216-129 175 85-100 34 71 28-65 44 105 2-10 94 119-144h13.5t0.5-1h13q3 0 6-0.5t6-0.5h1q3 0 6-0.5t6-0.5h1q6 0 12-1t11-1q1 0 1-0.5t1-0.5q2 0 5-0.5t6-0.5v0h1q3-1 5.5-1t5.5-1v0 0q2 0 5-0.5t5-1.5h2q2 0 5-0.5t5-1.5v0 0q3-1 5.5-1.5t5.5-0.5v0h1q2-1 4.5-1.5t5.5-1.5v0h1q5-1 9.5-2.5t9.5-2.5h1q2-1 4.5-1.5t4.5-1.5h1q2-1 4.5-1.5t4.5-1.5v0 0q3-1 5-1.5t4-1.5h1q5-2 9-3.5t9-3.5v0 0q7-3 13.5-5.5t12.5-5.5v0 0q59-27 97-62t60-65.5 30-51.5l8-21zM721 467q7-25 29.5-38.5t48.5-6.5q5 1 9 3l8 4h-1q-15 0-25.5 10.5t-10.5 24.5 10.5 24.5 25.5 10.5q10 0 18.5-5t12.5-13q0 5-0.5 9.5t-1.5 9.5q-7 26-30 39t-48 7q-26-7-39-30t-6-49v0z"></path>
</svg>
