<!-- Generated by IcoMoon.io -->
<svg version="1.1" xmlns="http://www.w3.org/2000/svg" width="1024" height="1024" viewBox="0 0 1024 1024">
<title></title>
<g id="icomoon-ignore">
</g>
<path fill="#000" d="M375 595v150l129 75 129-75v-150l-129-75-129 75zM387 742l-1-139 121-68-120 207zM915 23h-61q-10 10-12 24t4 26l-54 42q-6-4-13-7t-16-3q-17 0-30 12.5t-13 30.5q0 6 1.5 10.5t3.5 8.5l-54 42q-6-6-13.5-9t-16.5-3q-18 0-31 12.5t-13 30.5q0 6 2 11.5t4 10.5l-51 40q-8-26-44-29t-50 20l-51-38q2-3 2.5-7t0.5-8q0-18-12.5-30.5t-30.5-12.5q-8 0-14.5 2t-11.5 6l-56-42q1-3 1.5-7t0.5-8q0-18-12.5-30.5t-30.5-12.5q-7 0-13.5 2.5t-12.5 6.5l-60-45q5-12 2.5-24.5t-12.5-21.5h-61q-12 12-12 30t12 31q12 12 29 12.5t29-10.5l60 45q-2 4-3 8.5t-1 8.5q0 18 12.5 31t30.5 13q8 0 15-3t13-8l55 42q-2 4-2.5 8t-0.5 9q0 18 12.5 30.5t30.5 12.5q8 0 15-2.5t13-7.5l57 43v84h2l-208 120v299l258 149 257-149v-299l-209-121h2v-71l65-51q5 3 10.5 4.5t11.5 1.5q18 0 30.5-12.5t12.5-30.5q0-3-0.5-6t-1.5-6l57-44q5 4 11.5 6t12.5 2q18 0 31-13t13-31q0-4-1-7.5t-2-7.5l57-44q12 9 27.5 7.5t26.5-12.5q13-13 13-31t-13-30v0zM667 765l-163 95-163-95v-190l163-95 163 95v190z"></path>
</svg>
