<!-- Generated by IcoMoon.io -->
<svg version="1.1" xmlns="http://www.w3.org/2000/svg" width="1024" height="1024" viewBox="0 0 1024 1024">
<title></title>
<g id="icomoon-ignore">
</g>
<path fill="#000" d="M327 766h368l25-158h-418zM273 415l19 125h438l19-125q-51-21-111.5-33t-126.5-12-126 12-112 33v0zM845 467l67-372q-16-21-50-26t-60 8l-20 128h-542l-20-128q-26-13-59.5-8t-50.5 26l68 372q-54 39-85 89t-31 107v0 1q0 60 35.5 113.5t96.5 93 142.5 62.5 174.5 23q94 0 175.5-23t142.5-63 96-93 35-114v0 0q0-57-31-107t-84-89v0zM679 871l9-57h-354l9 57q-27-7-53-17t-46-25l-65-363q20-14 43.5-27t49.5-24l-17-113h512l-17 113q26 11 49.5 24t44.5 27l-66 363q-20 15-45.5 25t-53.5 17v0z"></path>
</svg>
