<!-- Generated by IcoMoon.io -->
<svg version="1.1" xmlns="http://www.w3.org/2000/svg" width="1024" height="1024" viewBox="0 0 1024 1024">
<title></title>
<g id="icomoon-ignore">
</g>
<path fill="#000" d="M905 516q36-39 56.5-85.5t20.5-97.5q0-66-35.5-125t-94.5-103q21 28 33.5 60t12.5 66q0 36-12.5 69t-34.5 62l-19-55-92 28q-30-41-70.5-65.5t-92.5-33.5q-13-66-30-128t-33-62-33.5 62-30.5 128q-51 9-91.5 33.5t-71.5 65.5l-92-28-19 55q-22-29-34-62t-12-69q0-34 12.5-66t33.5-61q-60 45-95.5 104t-35.5 125q0 51 20.5 97.5t57.5 85.5l-20 58 92 42q-8 58-11.5 125.5t-3.5 143.5q39 23 79.5 39.5t82.5 28 85 16.5 87 5q43 0 86-5t85-16.5 82.5-28 79.5-39.5q0-76-3.5-143.5t-11.5-125.5l93-42-20-58zM558 683q-4 31-8 67.5t-7.5 74.5-5.5 74-2 65h-43q0-29-2-65t-5.5-74-7.5-75-8-67q-109-7-158.5-33.5l-49.5-26.5 9-60q1-2 1-3.5t1-2.5v-4t0.5-2 0.5-3v0 0-1.5t1-0.5v-3q58 20 118 29.5t122 9.5q61 0 121.5-9.5t117.5-29.5q0 1 0.5 1.5l0.5 0.5v3q0 1 0.5 1.5l0.5 0.5v4q0 1 0.5 1t0.5 1v3.5t1 1.5v4.5t1 1.5v5l1 1v6q1 0 1 0.5v5.5q1 0 1 0.5v5t1 1.5v4q2 11 3 19l1 8-48.5 27t-159.5 33v0z"></path>
</svg>
