<!-- Generated by IcoMoon.io -->
<svg version="1.1" xmlns="http://www.w3.org/2000/svg" width="1024" height="1024" viewBox="0 0 1024 1024">
<title></title>
<g id="icomoon-ignore">
</g>
<path fill="#000" d="M514 64v0q-88 41-167 117.5t-142 169.5-107 193.5-63 189.5q54 0 100.5 8.5t86.5 24.5 74 39.5 63 53.5l21-23q-42-43-98-79.5t-129-71.5q19-49 44-106t54-107.5 63-85.5 72-39q29-3 61 16.5t67 70.5q54-90 106-86.5t99 56.5 86.5 134 69.5 147q-71 38-127 75.5t-98 81.5l18 21q28-30 61.5-54t74-41 87.5-26 102-9q-22-88-66-187.5t-106-192-139.5-169.5-167.5-121v0zM452 612q0 19-22 28t-53 3-53-23.5-22-36.5 22-28 53-3 53 23.5 22 36.5v0zM570 612q0 19 21.5 28t53.5 3q31-6 53-23.5t22-36.5-22-28-53-3q-32 6-53.5 23.5t-21.5 36.5v0z"></path>
</svg>
