<!-- Generated by IcoMoon.io -->
<svg version="1.1" xmlns="http://www.w3.org/2000/svg" width="1024" height="1024" viewBox="0 0 1024 1024">
<title></title>
<g id="icomoon-ignore">
</g>
<path fill="#000" d="M543 479v479q44 0 88-1.5t88-8 88-19.5 88-34l-64-767q-240-96-320-96t-319 96l-64 767q44 21 88 34t87.5 19.5 87.5 8 88 1.5v-479h-255v-96h575v96h-256zM639 735h-32v-32h32v32zM639 671h-32v-32h32v32zM639 607h-32v-32h32v32zM703 735h-32v-32h32v32zM703 671h-32v-32h32v32zM703 607h-32v-32h32v32zM767 735h-32v-32h32v32zM767 671h-32v-32h32v32zM767 607h-32v-32h32v32zM383 575h32v32h-32v-32zM383 639h32v32h-32v-32zM383 703h32v32h-32v-32zM319 575h32v32h-32v-32zM319 639h32v32h-32v-32zM319 703h32v32h-32v-32zM256 575h32v32h-32v-32zM256 639h32v32h-32v-32zM256 703h32v32h-32v-32zM319 351q-6 0-10.5-4.5t-4.5-11.5q0-6 4.5-11t10.5-5q7 0 11.5 5t4.5 11q0 7-4.5 11.5t-11.5 4.5v0zM415 351q-6 0-11-4.5t-5-11.5q0-6 5-11t11-5q7 0 11.5 5t4.5 11q0 7-4.5 11.5t-11.5 4.5v0zM511 351q-6 0-11-4.5t-5-11.5q0-6 5-11t11-5q7 0 11.5 5t4.5 11q0 7-4.5 11.5t-11.5 4.5v0zM607 351q-7 0-11.5-4.5t-4.5-11.5q0-6 4.5-11t11.5-5 11.5 5 4.5 11q0 7-4.5 11.5t-11.5 4.5v0zM703 351q-7 0-11.5-4.5t-4.5-11.5q0-6 4.5-11t11.5-5q6 0 11 5t5 11q0 7-5 11.5t-11 4.5v0z"></path>
</svg>
