<!-- Generated by IcoMoon.io -->
<svg version="1.1" xmlns="http://www.w3.org/2000/svg" width="1024" height="1024" viewBox="0 0 1024 1024">
<title></title>
<g id="icomoon-ignore">
</g>
<path fill="#000" d="M843 876v-831h-669v831h-15l61 116 61-116h-34v-127h78v127h-14l61 116 61-116h-36v-127h74v127h-12l61 116 61-116h-37v-127h79v127h-14l61 116 61-116h-35v-127h74v127h-12l61 116 61-116h-37zM397 326h74v139h-74v-139zM325 465h-78v-139h78v139zM544 326h79v139h-79v-139zM696 326h74v139h-74v-139zM770 117v136h-74v-136h74zM623 117v136h-79v-136h79zM471 117v136h-74v-136h74zM325 117v136h-78v-136h78zM247 676v-139h78v139h-78zM397 676v-139h74v139h-74zM544 676v-139h79v139h-79zM696 676v-139h74v139h-74z"></path>
</svg>
