<!-- Generated by IcoMoon.io -->
<svg version="1.1" xmlns="http://www.w3.org/2000/svg" width="1024" height="1024" viewBox="0 0 1024 1024">
<title></title>
<g id="icomoon-ignore">
</g>
<path fill="#000" d="M512 37q-98 0-184 37t-150 101-101.5 150.5-37.5 184.5q0 97 37.5 183.5t101.5 150.5 150 101 184 37 184-37 150-101 101.5-150.5 37.5-183.5q0-98-37.5-184.5t-101.5-150.5-150-101-184-37v0zM682 692q-32 57-72 83t-82.5 25-85.5-28-81-76q-27 42-85.5 69.5t-110.5 19.5q-33-41-56-90t-33-103q35 34 87 39t83-44q24 36 60 55t75 18.5 77.5-21 68.5-62.5q18 25 48.5 46t66.5 24.5 75-16.5 73-76q31 61 80.5 51t84.5-50q-7 64-31 121.5t-62 105.5q-51 29-92.5 9t-87.5-100v0zM513 62q92 0 173 35t141.5 95.5 95.5 141.5 35 173v14t-1 14q-46 13-96-15t-76-73q-71 99-135 104t-123-107q-28 51-65 78.5t-75.5 32-74-13-60.5-57.5q-51 70-91 81t-92-25q-1-8-1-16.5v-16.5q0-92 35-173t95-141.5 141.5-95.5 173.5-35v0zM224 846q37 13 73.5 5t58.5-48q36 57 84.5 77t95.5 16 87-25 59-46q26 30 56 33.5t61-10.5q-58 49-131 76.5t-155 27.5q-83 0-156.5-28t-132.5-78v0z"></path>
</svg>
