<!-- Generated by IcoMoon.io -->
<svg version="1.1" xmlns="http://www.w3.org/2000/svg" width="1024" height="1024" viewBox="0 0 1024 1024">
<title></title>
<g id="icomoon-ignore">
</g>
<path fill="#000" d="M512 33q-99 0-186 37.5t-152 102.5-102.5 152.5-37.5 186.5v0 0q0 99 37.5 186.5t102.5 152.5 152 102.5 187 37.5q99 0 186-37.5t152-102.5 102.5-152.5 37.5-186.5v0 0q0-99-37.5-186.5t-102.5-152.5-152-102.5-187-37.5v0zM493 69l22-13 22 13v26l-22 13-22-13v-26zM114 283l22-13 23 13v25l-23 13-22-13v-25zM160 743l-23 13-22-13v-26l22-13 23 13v26zM534 955l-22 13-23-13v-25l23-13 22 13v25zM513 895q-80 0-149.5-30t-121.5-82-82.5-122-30.5-149v0 0q0-79 30.5-149t82.5-122 121.5-82 148.5-30q80 0 149.5 30t121.5 82 82.5 122 30.5 149v0 0q0 79-30.5 149t-82.5 122-121.5 82-148.5 30v0zM908 741l-22 13-22-13v-26l22-13 22 13v26zM909 308l-22 13-22-13v-25l22-13 22 13v25zM697 234q-34-23-74-37t-84-18v666q44-4 84-18t74-37v-556zM332 793q36 23 77 36.5t86 15.5v-666q-45 2-86 15.5t-77 36.5v562zM288 265q-50 46-79.5 110t-29.5 137v0 0q0 73 29.5 137t79.5 110v-494zM742 269v486q48-46 76-108.5t28-134.5v0 0q0-72-28-134.5t-76-108.5v0z"></path>
</svg>
