<!-- Generated by IcoMoon.io -->
<svg version="1.1" xmlns="http://www.w3.org/2000/svg" width="1024" height="1024" viewBox="0 0 1024 1024">
<title></title>
<g id="icomoon-ignore">
</g>
<path fill="#000" d="M655 148l-2 72-51 14-2 57-273 271q1 38-20.5 61t-45.5 21q-35-3-50.5-23.5t-14.5-51.5q-24 26-36.5 57.5t-12.5 63.5q24 0 48 6.5t45 19.5l-5 20q-37 26-74 64.5t-57 73.5q-2 5-4 9t-4 7l-64 18-3 83 84-3 18-64q3-2 7-4l8-4q35-20 73.5-56.5t64.5-73.5l20-5q12 21 18.5 44.5t6.5 47.5q34 0 66.5-12.5t58.5-37.5q-36-5-56-24t-18-43q4-39 25-51.5t53-11.5l278-278 45-1 13-45 79-4 85-302-303 85zM844 328l-78 2-13 47-118 5 4-118 51-14 3-74 209-58-58 210z"></path>
</svg>
