<!-- Generated by IcoMoon.io -->
<svg version="1.1" xmlns="http://www.w3.org/2000/svg" width="1024" height="1024" viewBox="0 0 1024 1024">
<title></title>
<g id="icomoon-ignore">
</g>
<path fill="#000" d="M954 436v0q-21-160-149.5-257t-281-108-288 74.5-169.5 290.5q-8 46 11 79t57.5 55.5 92 35.5 114.5 19q-17 75-30 136.5t-3 105.5 53 68 139 24q102 0 147.5-26t55-71.5-6-107-35.5-133.5q62-9 117.5-24.5t96.5-38 62.5-53 16.5-69.5v0zM563 109q51-10 80.5 37t-39.5 60q-51 10-80.5-37t39.5-60v0zM417 117q32 21 11 47t-45 11q-33-22-12-48t46-10v0zM386 211q32-21 60.5 14t-15.5 64q-33 21-61-14.5t16-63.5v0zM185 480q-37-23-13.5-52.5t51.5-12.5q36 24 12.5 53.5t-50.5 11.5v0zM259 345q-53 9-55.5-59t70.5-81q53-9 55.5 59.5t-70.5 80.5v0zM377 441q45 29 16.5 64.5t-61.5 14.5q-44-29-15.5-64.5t60.5-14.5v0zM621 490q-34 22-70 10.5t-56-39.5-16.5-65 49.5-67q33-22 69-10.5t56.5 40 16.5 65.5-49 66v0zM745 293q-31-9-30.5-45t42.5-23q31 10 30.5 45.5t-42.5 22.5v0zM810 491q-63-41-22.5-92t87.5-21q63 41 22.5 92t-87.5 21v0z"></path>
</svg>
