<!-- Generated by IcoMoon.io -->
<svg version="1.1" xmlns="http://www.w3.org/2000/svg" width="1024" height="1024" viewBox="0 0 1024 1024">
<title></title>
<g id="icomoon-ignore">
</g>
<path fill="#000" d="M809 66l-633 220 37 668 633-220-37-668zM772 90q-49 43-127.5 91.5t-163.5 83-165 45-132-22.5l588-197zM183 299q50 25 71 89.5t21.5 151-15 185.5-38.5 192l-39-618zM248 931l93-150 236-80q-27 30-66.5 62t-84 62.5-91 58-87.5 47.5v0zM336 772l-22-393 373-131 21 393-372 131zM711 499l-17-249 103-143q-3 46-10.5 99.5t-18.5 106-25.5 101.5-31.5 85v0zM570 564q-32-3-51.5-30t-15.5-63 29.5-59.5 57.5-21.5q5 0 10 1.5t10 2.5q-2-23-8-46.5t-16-45.5v0l-259 88 17 273q86 19 145-11.5t90-87.5h-9z"></path>
</svg>
