<!-- Generated by IcoMoon.io -->
<svg version="1.1" xmlns="http://www.w3.org/2000/svg" width="1024" height="1024" viewBox="0 0 1024 1024">
<title></title>
<g id="icomoon-ignore">
</g>
<path fill="#000" d="M977 224q-8-13-26-20t-25-13q-23-19-68-25.5t-89 38.5v0q-5 5-10 8.5t-9 6.5q-16-17-36-21t-39-4q-23 0-48 12t-33 33q-5-23-31.5-34t-49.5-11q-24 0-49.5 14t-33.5 30q-8-26-34.5-38t-49.5-11q-24 1-50 17.5t-34 43.5q-45-25-86-16t-70 36q-29 26-47.5 60.5t-27 74.5-7 84 11.5 89q11 52 32.5 86.5t60.5 51.5v0q9 4 16.5 8t15.5 7l-34 164q9 21 28.5 22t47.5-14l67-188q7 11 14.5 19t14.5 14l5 134q28 29 44.5 19.5t31.5-27.5l-10-102q4-1 8.5-1t9.5-1q29-3 58-24t44-62q17 40 40 51t50 12q15 1 29.5-1t26.5-13l27 161q26 21 43.5 13.5t30.5-27.5l-17-145q2 0 4.5-0.5t4.5-1.5q7-1 13-2.5t12-3.5l40 150q23 5 42.5 2.5t29.5-27.5l-62-185q25 17 51.5 4t42.5-33q26-34 29.5-80.5t-0.5-93.5q1-2 2.5-3t2.5-3q12-13 18.5-52t7.5-66q1 15 9 30.5t25 13.5q31-7 18.5-66t-33.5-94v0zM920 406q-1 3-3 6.5t-4 6.5v0h-1v0.5t-1 0.5v1q-1 0-1.5 1l-0.5 1q-1 0-1 0.5v0.5l-2 2h-1l-2 2h-1q0 1-0.5 1t-1.5 1v0 0q-1 0-1.5 0.5l-0.5 0.5h-1l-1-46 0.5-0.5t1.5-0.5v0 0q1 0 1.5-0.5l0.5-0.5h1l0.5-0.5t1.5-0.5v0 0h3q0-1 0.5-1h7.5v1h2l1 1h1q2 2 3.5 4.5t1.5 6.5q0 3-0.5 6t-2.5 6v0zM848 401q-1-12 7.5-15t17.5 2v0l8 45q-9-6-20-10t-13-22v0zM843 306q0 6-4.5 10.5t-10.5 4.5q-7 0-11.5-4.5t-4.5-10.5 4.5-10.5 11.5-4.5q6 0 10.5 4.5t4.5 10.5v0zM934 314q-6 0-10.5-4t-4.5-11q0-6 4.5-10.5t10.5-4.5q7 0 11.5 4.5t4.5 10.5q0 7-4.5 11t-11.5 4v0z"></path>
</svg>
