<!-- Generated by IcoMoon.io -->
<svg version="1.1" xmlns="http://www.w3.org/2000/svg" width="1024" height="1024" viewBox="0 0 1024 1024">
<title></title>
<g id="icomoon-ignore">
</g>
<path fill="#000" d="M975 390q-7-26-31-40t-50-6q-17 4-29 16t-17 27l-167-46-46-166q16-5 28-17t16-29q7-27-6.5-50.5t-39.5-30.5q-27-7-50.5 6.5t-30.5 40.5q-5 17-0.5 33.5t15.5 28.5l-122 121-168-44q3-16-1.5-32t-16.5-29q-20-19-47-19t-47 19q-19 19-19 46.5t19 46.5q13 13 30 17.5t33 0.5l44 167-124 124q-12-11-28.5-15.5t-33.5 0.5q-26 7-39.5 30.5t-6.5 50.5q7 26 30.5 39.5t50.5 6.5q17-4 29.5-16.5t16.5-29.5l168 46 46 169q-16 4-28.5 16.5t-17.5 29.5q-7 26 7 50t40 31 50-6.5 31-40.5q4-17-0.5-34t-15.5-29l124-123 168 44q-4 17 0.5 34t16.5 30q20 19 47 19t47-19q19-20 19-47t-19-47q-13-12-29.5-16.5t-32.5-0.5l-44-170 121-122q12 12 29 16.5t34-0.5q26-7 40-30.5t7-50.5v0zM454 710q-42-11-74-36.5t-52-60-26-75.5 5-83q16-59 60.5-99t101.5-51q-37 17-64.5 48.5t-38.5 73.5q-20 76 19 143.5t114 87.5q58 16 113-4.5t88-65.5q-29 71-99 106.5t-147 15.5v0z"></path>
</svg>
