<!-- Generated by IcoMoon.io -->
<svg version="1.1" xmlns="http://www.w3.org/2000/svg" width="1024" height="1024" viewBox="0 0 1024 1024">
<title></title>
<g id="icomoon-ignore">
</g>
<path fill="#000" d="M701 425q0 25-17.5 42.5t-42.5 17.5-42.5-17.5-17.5-42.5 17.5-42.5 42.5-17.5 42.5 17.5 17.5 42.5v0zM745 516q0 12-9 21t-21 9-21-9-9-21q0-13 9-21.5t21-8.5 21 8.5 9 21.5v0zM198 649q-18 0-38 8t-42 26q-15 26-23 55.5t-8 60.5q0 55 25 104t69 87v-18q0-71 28-130.5t75-97.5q0-37-24-66t-62-29v0zM938 799q0-31-8-60.5t-23-55.5q-21-18-41-26t-38-8q-39 0-63 29t-24 65q47 39 75.5 98.5t28.5 130.5v18q43-38 68-87t25-104v0 0zM32 34v474q0 30 26.5 59.5t69.5 55.5q18-9 35.5-14t34.5-5q43 0 77 27t47 69q3 1 6 1.5t5 1.5q21-15 39-20t31-5q26 0 48 13.5t36 35.5q6 0 12.5 0.5t13.5 0.5q6 0 12.5-0.5t12.5-0.5q14-22 36-35.5t49-13.5q12 0 29 4.5t37 17.5l16-4q14-41 47-66.5t76-25.5q15 0 30.5 3.5t31.5 11.5q45-27 73.5-55.5t28.5-55.5v-474h-960zM167 437q-31 0-53-22t-22-53 22-53 53-22 53 22 22 53-22 53-53 22v0zM362 575q-50 0-85-35.5t-35-84.5q0-50 35-85.5t85-35.5 85 35.5 35 85.5q0 49-35 84.5t-85 35.5v0zM662 575q-49 0-84.5-35.5t-35.5-84.5q0-50 35.5-85.5t84.5-35.5q50 0 85 35.5t35 85.5q0 49-35 84.5t-85 35.5v0zM857 437q-31 0-53-22t-22-53 22-53 53-22 53 22 22 53-22 53-53 22v0zM187 344q0 13-9.5 23t-23.5 10-23.5-10-9.5-23q0-14 9.5-23.5t23.5-9.5 23.5 9.5 9.5 23.5v0zM213 400q0 6-4 9.5t-9 3.5-9-3.5-4-9.5q0-5 4-9t9-4 9 4 4 9v0zM877 344q0 13-9.5 23t-23.5 10q-13 0-23-10t-10-23q0-14 10-23.5t23-9.5q14 0 23.5 9.5t9.5 23.5v0zM903 400q0 6-3.5 9.5t-9.5 3.5q-5 0-9-3.5t-4-9.5q0-5 4-9t9-4q6 0 9.5 4t3.5 9v0zM403 720q-12 0-26 6t-29 18q-10 19-15.5 39.5t-5.5 42.5q0 39 17 73.5t47 60.5v-12q0-50 19.5-92t51.5-69q0-26-16.5-46.5t-42.5-20.5v0zM699 826q0-22-5.5-42.5t-15.5-38.5q-15-13-29-19t-26-6q-26 0-42.5 21t-16.5 46q32 27 51.5 69t19.5 92v6t-1 6q30-26 47.5-60.5t17.5-73.5v0 0zM401 425q0 25-17.5 42.5t-42.5 17.5-42.5-17.5-17.5-42.5 17.5-42.5 42.5-17.5 42.5 17.5 17.5 42.5v0zM445 516q0 12-9 21t-21 9-21-9-9-21q0-13 9-21.5t21-8.5 21 8.5 9 21.5v0z"></path>
</svg>
