<!-- Generated by IcoMoon.io -->
<svg version="1.1" xmlns="http://www.w3.org/2000/svg" width="1024" height="1024" viewBox="0 0 1024 1024">
<title></title>
<g id="icomoon-ignore">
</g>
<path fill="#000" d="M19 886v121h118l220-220-119-120zM815 690l-93-181 79-74 191 97-95-186 72-68-51-51 53-53-120-120-53 53-52-52-233 246-179-91 93 182-80 84-169-87 88 173-65 69 189 188 68-63 177 91-89-174 83-78 186 95zM742 194q37 0 63 26.5t26 63.5-26 63.5-63 26.5-63.5-26.5-26.5-63.5 26.5-63.5 63.5-26.5v0zM318 620q0-36 25.5-61.5t61.5-25.5 61.5 25.5 25.5 61.5-25.5 61.5-61.5 25.5-61.5-25.5-25.5-61.5v0zM482 451q0-37 26.5-63t63.5-26 63.5 26 26.5 63q0 38-26.5 64t-63.5 26-63.5-26-26.5-64v0zM678 127l-186-94 97 189zM823 284q0 34-24.5 58t-58.5 24-58-24-24-58 24-58.5 58-24.5 58.5 24.5 24.5 58.5v0zM629 395q23 24 23 56.5t-23 55.5-55.5 23-56.5-23q-23-23-23-56t23-56 55.5-23 56.5 23v0zM458 567q22 22 22 53t-22 52q-22 22-53 22t-53-22-22-53 22-53q21-22 52.5-22t53.5 23v0z"></path>
</svg>
