<!-- Generated by IcoMoon.io -->
<svg version="1.1" xmlns="http://www.w3.org/2000/svg" width="1024" height="1024" viewBox="0 0 1024 1024">
<title></title>
<g id="icomoon-ignore">
</g>
<path fill="#000" d="M27 919l31-31 81 81-31 31-81-81zM450 665q0-36-26-62t-62-26-62 26-26 62 26 62 62 26 62-26 26-62v0zM274 673v0l-167 166 81 81 166-167v-1q-32-3-54.5-25t-25.5-54v0zM274 665q0-34 23-59t56-28q-35-40-66-83.5t-58-89.5l-111 112 156 156v-8zM449 674q-3 33-28 56t-59 23h-4t-4-1l157 158 111-112q-46-27-89.5-58t-83.5-66v0zM815 75l-423 423q5 7 8 15.5t3 17.5q0 15-6.5 27.5t-16.5 20.5q26 5 44.5 24.5t23.5 45.5q9-11 21.5-17.5t26.5-6.5q10 0 18 2.5t15 7.5l423-424 30-166-167 30zM42 873l113 112 49-49-113-113-49 50z"></path>
</svg>
