<!-- Generated by IcoMoon.io -->
<svg version="1.1" xmlns="http://www.w3.org/2000/svg" width="1024" height="1024" viewBox="0 0 1024 1024">
<title></title>
<g id="icomoon-ignore">
</g>
<path fill="#000" d="M991 984l-169-104 109-153-199 51-65-181-114 143-106-321-89 290-177-142 74 216-195 9 97 97-100 95h209l57-53-34-75 113 41 57-167 65 186 114-86 4 111 128-14-41 57h262zM352 676l7 6 89-289 105 320 115-143 40 111v-336l106-132v-169h-98v80h-59v-80h-99v80h-58v-80h-99v80h-58v-80h-98v169l107 132v331z"></path>
</svg>
