<!-- Generated by IcoMoon.io -->
<svg version="1.1" xmlns="http://www.w3.org/2000/svg" width="1280" height="1024" viewBox="0 0 1280 1024">
<title></title>
<g id="icomoon-ignore">
</g>
<path fill="#000" d="M1244 212q16 8 26 24t10 32q0 28-36 90-14 26-44 26h-176v124q0 28-17 59t-39 47l-72 48v330q0 8-4 16t-12 12-16 4h-128q-14 0-23-9t-9-23v-250q-28 26-66 26t-66-26q-26 26-64 26t-66-26q-10 10-26 18l-30 78 38 146q4 16-6 28t-26 12h-132q-24 0-30-24l-34-136q-4-14-4-30 0-24 8-46l12-32q-44-18-56-60-56 10-92-34-36-46-14-98-50-26-50-83t50-85q-22-52 14-96 34-44 90-34 16-54 72-66 46-12 84 20 28-28 66-28t66 26q26-26 64-26 20 0 38 8 4 78 59 131t133 53q12 0 32-4-44-6-81-33t-58-68-21-87q0-80 56-136t136-56q84 0 142 64h146q26 0 45 19t19 45v38zM704 192q0 40 28 68t68 28 68-28 28-68-28-68-68-28-68 28-28 68zM1024 224q14 0 23-9t9-23-9-23-23-9-23 9-9 23 9 23 23 9z"></path>
</svg>
