<?xml version="1.0" encoding="utf-8"?>
<!-- Svg Vector Icons : http://www.onlinewebfonts.com/icon -->
<!DOCTYPE svg PUBLIC "-//W3C//DTD SVG 1.1//EN" "http://www.w3.org/Graphics/SVG/1.1/DTD/svg11.dtd">
<svg version="1.1" xmlns="http://www.w3.org/2000/svg" xmlns:xlink="http://www.w3.org/1999/xlink" x="0px" y="0px" viewBox="0 0 1000 1000" enable-background="new 0 0 1000 1000" xml:space="preserve">
<metadata> Svg Vector Icons : http://www.onlinewebfonts.com/icon </metadata>
<g><g transform="translate(0.000000,511.000000) scale(0.100000,-0.100000)"><path fill="#000" d="M7284.6,3804c-393.8-103.6-707.1-382.3-967.3-866c-89.8-165.8-124.4-205-267.2-308.6c-175-124.4-336.3-198.1-654.1-297.1c-483.7-154.3-1444.1-640.3-1833.3-928.2c-112.9-85.2-320.1-221.1-458.3-304c-363.9-218.8-640.3-504.4-813-843C2187.6,52.1,930.1-1009.7,342.7-1387.4L181.5-1491l94.4-6.9c124.4-9.2,331.7,46.1,587.3,156.6c112.9,48.4,195.8,76,184.3,62.2c-11.5-16.1-76-99-142.8-188.8c-64.5-87.5-168.1-209.6-225.7-269.5c-96.7-99-101.4-110.5-53-110.5c73.7,0,370.8,103.6,529.7,184.3c292.5,147.4,633.4,398.4,902.9,665.6C2206-850.8,2360.3-678,2401.8-615.8c99,154.3,71.4,57.6-62.2-216.5c-87.5-182-138.2-251.1-304-416.9c-108.3-110.6-264.9-244.2-347.8-297.1c-156.6-101.3-119.8-105.9,85.2-9.2c320.1,149.7,686.3,433,1064.1,824.6c228,237.2,253.3,260.2,209.6,170.4c-138.2-274.1-435.3-596.5-762.4-824.5c-92.1-64.5-156.6-117.5-145.1-117.5c46.1,0,580.4,278.7,746.2,386.9C3201-906,3479.7-643.5,3710-339.4c64.5,85.2,43.8,18.4-39.2-126.7c-149.7-267.2-407.7-548.2-670.2-732.4c-82.9-57.6-158.9-112.9-172.7-124.4c-71.4-64.5,439.9,186.6,700.2,345.5c375.4,223.4,796.9,585,937.4,799.2c20.7,32.2,43.8,52.9,50.7,48.4c4.6-6.9-32.2-85.2-87.5-175c-142.8-244.2-361.6-462.9-661-661c-142.8-94.4-260.3-177.3-260.3-179.6c0-4.6,20.7-2.3,46.1,4.6c25.3,6.9,85.2,4.6,131.3-4.6c76-16.2,20.7-32.2-430.7-131.3c-1358.9-297.1-1637.6-363.9-1709-416.9C1406.8-1795.1,264.4-3114.8,165.4-3287.5c-80.6-140.5-87.5-248.8-16.1-297.1c105.9-73.7,564.3-20.7,783.1,92.1c214.2,110.5,624.2,495.2,974.2,916.7c264.9,317.8,313.2,317.8,405.4,2.3c39.2-131.3,117.5-317.9,147.4-352.4c4.6-4.6,48.4,13.8,96.7,36.8c198.1,103.6,1335.8,465.3,1455.6,465.3c101.3,0,221.1-117.5,317.8-308.6c46.1-89.8,96.7-186.6,115.2-214.2l34.5-52.9l71.4,55.3c96.7,71.4,170.4,103.7,707.1,290.2c246.4,87.5,522.8,184.2,612.6,216.5c205,73.7,539,106,1114.8,106c234.9,0,465.2,11.5,511.3,25.3c140.5,36.9,168.1,115.2,165.8,458.4c-4.6,331.6-41.5,495.2-124.4,557.3c-117.5,85.2-345.5,115.2-1013.4,126.7c-575.8,11.5-882.1-4.6-1082.5-53c-32.3-6.9-9.2,16.1,57.6,53C5686.1-1055.7,7058.8-136.8,7266.1,19.9c274.1,207.3,615,557.4,702.5,723.2c184.2,350.1,292.5,730.1,327.1,1151.6c23,262.6,27.6,281,108.2,398.4c135.9,195.8,504.4,479.1,1075.6,822.2c209.6,129,260.3,172.7,195.8,172.7c-16.1,0-234.9-41.5-486-94.4c-251.1-50.7-483.7-89.8-518.2-85.2c-57.6,6.9-53,11.5,64.5,80.6c156.6,89.8,603.4,274.1,909.8,375.4c126.7,41.5,239.6,82.9,251.1,92.1c64.5,59.9-750.9,50.7-1181.6-13.8l-216.5-32.2l-209.6,78.3C7897.2,3836.2,7551.7,3875.4,7284.6,3804z M7858.1,3456.2c122.1-103.6,55.3-306.3-101.3-306.3c-55.3,0-89.8,16.1-124.4,59.9c-64.5,80.6-59.9,158.9,9.2,228C7706,3504.6,7789,3511.5,7858.1,3456.2z"/></g></g>
</svg>