<?xml version="1.0" encoding="UTF-8" ?>
<!DOCTYPE svg PUBLIC "-//W3C//DTD SVG 1.1//EN" "http://www.w3.org/Graphics/SVG/1.1/DTD/svg11.dtd">
<svg width="280pt" height="280pt" viewBox="0 0 280 280" version="1.1" xmlns="http://www.w3.org/2000/svg">
<g>
<path fill="#000" opacity="1.00" d=" M 125.23 44.24 C 160.63 25.72 206.82 32.09 236.71 58.29 C 251.32 70.24 260.36 87.53 266.83 104.94 C 276.99 129.28 277.86 156.53 273.36 182.26 C 267.27 183.81 260.96 185.32 254.71 183.62 C 254.95 185.08 255.63 186.44 257.05 187.06 C 261.32 189.51 266.21 190.51 270.95 191.64 C 270.62 195.56 269.16 199.25 267.77 202.89 C 263.43 203.83 259.01 203.34 254.64 203.06 C 256.08 207.14 261.05 207.49 264.38 209.38 C 262.19 214.14 259.07 218.49 255.13 221.96 C 251.72 218.34 247.81 214.88 242.78 213.86 C 245.62 217.86 249.38 221.64 249.91 226.78 C 247.21 230.59 242.41 232.24 238.71 234.95 C 235.82 232.04 234.51 227.58 230.48 225.93 C 231.19 229.83 233.99 234.28 232.13 238.10 C 227.39 240.51 222.14 242.04 216.87 242.72 C 215.84 239.19 215.81 234.58 212.22 232.54 C 211.60 236.33 212.88 241.02 210.20 244.15 C 204.91 244.94 199.52 244.59 194.19 244.50 C 194.45 240.93 194.62 237.33 194.04 233.78 C 193.52 233.89 192.48 234.12 191.96 234.24 C 190.55 237.47 189.92 241.14 187.28 243.71 C 181.11 241.99 174.98 240.06 169.16 237.36 C 169.54 234.44 170.05 231.52 169.96 228.56 C 167.31 229.77 166.68 234.52 163.26 233.71 C 158.42 231.95 154.37 228.62 150.06 225.90 C 150.76 223.87 151.49 221.84 152.12 219.79 C 150.08 220.75 148.29 222.25 146.12 222.90 C 137.18 217.25 129.04 210.30 119.72 205.20 C 107.62 197.74 93.34 192.60 78.95 194.28 C 68.37 195.35 57.67 201.74 54.13 212.19 C 51.40 218.31 52.34 225.58 55.88 231.16 C 58.60 235.06 64.00 238.04 68.70 235.93 C 71.22 234.61 73.93 232.23 73.28 229.06 C 73.25 226.29 70.11 225.00 69.71 222.51 C 72.71 221.63 76.31 222.10 78.40 224.61 C 81.29 229.33 79.73 236.06 75.23 239.23 C 69.23 243.79 60.14 243.45 54.37 238.64 C 49.40 234.67 46.87 228.29 46.41 222.09 C 44.87 205.55 57.78 189.09 74.24 186.72 C 87.98 184.40 101.82 188.34 114.35 193.76 C 136.05 203.24 155.79 217.34 178.96 223.29 C 193.34 227.11 209.39 226.86 222.79 219.90 C 235.03 213.84 243.83 200.85 243.95 187.06 C 243.98 180.80 243.65 174.16 240.56 168.56 C 239.84 168.35 238.40 167.93 237.68 167.72 C 238.04 172.41 237.86 177.69 234.13 181.11 C 227.62 187.56 217.72 188.44 209.02 188.40 C 197.93 188.37 187.08 184.31 178.07 177.96 C 173.24 174.99 168.41 171.71 162.79 170.46 C 156.80 169.42 150.71 171.48 145.67 174.64 C 142.58 176.96 140.83 182.12 136.08 181.03 C 130.94 179.69 124.82 180.83 120.72 176.81 C 126.77 168.46 136.82 163.40 146.93 162.15 C 152.01 161.39 157.38 161.53 162.08 159.19 C 165.84 157.45 168.99 154.46 170.85 150.75 C 177.43 139.40 175.35 125.22 182.00 113.90 C 186.09 107.28 192.51 101.90 200.11 99.88 C 206.64 98.78 213.91 99.54 219.30 103.70 C 224.92 107.67 228.80 114.80 227.52 121.77 C 226.63 125.69 223.30 129.60 218.99 129.49 C 215.94 129.66 213.76 127.15 211.33 125.73 C 211.90 128.14 212.59 130.83 214.84 132.24 C 218.20 135.07 223.25 134.07 226.49 131.59 C 232.57 127.08 233.23 118.05 230.59 111.46 C 225.34 97.57 207.40 90.91 194.08 97.04 C 184.08 101.68 176.57 110.80 172.79 121.05 C 170.03 127.94 170.18 135.60 167.33 142.44 C 165.15 146.76 161.39 151.51 156.03 151.19 C 147.99 150.95 141.50 145.57 134.37 142.55 C 128.66 139.85 121.86 137.97 115.79 140.66 C 105.85 144.43 100.65 154.29 93.22 161.22 C 90.83 163.71 86.83 162.06 84.26 164.26 C 81.82 166.29 78.68 166.73 75.62 166.29 C 77.98 156.24 88.02 151.48 94.94 144.93 C 99.75 140.58 104.15 134.32 102.70 127.51 C 101.86 122.19 95.90 116.90 90.45 119.29 C 87.91 120.67 87.11 123.59 87.50 126.30 C 90.60 126.63 90.14 123.38 90.74 121.33 C 93.30 121.15 96.47 121.73 97.21 124.63 C 98.09 130.39 94.75 135.90 90.68 139.71 C 83.88 146.38 74.45 149.01 65.51 151.42 C 63.17 152.33 62.02 149.71 60.58 148.42 C 57.41 144.70 52.71 142.05 47.74 142.12 C 49.48 145.38 53.09 146.81 55.59 149.37 C 59.83 153.45 64.02 157.89 66.32 163.39 C 60.35 157.63 54.25 150.93 45.72 149.26 C 46.26 152.81 49.37 154.88 51.43 157.52 C 56.32 163.72 59.25 171.26 61.02 178.91 C 57.07 167.71 48.37 158.36 37.53 153.54 C 36.05 152.94 34.40 153.10 32.85 152.94 C 36.89 159.46 40.19 166.74 40.21 174.56 C 37.73 169.63 35.34 164.54 31.49 160.50 C 28.15 157.08 24.08 154.47 19.82 152.35 C 20.74 150.88 21.63 149.39 22.31 147.79 C 19.20 149.62 15.47 152.33 11.82 150.12 C 6.58 146.56 7.45 138.58 2.11 134.96 C 4.48 135.12 6.86 135.27 9.24 135.42 C 9.08 131.53 6.01 129.00 3.73 126.22 C 7.48 127.63 10.73 130.00 14.02 132.22 C 13.95 126.66 11.25 121.74 8.85 116.91 C 14.47 119.55 17.00 125.31 20.27 130.16 C 24.09 127.20 26.96 123.17 28.85 118.75 C 33.32 109.28 35.07 98.64 40.70 89.71 C 44.87 82.96 52.58 79.52 56.81 72.83 C 60.82 66.32 61.27 58.14 66.06 52.04 C 71.54 44.46 81.30 40.09 90.59 41.65 C 95.80 42.73 100.98 46.58 101.84 52.09 C 102.36 58.45 96.85 62.79 92.52 66.48 C 87.88 70.55 81.95 72.49 76.23 74.46 C 76.19 74.87 76.11 75.69 76.08 76.10 C 79.65 77.28 83.19 78.70 86.91 79.39 C 92.79 71.31 98.93 62.86 107.82 57.84 C 114.56 53.90 123.39 52.86 130.43 56.60 C 142.73 62.49 148.79 78.29 144.24 91.03 C 143.30 96.03 138.55 99.28 137.87 104.28 C 140.95 103.04 142.76 100.07 144.41 97.37 C 148.70 90.90 150.52 82.69 148.79 75.07 C 145.67 60.65 131.85 49.64 117.08 49.79 C 119.87 48.05 122.41 45.94 125.23 44.24 M 166.42 38.25 C 166.05 38.46 165.32 38.87 164.96 39.08 C 164.68 43.82 173.87 43.38 173.70 39.26 C 171.65 37.76 168.74 36.69 166.42 38.25 M 148.77 42.11 C 152.19 44.75 157.36 44.10 159.33 40.04 C 155.70 38.29 151.26 38.61 148.77 42.11 M 179.16 38.91 C 179.16 39.60 179.16 40.97 179.16 41.66 C 181.49 42.81 184.01 43.61 186.62 42.94 C 186.74 42.18 186.97 40.66 187.09 39.90 C 184.68 38.34 181.88 38.26 179.16 38.91 M 138.52 42.59 C 136.70 43.34 135.76 45.17 134.79 46.75 C 138.50 48.44 143.43 47.09 144.41 42.78 C 142.47 42.50 140.43 41.87 138.52 42.59 M 193.83 42.16 C 194.99 45.95 199.08 47.36 202.71 46.85 C 202.80 46.14 202.98 44.72 203.07 44.01 C 200.40 41.95 197.13 40.88 193.83 42.16 M 209.16 46.73 C 209.10 47.56 208.98 49.23 208.93 50.07 C 211.24 51.80 213.90 52.96 216.86 52.53 C 216.71 48.55 212.72 46.51 209.16 46.73 M 161.47 48.40 C 158.40 49.37 160.76 52.53 163.07 52.49 C 164.99 52.64 168.74 51.88 167.94 49.27 C 166.19 47.71 163.55 47.21 161.47 48.40 M 145.23 52.90 C 148.28 54.48 151.59 53.29 154.39 51.80 C 153.39 47.24 145.20 48.58 145.23 52.90 M 174.14 48.77 C 174.10 49.62 174.00 51.32 173.95 52.17 C 176.72 53.42 179.71 53.27 182.42 51.91 C 180.78 48.80 177.33 48.23 174.14 48.77 M 187.84 52.20 C 188.95 56.33 193.67 57.92 197.33 56.04 C 195.55 52.51 191.61 50.86 187.84 52.20 M 221.07 54.26 C 222.11 58.23 225.74 61.15 229.93 60.78 C 229.94 56.18 225.35 53.29 221.07 54.26 M 201.27 56.75 C 201.70 60.52 205.57 62.57 209.09 62.15 C 208.93 60.96 208.69 59.78 208.39 58.62 C 206.59 56.64 203.73 56.61 201.27 56.75 M 148.49 61.95 C 150.63 63.05 153.21 64.15 155.41 62.51 C 156.52 62.29 157.70 60.13 156.16 59.76 C 153.45 58.09 150.03 59.32 148.49 61.95 M 173.89 61.84 C 176.53 64.06 179.99 65.15 183.10 63.11 C 181.20 59.77 176.56 58.87 173.89 61.84 M 232.80 62.52 C 233.36 64.15 233.82 65.83 234.63 67.37 C 236.06 69.29 238.67 69.44 240.84 69.73 C 240.70 65.39 236.97 62.45 232.80 62.52 M 214.27 63.43 C 214.15 67.73 218.20 69.99 222.02 69.91 C 222.13 65.66 218.16 63.29 214.27 63.43 M 103.35 79.37 C 100.91 82.24 97.81 85.23 97.89 89.29 C 107.72 83.75 116.01 75.39 126.90 71.79 C 122.94 75.19 119.05 78.68 115.00 81.98 C 112.95 83.76 110.71 85.50 109.64 88.08 C 116.39 85.68 122.40 81.49 129.40 79.70 C 126.44 83.32 122.42 85.80 118.82 88.70 C 118.53 89.28 117.96 90.45 117.67 91.03 C 120.57 90.81 123.44 90.27 126.34 90.04 C 121.36 93.84 115.29 96.10 110.76 100.48 C 114.23 100.44 117.70 100.10 121.18 100.13 C 117.85 102.49 112.57 102.42 110.60 106.28 C 112.43 106.39 114.27 106.41 116.11 106.43 C 114.07 107.43 110.96 107.54 110.65 110.32 C 115.41 111.02 120.77 111.93 125.05 109.08 C 130.14 105.84 133.68 100.65 136.67 95.52 C 140.16 89.11 138.93 81.29 136.28 74.81 C 134.32 69.58 128.59 66.02 123.01 66.93 C 114.99 67.96 108.63 73.66 103.35 79.37 M 200.84 68.88 C 200.53 73.04 204.73 74.29 208.10 73.89 C 207.59 70.28 204.20 68.67 200.84 68.88 M 162.13 72.09 C 162.17 72.84 162.24 74.34 162.27 75.09 C 164.09 75.13 165.90 75.13 167.72 75.08 C 167.76 74.33 167.84 72.82 167.87 72.07 C 165.96 72.06 164.04 72.07 162.13 72.09 M 224.85 72.00 C 225.19 74.57 226.78 76.54 228.76 78.10 C 229.91 77.54 231.06 77.00 232.23 76.47 C 231.09 73.32 228.20 71.53 224.85 72.00 M 243.59 72.85 C 243.06 77.21 245.77 81.18 250.05 82.17 C 249.85 80.16 250.23 77.86 248.84 76.19 C 247.68 74.33 245.43 73.76 243.59 72.85 M 185.19 75.22 C 184.30 78.14 188.26 78.77 190.35 78.55 C 189.80 76.95 189.00 75.48 188.11 74.05 C 187.38 74.34 185.92 74.93 185.19 75.22 M 156.28 83.42 C 155.60 86.03 157.81 88.03 158.61 90.32 C 158.88 92.33 158.28 94.34 158.12 96.35 C 162.81 94.40 165.63 88.50 163.09 83.87 C 161.76 81.34 158.06 81.51 156.28 83.42 M 235.45 81.74 C 234.79 85.66 237.21 89.38 241.09 90.26 C 242.58 86.20 239.22 82.62 235.45 81.74 M 221.40 83.88 C 221.66 87.51 224.40 90.47 228.20 90.08 C 227.99 86.40 225.11 83.72 221.40 83.88 M 46.02 97.62 C 46.48 97.99 47.39 98.73 47.85 99.10 C 51.25 95.00 55.20 91.06 60.42 89.42 C 65.81 87.24 71.69 87.44 77.27 88.66 C 76.17 86.42 73.57 85.77 71.33 85.38 C 61.45 83.57 50.85 88.88 46.02 97.62 M 206.93 86.58 C 208.46 88.62 210.64 90.00 213.27 89.10 C 212.64 86.94 211.04 85.42 209.21 84.23 C 208.64 84.82 207.50 85.99 206.93 86.58 M 251.92 86.89 C 252.25 89.42 252.59 92.60 255.12 93.90 C 257.01 94.69 258.85 92.01 257.64 90.45 C 257.01 87.74 254.47 86.74 251.92 86.89 M 167.26 100.09 C 169.29 98.88 170.94 97.05 173.16 96.17 C 176.38 96.73 179.57 97.83 182.81 96.69 C 183.34 93.97 183.08 90.89 180.74 89.05 C 173.97 86.51 167.01 93.35 167.26 100.09 M 243.59 93.63 C 242.88 97.11 244.07 101.14 247.75 102.29 C 247.98 100.94 248.67 99.62 248.53 98.23 C 247.84 95.90 245.59 94.67 243.59 93.63 M 66.16 100.40 C 66.14 101.07 66.10 102.41 66.07 103.08 C 69.55 102.56 72.98 101.77 76.42 101.07 C 73.28 108.29 73.42 117.54 66.74 122.76 C 63.62 125.54 59.27 124.74 55.46 124.95 C 58.44 128.15 63.35 127.29 67.01 125.95 C 71.93 124.33 74.11 119.12 75.62 114.60 C 77.33 108.67 80.03 103.10 82.18 97.33 C 76.79 98.07 71.43 99.01 66.16 100.40 M 83.07 100.13 C 80.35 106.89 79.06 114.19 75.71 120.70 C 74.21 123.51 71.61 125.45 69.61 127.87 C 71.51 127.58 74.10 128.29 75.22 126.22 C 81.25 119.71 81.11 109.99 86.78 103.23 C 86.30 103.00 85.34 102.54 84.86 102.31 C 85.33 100.79 85.71 99.24 86.04 97.68 C 84.77 98.10 83.37 98.67 83.07 100.13 M 258.86 99.67 C 257.78 103.47 259.27 107.49 262.79 109.37 C 265.27 105.74 263.38 100.33 258.86 99.67 M 237.33 104.86 C 237.05 108.19 237.73 112.88 241.88 113.25 C 242.87 109.65 241.14 105.71 237.33 104.86 M 208.64 107.14 C 209.15 108.30 209.67 109.50 210.79 110.21 C 213.03 111.80 213.67 114.65 215.43 116.65 C 219.13 118.11 221.60 112.33 219.24 109.77 C 216.78 106.47 212.25 107.00 208.64 107.14 M 56.55 107.98 C 56.38 108.61 56.05 109.88 55.88 110.52 C 54.71 111.10 53.39 111.51 52.45 112.46 C 50.92 113.68 51.68 115.82 51.50 117.49 C 53.70 118.83 56.25 118.78 58.74 118.73 C 57.04 120.23 54.55 120.97 53.63 123.20 C 55.97 123.46 58.45 123.97 60.69 122.97 C 65.23 121.35 67.59 114.76 63.96 111.12 C 62.19 108.83 59.26 108.27 56.55 107.98 M 146.82 111.16 C 146.05 112.73 146.72 114.47 146.91 116.09 C 148.24 115.77 149.57 115.44 150.90 115.09 C 152.28 115.99 153.65 116.92 155.04 117.83 C 155.61 115.26 157.13 112.18 155.21 109.80 C 153.28 106.75 147.81 107.76 146.82 111.16 M 249.88 107.13 C 249.30 110.66 250.05 115.16 253.99 116.33 C 255.55 112.77 253.88 108.03 249.88 107.13 M 135.79 120.86 C 136.54 123.43 139.33 124.29 141.50 125.31 C 141.21 121.84 143.23 119.21 146.30 117.86 C 144.79 116.60 143.36 115.17 141.54 114.36 C 137.91 113.37 134.69 117.47 135.79 120.86 M 263.91 112.97 C 262.33 116.25 262.35 122.38 266.87 123.03 C 269.23 119.52 266.93 115.20 263.91 112.97 M 155.72 118.98 C 157.74 121.50 158.66 124.48 158.11 127.71 C 160.39 127.65 163.11 127.53 164.30 125.20 C 166.94 122.28 163.85 116.86 160.01 117.53 C 158.54 117.88 157.14 118.46 155.72 118.98 M 189.03 129.02 C 190.30 128.80 191.57 128.49 192.87 128.37 C 195.86 128.71 196.33 132.16 197.85 134.19 C 200.59 131.70 203.36 128.21 202.56 124.25 C 202.18 121.37 199.63 119.23 196.96 118.51 C 191.47 117.25 186.06 124.04 189.03 129.02 M 116.17 129.86 C 117.48 132.26 120.35 133.16 122.91 133.38 C 125.87 132.23 124.23 129.34 123.97 127.08 C 124.27 125.75 125.91 125.42 126.80 124.55 C 126.79 123.98 126.77 122.83 126.76 122.26 C 124.66 121.32 122.43 119.87 120.03 120.52 C 116.12 121.33 113.98 126.53 116.17 129.86 M 236.99 121.00 C 237.05 122.71 237.15 124.43 237.29 126.14 C 238.52 125.88 239.92 125.83 240.73 124.72 C 240.52 123.57 240.17 122.45 239.85 121.32 C 239.14 121.24 237.71 121.08 236.99 121.00 M 253.90 121.15 C 253.46 123.79 254.04 126.39 255.03 128.85 C 255.82 128.88 257.39 128.94 258.18 128.97 C 258.62 126.27 258.03 123.62 256.95 121.15 C 256.19 121.15 254.67 121.15 253.90 121.15 M 148.17 121.82 C 145.71 123.76 147.50 128.95 150.90 127.38 C 154.21 125.53 151.60 119.90 148.17 121.82 M 137.62 131.43 C 136.42 134.76 140.17 138.57 143.52 137.40 C 146.04 136.88 146.93 134.18 148.18 132.27 C 145.12 131.53 142.61 129.91 141.53 126.84 C 140.06 128.20 138.14 129.37 137.62 131.43 M 267.12 127.88 C 265.02 130.76 266.19 134.42 267.88 137.17 C 268.51 136.98 269.77 136.60 270.39 136.41 C 270.80 133.40 271.14 128.42 267.12 127.88 M 79.02 135.45 C 80.45 135.60 81.89 135.74 83.33 135.86 C 83.74 137.34 84.11 138.82 84.48 140.31 C 85.97 139.58 87.79 139.05 88.59 137.44 C 90.60 134.44 87.75 129.45 84.04 130.25 C 81.19 130.19 80.11 133.38 79.02 135.45 M 148.72 133.44 C 149.30 136.79 152.08 140.23 155.80 139.19 C 159.79 138.00 160.29 130.96 156.13 129.97 C 154.04 131.95 151.74 133.54 148.72 133.44 M 245.08 133.81 C 245.91 135.69 246.74 137.62 248.11 139.19 C 250.44 137.53 249.99 134.20 248.95 131.92 C 247.48 132.12 246.30 133.05 245.08 133.81 M 257.35 134.40 C 255.63 137.63 256.89 141.66 260.02 143.48 C 260.63 141.24 261.88 138.78 260.69 136.50 C 260.06 135.18 259.05 133.23 257.35 134.40 M 226.53 143.38 C 227.80 142.30 228.94 141.08 230.09 139.86 C 231.10 140.85 232.10 141.84 233.12 142.81 C 234.67 141.69 237.08 139.76 235.20 137.76 C 231.59 133.88 225.84 139.02 226.53 143.38 M 64.61 141.77 C 65.74 142.52 66.88 143.27 68.02 144.02 C 67.73 145.18 67.45 146.33 67.17 147.48 C 68.14 147.98 69.10 148.48 70.05 148.99 C 71.52 147.88 73.58 147.17 74.21 145.28 C 75.37 142.96 74.08 139.94 71.69 139.03 C 68.98 137.61 66.33 139.86 64.61 141.77 M 203.16 142.18 C 200.85 143.48 200.29 146.23 199.95 148.64 C 202.57 149.20 205.57 149.55 207.19 151.99 C 207.89 151.98 209.30 151.96 210.00 151.96 C 210.75 149.99 212.27 147.87 211.26 145.72 C 210.43 142.40 206.15 140.23 203.16 142.18 M 242.30 144.37 C 241.98 146.12 242.00 147.90 241.97 149.68 C 242.83 149.77 244.54 149.96 245.40 150.06 C 245.78 147.89 245.80 142.78 242.30 144.37 M 267.45 144.57 C 267.31 146.99 267.52 149.42 268.16 151.76 C 268.87 151.79 270.28 151.85 270.99 151.88 C 271.96 149.27 272.06 146.47 271.26 143.79 C 269.98 144.01 268.71 144.27 267.45 144.57 M 17.03 146.21 C 15.48 146.19 15.02 148.91 16.79 148.95 C 18.29 149.01 18.66 146.24 17.03 146.21 M 190.29 146.14 C 187.93 147.38 185.61 149.81 186.36 152.71 C 186.78 155.92 189.82 157.62 192.69 158.25 C 192.80 156.82 192.91 155.39 193.01 153.96 C 194.71 153.39 196.42 152.84 198.15 152.36 C 197.83 148.58 194.26 144.95 190.29 146.14 M 259.22 156.94 C 263.68 157.43 262.58 150.94 260.95 148.51 C 257.36 149.56 256.87 154.50 259.22 156.94 M 208.86 155.58 C 209.48 157.37 211.09 158.93 211.08 160.88 C 210.38 162.48 209.44 163.96 208.73 165.55 C 211.22 166.01 214.14 167.30 216.43 165.55 C 219.51 163.98 219.63 159.60 218.16 156.90 C 215.84 154.06 211.94 154.73 208.86 155.58 M 172.50 157.63 C 171.04 159.53 170.99 162.41 172.92 164.02 C 174.67 166.32 177.75 165.04 180.08 164.70 C 179.58 163.02 178.94 161.39 178.30 159.75 C 178.54 158.45 178.77 157.14 179.01 155.83 C 176.76 155.62 173.88 155.43 172.50 157.63 M 199.37 157.11 C 195.43 159.11 199.12 165.49 202.76 163.08 C 206.71 161.06 202.80 154.45 199.37 157.11 M 248.53 157.62 C 248.14 159.72 247.18 164.75 250.72 163.92 C 252.76 161.98 251.85 159.07 251.31 156.71 C 250.61 156.94 249.22 157.39 248.53 157.62 M 267.34 167.72 C 269.07 168.61 269.87 166.69 270.49 165.43 C 271.53 162.83 270.78 159.97 269.16 157.79 C 266.53 160.32 265.20 164.45 267.34 167.72 M 185.30 167.12 C 184.73 171.30 189.91 174.21 193.49 172.52 C 195.15 171.27 196.19 169.42 197.21 167.66 C 195.81 167.11 194.42 166.58 193.01 166.06 C 192.35 164.21 191.60 162.39 190.73 160.62 C 188.14 161.86 185.10 163.84 185.30 167.12 M 258.14 164.24 C 256.82 167.25 256.65 170.65 258.89 173.30 C 261.08 170.71 262.44 167.50 261.12 164.16 C 260.38 164.18 258.89 164.22 258.14 164.24 M 140.46 165.12 C 139.82 166.35 142.00 167.39 142.84 166.52 C 143.48 165.23 141.33 164.17 140.46 165.12 M 203.69 170.17 C 202.14 169.76 200.61 169.29 199.06 168.90 C 198.11 170.84 197.68 173.21 198.91 175.15 C 200.74 179.43 208.21 178.95 209.25 174.29 C 210.50 171.66 208.76 169.06 207.74 166.72 C 206.01 167.38 204.81 168.76 203.69 170.17 M 139.27 168.29 C 138.73 169.62 139.78 171.57 141.17 171.93 C 143.06 171.16 140.97 167.55 139.27 168.29 M 222.12 169.64 C 222.55 171.39 223.04 173.13 223.45 174.88 C 222.54 175.88 221.62 176.87 220.74 177.90 C 222.87 178.68 225.40 180.49 227.57 178.74 C 230.45 177.22 230.72 172.80 228.12 170.88 C 226.56 169.23 224.15 169.67 222.12 169.64 Z" />
</g>
</svg>
