<!-- Generated by IcoMoon.io -->
<svg version="1.1" xmlns="http://www.w3.org/2000/svg" width="1024" height="1024" viewBox="0 0 1024 1024">
<title></title>
<g id="icomoon-ignore">
</g>
<path fill="#000" d="M702 322q90 8 163 56t116 126 43 168q0 146-103 249t-249 103q-70 0-150-39t-124-93q-10 2-23 3t-23 1q-146 0-249-103t-103-249q0-122 74-216t188-124l-70-140 64-64h192l64 64-70 140q114 30 188 124t74 216q0 42-16 93t-43 96-59 73q-24-16-45-48t-27-60q26-28 44-73t18-81q0-32-12-66-52 28-84 80t-32 114q0 92 66 158t158 66 158-66 66-158q0-62-40-122t-96-84q-16-78-58-144zM128 544q0 88 59 151t147 71q-14-46-14-94 0-94 47-174t125-126q-62-52-140-52-92 0-158 66t-66 158z"></path>
</svg>
