<!-- Generated by IcoMoon.io -->
<svg version="1.1" xmlns="http://www.w3.org/2000/svg" width="1024" height="1024" viewBox="0 0 1024 1024">
<title></title>
<g id="icomoon-ignore">
</g>
<path fill="#000" d="M384 192l-94-142q-6-8-6-18 0-14 9-23t23-9h392q14 0 23 9t9 23q0 10-6 18l-94 142h-256zM640 256q80 46 144 99t103 101 67 101 41 91 20 81 8 60 1 39v4q0 80-64 136t-156 56h-584q-92 0-156-56t-64-136q0-358 384-576h256zM546 812q40 0 67-29t27-69q0-32-19-58t-49-34l-98-30q-20-6-20-28 0-6 4-13t9-11 13-4h60q16 0 28 8 6 4 10 4 8 0 12-4l26-26q6-4 6-12t-8-14q-30-22-68-24v-34q0-18-16-18h-36q-16 0-18 18v34q-38 2-65 30t-27 68q0 32 19 58t49 34l98 30q20 6 20 28 0 6-3 13t-9 11-14 4h-60q-16 0-28-8-6-4-10-4-8 0-12 6l-26 24q-6 4-6 12t6 14q32 22 70 24v34q0 18 16 18h36q16 0 16-18v-34z"></path>
</svg>
