<!-- Generated by IcoMoon.io -->
<svg version="1.1" xmlns="http://www.w3.org/2000/svg" width="1024" height="1024" viewBox="0 0 1024 1024">
<title></title>
<g id="icomoon-ignore">
</g>
<path fill="#000" d="M896 140q56 20 92 69t36 111q0 292-206 498t-498 206q-62 0-111-36t-69-92l-92 30q-6 2-12 2-10 0-18-5t-13-13-5-18v-120q0-10 5-18t13-13 18-5q6 0 12 2l92 30q20-56 69-92t111-36q132 0 226-94t94-226q0-62 36-111t92-69l-30-92q-2-6-2-12 0-14 11-25t25-11h120q14 0 25 11t11 25q0 6-2 12zM320 800q198 0 339-141t141-339q0-14-9-23t-23-9-23 9-9 23q0 172-122 294t-294 122q-14 0-23 9t-9 23 9 23 23 9z"></path>
</svg>
