<!-- Generated by IcoMoon.io -->
<svg version="1.1" xmlns="http://www.w3.org/2000/svg" width="1024" height="1024" viewBox="0 0 1024 1024">
<title></title>
<g id="icomoon-ignore">
</g>
<path fill="#000" d="M1000 192q24 24 24 57t-24 57l-64 66q-76 74-182 54-24-6-48-18l-220 222 90 90q18 18 18 45t-18 45l-136 136q-46 46-137 65t-169 11-101-31-31-101 11-169 65-137l136-136q18-18 45-18t45 18l90 90 222-220q-12-24-18-48-4-20-4-40 0-82 58-142l66-64q24-24 57-24t57 24zM844 280l32-30-102-102-30 32q-28 26-20 64 10 46 56 56 6 2 14 2 30 0 50-22z"></path>
</svg>
