<!-- Generated by IcoMoon.io -->
<svg version="1.1" xmlns="http://www.w3.org/2000/svg" width="1024" height="1024" viewBox="0 0 1024 1024">
<title></title>
<g id="icomoon-ignore">
</g>
<path fill="#000" d="M260 618l146 146q10 10 10 23t-10 23l-44 44q-10 10-23 10t-23-10l-6-4-164 164q-10 10-23 10t-23-10l-90-90q-10-10-10-23t10-23l164-164-4-6q-10-10-10-23t10-23l44-44q10-10 23-10t23 10zM640 0q90 0 164 32t117 83 68 100 35 95q2 14-10 19t-18-5q-38-52-96-84-66-36-144-34t-144 42q-104 66-129 182t35 210l-70 72-64-60q-70-70-101-163t-11-187q18-82 68-150t128-110 172-42z"></path>
</svg>
