<svg xmlns="http://www.w3.org/2000/svg" width="1146.667" height="1146.667" viewBox="0 0 860 860"  xmlns:v="https://vecta.io/nano"><path  fill="#000" d="M306.72 16.66c3.7-2.27 7.77-4.3 12.16-4.55 4.17 1.03 8.97 1.6 11.97 5.02 2.54 2.83 6.04 5.08 7.18 8.9 1.66 3.72 1.26 7.88 1.07 11.84-.98 2.6-2.43 4.97-4 7.24-1.6 2.77-5.7 3.06-6.76 6.26-.36 3.28-.34 6.66.55 9.86.97 5.62-.56 11.46 1 17 .92 5-.42 10.2.8 15.16.93 3.56.03 7.32 1.2 10.85.83 6.8-.13 13.7.46 20.5 1.16 3.93.86 8.05.8 12.1 4.98 4.03 11.6 4.96 17.3 7.64l78.16 29.83c7.88 3.85 16.47 5.93 24.44 9.57 13.2 4.65 26.08 10.33 39.45 14.57 10.23 1.52 17.58 9.6 25.15 15.88 3.15 3.84 6.8 7.24 9.7 11.27 4.2 4.04 6.4 9.58 9.92 14.16 7.44 13.12 13.02 27.38 15.82 42.23 4.92 17.28 4.14 35.3 4.06 53.1-.13 1.9.23 3.8 1 5.55 2.25-2.74 2.3-6.46 3.9-9.5 3.47-7.3 6.44-15.06 12-21.06 4.47-5.9 9.83-11.36 16.6-14.56 3.38 9.4 7.56 19.2 15.4 25.77 3.93-.96 5.32-5.37 9.07-6.75.1-3.68-2.93-6.08-4.8-8.9-3.02-5.3-6.1-10.7-7.57-16.67-.54-1.83 1.33-2.8 2.55-3.68 13.67-7.47 29.56-10.5 45.04-9.27-3 4.54-6.8 8.77-8.12 14.18-1.3 5.15-2.62 10.3-3.3 15.58 4.12 1.2 8.37 2.03 12.65 2.4 1.7-5.77 1.72-12.2 5.23-17.3 2.42-4.78 6.7-8.35 11.24-11.03 1.55.18 2.9 1.03 4.2 1.86 6.05 4.14 12.2 8.7 15.77 15.3 1.42 2.84 3.52 5.65 3.13 9 .05 6.86-5.13 12-9.32 16.84-4.13 4.83-10.07 7.56-14.3 12.27-6.33-4.8-13.06-9.04-20.28-12.37-14.05-4.87-31.44-3.67-42.68 6.85-1.97 2.36-3.85 4.8-6.14 6.86-4.1 7.8-7.72 16.05-9.13 24.8-.16 5.78-.74 11.74 1.1 17.35 2.13 7.68 4.13 16.14 10.37 21.63 3.2 3.72 8.15 4.87 12.6 6.3 7.82 1.25 15.97-1.17 22.25-5.87 2.8-2.86 6-5.43 8.28-8.7 2.83-6.64 6.2-14.96 1.72-21.63-1.23-3.27-4.55-4.77-7.07-6.87-3.02-2.4-7.2-1.73-10.46-.23-.96 2.77-1.46 5.74-1 8.67.02 2.43 2.43 3.8 3.37 5.87l4 .47c-.6 5.9-4.16 11-8.8 14.5-2.6 1-5.52 2.08-8.25 1-3.52-1.6-7.5-3.1-9.5-6.66-5.47-7.45-7.85-17.35-5.23-26.32 1.37-6.68 5.07-12.58 9.16-17.92 4.9-3.78 9.73-8.9 16.3-9.28 4.76.4 9.8-.25 14.2 2.04 3.07 1.62 6.13 3.26 9.3 4.7 3.72 3.3 8.2 5.88 10.88 10.2 7.56 9.34 12.7 20.6 14.6 32.5.74 6.92-.7 13.7-2.95 20.2-3-1.83-6.24-3.12-9.72-3.58-4.62-1.92-9.65-1.7-14.54-1.45 1.36 4.08 1.5 8.38 1.24 12.65 5.6-.25 10.77 2.12 16.1 3.37-7.95 10.37-20.14 16.64-32.32 20.77-8.12 2.2-16.66 4.1-25.06 2.3-5.44.22-10.18-2.63-15.04-4.6 4.88-5.32 8.8-12.16 8.34-19.63-4.34.17-8.58-.84-12.9-1.02.3 4.66-2.68 8.5-5.75 11.7-7.58-5.42-11.63-14.02-16.8-21.5-4.78-10.58-8.4-21.74-9.88-33.3 7.8-.08 15.2-2.6 22.42-5.3-.6-3.97-1.5-7.9-2.4-11.8-6.9-.1-12.97 4.16-19.8 4.45a22.63 22.63 0 0 1-2.15-1.55c-2.9 10.48-2.93 21.52-6.2 31.93-7.97 36.13-21.15 70.93-36.46 104.54-4.94 11.2-10.27 22.2-15.95 33.05-1.63 3.83-3.47 7.84-6.62 10.65-6.66 1.2-13.5 2.2-19.6 5.28-3.84 2.22-7.62 4.55-11.22 7.16-3.68-.97-6.53-3.64-9.9-5.2-8.2-3.2-15.95-7.8-24.73-9.24-6.06-1.52-12.2-2.66-18.36-3.6-7.62-.35-15.36.57-22.88-1-8.5 1.76-17.27.56-25.9 1-6.9 1.73-14.56-.04-20.95 3.75-.52 3.42 1.45 7.9-1.8 10.34-3.44 4.28-8.78 6.55-11.73 11.25-6.14 8-10.4 17.76-10.54 27.95-2.78-1.3-5.5-2.75-8.3-3.93l.04-37.57c-5.94-.4-11.15 2.84-16.8 4.07-3.72 1.06-7.64 1.9-10.82 4.2-1.3 1.17-3.2 1.1-4.8.66-2.96-2.86-5.83-5.83-9.33-8.05-4.84-2.45-9.93-4.44-15.14-6 2.48-5.22 3.72-10.9 5.56-16.37 3.76-10.97 7.13-22.08 9.56-33.4 4.86-18.68 8.5-37.7 10.06-56.93 1.28-4.42.06-9.1 1.52-13.5.38-13.24.03-26.52.17-39.77.16-2.72-1-5.27-.98-7.97.01-6.04-2.3-11.82-2.1-17.88-.97-6.93-2.95-13.65-4.48-20.46-1.23-4.12-3.02-8.1-3.6-12.38-5.6-15.97-13.02-31.35-22.56-45.36-3.88-3.94-6.1-9.15-9.86-13.2-3.54-5.04-8.36-8.95-12.58-13.4-2.7-2.62-4.6-6.08-7.86-8.1-5.42-4.55-9.68-10.38-15.52-14.45-7.37-6.74-15.57-12.43-23.32-18.7-2.82-2-6.12-3.32-8.6-5.8 2-1.08 4.03-2.13 6.23-2.77 6.4-1.84 11.78-6.1 18.25-7.76l50.83-22.14c11.8-4.13 22.87-10.1 34.6-14.42 6.45-2.93 12.84-6.06 19.5-8.5 5.27-2.8 11.45-3.83 16.06-7.84.1-5.04-.6-10.2.82-15.1.53-4.38-.47-8.9.82-13.18 1.04-6.22-.63-12.68 1.17-18.8.68-6.32-.72-12.8 1-19 .4-5.48.02-10.98.18-16.46-2-2.16-4.58-3.54-7.1-4.97-3.86-4.12-6.4-9.6-6.9-15.24.95-5.77 3.6-11.4 7.9-15.4m-8.3 131.76c-7.2 3.66-14.96 6.1-22.1 9.9-5.62 1.8-10.93 4.35-16.3 6.75l-61.74 26.24c-4.93 1.35-9.83 3.1-13.8 6.46 2.73.68 5.5.6 8.26.37 7.42 1 14.83-.42 22.26-.14l89.32-.1c-.1-1.86-.47-3.73-.17-5.58 2.02-5.67-.3-11.86 1.66-17.55.6-6.15-.24-12.38.38-18.53 1.27-3.73.77-7.7.72-11.56-3.1.55-5.4 3.05-8.5 3.75m36.67-3.54c-1.05 1.36-1.42 3.16-.84 4.8 1.7 5.15-.08 10.67 1.3 15.87.9 3.34.13 6.84.65 10.22 2.25 7.22-.73 15.1 1.78 22.24h108.1c2-.03 3.98.2 5.97.32 6.44-.7 13.13 2.22 19.36-.58-6.56-4.64-14.26-7.08-21.96-9.1-7.13-3.7-15.02-5.54-22.4-8.63-2.75-1.55-5.8-2.4-8.82-3.16-9.73-3.56-19.27-7.62-29.1-10.9l-51.67-19.3c-.8-.56-1.58-1.15-2.34-1.76M265 206.06c1.97 3.6 3.93 7.26 6.68 10.32 5.38 6.9 9.23 14.75 13.92 22.1 8.23 15.58 15.65 31.68 20.26 48.73 5.67 17.83 8.53 36.4 11.1 54.85-.02 4.4-.24 8.8.95 13.1l-.1 38.75c-1.92 5.65.2 11.77-1.64 17.43-.45 7.22-1.96 14.3-2.42 21.5-3.44 18.46-6.7 37-11.98 55.04-2.24 8.26-4.33 16.6-7.4 24.6-1.94 7.57-4.62 14.97-8.08 21.98-.64 1.53-.25 3.25-.4 4.88 7.64-3.27 16.1-4.14 23.6-7.67 2.1-2.97 2.9-6.57 4.1-9.95 3.33-11.34 7.02-22.58 9.97-34.04 3.5-13.85 6.43-27.83 9.15-41.85.75-6.23 2.5-12.34 2.32-18.66 1.14-3.7.6-7.62 1.72-11.3.37-3-.07-6.12 1-9 .45-4.3-.28-8.7 1.13-12.86l.08-34.94c-.04-1.86.13-3.76-.4-5.56-1.48-4.48.25-9.33-1.2-13.8-.78-2.96-.02-6.1-.97-9.03-1.68-9.38-2.22-18.94-4.82-28.16-1.1-6.8-3.9-13.2-5-20-4.52-14.54-9.87-28.84-16.43-42.57-3.66-5.84-5.8-12.52-9.97-18.05-3.86-5.05-5.8-11.37-10.5-15.8-5.9-.02-11.8.05-17.7 0-2.4.17-4.85-2-6.97-.02m68.66-1.2c.7 3.85 3.43 6.93 5.1 10.42 6.5 8.92 11.37 18.85 16.32 28.67 12.4 25.68 18.8 53.86 21.9 82.06-.03 3.43-.25 6.93.84 10.25.38 8.92.03 17.87.16 26.8-.1 2.86.32 5.8-.4 8.6-1.3 3.82.07 7.98-1.2 11.82-1.55 9.88-2.36 19.85-4.34 29.67-2.7 13.83-5.44 27.7-9.9 41.1-1.33 7.13-4.37 13.74-6.3 20.7-5.32 14.96-11 29.85-17.76 44.25-.32 2.24-3.7 5.15-.78 6.8 4.65.3 9-2.35 13.7-1.93 3.34-.3 7.65-.1 9.67-3.3 16.27-39.57 29.05-80.8 34.7-123.28.7-5.1 1.84-10.14 1.66-15.32 2.28-7.88-.43-16.3 1.87-24.17a52.04 52.04 0 0 0 0-6.84c-2.1-8.77-.2-17.94-1.13-26.85-1.34-3.72-.33-7.75-1.56-11.5-.26-2.94-1.25-5.77-1.25-8.73-.34-7.14-3.35-13.84-4.1-20.92-3.84-15.55-9.14-30.73-15.57-45.42-5.62-10.6-10.14-21.9-17.1-31.72-8.14-.5-16.6 1.28-24.55-1.15m63.5 1.48c1.9 4.64 5.2 8.48 7.77 12.76 7.28 12.27 13.54 25.15 18.43 38.57 4.5 14 8.53 28.3 10.07 42.96 1.32 6.05 1.75 12.15 1.65 18.33 1.9 5.93-.07 12.28 1.75 18.24-1.74 6.88.08 14.1-1.65 21-.7 4.45.38 9.04-.6 13.46-1.22 3.5-.02 7.33-1.2 10.85-6.1 43.58-18.85 86.16-36.5 126.45-1.72 4.28-4.57 8.2-5.05 12.9 5.57 2.14 11.76.2 17.4 1.97 1.58.67 3.02-.46 4.48-.9 1-3.72 2.9-7.08 4.55-10.53 3.08-9.03 7.52-17.55 10.33-26.7 7.07-19.33 13.13-39.04 17.9-59.05 1.2-8.14 3.8-16 4.87-24.15 1.77-7.4 2.2-14.97 3.56-22.4.2-3.13-.4-6.37.65-9.4.92-3.32-.14-6.86.78-10.18.82-2.4.6-4.93.63-7.4l-.08-35.92c-.8-2.9-.96-5.86-1.15-8.84-1.44-4.05-.16-8.45-1.56-12.5-.33-5.43-1.75-10.7-3.02-15.98-.4-6.1-3.3-11.68-4.28-17.7-.76-4.74-3.3-8.95-4.36-13.6-3.52-8.4-6.2-17.2-11.1-24.94-1.47-4.52-4.5-8.24-6.5-12.5-1.27-1.82-2.1-4.17-4.05-5.37-5.63.6-11.3.28-16.93.35-1.7.14-3.27-.62-4.84-1.15l-1.95 1.4m56.07-1.35c-.62.94-1.2 1.9-1.73 2.9 3.35 2.86 6.15 6.33 8.82 9.83 7.46 8.2 12.86 17.97 18.6 27.37 8.46 15.67 14.38 32.64 17.94 50.08.55 5.3 2.45 10.38 2.23 15.77 2.58 12.17 1.84 24.67 1.82 37.06-.8 3.24-1 6.53-1.1 9.86-1.4 4.04-.25 8.4-1.63 12.45-.4 6.93-1.8 13.8-3.4 20.55-8.87 43.22-26.64 84-47.22 122.8-3.25 5.5-6.93 10.85-8.96 16.96 3.3 1.28 6.67 2.36 9.9 3.85 2.52 1.82 5.4 3 8.43 3.74 4.3-3.6 5.45-9.28 8.36-13.82 6.95-13.46 14.5-26.65 20.35-40.67 4.6-8.46 7.46-17.7 11.64-26.36 5.2-14.06 10.8-28.03 14.34-42.64 2.92-9.8 5.52-19.7 7.2-29.8.32-5.28 2.22-10.3 2.4-15.6.93-3.1.57-6.42 1.5-9.53.75-4.8-.17-9.7.45-14.5 1.34-3.97.68-8.2.84-12.3.1-2.1-.22-4.18-.83-6.18-.54-4.87.07-9.8-.26-14.68-1.3-6.2-1.5-12.58-3.34-18.67-.93-2.52-.2-5.3-1.2-7.8-2.27-6.83-3.6-13.97-6.38-20.62-3.2-10.36-8.45-19.97-13.4-29.6-3-3.85-4.4-8.65-7.76-12.25-4.12-5.94-7.9-12.2-13.23-17.15-8.1-.4-16.42 1-24.35-1.08zM290.73 60.63c3.76-.9 7.65-.7 11.5-.87.05 3.52.14 7.1-.86 10.5-.6 7.14.37 14.37-.46 21.5-1.36 4.18-.1 8.63-1.18 12.84-.5 1.83-.55 3.73-.6 5.6-6.4.15-12.86-.6-19.12.95-5.2-.24-10.3.5-15.37 1.58-3.9.95-8-.06-11.88 1.1-5.02 1.15-10.3.96-15.12 2.9-2.2.73-4.58.37-6.86.5l.03-43.3c5.75-2.43 11.32-5.43 17.44-6.85 4.38-.64 8.47-2.53 12.87-3.14 9.86-1.4 19.67-3.25 29.63-3.34zM178.1 104.95c14.63-.38 29.04-3.55 43.13-7.44l-.08 37.33c-.2 3-3.9 2.5-6 2.25-4.7-1.53-9.7-.27-14.4-1.7-6.25-.06-12.32-1.72-18.5-2.47-4.67-1.2-9.1-3.18-13.84-4.2-13.35-4.04-25.55-10.85-37.45-17.97-3.68-2.5-6.97-5.8-11.4-6.95 4.04 1.57 8.4.75 12.6 1.15 9.17 1.7 18.57.72 27.86 1 6.03-.25 12.2.47 18.1-1zm526.07 201.8c8.6-3.05 17.78-6.23 26.97-3.97 5.95-.36 10.84 3.42 16.48 4.56 1.2.37 2.48.68 3.58 1.4 5.32 3.35 11.63 4.65 16.88 8.18 5.46 2.3 11.36 3.38 17.08 4.9 10.22 3.84 21.32 4.17 31.75 7.22 3.3 1.94 7.25 3.4 9 7.1 3.56 4.18 2.83 11.03-1.85 14-4.3 2.15-9.63 2.5-13.67-.45-1.97-1.8-4.7-1.43-7.12-1.88-4.75-1.05-9.66-.42-14.42-1.38-11.54 1.23-23.17 2.62-34.26 6.22-8.43 1.85-16.23 5.8-23.27 10.7-3.7 2.9-5.9 7.17-7.42 11.5-2.86 8.65.23 19.18 8.13 24.06 4.13 2.3 8.02 5.26 12.75 6.25 6.1 2.43 12.48 3.97 18.57 6.42 3.74 1.57 7.85 1.33 11.75 2.26 3.64.55 7.12 2.04 10.85 2.04 3.95.12 7.93.23 11.78 1.27 1.65 1.35 1.7 3.84 2.52 5.72 1.4 3.1.06 6.86-2.4 9.03-2.63 2.77-6.42 3.82-9.88 5.14-2.47-1.3-5.22-1.97-7.66-3.32-2.96-2.1-4.9-5.6-8.5-6.74-5.3.24-10.14 3.74-15.57 2.86-3.68-.68-7.32-1.55-11.03-1.97-5.23-1.14-9.93-3.94-15.25-4.77-4.97-1.6-10.74-3.73-15.63-.73-3.03 2.8-4.84 6.66-6.56 10.34-4.24 11.6-7.42 23.7-8.03 36.08-.82 3.7-.67 7.5-.17 11.23-.7 6.3-.27 12.65-.38 18.98 1.24 11.06 5.38 21.5 7.36 32.44 2.9 5.37 2.68 11.73 4.64 17.43 3.37 11.06 3.35 22.68 4.7 34.05-2.07 10.64.7 21.63-1.6 32.23-.8 17.66-5.97 35.13-14.7 50.52-1.53-6.1-4.75-11.5-7-17.32l-8.07-13.9c-9.86-14.77-22.04-28.08-36.56-38.4-6-4.93-13.07-8.26-19.66-12.3-2.23-1.25-4.72-1.88-6.98-3.04-6.5-3.46-13.78-5.02-20.62-7.62 3.76-6.74 7.4-13.68 8.46-21.43 1.75 2.9 4.43 5.06 6.32 7.88 1.77 2.2 3.74 5.03 6.97 4.55 3-6.68 6.75-13 10.15-19.47 3.16 4.72 7.36 8.6 10.3 13.48 3.03 2.57 4.98 6.6 8.65 8.2 4.34-8.3 9.72-16.04 13.06-24.8 4.72 7.38 10.03 14.35 15.22 21.42 2.3-.9 4.72-2.16 5.24-4.8 3.3-6.4 6.15-13.03 9.66-19.32 1.97-5.64 6.37-10.45 6.5-16.63-4-1.2-7.46-3.76-11.6-4.45-.78 3.98-3.65 7-5.22 10.64-1.56 3.68-3.46 7.22-4.8 11-5.88-6.34-10.33-13.84-15.73-20.57-1.13.06-1.95.6-2.44 1.58-4.36 7.58-8.67 15.2-12.62 23-1.8-3.18-4.9-5.32-6.9-8.34-2.26-3.37-6.05-5.53-7.67-9.35-.58-1.84-2.6-2.32-4.2-2.94-1.7 1.1-2.52 3.08-3.5 4.78-2.4 5.03-5.64 9.63-7.67 14.84-1.38-2.67-4.32-3.9-5.8-6.48 2.13-7.04 4.07-14.18 5.3-21.43 2.84-6.74 3.14-14.2 5.9-20.98 2.56 2.57 4.32 5.84 7.43 7.83 2.58 3.8 6.23 6.6 9.35 9.94 1.32-.1 2.45-.96 2.85-2.24 2.4-5.7 4.13-11.65 6.35-17.4 4.72 4.1 7.7 9.94 12.9 13.53 1.66.3 3.1-.6 3.94-2 4.64-6.94 9.87-13.47 14.83-20.2.95-1.35 1.78-2.8 2.3-4.38-3.27-2-6.12-4.62-9.4-6.6-1.87-.1-2.86 1.74-3.96 2.93-2.46 3.42-5.15 6.67-7.43 10.2-1.98-2.24-4.9-3.48-6.53-6.04-2.34-3.3-5.75-5.68-7.84-9.2-.74-1.84-3.95-2.8-4.6-.44-2.58 6.23-4.84 12.58-6.92 19-1.62-1.73-3.3-3.42-4.64-5.36-1.28-2.15-4.14-2.8-5.22-5.06 1.86-9.36 4.9-18.44 6.42-27.87 10.86-1.97 20.77-7.15 30-13 4.17-3.83 8.03-7.97 12.06-11.93 7.1-8.75 12.02-19.34 13.34-30.58 1.22-12.72-.73-25.98-6.87-37.3-1.45-4.18-4.63-7.42-6.27-11.5 3.8-3.34 7.85-6.38 11.34-10.1 4.2-2.78 6.77-7.2 10-10.97 3.68-3.88 5.16-9.2 6.86-14.12.5-1.28-.24-2.6-.4-3.88m7.97 17.4c-2.6 2.37-5.84 5.53-4.56 9.4.47 4.37 4.5 6.88 7.8 9.14 5.57 2.24 11.43 5.25 17.6 3.8 11.9-.67 23-5.46 33.66-10.4-4.56-4.1-9.5-7.7-14.4-11.33-3.25-1.85-6.72-3.26-10.08-4.87-9.88-3.16-21.8-2.73-30.02 4.26z"/><path  fill="#000" d="M76.92 478.97c5.63-10.9 20.12-16.64 31.44-11.4 8.4 3.34 15.2 10.05 18.9 18.25 4.15 10.83 5 22.84 2.98 34.2.38 4.4-1.42 8.55-1.05 12.94.27 9.64-.7 19.37 1.08 28.9 1.4 6.34 3.3 13.04 8.18 17.65 3.16 2.1 6.47 4.82 10.52 4.3 6.4.26 12.87-.43 19.17.92 4.95.12 9.85-.3 14.77-.28-7.66 2.86-14.53 7.5-21 12.43-28.98 21.2-49.27 53.64-56.1 88.85-.7 3.3-.93 6.7-1.98 9.94-3.2-4.32-7.16-8-9.93-12.62-6.6-9.2-10.74-19.85-14.65-30.4-3.62-9.6-5.18-19.77-7.34-29.75-.28-4.02.25-8.1-.97-12.02-.3-5.3-.14-10.6-.1-15.9.5-3 1.18-5.95.97-9 2.64-21.92 9.33-43.3 18.95-63.16 1.68-3.5 3.43-7.1 6.38-9.72 2.04-2.04 4.7-3.3 7-5 7.38-7.4 9.14-19.8 3.46-28.72-3.6-3.77-9.16-4.93-14.2-4.04-4.9 1.86-7.4 7.43-7.22 12.4 1.24 4.83 6.6 10.1 11.73 6.94.3-3.3-.4-6.47-2.44-9.12.6-1 1.2-1.98 1.9-2.88 4.67.53 4.87 5.73 5.83 9.33-.77 5.03-3.86 9.43-8.14 12.1-5.78 2.83-13.86 2.02-17.94-3.33-5.18-6.1-4.12-15.34-.2-21.84zm141.42 69.3c5.4-1.95 10.9-3.83 16.66-4.35 11.88 1.48 24.25 5.43 32.35 14.72 3.92 2.98 5 7.98 8.08 11.64-2.34-.15-4.96-.2-6.27-2.5-2.5-3.75-5.46-7.16-9.08-9.87-2.4-1.6-4.37-4-7.3-4.62-4.4-1.02-8.4-3.47-12.9-4.1-1.6.05-3.68-.6-4.62 1.15-.17 6.16-.01 12.33-.04 18.5-8.48.5-16.83 2.28-25.03 4.43-5.64 1.55-11.03 3.88-16.72 5.26 3.67-12.95 12.67-24.42 24.87-30.26zm142.2-3.83c5.14-1.52 10.28.68 15.3 1.6 4.82.87 9.27 3.1 13.4 5.65 2.75 3 6.6 4.8 8.7 8.37 5.5 5.33 8.5 12.75 9.97 20.16 1.38 6.42.2 13.02-1.2 19.33-2.52 6.12-4.6 12.9-9.84 17.3-6.8 7.7-16.84 11.82-26.8 13.43-1.8-.85-2.44-3.05-3.73-4.47 1.02-6.54.2-13.22.47-19.82-.18-4 .78-8.7-1.7-12.1-3.23-1.75-5.28-4.77-7.28-7.73-9.55.08-19.1-.03-28.63.04-2.22-.26-1.87 2.58-2.42 3.95-1.28-1.15-2.97-1.9-3.96-3.3-.56-5.2 1.38-10.2 2.92-15.05 1.58-5.23 5.6-9.1 8.43-13.63 7.2-6.97 16.33-12.28 26.37-13.75m5.58 5.34c-.46 2.42-.68 4.88-1 7.33-.28 2.52 1.46 4.95.64 7.48-1.15 4.32-.75 8.85-.68 13.28.25 2.53 2.55 3.52 4.54 4.52 1.5 2.06 2.3 5.64 5.44 5.58l27.84-.1c.1-1.9.22-3.78.06-5.65-2.04-4.5-2.92-9.45-5.3-13.8-1.97-2.4-3.6-5.05-5.87-7.18-3.7-3.93-8.66-6.35-13.53-8.5-3.95-1.35-8.13-1.82-12.14-2.95zm120.47-4.28c8.9-2 18.3-.2 26.63 3.25 9.5 4.46 16.67 12.78 21.36 22.04-1.74.1-3.46.3-5.18.55-3.2-7.7-9.53-14-16.9-17.77-4.48-1.72-9.06-3.23-13.75-4.26-1.54-.1-3.6-.7-4.45 1.05-.23 10.2.05 20.4-.13 30.58l3.24 1.5c-2.98 1.32-5.68 3.16-8.44 4.87-1.6-.58-3.23-1.22-4.96-1.1-8.95-.03-17.9.1-26.86-.06-.13 6.6.14 13.52 3.67 19.3 1.55 2.07-1.4 3.45-2.4 5-3.04-6.5-5.56-13.3-6.6-20.43-.9-8.25 2.38-16.1 5.76-23.4 6.1-10.77 17.18-18.08 29-21.14zM236.4 579.35c22.6-2.14 45.97.9 66.66 10.54 10.1 3.83 19.17 9.87 27.86 16.2 15.35 11.33 27.82 26.36 36.97 43.06 3.1 4.65 4.8 10 6.92 15.13 13.6 33.2 12.5 72.08-3.06 104.43-3.48 7.02-6.92 14.12-11.5 20.5-5.98 7.95-12.02 15.94-19.5 22.56-3.98 3-7.56 6.5-11.7 9.3-7.65 6.16-16.6 10.3-25.35 14.66-29.92 13.3-64.83 15.26-95.83 4.5-8.82-2.46-16.7-7.22-24.86-11.22-7.36-4.88-15.1-9.38-21.38-15.64-7.55-5.44-13.16-12.96-18.84-20.2-5.34-6.67-9.53-14.14-13.18-21.84-7.58-14.02-11.24-29.77-13.47-45.44-.4-7.96-.54-15.95-.1-23.9 2.18-19.58 7.57-39.12 17.88-56.03 20.8-36.97 60.3-62.42 102.47-66.63m-35.06 18.86l-10.28 49.92c-4.94 5.14-9.66 10.5-13.86 16.3l11.84-60.1c-24.53 13.58-43.82 35.9-54.46 61.77l27.94 42.36c-.08 7.03.52 14.04 1.43 21l-33.76-50.4c-6.3 21.72-6.26 45.17-.2 66.94 1.57 5.22 2.83 10.7 5.67 15.4l49.63 10.25c5.17 5.14 10.5 10.18 16.7 14.08l-60.7-12.1c13.7 24.48 35.84 44.08 61.86 54.64l42.15-28c7.33-.1 14.7-.32 21.9-1.8L216 832.7c27.08 7.73 56.58 5.78 82.55-5.03l10.08-50.07c5.15-5.15 10.17-10.47 14.17-16.6l-12.13 60.47c24.77-13.2 43.87-35.84 54.63-61.6-8.76-14.12-18.37-27.74-27.44-41.68-.98-1.52-.5-3.45-.6-5.13.22-6.05-.84-12.04-1.84-17.98l34.48 51.62c7.57-27.03 5.8-56.5-5.22-82.36l-49.86-10.18c-5.16-5.02-10.44-9.93-16.37-14.08l60.1 11.92c-13.53-24.52-35.8-43.77-61.63-54.4-1.25.42-2.3 1.2-3.4 1.92l-37.8 25.15c-1.6 1.34-3.78.76-5.68.88-5.8-.18-11.55.76-17.3 1.45l50.9-34c-27.02-7.62-56.5-5.73-82.33 5.2zm347.05-18.83c22.62-2.16 45.97.87 66.67 10.53 10.1 3.83 19.17 9.87 27.86 16.2 15.35 11.33 27.82 26.36 36.97 43.06 3.1 4.65 4.8 10 6.92 15.13 14.18 34.58 12.37 75.33-5.06 108.4-4.58 9.9-10.74 18.98-17.9 27.18-7.6 10.08-17.88 17.64-28 25-12.76 7.84-26.4 14.62-41.05 18.03-24.76 6.65-51.5 5.52-75.7-2.9-8.33-2.34-15.73-6.9-23.47-10.62-6.1-3.8-12.13-7.76-17.83-12.15-5.5-5.2-11.92-9.47-16.3-15.75-6.95-7.97-13.3-16.56-17.92-26.12-2.95-6.16-6.53-12.07-8.32-18.7-8.12-22.6-9.85-47.46-4.6-70.9 4.65-23.7 16.5-45.62 32.5-63.57 14.62-15.52 32.7-27.97 52.8-35.25 10.37-4.05 21.4-6.16 32.4-7.56m-35.05 18.85l-10.28 49.92c-4.94 5.15-9.66 10.5-13.86 16.3l11.84-60.1c-24.53 13.58-43.82 35.9-54.46 61.77l27.94 42.37c-.1 7.03.52 14.04 1.43 21l-33.82-50.42c-5.92 21-6.27 43.56-.7 64.68 1.65 6 3.1 12.24 6.22 17.67l49.66 10.26c5.17 5.14 10.5 10.18 16.7 14.08l-60.7-12.1c13.7 24.48 35.84 44.08 61.86 54.64L556 801.02c1.4-1.2 3.3-.78 4.98-.86 6.12.12 12.22-.6 18.23-1.7L528 832.7c27.08 7.72 56.6 5.8 82.56-5.05l10.06-50.04c5.15-5.15 10.17-10.47 14.18-16.6l-12.13 60.46c24.77-13.2 43.87-35.84 54.63-61.6-8.76-14.12-18.37-27.75-27.44-41.68-.98-1.53-.5-3.45-.6-5.13.22-6.05-.84-12.04-1.84-17.98l34.48 51.64c7.56-27.04 5.8-56.52-5.2-82.37l-49.87-10.2c-5.16-5.02-10.44-9.93-16.36-14.08l60.1 11.93c-13.53-24.53-35.8-43.8-61.67-54.4-14.37 8.86-28.14 18.78-42.42 27.8-7.26.1-14.52.45-21.7 1.6l50.92-34.02c-10.37-2.56-20.96-4.72-31.7-4.52-17.35-.52-34.66 3.16-50.66 9.75zm-95.54-13.46l25.36.03c.14 4.06.04 8.13.07 12.2.33 7.6 4.77 14.02 7.64 20.8-2.9 4.35-6.53 8.2-9.5 12.5-16.24 23.23-25.52 51.3-26.14 79.66.3 5.74-.66 11.6.64 17.26-6.9-.05-13.77-.05-20.66 0 1.32-6 .3-12.2.65-18.27-.84-24.2-7.65-48.34-20.13-69.12 4.43-1.07 8.57-2.95 12.9-4.34 7.57-3.17 13.57-8.93 19.06-14.86 8.04-10.05 10.9-23.23 10.1-35.88zm-193.1 55.78c14.96-4.9 31.62-6 46.68-1 2.84 8.66 5.27 17.47 8 26.18.34 1.46 1.77 2.2 2.84 3.1 5.48 4.06 10.13 9.2 13.7 15l-11.8-39.4c14.28 7 26 18.72 33.58 32.64l-13.5 25.3c-1.02 1.73-.18 3.76-.14 5.62.82 7.1-.34 14.24-2 21.14L323 690c4.67 14.8 4.7 31.07-.1 45.86-9.13 3.57-18.87 5.63-28.15 8.88-1.26.7-2 2.04-2.9 3.1-4.5 5.84-10.54 10.2-16.8 14l42.3-12.65c-7.38 13.46-18.7 24.68-32.36 31.74l-23.44-12.7c-2.25-1.63-5.05-.38-7.54-.3-5.8.82-11.58-.1-17.32-.78l35.2 19.02c-13.47 4.14-28.07 4.22-41.67.63-1.12-.42-2.88-.48-3.1-1.96l-7-23.17c-.44-2.24-2.7-3.22-4.3-4.55-4.6-3.27-8.45-7.5-11.82-12l10.6 35.73c-13.34-6.86-24.36-17.8-31.74-30.84l12.37-23.2c-1.2-6.62-1.96-13.3-1.46-20.07l-16.55 30.57c-4.78-14.4-5.2-30.2-1.25-44.85l23.53-7.06c2.1-.3 2.84-2.47 3.98-3.94 2.9-4.45 6.85-8.02 10.62-11.7l-33.35 9.98c6.75-14.02 17.8-25.95 31.4-33.6l22.5 12.1c1.5 1.04 3.32.42 4.98.23 6-1.15 12.2-1.05 18.24-.14l-33.25-17.86zm312 0c15-5.04 31.5-5.74 46.7-1.2l7.95 26.38c.34 1.45 1.77 2.2 2.83 3.1 5.5 4.06 10.15 9.2 13.72 15l-11.8-39.4c14.28 7 26 18.72 33.58 32.64-4.5 9.05-10.02 17.7-14 26.95 1.22 8.4.52 16.93-1.62 25.12l20.95-39.1c4.67 14.8 4.7 31.06-.1 45.84-9.13 3.6-18.87 5.64-28.14 8.9-1.28.7-2 2.04-2.92 3.1-4.5 5.84-10.55 10.2-16.8 14l42.32-12.65c-7.38 13.46-18.7 24.68-32.36 31.74l-25.04-13.48c-3.34-.13-6.63.82-9.97.8-4.47.22-8.86-.65-13.28-1.08l35.2 19.02c-13.47 4.14-28.07 4.22-41.67.63-1.1-.43-2.88-.47-3.08-1.94l-7-23.18c-.44-2.25-2.7-3.23-4.3-4.56-4.6-3.27-8.44-7.5-11.82-11.98l10.6 35.72c-13.34-6.86-24.36-17.8-31.74-30.84l12.37-23.2c-1.2-6.62-1.97-13.3-1.46-20.07l-16.55 30.57c-4.78-14.4-5.2-30.2-1.25-44.85l23.53-7.06c2.1-.3 2.84-2.46 3.98-3.93 2.9-4.46 6.85-8.03 10.62-11.7l-33.35 9.98c6.75-14.02 17.8-25.95 31.4-33.6l22.5 12.1c1.5 1.05 3.32.42 4.98.23 6.02-1.15 12.2-1.05 18.25-.14l-33.25-17.86z"/></svg>