<!-- Generated by IcoMoon.io -->
<svg version="1.1" xmlns="http://www.w3.org/2000/svg" width="1280" height="1024" viewBox="0 0 1280 1024">
<title></title>
<g id="icomoon-ignore">
</g>
<path fill="#000" d="M832 192q52 0 90 38t38 90v256q0 52-38 90t-90 38l-54 268q-4 22-22 37t-40 15h-152q-22 0-40-15t-22-37l-54-268q-52 0-90-38t-38-90v-256q0-52 38-90t90-38h384zM512 576q26 0 45-19t19-45-19-45-45-19-45 19-19 45 19 45 45 19zM768 576q26 0 45-19t19-45-19-45-45-19-45 19-19 45 19 45 45 19zM120 228q20 28 72 28h64v192q-106 0-181-75t-75-181q0-110 74-182 8-10 22-10t23 9 9 23q0 6-2 12-8 22-15 52t-7 70 16 62zM1206 10q74 72 74 182 0 106-75 181t-181 75v-192h64q52 0 72-28 14-22 15-63t-6-71-15-50q-2-6-2-12 0-14 9-23t23-9 22 10z"></path>
</svg>
