<!-- Generated by IcoMoon.io -->
<svg version="1.1" xmlns="http://www.w3.org/2000/svg" width="896" height="1024" viewBox="0 0 896 1024">
<title></title>
<g id="icomoon-ignore">
</g>
<path fill="#000" d="M878 906q12 6 16 19t-2 25l-28 56q-6 12-19 16t-23-2l-374-180-374 180q-10 6-23 2t-19-16l-28-56q-6-12-2-25t16-19l284-138-284-138q-12-6-16-19t2-25l28-56q6-12 19-16t23 2l374 180 374-180q10-6 23-2t19 16l28 56q6 12 2 25t-16 19l-284 138zM300 474q-64-34-102-92t-38-126q0-106 84-181t204-75 204 75 84 181q0 68-38 126t-102 92l12 52q4 20-7 35t-27 15h-252q-16 0-26-15t-6-35zM560 224q-26 0-45 19t-19 45 19 45 45 19 45-19 19-45-19-45-45-19zM336 224q-26 0-45 19t-19 45 19 45 45 19 45-19 19-45-19-45-45-19z"></path>
</svg>
