<!-- Generated by IcoMoon.io -->
<svg version="1.1" xmlns="http://www.w3.org/2000/svg" width="1024" height="1024" viewBox="0 0 1024 1024">
<title></title>
<g id="icomoon-ignore">
</g>
<path fill="#000" d="M382 292q-8-50-44-88-30-28-53-78t-29-90v-4q0-12 10-22t22-10h34q8 0 15 4t11 10 6 14q8 62 52 106 26 26 48 70t26 80q2 14-8 25t-24 11h-34q-12 0-21-8t-11-20zM606 292q-8-50-44-88-14-14-28-35t-25-43-19-46-10-44q-2-14 8-25t24-11h34q12 0 21 8t11 20q8 62 52 106 26 26 48 70t26 80q2 14-8 25t-24 11h-34q-12 0-21-8t-11-20zM960 384q26 0 45 19t19 45q0 140-70 258t-186 184v70q0 26-19 45t-45 19h-384q-26 0-45-19t-19-45v-70q-116-66-186-184t-70-258q0-26 19-45t45-19h896z"></path>
</svg>
