<?xml version="1.0" encoding="iso-8859-1"?>
<!-- Generator: Adobe Illustrator 16.0.0, SVG Export Plug-In . SVG Version: 6.00 Build 0)  -->
<!DOCTYPE svg PUBLIC "-//W3C//DTD SVG 1.1//EN" "http://www.w3.org/Graphics/SVG/1.1/DTD/svg11.dtd">
<svg version="1.1" id="Capa_1" xmlns="http://www.w3.org/2000/svg" xmlns:xlink="http://www.w3.org/1999/xlink" x="0px" y="0px"
	 width="961.801px" height="961.801px" viewBox="0 0 961.801 961.801" style="enable-background:new 0 0 961.801 961.801;"
	 xml:space="preserve">
<g>
	<path fill="#000" d="M825.4,503.05c0,1.801,0.1,3.6,0.1,5.201c0,13.799-3.9,27.299-11.699,40.199c-6.801,11.199-16.5,22-29,32
		c-22.4,18-53.801,33.9-93.201,47.199c-78,26.4-181.1,41-290.5,41c-107.9,0-191.5-14.199-248.3-42.299
		c-9.6-4.701-18.4-9.9-26.4-15.4C49.9,652.751,0,695.751,0,728.251c0,90,215.3,163.1,480.9,163.1s480.901-73,480.901-163.1
		C961.801,663.649,937.199,557.751,825.4,503.05z M742.6,808.351c-95.699,21.799-178.5,16.5-185-11.801
		c-6.4-28.299,119.4-113.1,215.1-134.9c95.701-21.799,125.102,27.801,131.5,56C910.699,746.05,838.301,786.649,742.6,808.351z"/>
	<path fill="#000" d="M151.8,597.649c48.9,28.201,129.6,46.102,249.2,46.102c220.6,0,399.401-60.701,399.401-135.5
		c0-5.102-0.201-10.5-0.6-16.201c-2.701-36.7-15-83.6-49.201-122.799c-60.6,20-137.5,30.899-218.5,30.899
		c-87.6,0-170.299-12.8-233-35.899c-9.601-3.5-18.6-7.301-27-11.2c-105.4,47.5-180.2,112.3-180.2,155.201
		C91.9,542.45,110.5,573.751,151.8,597.649z M643.301,449.15c55.5-12.6,82.1,6.4,93.898,26c3.801,6.3,6.102,12.701,7.301,18.101
		c5,22.1-50.5,53.5-123.9,70.199s-137.1,12.4-142.1-9.699C474.8,537.55,525.9,497.649,582.4,471.05
		C602.699,461.35,623.801,453.55,643.301,449.15z"/>
	<path fill="#000" d="M272.8,325.45c4.7,2.5,9.7,4.9,14.9,7.2c5.3,2.4,10.8,4.6,16.5,6.8c57.7,22,138.4,35.7,227.8,35.7
		c75.1,0,144.1-9.7,198.4-25.8c4.699-1.4,9.4-2.9,13.9-4.4s8.898-3.1,13.199-4.7c56.699-21.2,91.6-50.3,91.6-82.5
		c0-64.8-252.5-187.3-427.7-187.3c-175.2,0-206.5,122.6-206.5,187.4C214.9,283.05,236.4,306.35,272.8,325.45z M605.801,271.45
		c3-16.4,14.398-33.9,45.299-42c12.301-3.2,26.5-4.6,41-4.6c43.201,0,88.801,12.4,92.301,26c4.5,17.4-28.301,41.1-74.201,54.2
		c-2,0.6-4,1.1-6,1.6c-4.199,1.1-8.299,2-12.299,2.9c-8,1.6-15.801,2.8-23.1,3.5c-5.9,0.6-11.602,0.9-17,0.9
		c-24.4,0-42-6-44.801-17.1v-0.1c-0.9-3.7-1.699-8.1-1.9-12.9C604.801,279.95,605,275.75,605.801,271.45z"/>
</g>
</svg>
