<?xml version="1.0" encoding="iso-8859-1"?>
<!-- Generator: Adobe Illustrator 16.0.0, SVG Export Plug-In . SVG Version: 6.00 Build 0)  -->
<!DOCTYPE svg PUBLIC "-//W3C//DTD SVG 1.1//EN" "http://www.w3.org/Graphics/SVG/1.1/DTD/svg11.dtd">
<svg version="1.1" id="Capa_1" xmlns="http://www.w3.org/2000/svg" xmlns:xlink="http://www.w3.org/1999/xlink" x="0px" y="0px"
	 width="950px" height="950px" viewBox="0 0 950 950" style="enable-background:new 0 0 950 950;" xml:space="preserve">
<g>
	<path fill="#000" d="M130.05,64.7h689.9c4-12.7,7.4-25.8,10-39.1c2.6-13.3-7.7-25.6-21.2-25.6h-667.5c-13.5,0-23.8,12.3-21.2,25.6
		C122.65,38.9,126.05,51.9,130.05,64.7z"/>
	<path fill="#000" d="M150.15,950h649.6c6.4,0,12.601-2.9,16.7-7.9c61.6-75.699,98.6-172.3,98.6-277.5c0-176.5-103.899-328.6-253.8-398.8
		c61.8-37.2,111.5-92.3,142-158.1h-656.5c30.5,65.8,80.2,120.9,142,158.1c-150,70.2-253.8,222.4-253.8,398.8
		c0,105.2,37,201.801,98.6,277.5C137.55,947.1,143.65,950,150.15,950z M472.95,393.1c165.8-0.5,299.6,132.9,299.6,298.7
		c0,72.2-25.6,138.4-68.3,190.101c-4.1,5-10.2,7.8-16.6,7.8H635.05V786.4c0-11.9-9.6-21.601-21.6-21.601h-109.3v-14.2
		c0-11.899-9.601-21.6-21.601-21.6h-15.3c-11.899,0-21.6,9.6-21.6,21.6v14.2h-109.3c-11.9,0-21.601,9.601-21.601,21.601v103.3
		h-54.7c-6.4,0-12.5-2.9-16.7-7.9c-42.7-51.6-68.3-117.899-68.3-190.1C175.15,527.1,308.45,393.6,472.95,393.1z"/>
	<path fill="#000" d="M433.15,697.7c5.2-26,17.399-54.3,27.1-74.2c5.601-11.5,22-11.6,27.8-0.1c10,20,22.601,48.5,28,74.699
		c57-33.1,10.2-147.199-20.6-208.8c-8.9-17.8-34.3-17.7-43.1,0.2C422.25,550.9,376.95,664.1,433.15,697.7z"/>
</g>
</svg>
