<?xml version="1.0" encoding="iso-8859-1"?>
<!-- Generator: Adobe Illustrator 16.0.0, SVG Export Plug-In . SVG Version: 6.00 Build 0)  -->
<!DOCTYPE svg PUBLIC "-//W3C//DTD SVG 1.1//EN" "http://www.w3.org/Graphics/SVG/1.1/DTD/svg11.dtd">
<svg version="1.1" id="Capa_1" xmlns="http://www.w3.org/2000/svg" xmlns:xlink="http://www.w3.org/1999/xlink" x="0px" y="0px"
	 width="941.425px" height="941.426px" viewBox="0 0 941.425 941.426" style="enable-background:new 0 0 941.425 941.426;"
	 xml:space="preserve">
<g>
	<path fill="#000" d="M50.377,277.125v323.5c10.9-15.5,22.5-30.1,34.4-43.1c42.4-46.5,93.7-82.4,152.5-106.8c27.6-11.5,56.7-20.3,86.5-26.101
		c29.1-5.699,58.899-8.6,88.699-8.6c8.7,0,17.4,0.2,26,0.7v-139.6c0-22.1-17.899-40-40-40h-308.1
		C68.277,237.125,50.377,255.025,50.377,277.125z"/>
	<path fill="#000" d="M812.977,795.426c-9.199-5.801-17.5-13.9-25.3-25c-2.3-3.2-7.7-11.7-14.2-22.9c0.301,12.9,0,23-0.3,26.9
		c-1.3,18-6,32.199-14.399,43.6c-8.801,11.9-21.4,20.3-37.5,24.8l-1.301,0.4l-0.5,0.1c-11.699,3.101-24,4.101-35.899,5.101
		c-11.7,1-22.8,1.899-33.101,4.5c-2.8,0.699-5.8,1.1-8.699,1.1c-12.7,0-24.4-6.9-30.5-18.1c-5.101-9.301-12-18-19.4-27.2
		c-11.5-14.5-23.4-29.4-28.2-48c-5.899-22.7,0.5-44.9,18.9-65.8c-8.5,2.199-16.7,3.3-24.2,3.3c-20.9,0-38.3-8.101-51.7-24.2
		c-10-12-16.3-26.4-22.3-40.3c-4.7-10.8-9.1-21-14.901-29.9c-8.699-13.3-7.3-30.8,3.5-42.6c7.2-7.8,13.2-17.2,19.601-27.101
		c13-20.1,27.7-43,54.3-50.399c5.5-1.5,11.3-2.3,17.2-2.3c6.5,0,13.1,0.899,20,2.8c-2.101-3.9-3.8-7.8-5.101-11.7
		c-15.199-6.3-30.8-11.6-46.6-15.901c-30.8-8.399-62.3-13.3-93.901-15c-8.699-0.5-17.3-0.699-26-0.699
		c-111.899,0-226.6,42.9-309.2,133.4c-18,19.8-36.6,44.7-52.8,72.5c-50,85.601-78.2,198.3-2.2,271.101
		c14.7,14.1,32.5,23.5,51.7,23.5h625c71.9,0,95.5-70.4,94-142.7C816.877,797.726,814.877,796.625,812.977,795.426z M72.877,772.825
		c6.8-36.399,21.2-71.2,39.7-103.1c12.6-21.9,27.3-42.601,44.2-61.4c45.6-51,105.8-87.399,172-104.6c31.8-8.3,66.1-11.9,99.1-8.4
		c4.9,0.5,6.1,7.2,1.6,9.3c0,0-0.1,0-0.1,0.101c-8.1,3.8-16.3,7.3-24.4,11.1c-16,7.5-31.899,15.4-47.399,23.9
		c-31.2,17-61.101,36.3-88.8,58.5c-49.6,39.7-93.3,86.899-127.8,140.3c-23.8,36.8-43.3,76.6-56.9,118.3c-1.5,4.7-8.2,4.8-9.8,0.101
		v-0.101C65.677,830.525,67.877,799.525,72.877,772.825z"/>
	<path fill="#000" d="M688.078,458.125c0.1,0,0.2,0,0.2,0c0.3,0,0.399,0.301,0.5,0.4l30,75.201l0.899,2.2c1.601,3.899,5,6.6,8.9,7.399
		c0.7,0.101,1.5,0.2,2.3,0.2c1.1,0,2.2-0.1,3.3-0.4l0,0c2.9-0.8,5.4-2.699,7-5.399c15.7-26.5,22.4-87.3,22.8-102.201
		c1.5-45.8-28.899-51.5-61.1-57.5c-12.1-2.3-24.6-4.6-36.6-9.1c-1.101-0.4-2.301-0.6-3.4-0.6c-0.9,0-1.8,0.1-2.6,0.4
		c-2.2,0.6-4.101,2-5.4,3.9c-7.2,10.5-16.2,19.6-24.8,28.4c-16.3,16.7-32,32.6-29.8,53.7c0.5,5.1,2.1,10.399,4.899,16.1
		c1.9,3.901,4.5,8,7.7,12.3c1.7,2.2,4.4,5.601,7.9,9.801c15.5,18.199,46.399,50.6,69.2,60.899c1.6,0.7,3.3,1.101,4.899,1.101
		c1.101,0,2.101-0.101,3.101-0.4c1.5-0.4,2.899-1.1,4-2c3.699-2.8,5.6-7.6,4.5-12.4l-0.2-0.6l-4.9-21l-13.9-59.5
		C687.578,458.625,687.477,458.225,688.078,458.125z"/>
	<path fill="#000" d="M900.078,627.125c-11.3-3.3-51.4-11.899-82.5-11.899c-8.101,0-15.5,0.6-21.7,2c-2.4,0.6-4.6,1.8-6.1,3.6
		c-1.4,1.5-2.4,3.5-2.9,5.601c-0.9,4.399,0.6,8.899,4.1,11.8l16.4,13.6l47.7,39.7c0.3,0.2,0.3,0.4,0.2,0.5
		c-0.101,0.3-0.301,0.5-0.5,0.6c0,0,0,0-0.101,0c-0.1,0-0.2,0-0.399-0.1l-38.5-23.3l-19.7-12l-13-7.9c-1.9-1.2-4.101-1.8-6.2-1.8
		c-0.1,0-0.1,0-0.2,0c-1,0-2,0.2-3,0.4c-5.7,1.6-9.399,7-8.8,12.899c3.4,30.601,34.8,83.101,43.4,95.3c2.8,3.9,5.6,7.301,8.5,10.301
		c4.3,4.399,8.8,7.8,13.6,10.1c4.1,2,8.3,3.2,12.8,3.6c1.3,0.101,2.601,0.2,3.9,0.2c4.5,0,9.3-0.7,14.3-2.1
		c9.8-2.7,19.8-7.7,30.3-12.9c11-5.5,22.4-11.1,34.7-14.8c4.3-1.3,7.2-5.3,7-9.8c-0.5-12.7,1.1-25.4,2.7-37.601
		C940.078,670.525,943.977,639.825,900.078,627.125z"/>
	<path fill="#000" d="M934.578,466.525c0.2-4.5-2.7-8.5-7-9.7c-12.2-3.6-23.7-9.2-34.7-14.6c-15.5-7.601-30.2-14.8-44.5-14.8
		c-3.5,0-6.9,0.399-10.3,1.399c-10.4,2.9-19.8,10.4-28.5,23c-8.5,12.2-39.601,64.901-42.9,95.5c-0.399,4,1.101,7.8,4.101,10.4
		c2.199,1.899,5,2.899,7.8,2.899c1.1,0,2.1-0.1,3.2-0.399c1.1-0.3,2.1-0.8,3.1-1.4l71-43.6c0.1-0.101,0.2-0.101,0.2-0.101h0.1
		c0.3,0,0.5,0.4,0.5,0.4c0.2,0.4,0,0.6-0.2,0.7l-63.8,53.6c-3.5,3-5,7.601-3.899,12.101c1.1,4.5,4.6,7.8,9,8.8
		c6.1,1.3,13.3,1.899,20.8,1.899c12.2,0,25.2-1.3,35.7-2.8c21.399-3,39.6-7.2,46.3-9.1c0.5-0.101,1-0.3,1.399-0.4
		c43.9-13,39.801-43.7,35.4-76.1C935.778,491.825,934.078,479.226,934.578,466.525z"/>
	<path fill="#000" d="M563.977,506.525c-3.699,0-7.199,0.5-10.5,1.4c-17.5,4.899-28.399,21.899-40,39.899c-6.699,10.4-13.6,21.101-22.199,30.5
		c-3,3.3-3.4,8.2-1,12c7,10.7,12,22.3,17,33.7c11,25.3,21.5,49.5,51.1,49.5c5.5,0,11.6-0.8,18.6-2.6c0.4-0.101,0.9-0.2,1.4-0.4
		c6.7-1.9,24.5-7.6,44.3-16.1c15.8-6.801,37.101-17.2,48.8-28.4c3.301-3.2,4.5-7.8,3.2-12.2c-1.399-4.399-5.1-7.6-9.6-8.3
		l-82.3-12.9c-0.301,0-0.5-0.1-0.5-0.5c0,0,0-0.6,0.399-0.699c0.101,0,0.2,0,0.3,0l0,0l83.301,0.6h0.1c1.1,0,2.2-0.1,3.3-0.4
		c3.8-1.1,6.9-4,8.101-7.8c1.3-3.8,0.6-7.8-1.801-11c-18.6-24.6-72.5-53.6-86-59.6C580.278,508.625,571.778,506.525,563.977,506.525
		z"/>
	<path fill="#000" d="M758.977,619.325c2.9-3.899,5.101-8.3,6.2-13.2c0.8-3.699,1.101-7.6,0.601-11.6c-2.101-17.2-16.7-29.7-33.601-29.7
		c-0.1,0-0.1,0-0.2,0c-1.3,0-2.699,0.101-4.1,0.3c-3.6,0.4-7,1.4-10.1,2.9c-13,6-21.2,19.9-19.301,34.9
		c2.101,17.199,16.7,29.699,33.601,29.699c1.399,0,2.8-0.1,4.2-0.3C745.677,631.226,753.677,626.325,758.977,619.325z"/>
	<path fill="#000" d="M633.177,824.125c1.7,3.2,5.101,5.101,8.601,5.101c0.8,0,1.6-0.101,2.5-0.3c12.3-3.2,25-4.2,37.3-5.2
		c11.8-1,22.899-1.9,32.6-4.601l0,0c21.7-6,32.2-20.3,34.101-46.3c1.1-14.8,0.8-76-12.101-104c-2-4.3-6.3-6.899-10.899-6.899
		c-1.101,0-2.2,0.1-3.301,0.5c-3.199,0.899-5.8,3-7.399,6l-38.7,73.8c-0.1,0.3-0.3,0.3-0.3,0.3h-0.101c-0.199,0-0.5-0.1-0.6-0.3
		c-0.1-0.101-0.2-0.2-0.1-0.601l27.3-78.699c1.5-4.2,0.5-8.9-2.601-12.2c-2.3-2.5-5.5-3.8-8.699-3.8c-1.301,0-2.5,0.199-3.801,0.6
		c-29.199,9.7-74,51.4-84.1,62.3c-31.1,33.7-11.8,57.9,8.6,83.5C619.177,802.926,627.078,812.926,633.177,824.125z"/>
	<path fill="#000" d="M231.677,130.525c5-10.2,19.5-10.2,24.6-0.1c8.8,17.7,20,43,24.7,66.1c50.4-29.3,9.1-130.3-18.2-184.8
		c-7.9-15.7-30.4-15.6-38.1,0.1c-26.6,54.3-66.7,154.5-17,184.3C212.177,173.125,223.077,148.125,231.677,130.525z"/>
</g>
</svg>
