<!-- Generated by IcoMoon.io -->
<svg version="1.1" xmlns="http://www.w3.org/2000/svg" width="1024" height="1024" viewBox="0 0 1024 1024">
<title></title>
<g id="icomoon-ignore">
</g>
<path fill="#000" d="M648 206q-8-4-8-14t8-14l120-50 50-120q4-8 14-8t14 8l50 120 120 50q8 4 8 14t-8 14l-120 50-50 120q-4 8-14 8t-14-8l-50-120zM1016 818q8 4 8 14t-8 14l-120 50-50 120q-4 8-14 8t-14-8l-50-120-120-50q-8-4-8-14t8-14l120-50 50-120q4-8 14-8t14 8l50 120zM768 512q0 20-18 28l-224 112-114 226q-8 18-28 18t-28-18l-114-226-224-112q-18-8-18-28t18-30l224-112 114-226q8-16 28-16t28 16l114 226 224 112q18 10 18 30z"></path>
</svg>
