<!-- Generated by IcoMoon.io -->
<svg version="1.1" xmlns="http://www.w3.org/2000/svg" width="1152" height="1024" viewBox="0 0 1152 1024">
<title></title>
<g id="icomoon-ignore">
</g>
<path fill="#000" d="M764 52q-4-12 2-24t18-16l32-10q12-4 24 2t16 18l52 156q2 10 2 20 0 14-6 28l-54 108-52 18h-10l-10-52q-2-12-6-24l40-80zM302 334l-54-108q-6-14-6-28 0-10 2-20l52-156q4-12 16-18t24-2l32 10q12 4 18 16t2 24l-48 144 40 80q-4 12-6 24l-10 52h-10zM1138 744l-26 16q-28 18-46-8l-96-144h-94l122 194q10 16 10 34v156q0 14-9 23t-23 9h-32q-14 0-23-9t-9-23v-146l-148-238q4 58 4 86 0 80-55 141t-137 61-137-61-55-141q0-26 4-86l-148 238v146q0 14-9 23t-23 9h-32q-14 0-23-9t-9-23v-156q0-18 10-34l122-194h-94l-96 144q-18 26-46 8l-26-16q-26-18-8-46l104-158q20-28 54-28h156l-138-48q-20-8-34-26l-106-160q-18-28 8-46l28-16q26-18 44 8l100 152 122 40h72l20-104q4-12 11-28t22-39 43-38 64-15 64 15 43 38 22 39 11 28l20 104h72l122-40 100-152q18-26 44-8l28 16q26 18 8 46l-106 160q-14 18-34 26l-138 48h156q34 0 54 28l104 158q18 28-8 46zM600 640l52-70q6-8 2-17t-14-9h-128q-10 0-14 9t2 17l52 70-52 70q-6 8-2 17t14 9h128q10 0 14-9t-2-17z"></path>
</svg>
