<!-- Generated by IcoMoon.io -->
<svg version="1.1" xmlns="http://www.w3.org/2000/svg" width="1024" height="1024" viewBox="0 0 1024 1024">
<title></title>
<g id="icomoon-ignore">
</g>
<path fill="#000" d="M864 0q66 0 113 47t47 113v208q0 54-32 96t-84 58l-20 6-40 68q-6 10-19 14t-25-4l-64-36-170 48q-40 12-70 40l-350 352q-14 14-34 14t-34-14l-68-68q-14-14-14-34t14-34l178-178v-88q0-14 9-23t23-9h88l54-52q26-28 71-54t81-36l314-90v-152h-100l-24 46q-6 12-18 16t-24-2l-116-56q-12-6-16-19t2-25l32-64q10-20 25-36t34-28 41-18 44-6h152z"></path>
</svg>
