<!-- Generated by IcoMoon.io -->
<svg version="1.1" xmlns="http://www.w3.org/2000/svg" width="1152" height="1024" viewBox="0 0 1152 1024">
<title></title>
<g id="icomoon-ignore">
</g>
<path fill="#000" d="M738 192q70 0 148 88 66 76 73 182t-51 172q-162 184-424 196-170 6-256-56-70-52 2-102 16-10 36-20 82-36 147-81t98-79 58-79 30-60 13-41q16-54 50-87t76-33zM768 512q26 0 45-19t19-45-19-45-45-19-45 19-19 45 19 45 45 19zM1030 154q114 130 121 308t-99 298q-220 250-540 264-92 2-180-14t-164-52-122-102-46-152q0-78 35-126t89-73 111-48 112-72 81-127q34-116 119-187t191-71q158 0 292 154zM956 676q74-84 67-214t-89-224q-96-110-196-110-64 0-114 45t-72 121q-32 110-110 178t-202 122q-54 24-82 54t-31 54 7 49 17 35 13 16q54 54 159 75t185 19q264-10 448-220z"></path>
</svg>
