<!-- Generated by IcoMoon.io -->
<svg version="1.1" xmlns="http://www.w3.org/2000/svg" width="1024" height="1024" viewBox="0 0 1024 1024">
<title></title>
<g id="icomoon-ignore">
</g>
<path fill="#000" d="M752 64q60 0 140-19t132-45v192q0 26-19 45t-45 19h-64v128h96q14 0 23 9t9 23v64q0 14-9 23t-23 9h-96v480q0 14-9 23t-23 9h-64q-14 0-23-9t-9-23v-480h-512v480q0 14-9 23t-23 9h-64q-14 0-23-9t-9-23v-480h-96q-14 0-23-9t-9-23v-64q0-14 9-23t23-9h96v-128h-64q-26 0-45-19t-19-45v-192q52 26 132 45t140 19h480zM256 256v128h192v-128h-192zM768 384v-128h-192v128h192z"></path>
</svg>
