<!-- Generated by IcoMoon.io -->
<svg version="1.1" xmlns="http://www.w3.org/2000/svg" width="1280" height="1024" viewBox="0 0 1280 1024">
<title></title>
<g id="icomoon-ignore">
</g>
<path fill="#000" d="M898 128q120 0 210 62t108 156q2 14-9 26t-27 12h-108l-48-96-48 96h-270q86 330 54 586-4 24-22 39t-42 15h-110q-20 0-37-11t-24-30-1-39q76-302 52-544l-294 292q-12 12-27 12t-25-14q-52-76-33-185t105-193l6-6t8-7 6-5l-66-134-48 96h-108q-16 0-27-12t-9-26q12-62 57-111t114-78 147-29q74 0 138 25t108 67 64 96q90-60 206-60z"></path>
</svg>
