<!-- Generated by IcoMoon.io -->
<svg version="1.1" xmlns="http://www.w3.org/2000/svg" width="1280" height="1024" viewBox="0 0 1280 1024">
<title></title>
<g id="icomoon-ignore">
</g>
<path fill="#000" d="M596 576l160 180q20 22 8 49t-42 27h-274v48l60 98q8 16-1 31t-27 15h-192q-18 0-27-15t-1-31l60-98v-48h-274q-30 0-42-27t8-49l160-180h-62q-30 0-42-26t6-48l158-182h-58q-30 0-42-28-12-26 8-48l220-234q6-6 12-8t12-2 12 2 12 8l220 234q20 22 8 48-12 28-42 28h-58l158 182q18 22 6 48t-42 26h-62zM1268 756q20 22 8 49t-42 27h-274v48l60 98q8 16-1 31t-27 15h-192q-18 0-27-15t-1-31l60-98v-112q0-24-28-54l-82-94q24-16 36-42 30-64-16-118l-84-96q26-18 38-46 24-56-14-106l190-202q10-10 24-10t24 10l220 234q20 22 8 48-12 28-42 28h-58l158 182q18 22 6 48t-42 26h-62z"></path>
</svg>
