<!-- Generated by IcoMoon.io -->
<svg version="1.1" xmlns="http://www.w3.org/2000/svg" width="1280" height="1024" viewBox="0 0 1280 1024">
<title></title>
<g id="icomoon-ignore">
</g>
<path fill="#000" d="M1192 168q50 8 74 52t6 92q-10 28-36 47t-58 21h-4q-30 0-56-18-54-34-98-2-132 92-182 240-22 68-75 114t-119 52q-14 2-26 2-84 0-147-51t-81-129q-2-12-14-12h-34q-16 0-16 16v2q12 62 48 112 88 126 244 126 16 0 32-2 84-8 152-65t98-145q14-44 50-97t72-83q130 170 130 328 0 56-20 99t-60 70-88 45-118 27-136 12-154 3-154-3-136-12-118-27-88-45-60-70-20-99q0-118 76-250t213-229 287-97q130 0 254 76 42-18 96-56 42-28 30-82-2-12-2-24 0-10 2-18 6-36 36-62t68-26q16 0 34 6 28 10 48 35t24 57v10q0 34-22 62 16-4 30-4 10 0 18 2z"></path>
</svg>
