<!-- Generated by IcoMoon.io -->
<svg version="1.1" xmlns="http://www.w3.org/2000/svg" width="1280" height="1024" viewBox="0 0 1280 1024">
<title></title>
<g id="icomoon-ignore">
</g>
<path fill="#000" d="M1266 802q16 10 14 30-2 16-18 24l-110 40v96q0 14-9 23t-23 9h-64q-14 0-23-9t-9-23v-96h-320v96q0 14-9 23t-23 9h-64q-14 0-23-9t-9-23v-96h-320v96q0 14-9 23t-23 9h-64q-14 0-23-9t-9-23v-96l-110-40q-16-8-18-24-2-20 14-30l178-98v-128l-110-36q-18-8-18-28t18-28l238-100v-128l-54-32q-12-12-9-28t17-24l366-172 366 172q14 8 17 24t-9 28l-54 32v128l238 100q18 8 18 28t-18 28l-110 36v128zM448 256v128h384v-128h-384zM320 704h640v-128h-640v128z"></path>
</svg>
