<!-- Generated by IcoMoon.io -->
<svg version="1.1" xmlns="http://www.w3.org/2000/svg" width="1280" height="1024" viewBox="0 0 1280 1024">
<title></title>
<g id="icomoon-ignore">
</g>
<path fill="#000" d="M448 448h-306l-138-348q-14-40 11-73t65-27l250 40q50 6 84 48t34 98v262zM1200 0q40-6 65 27t11 73l-138 348h-306v-262q0-18 4-36t12-33 18-28 23-23 29-17 32-9zM768 112v336h-256v-336q0-34 23-57t57-23h96q34 0 57 23t23 57zM1120 512q14 0 23 9t9 23v64q0 14-9 23t-23 9h-36l2 2q28 26 47 73t19 85q0 92-65 158t-159 66q-80 0-145-56t-75-136h-136q-10 80-75 136t-145 56q-94 0-159-65t-65-159q0-38 19-85t47-73l2-2h-36q-14 0-23-9t-9-23v-64q0-14 9-23t23-9h960zM320 924v-92h-92q8 30 35 57t57 35zM320 768v-92q-30 8-57 35t-35 57h92zM443 891q25-25 33-59h-92v92q34-8 59-33zM384 768h92q-8-30-35-57t-57-35v92zM896 924v-92h-92q8 30 35 57t57 35zM896 768v-92q-20 6-39 20t-33 33-20 39h92zM1019 891q25-25 33-59h-92v92q34-8 59-33zM960 768h92q-8-30-35-57t-57-35v92z"></path>
</svg>
