<!-- Generated by IcoMoon.io -->
<svg version="1.1" xmlns="http://www.w3.org/2000/svg" width="1024" height="1024" viewBox="0 0 1024 1024">
<title></title>
<g id="icomoon-ignore">
</g>
<path fill="#000" d="M160 320l-54-106-106-54 106-54 54-106 54 106 106 54-106 54zM448 192l-32-64-64-32 64-32 32-64 32 64 64 32-64 32zM918 682l106 54-106 54-54 106-54-106-106-54 106-54 54-106zM800 384h-48l-558 618q-18 22-45 22t-47-18l-84-84q-18-20-18-47t22-45l234-212v-74q0-14 9-23t23-9h86l558-504q22-20 44 2l38 38q22 22 2 44l-184 204v56q0 14-9 23t-23 9z"></path>
</svg>
