<!-- Generated by IcoMoon.io -->
<svg version="1.1" xmlns="http://www.w3.org/2000/svg" width="1024" height="1024" viewBox="0 0 1024 1024">
<title></title>
<g id="icomoon-ignore">
</g>
<path fill="#000" d="M964 228q-76 68-226 58 2-14-1-48t12-89 49-89q74-68 224-58 10 150-58 226zM876 340q64 24 124 92-90 100-180 104-80-2-158-82l-84 82q22-6 38-6 92 4 180 104-88 102-180 106-80-4-158-82l-84 82q22-6 38-6 92 4 180 104-40 46-86 75t-94 31q-78-4-158-84l-144 146q-20 18-46 18t-45-19-19-45 18-46l146-144q-80-80-82-158 2-90 104-178 14 10 33 29t45 63 26 86q0 16-6 38l82-84q-78-80-80-158 2-90 102-178 16 10 35 29t45 64 26 87q0 16-6 36l82-84q-78-78-82-156 4-92 104-180 64 48 92 118-20 78-10 152l8 52 52 2q20 2 38 2 50 0 104-12z"></path>
</svg>
