<?xml version="1.0" encoding="UTF-8" ?>
<!DOCTYPE svg PUBLIC "-//W3C//DTD SVG 1.1//EN" "http://www.w3.org/Graphics/SVG/1.1/DTD/svg11.dtd">
<svg width="512pt" height="512pt" viewBox="0 0 512 512" version="1.1" xmlns="http://www.w3.org/2000/svg">
<g>
<path fill="#000000" opacity="1.00" d=" M 224.15 71.90 C 233.45 47.39 243.81 23.25 256.00 0.03 C 274.99 36.70 290.36 75.22 302.25 114.75 C 309.12 138.09 314.65 161.85 317.83 185.98 C 309.50 176.37 299.75 168.18 290.61 159.39 C 281.40 150.57 274.96 138.00 275.87 125.02 C 276.09 118.57 272.84 112.08 267.41 108.55 C 262.30 105.16 255.70 104.96 249.87 106.20 C 241.57 108.22 235.73 116.64 236.12 125.07 C 236.90 134.43 233.40 143.60 228.33 151.32 C 223.65 157.91 217.38 163.11 211.53 168.62 C 205.37 174.02 199.65 179.90 194.17 185.98 C 199.36 146.88 210.42 108.79 224.15 71.90 Z" />
<path fill="#000000" opacity="1.00" d=" M 122.63 84.63 C 144.77 104.51 164.86 126.59 184.06 149.30 C 180.47 167.36 177.35 185.56 176.13 203.95 C 176.22 207.27 173.80 209.77 172.74 212.74 C 170.84 217.25 171.12 222.23 171.30 227.01 C 171.76 249.30 173.73 271.56 177.30 293.57 C 179.03 303.46 180.75 313.40 183.84 322.97 C 187.66 334.36 191.51 345.75 194.46 357.40 C 198.72 374.63 201.28 392.33 201.44 410.09 C 201.51 415.82 200.67 421.56 198.74 426.96 C 177.52 404.07 162.88 376.01 150.49 347.60 C 142.42 328.59 135.09 309.20 130.19 289.11 C 118.96 243.36 116.34 195.95 117.58 149.01 C 118.31 127.49 119.72 105.97 122.63 84.63 Z" />
<path fill="#000000" opacity="1.00" d=" M 327.96 149.25 C 347.16 126.55 367.27 104.51 389.36 84.58 C 393.48 115.86 394.98 147.46 394.64 178.99 C 394.09 216.72 390.52 254.59 381.26 291.23 C 375.76 312.97 367.54 333.90 358.51 354.39 C 346.69 380.38 332.81 405.94 313.23 426.97 C 311.34 421.54 310.46 415.80 310.56 410.05 C 310.68 394.56 312.66 379.11 315.98 364.00 C 318.90 350.54 323.30 337.48 327.67 324.44 C 331.10 314.19 332.98 303.52 334.80 292.89 C 338.60 269.13 340.58 245.08 340.82 221.03 C 341.12 215.57 338.25 210.84 336.14 206.08 C 334.72 186.97 331.72 168.02 327.96 149.25 Z" />
<path fill="#000000" opacity="1.00" d=" M 252.48 120.60 C 255.56 119.23 261.28 119.51 261.37 123.98 C 260.55 139.36 266.72 154.69 277.03 165.99 C 285.53 175.16 295.50 182.84 303.90 192.11 C 309.91 198.73 315.96 205.31 321.92 211.97 C 324.41 214.72 326.63 218.10 326.41 221.98 C 325.91 251.83 323.21 281.76 316.59 310.91 C 313.94 321.42 309.84 331.49 306.89 341.92 C 300.25 363.98 296.40 386.95 296.16 410.01 C 296.05 422.51 299.12 435.79 307.81 445.19 C 310.33 448.20 314.41 448.76 317.97 449.77 C 333.10 453.37 349.61 452.51 363.43 460.55 C 371.92 465.13 378.64 474.01 378.31 483.97 C 377.66 492.83 372.41 501.11 364.96 505.87 C 358.84 509.75 351.61 511.46 344.46 512.00 L 336.93 512.00 C 323.46 510.59 310.09 508.37 296.70 506.32 C 274.73 502.33 252.21 502.51 230.01 504.17 C 211.47 506.58 193.10 510.26 174.47 512.00 L 167.64 512.00 C 157.97 511.34 147.82 508.32 141.15 500.91 C 135.54 494.67 132.03 485.70 134.50 477.37 C 136.73 469.05 143.54 462.77 151.13 459.18 C 166.40 451.60 184.14 453.52 200.03 448.03 C 203.06 447.01 205.03 444.32 206.91 441.91 C 213.07 433.30 215.64 422.57 215.81 412.10 C 215.96 382.97 209.74 354.14 200.27 326.70 C 197.49 318.92 195.13 310.99 193.62 302.86 C 188.38 276.27 185.99 249.15 185.58 222.07 C 185.30 217.92 187.83 214.41 190.48 211.51 C 196.98 204.33 203.47 197.13 210.04 190.02 C 220.03 179.34 232.41 170.85 240.72 158.65 C 246.96 149.00 251.07 137.58 250.54 125.97 C 250.47 124.03 250.64 121.72 252.48 120.60 M 237.00 190.94 C 229.42 202.23 221.41 213.34 215.67 225.72 C 214.19 228.94 212.65 232.34 212.97 235.98 C 213.66 250.40 215.74 264.89 220.64 278.52 C 222.85 284.13 225.93 289.52 230.17 293.86 C 231.91 295.53 234.19 297.53 236.81 296.77 C 239.27 295.85 240.51 293.33 241.76 291.20 C 236.09 287.10 231.83 281.21 229.46 274.65 C 225.99 265.47 226.54 255.40 227.53 245.82 C 228.38 238.07 232.19 229.90 239.74 226.71 C 248.56 222.89 258.74 223.07 267.98 225.12 C 275.69 226.88 281.82 233.24 283.48 240.94 C 285.17 247.45 285.20 254.26 285.14 260.94 C 284.89 272.53 279.80 284.33 270.23 291.21 C 271.62 294.24 274.53 298.41 278.40 296.45 C 284.22 292.91 287.62 286.57 290.51 280.61 C 296.10 266.44 298.24 251.15 299.03 236.02 C 299.38 231.32 296.93 227.09 294.99 223.00 C 284.31 202.47 270.10 184.05 256.00 165.79 C 249.64 174.15 243.12 182.40 237.00 190.94 Z" />
<path fill="#000000" opacity="1.00" d=" M 41.40 138.86 C 56.42 160.26 71.85 181.38 87.92 202.00 C 92.80 208.46 98.06 214.64 102.83 221.18 C 103.64 224.02 103.55 227.02 103.91 229.94 C 106.32 254.60 110.47 279.14 117.14 303.01 C 123.61 325.59 132.42 347.44 142.28 368.74 C 153.81 393.10 167.48 416.78 185.73 436.77 C 171.98 438.82 157.75 439.89 145.08 446.13 C 139.72 448.63 134.89 452.11 130.57 456.14 C 119.18 442.73 108.93 428.41 99.52 413.57 C 89.25 397.32 79.44 380.66 72.37 362.74 C 56.84 323.89 49.20 282.38 44.80 240.93 C 41.45 207.03 40.08 172.91 41.40 138.86 Z" />
<path fill="#000000" opacity="1.00" d=" M 411.28 218.25 C 431.92 192.45 451.62 165.92 470.59 138.87 C 471.84 171.29 470.62 203.77 467.66 236.07 C 463.37 279.14 455.73 322.34 439.62 362.70 C 432.64 380.41 422.98 396.89 412.86 412.95 C 403.29 428.01 392.98 442.63 381.34 456.16 C 374.77 449.63 366.37 445.21 357.57 442.51 C 347.46 439.07 336.72 438.53 326.26 436.76 C 352.35 407.91 369.38 372.26 383.50 336.37 C 398.04 300.30 405.43 261.74 408.72 223.10 C 408.74 221.14 410.17 219.70 411.28 218.25 Z" />
<path fill="#000000" opacity="1.00" d=" M 240.84 211.04 C 245.67 203.75 250.47 196.41 256.00 189.62 C 261.52 196.42 266.32 203.76 271.17 211.04 C 261.23 208.75 250.77 208.74 240.84 211.04 Z" />
</g>
</svg>
