<?xml version="1.0" encoding="UTF-8" ?>
<!DOCTYPE svg PUBLIC "-//W3C//DTD SVG 1.1//EN" "http://www.w3.org/Graphics/SVG/1.1/DTD/svg11.dtd">
<svg width="48px" height="48px" viewBox="0 0 48 48" version="1.1" xmlns="http://www.w3.org/2000/svg">
  <g fill="none" fillRule="evenodd">
    <path fill="none" d="M0 0h48v48H0z" />
    <path fill="addColor" d="M24 5C15.82 5 9.17 11.547 9.003 19.686L9 20v23h30V20c0-8.18-6.547-14.83-14.686-14.997L24 5z" />
    <path fill="#FFF" fillRule="nonzero" d="M24 5l.314.003C32.454 5.17 39 11.821 39 20v23H9V20l.003-.314C9.17 11.546 15.821 5 24 5zm0 3c-6.525 0-11.834 5.209-11.996 11.695L12 20v20h24V20c0-6.525-5.209-11.834-11.695-11.996L24 8z"/>
    <path fill="#000" fillRule="nonzero" d="M24 2c9.941 0 18 8.059 18 18v26H6V20c0-9.941 8.059-18 18-18zm0 3C15.82 5 9.17 11.547 9.003 19.686L9 20v23h30V20c0-8.18-6.547-14.83-14.686-14.997L24 5z" />
  </g>
  <g transform="translate(13,13)"> <!-- 13 + 21 + 10 equals 48 -->
    <image width="21" height="21" href="addSymbol"/>
  </g>
</svg>