<!-- Generated by IcoMoon.io -->
<svg version="1.1" xmlns="http://www.w3.org/2000/svg" width="1152" height="1024" viewBox="0 0 1152 1024">
<title></title>
<g id="icomoon-ignore">
</g>
<path fill="#000" d="M164 198q-2-60 26-96 2 26 8 42 18-82 86-130-8 22-6 34 42-36 88-44 42-8 84 2 112 26 140 144 14 60-16 134-18 38-42 70l-12-12q-56-54-74-74-4-4 0-8 24-42 20-88-4-32-24-52-22-24-53-23t-53 23q-32 36-22 88v8q-12 44-6 84v4q-64-32-86-104-26 56-14 108-40-40-44-110zM1104 444l4 4q-36-8-90 2-30 8-52 18-4 2-16 10-32-12-36-14-74-16-124 40-54 60-94 150l-2 4v2q-4-2-30-24t-44-28q2 0 2-1v-1q68-92 150-142 52-30 104-36 6 0 10-2h-26q-56 6-118 40-44 26-72 60l-2 4-2-2q32-90 114-148l2 2q-6 8-6 10l-10 20q-4 10 4 10t20-8q6-6 19-17t20-16 17-11 20-10 22-6h8q-2 0-4 2-26 18-30 24t-1 11 9 3q10-2 16-4 32-12 58-14 40-2 80 16 46 18 80 52zM634 796q4 2 2 8-88 172-232 198-86 14-156-18-60-26-96-72 0-2-2-4t-5-6-3-6q-2 20 2 44v0l-20-20q-34-42-48-104-24-98 16-204-22 12-48 34 30-86 112-170 8 6 6 16-12 62-10 88 54-56 128-88-20 32-22 76 46-44 92-28-64 66-78 128-16 72 18 126t98 54q32 0 68-22 52-36 88-96l4-6q12 10 86 72zM978 702q64 22 86 78 14 34 5 71t-39 61q-48 40-114 36h-4q48 34 102 20 0 2-5 7l-7 7q-34 30-86 40-60 10-108-20t-62-94l-2-14q-18 14-20 45t20 61q-2 0-4-2h-4q-32-14-50-41t-16-63q4-32 0-62t-26-50q-12-8-26-20t-24-20-25-21-25-21q-28-22-34-50-2-8-4-28 0-18-16-30-4-2-8-6t-10-8-8-8q-32-26-16-60 8 36 46 42h8t10 1 8 1q24 4 28 28 4 18 6 20 4 16 20 18h11t17 2q22 2 40 16 18 16 37 32t43 35 38 31q18 16 38 16 26 2 41-18t9-46v-4q14 10 14 12 20 20 26 53t-8 59q-2 0-16 20 2 2 4 2 46 4 78-18 24-16 27-43t-15-49q-12-12-38-24 24-4 58 6zM198 358q-12-22-44-42 46-2 80 8-20-36-10-78 14 32 48 54 12 8 46 28t46 32q2 2 20 22 0-2-2-6t-2-6q-14-30-46-50-6-4-6-10-10-34-2-74 2-10 8-32 2-8 8-14 6 56 40 92 16 16 68 66 38 36 50 52 6 8 8 10-12-32-48-68-24-22-58-54-8-8-10-22-4-32 8-60 2-2 4-6l2 22q6 30 24 52t64 64l12 12q36 34 50 62 16 30 12 60 0 2 2 4 20 8 20 28 18-6 32-28 4 14 0 32t-11 35-19 30-24 19q4-48-34-54-4-2-46-6 22-40 2-44-40-4-72 0t-44 10q32 0 48 6-12 36-12 38-4 10 2 18t16 0q2 0 4-2t4-2q-6 32-6 36 0 14 11 16t19-2q-2 18-34 36t-56 16q24-16 32-36-20 2-38 6l-2-2q14-10 22-26 12-32-3-55t-47-25q-30-2-52 10 18-44 64-68-24-8-48-14 38-24 92-28-10-2-31-3t-55 11-54 34q8 2 46 8-64 18-124 72 0-4 1-8t2-7 2-7 1-8q2-14 0-26-4-30-38-34-18-2-48 4h-6q14-14 33-25t40-22 33-21q16-12 6-30zM456 412q2 16 9 27t17 17 22 4q-16-34-48-48z"></path>
</svg>
