<!-- Generated by IcoMoon.io -->
<svg version="1.1" xmlns="http://www.w3.org/2000/svg" width="1024" height="1024" viewBox="0 0 1024 1024">
<title></title>
<g id="icomoon-ignore">
</g>
<path fill="#000" d="M594 486q0 24-15 41t-37 17q-14 0-26-8t-19-21-7-29q0-12 4-22t11-18 17-12 20-4q22 0 37 16t15 40zM356 430q22 0 37 16t15 40-15 41-37 17-37-17-15-41 15-40 37-16zM896 106v918q-116-102-238-216l28 96h-582q-42 0-73-31t-31-75v-692q0-44 31-75t73-31h688q42 0 73 31t31 75zM750 590q0-72-18-147t-38-113l-18-38q-20-16-43-27t-40-16-31-8-22-3h-8l-6 8q38 12 70 29t44 27l12 10q-88-50-192-52t-190 36l-30 16q42-40 134-68l-4-6q-70 0-144 54-8 16-20 42t-33 105-21 151q4 10 15 22t51 34 90 22q20-22 34-42-28-8-51-23t-31-27l-8-10q4 2 9 5t9 5l4 2q68 38 151 45t169-27q30-10 58-30-26 42-92 62l34 40q32 0 59-9t44-20 30-22 17-19z"></path>
</svg>
