<?xml version="1.0" encoding="UTF-8" ?>
<!DOCTYPE svg PUBLIC "-//W3C//DTD SVG 1.1//EN" "http://www.w3.org/Graphics/SVG/1.1/DTD/svg11.dtd">
<svg width="30px" height="30px" viewBox="0 0 30 30" version="1.1" xmlns="http://www.w3.org/2000/svg">
	<defs>
		<path id="path-1" d="M2,25.5820082 C2,25.5820082 3.75,23.7122585 9,23.3715079 C14.25,23.0307574 17.75,26.3159227 23,25.9751721 C28.25,25.6344216 30,24.4099745 30,24.4099745 L30,0.41799179 C30,0.41799179 28.25,2.28774151 23,2.62849208 C17.75,2.96924265 14.25,-0.315922708 9,0.0248278591 C3.75,0.365578426 2,2.23532815 2,2.23532815 L2,25.5820082 Z"/>
	</defs>
	<g id="UI/Pins/PrimaryLg-Copy-16" stroke="none" stroke-width="1" fill="none" fill-rule="evenodd">
		<polygon id="Path" fill="#000000" fill-rule="nonzero" transform="translate(3.500000, 16.500000) scale(-1, 1) translate(-3.500000, -16.500000)" points="5 30 5 3 2 3 2 30"/>
		<path d="M2,25.5820082 C2,25.5820082 3.75,23.7122585 9,23.3715079 C14.25,23.0307574 17.75,26.3159227 23,25.9751721 C28.25,25.6344216 30,24.4099745 30,24.4099745 L30,0.41799179 C30,0.41799179 28.25,2.28774151 23,2.62849208 C17.75,2.96924265 14.25,-0.315922708 9,0.0248278591 C3.75,0.365578426 2,2.23532815 2,2.23532815 L2,25.5820082 Z" id="Path" fill="addColor" fill-rule="nonzero"/>
		<g id="Path" fill-rule="nonzero" stroke-linejoin="square">
			<path stroke="#FFFFFF" stroke-width="6" d="M5,20.9404561 C6.13731284,20.661058 7.40415899,20.4687735 8.80569423,20.377807 C11.5009865,20.2028694 13.3212826,20.6066404 16.9567946,21.8300068 C19.8837826,22.8149515 21.1259865,23.0904924 22.8056942,22.9814712 C24.5276708,22.8697065 25.9155265,22.6522727 27,22.3675834 L27,5.05954394 C25.8626872,5.33894204 24.595841,5.53122655 23.1943058,5.62219301 C20.4990135,5.79713061 18.6787174,5.39335955 15.0432054,4.16999325 C12.1162174,3.18504846 10.8740135,2.90950758 9.19430577,3.01852879 C7.42333576,3.13347337 6.05609471,3.4446411 5.03950518,3.87056199 C5.02621914,3.87612845 5.01305091,3.88169057 5,3.88724773 L5,20.9404561 Z M27.8581015,-1.6837427 C27.8473698,-1.67205296 27.8311465,-1.65494323 27.8096997,-1.63202885 L27.8581015,-1.6837427 Z M4.1418985,27.6837427 C4.1526302,27.672053 4.16885348,27.6549432 4.1903003,27.6320288 L4.1418985,27.6837427 Z"/>
			<path stroke="#000000" stroke-width="3" d="M3.5,22.9853435 C4.95262178,22.4069299 6.74390491,22.0147833 8.90284712,21.8746575 C11.3442433,21.716199 13.0200163,22.0879125 16.4783973,23.2516734 C19.5825163,24.2962236 20.9692433,24.603822 22.9028471,24.4783217 C24.7758505,24.3567546 26.2950872,24.1132772 27.493529,23.7883683 C27.8835996,23.6826165 28.2179707,23.5741031 28.5,23.4667003 L28.5,3.01465647 C27.0473782,3.59307007 25.2560951,3.98521668 23.0971529,4.12534254 C20.6557567,4.28380104 18.9799837,3.91208753 15.5216027,2.74832661 C12.4174837,1.70377644 11.0307567,1.39617802 9.09715288,1.52167832 C7.16357059,1.64717723 5.63329388,1.99544993 4.45986756,2.48708079 C4.07644496,2.6477235 3.75819533,2.81262344 3.5,2.97382803 L3.5,22.9853435 Z"/>
		</g>
	</g>
</svg>
