<?xml version="1.0" encoding="UTF-8" ?>
<!DOCTYPE svg PUBLIC "-//W3C//DTD SVG 1.1//EN" "http://www.w3.org/Graphics/SVG/1.1/DTD/svg11.dtd">
<svg width="48px" height="48px" viewBox="0 0 57 60" version="1.1" xmlns="http://www.w3.org/2000/svg">
	<defs>
		<path id="path-1" d="M0,51.4325851 C0,51.4325851 3.5625,47.6734564 14.25,46.9883779 C24.9375,46.3032995 32.0625,52.908119 42.75,52.2230405 C53.4375,51.5379621 57,47.7788333 57,47.7788333 L57,0.840371801 C57,0.840371801 53.4375,4.59950051 42.75,5.28457896 C32.0625,5.96965741 24.9375,-0.63516208 14.25,0.0499163696 C3.5625,0.734994819 0,4.49412353 0,4.49412353 L0,51.4325851 Z"/>
		<filter filterUnits="objectBoundingBox" id="invert" x="0" y="0" height="1" width="1">
			<feBlend mode="normal" in="SourceGraphic" in2="background" />
				<feComponentTransfer>
					<feFuncR type="table" tableValues="1 0"/>
					<feFuncG type="table" tableValues="1 0"/>
					<feFuncB type="table" tableValues="1 0"/>
				</feComponentTransfer>
		</filter>
	</defs>
	<g id="App" stroke="none" stroke-width="1" fill="none" fill-rule="evenodd">
		<g id="UI/Pins/PrimaryLg-Copy-5" transform="translate(-2.000000, 0.000000)">
			<g id="flag" transform="translate(2.000000, 0.000000)">
				<polygon id="Path" fill="#000000" fill-rule="nonzero" points="6 60 6 5 0 5 0 60"/>
				<path d="M0,51.4325851 C0,51.4325851 3.5625,47.6734564 14.25,46.9883779 C24.9375,46.3032995 32.0625,52.908119 42.75,52.2230405 C53.4375,51.5379621 57,47.7788333 57,47.7788333 L57,0.840371801 C57,0.840371801 53.4375,4.59950051 42.75,5.28457896 C32.0625,5.96965741 24.9375,-0.63516208 14.25,0.0499163696 C3.5625,0.734994819 0,4.49412353 0,4.49412353 L0,51.4325851 Z" id="Path" fill="addColor" fill-rule="nonzero"/>
				<g id="Path" stroke-linejoin="square">
					<path stroke="#FFFFFF" stroke-width="6" d="M3,46.2556369 C5.96417711,45.0774114 9.62973317,44.2783841 14.0580911,43.9945224 C19.0128453,43.6769181 22.4160044,44.4224433 29.4461284,46.758809 C35.7753794,48.8622491 38.6065953,49.4824794 42.5580911,49.229185 C46.5038015,48.9762614 49.628281,48.2739753 52.0253631,47.2821091 C52.8148503,46.9554345 53.4695296,46.6198827 54,46.2918345 L54,6.01733381 C51.0358229,7.19554552 47.3702668,7.99457274 42.9419089,8.2784345 C37.9871547,8.59603874 34.5839956,7.85051358 27.5538716,5.51414792 C21.2246206,3.4107078 18.3934047,2.79047744 14.4419089,3.04377191 C10.4961985,3.29669552 7.37171898,3.99898158 4.97463689,4.99084782 C4.18514974,5.31752235 3.53047042,5.65307415 3,5.9811224 L3,46.2556369 Z"/>
					<path stroke="#000000" stroke-width="3" d="M1.5,48.5949353 C2.02994294,48.3121044 2.61397282,48.0360868 3.25409795,47.7712154 C6.11761037,46.5863493 9.72602086,45.7752905 14.1540456,45.4914501 C18.8579851,45.1899233 22.1181585,45.9041248 28.9730642,48.1822591 C35.4775335,50.3439306 38.4517351,50.9954846 42.6540456,50.7261127 C46.7605273,50.4628835 50.0463172,49.7243399 52.5988761,48.6681404 C53.7019883,48.2116939 54.5825115,47.7303023 55.2605913,47.2585537 C55.3467087,47.1986407 55.4264663,47.1409866 55.5,47.0858297 L55.5,3.67802156 C54.9700571,3.96085244 54.3860272,4.23687011 53.7459021,4.50174152 C50.8823896,5.68660762 47.2739791,6.49766633 42.8459544,6.78150673 C38.1420149,7.08303353 34.8818415,6.36883207 28.0269358,4.09069779 C21.5224665,1.92902629 18.5482649,1.27747223 14.3459544,1.54684414 C10.2394727,1.81007335 6.95368278,2.54861696 4.40112391,3.60481649 C3.29801172,4.06126299 2.41748846,4.54265454 1.73940869,5.0144032 C1.65329131,5.07431614 1.57353372,5.13197029 1.5,5.1871272 L1.5,48.5949353 Z"/>
				</g>
			</g>
		</g>
	</g>
	<g transform="translate(14,12)"> <!-- 14 + 28 + 14 equals ?? -->
		<image width="28" height="28" href="addSymbol"/>
	</g>
</svg>
