<?xml version="1.0" encoding="UTF-8" ?>
<!DOCTYPE svg PUBLIC "-//W3C//DTD SVG 1.1//EN" "http://www.w3.org/Graphics/SVG/1.1/DTD/svg11.dtd">
<svg width="279pt" height="279pt" viewBox="0 0 279 279" version="1.1" xmlns="http://www.w3.org/2000/svg">
<g id="#0d0c0aff">
<path fill="#0d0c0a" opacity="1.00" d=" M 9.32 72.50 C 10.09 71.81 10.86 71.12 11.63 70.43 C 93.54 70.57 175.46 70.53 257.38 70.45 C 257.96 70.94 259.12 71.94 259.70 72.43 C 254.70 76.83 250.62 82.27 245.04 85.98 C 242.00 88.87 239.37 92.23 235.87 94.60 C 231.27 97.57 228.75 102.58 224.93 106.35 C 220.07 114.02 214.54 121.21 209.57 128.80 C 209.39 132.29 212.64 134.75 214.43 137.47 C 214.45 138.03 214.49 139.14 214.51 139.69 C 215.52 140.59 216.53 141.50 217.55 142.40 C 217.54 143.01 217.53 144.22 217.52 144.83 C 217.97 145.17 218.86 145.86 219.30 146.20 C 220.18 148.81 221.36 151.33 223.24 153.37 C 223.85 155.26 224.89 156.95 226.27 158.38 C 226.84 160.27 227.89 161.93 229.25 163.35 C 229.86 165.21 230.88 166.89 232.16 168.37 C 233.39 170.28 234.43 172.34 235.96 174.05 C 239.82 176.85 243.68 179.67 247.44 182.61 C 252.24 186.87 257.85 190.11 262.56 194.48 C 263.42 195.40 264.61 195.83 265.74 196.31 C 266.92 197.04 267.97 197.94 269.02 198.85 C 268.46 199.51 267.35 200.81 266.79 201.46 C 181.97 201.54 97.14 201.47 12.32 201.50 C 11.73 200.84 10.55 199.52 9.96 198.86 C 16.39 194.07 21.85 188.19 28.36 183.49 C 31.29 181.35 33.13 177.91 36.45 176.27 C 36.90 174.53 37.49 172.81 37.52 171.00 C 37.49 147.65 37.49 124.30 37.52 100.95 C 37.51 98.87 36.68 96.94 36.15 94.96 C 33.52 94.16 31.98 91.81 30.04 90.05 C 22.90 84.47 15.62 79.04 9.32 72.50 M 12.93 73.34 C 20.24 79.01 27.50 84.76 34.42 90.89 C 37.66 92.81 40.34 95.90 40.49 99.83 C 40.54 123.94 40.54 148.06 40.49 172.18 C 40.34 176.42 37.18 179.50 33.89 181.73 C 31.17 183.54 29.26 186.30 26.50 188.06 C 23.46 189.97 21.62 193.36 18.36 194.96 C 16.91 196.25 15.48 197.57 13.90 198.70 C 36.26 198.17 58.64 198.63 81.01 198.48 C 138.67 198.48 196.33 198.47 253.99 198.48 C 257.73 198.50 261.50 198.26 265.21 198.88 C 258.16 194.71 252.01 189.07 245.36 184.29 C 241.83 181.22 237.69 178.91 234.41 175.57 C 231.31 172.72 229.28 168.96 227.11 165.41 C 226.12 163.73 225.05 162.10 224.15 160.37 C 221.92 156.81 219.85 153.16 217.65 149.59 C 216.93 147.77 215.91 146.09 214.68 144.58 C 214.38 142.48 212.96 140.93 211.49 139.54 C 211.41 139.01 211.25 137.94 211.17 137.40 C 209.63 135.65 208.45 133.63 207.12 131.73 C 206.74 130.70 206.46 129.65 206.26 128.57 C 209.80 124.46 212.39 119.61 215.77 115.36 C 217.50 112.77 219.23 110.17 221.01 107.61 C 225.35 101.96 229.93 96.36 235.41 91.72 C 241.06 87.82 244.94 81.79 250.66 78.04 C 252.43 76.41 254.12 74.69 256.10 73.30 C 254.72 73.43 253.35 73.50 251.98 73.53 C 176.32 73.52 100.66 73.53 25.00 73.53 C 20.98 73.50 16.95 73.65 12.93 73.34 Z" />
<path fill="#0d0c0a" opacity="1.00" d=" M 44.98 84.16 C 60.41 84.35 75.85 84.07 91.28 84.31 C 86.89 87.89 84.39 93.26 84.50 98.94 C 84.29 119.77 84.43 140.61 84.42 161.44 C 94.65 160.98 105.26 162.67 115.14 159.23 C 117.78 158.38 119.79 156.40 121.76 154.54 C 121.53 157.01 121.50 159.53 120.89 161.95 C 119.60 170.81 118.29 179.71 116.51 188.47 C 92.62 188.25 68.73 188.44 44.84 188.37 C 46.11 185.33 49.11 183.32 49.93 180.04 C 51.17 175.15 51.42 170.05 51.32 165.02 C 51.30 144.35 51.31 123.69 51.32 103.03 C 51.33 99.63 50.64 96.28 50.22 92.92 C 49.07 90.41 47.96 87.76 45.71 86.02 C 45.53 85.56 45.16 84.63 44.98 84.16 Z" />
<path fill="#0d0c0a" opacity="1.00" d=" M 122.33 84.29 C 138.16 84.29 154.01 83.96 169.83 84.45 C 164.66 87.81 162.61 94.21 162.55 100.11 C 162.42 109.68 162.43 119.25 162.55 128.82 C 167.08 122.19 171.06 115.19 175.38 108.42 C 178.44 103.17 182.40 98.35 184.24 92.47 C 185.01 89.81 185.11 86.67 183.25 84.40 C 198.18 84.07 213.14 84.15 228.08 84.37 C 214.57 96.51 205.71 112.66 195.12 127.19 C 193.01 129.52 195.71 131.97 196.73 134.07 C 199.90 139.34 202.93 144.70 206.15 149.95 C 207.55 152.73 209.24 155.35 210.78 158.06 C 214.79 164.74 218.50 171.61 222.79 178.13 C 225.36 182.05 229.08 184.96 232.30 188.31 C 217.55 188.43 202.78 188.41 188.03 188.31 C 186.81 183.04 183.26 178.82 181.15 173.94 C 179.28 169.88 177.02 166.02 175.22 161.92 C 170.81 153.75 166.68 145.43 162.62 137.07 C 162.40 149.36 162.35 161.67 162.64 173.96 C 162.66 179.50 165.61 184.28 169.11 188.33 C 153.69 188.40 138.26 188.41 122.84 188.33 C 124.47 185.87 126.76 183.80 127.80 180.98 C 129.84 175.91 129.41 170.35 129.49 165.01 C 129.46 143.78 129.55 122.55 129.45 101.32 C 129.57 97.12 128.63 92.94 126.86 89.13 C 125.48 87.40 123.96 85.79 122.33 84.29 Z" />
</g>
<g id="#fefefeff">
<path fill="#fefefe" opacity="1.00" d=" M 12.93 73.34 C 16.95 73.65 20.98 73.50 25.00 73.53 C 100.66 73.53 176.32 73.52 251.98 73.53 C 253.35 73.50 254.72 73.43 256.10 73.30 C 254.12 74.69 252.43 76.41 250.66 78.04 C 244.94 81.79 241.06 87.82 235.41 91.72 C 229.93 96.36 225.35 101.96 221.01 107.61 C 219.23 110.17 217.50 112.77 215.77 115.36 C 212.39 119.61 209.80 124.46 206.26 128.57 C 206.46 129.65 206.74 130.70 207.12 131.73 C 208.45 133.63 209.63 135.65 211.17 137.40 C 211.25 137.94 211.41 139.01 211.49 139.54 C 212.96 140.93 214.38 142.48 214.68 144.58 C 215.91 146.09 216.93 147.77 217.65 149.59 C 219.85 153.16 221.92 156.81 224.15 160.37 C 225.05 162.10 226.12 163.73 227.11 165.41 C 229.28 168.96 231.31 172.72 234.41 175.57 C 237.69 178.91 241.83 181.22 245.36 184.29 C 252.01 189.07 258.16 194.71 265.21 198.88 C 261.50 198.26 257.73 198.50 253.99 198.48 C 196.33 198.47 138.67 198.48 81.01 198.48 C 58.64 198.63 36.26 198.17 13.90 198.70 C 15.48 197.57 16.91 196.25 18.36 194.96 C 21.62 193.36 23.46 189.97 26.50 188.06 C 29.26 186.30 31.17 183.54 33.89 181.73 C 37.18 179.50 40.34 176.42 40.49 172.18 C 40.54 148.06 40.54 123.94 40.49 99.83 C 40.34 95.90 37.66 92.81 34.42 90.89 C 27.50 84.76 20.24 79.01 12.93 73.34 M 44.98 84.16 C 45.16 84.63 45.53 85.56 45.71 86.02 C 47.96 87.76 49.07 90.41 50.22 92.92 C 50.64 96.28 51.33 99.63 51.32 103.03 C 51.31 123.69 51.30 144.35 51.32 165.02 C 51.42 170.05 51.17 175.15 49.93 180.04 C 49.11 183.32 46.11 185.33 44.84 188.37 C 68.73 188.44 92.62 188.25 116.51 188.47 C 118.29 179.71 119.60 170.81 120.89 161.95 C 121.50 159.53 121.53 157.01 121.76 154.54 C 119.79 156.40 117.78 158.38 115.14 159.23 C 105.26 162.67 94.65 160.98 84.42 161.44 C 84.43 140.61 84.29 119.77 84.50 98.94 C 84.39 93.26 86.89 87.89 91.28 84.31 C 75.85 84.07 60.41 84.35 44.98 84.16 M 122.33 84.29 C 123.96 85.79 125.48 87.40 126.86 89.13 C 128.63 92.94 129.57 97.12 129.45 101.32 C 129.55 122.55 129.46 143.78 129.49 165.01 C 129.41 170.35 129.84 175.91 127.80 180.98 C 126.76 183.80 124.47 185.87 122.84 188.33 C 138.26 188.41 153.69 188.40 169.11 188.33 C 165.61 184.28 162.66 179.50 162.64 173.96 C 162.35 161.67 162.40 149.36 162.62 137.07 C 166.68 145.43 170.81 153.75 175.22 161.92 C 177.02 166.02 179.28 169.88 181.15 173.94 C 183.26 178.82 186.81 183.04 188.03 188.31 C 202.78 188.41 217.55 188.43 232.30 188.31 C 229.08 184.96 225.36 182.05 222.79 178.13 C 218.50 171.61 214.79 164.74 210.78 158.06 C 209.24 155.35 207.55 152.73 206.15 149.95 C 202.93 144.70 199.90 139.34 196.73 134.07 C 195.71 131.97 193.01 129.52 195.12 127.19 C 205.71 112.66 214.57 96.51 228.08 84.37 C 213.14 84.15 198.18 84.07 183.25 84.40 C 185.11 86.67 185.01 89.81 184.24 92.47 C 182.40 98.35 178.44 103.17 175.38 108.42 C 171.06 115.19 167.08 122.19 162.55 128.82 C 162.43 119.25 162.42 109.68 162.55 100.11 C 162.61 94.21 164.66 87.81 169.83 84.45 C 154.01 83.96 138.16 84.29 122.33 84.29 Z" />
</g>
</svg>
