<?xml version="1.0" encoding="UTF-8" ?>
<!DOCTYPE svg PUBLIC "-//W3C//DTD SVG 1.1//EN" "http://www.w3.org/Graphics/SVG/1.1/DTD/svg11.dtd">
<svg width="30px" height="30px" viewBox="0 0 30 30" version="1.1" xmlns="http://www.w3.org/2000/svg">
	<defs>
		<path id="path-1" d="M13,4.03225806 C17.6717858,4.03225806 21.4590164,7.91366044 21.4590164,12.7016129 L21.4590164,12.7016129 L21.4590164,21.3709677 L13,21.3709677 C8.32821425,21.3709677 4.54098361,17.4895654 4.54098361,12.7016129 C4.54098361,7.91366044 8.32821425,4.03225806 13,4.03225806 Z" />
	</defs>
	<g id="UI/Pins/PrimaryLg-Copy-9" stroke="none" stroke-width="1" fill="none" fill-rule="evenodd">
		<rect id="block" fill-rule="nonzero" x="9.25" y="7" width="12" height="13" />
		<g id="Pin" transform="translate(2.250000, 0.000000)" fill-rule="nonzero">
			<path id="pinbgfill" fill="addColor" d="M13,3.62903226 C17.6717858,3.62903226 21.4590164,7.51043463 21.4590164,12.2983871 L21.4590164,12.2983871 L21.4590164,20.9677419 L13,20.9677419 C8.32821425,20.9677419 4.54098361,17.0863396 4.54098361,12.2983871 C4.54098361,7.51043463 8.32821425,3.62903226 13,3.62903226 Z" transform="translate(13.000000, 12.298387) rotate(45.000000) translate(-13.000000, -12.298387) "/>
			<g id="pinborder" transform="translate(13.000000, 12.701613) rotate(45.000000) translate(-13.000000, -12.701613) " stroke-width="3">
				<path stroke="#0D0C0A" d="M13,2.53225806 C18.5085705,2.53225806 22.9590164,7.09336693 22.9590164,12.7016129 L22.9590164,22.8709677 L13,22.8709677 C7.4914295,22.8709677 3.04098361,18.3098589 3.04098361,12.7016129 C3.04098361,7.09336693 7.4914295,2.53225806 13,2.53225806 Z"/>
				<path stroke="#FFFFFF" d="M19.9590164,19.8709677 L19.9590164,12.7016129 C19.9590164,8.73395394 16.835001,5.53225806 13,5.53225806 C9.16499899,5.53225806 6.04098361,8.73395394 6.04098361,12.7016129 C6.04098361,16.6692719 9.16499899,19.8709677 13,19.8709677 L19.9590164,19.8709677 Z" stroke-linejoin="square"/>
			</g>
		</g>
	</g>
</svg>
