<?xml version="1.0" encoding="UTF-8" ?>
<!DOCTYPE svg PUBLIC "-//W3C//DTD SVG 1.1//EN" "http://www.w3.org/Graphics/SVG/1.1/DTD/svg11.dtd">
<svg width="30px" height="30px" viewBox="0 0 30 30" version="1.1" xmlns="http://www.w3.org/2000/svg">
	<defs>
		<path id="path-1" d="M15,30 C15,30 28,24 28,15 L28,4.5 L15,0 L2,4.5 L2,15 C2,24 15,30 15,30 Z"/>
	</defs>
	<g id="UI/Pins/PrimaryLg-Copy-22" stroke="none" stroke-width="1" fill="none" fill-rule="evenodd">
		<path d="M15,30 C15,30 28,24 28,15 L28,4.5 L15,0 L2,4.5 L2,15 C2,24 15,30 15,30 Z" id="Path" fill="addColor" fill-rule="nonzero"/>
		<g id="Path" fill-rule="nonzero" stroke-linejoin="square">
			<path stroke="#FFFFFF" stroke-width="6" d="M15,26.6238403 C15.1716869,26.5289911 15.3492773,26.4287828 15.5320826,26.3233182 C16.9285172,25.5176829 18.324832,24.5832261 19.6149887,23.5411765 C23.0425996,20.7727215 25,17.8366209 25,15 L25,6.63618842 L15,3.17464996 L5,6.63618842 L5,15 C5,17.8366209 6.95740042,20.7727215 10.3850113,23.5411765 C11.675168,24.5832261 13.0714828,25.5176829 14.4679174,26.3233182 C14.6507227,26.4287828 14.8283131,26.5289911 15,26.6238403 Z"/>
			<path stroke="#000000" stroke-width="3" d="M15,28.3251493 C15.3902143,28.1231989 15.8206016,27.8885955 16.2816663,27.6225966 C17.7416024,26.7803258 19.2014785,25.8033318 20.5574943,24.7080882 C24.3025498,21.6832358 26.5,18.3870604 26.5,15 L26.5,5.56809421 L15,1.58732498 L3.5,5.56809421 L3.5,15 C3.5,18.3870604 5.69745021,21.6832358 9.44250566,24.7080882 C10.7985215,25.8033318 12.2583976,26.7803258 13.7183337,27.6225966 C14.1793984,27.8885955 14.6097857,28.1231989 15,28.3251493 Z"/>
		</g>
	</g>
</svg>
