<!-- Generated by IcoMoon.io -->
<svg version="1.1" xmlns="http://www.w3.org/2000/svg" width="1280" height="1024" viewBox="0 0 1280 1024">
<title></title>
<g id="icomoon-ignore">
</g>
<path fill="#000" d="M1280.003 101.998v24q-78 2-112.001 82-12 26-55 125.001t-81 189.001-88 205.001-86 197.001h-28l-164.001-386.002q-14 28-88 170.001t-110.001 216.001q0 2-15 1l-15-1q-46-110.001-143.001-328.002t-143.001-330.002q-20-44-68-92t-84-46v-28h324.002v26q-36 2-68 22.001t-20 48q14 28 120.001 274.001t132.001 302.002q14-26 43-82t62-117.001 45-87q-10-20-69-155.001t-75-165.001q-22.001-38-112.001-38v-28h284.001v26q-32 2-51 15t-7 37q18 40 48 106.001t48 104.001q58-110.001 96.001-202.001 10-20 4-33t-26-19-54-6v-28h246.001v26q-76 4-116.001 64l-118.001 246.001q6 18 70 161.001t68 151.001l244.001-564.003q-10-30-40-43t-54-13v-28z"></path>
</svg>
