<svg xmlns="http://www.w3.org/2000/svg" width="133.333" height="133.333" viewBox="0 0 100 100"><g fill="#2b2b2b"><path opacity=".45" d="M55.72 10.97c4.33-.43 9.45 1.5 11.5 5.47-3-2.34-6.25-4.4-10.08-5 1.26 2.7 2.22 5.6 1.85 8.6l-.34 3.77-11.7 1.55c-.43-4.42-4.6-6.85-8.5-7.9l-.95-.3c4.32-.27 9.53 2.48 9.82 7.28 3.54-.43 7.12-.35 10.65-.93.26-4.34.3-8.78-2.26-12.5zm-22.96 5l5.08.14-1 .93c-.63 0-1.88 0-2.5-.01l2.7 4.06c-2.16-.95-3.06-3.27-4.27-5.12zm34.18 1.52l.93-.64-1.36 4.52 1.67 1.8-2.46-.43 1.22-5.24zm-29.58 4.15c.7 1.5 1.18 3.1 1.66 4.7-3.9.53-7.82.8-11.75.77 3.47-1.24 7.2-1.15 10.82-1.15a90.53 90.53 0 0 1-.73-4.32zm34.07 2.87c.04.02.12.07.17.1l-.17-.1zm1.07.75c2.33-1.2 5.38 4.2 2.2 4.43l-.27-2.03-1.93-2.4zm-10.44 5.75c3.73-2.23 8.56-.01 12.72-.34-4.2.77-8.48.16-12.72.34zM31 30.96c1.18.26 1.98.9 2.38 1.96-1.64.35-2.43-.3-2.38-1.96zm15 .87c3.08-.43 6.17-.92 9.3-.78-3.68 1.2-8.92-.16-10.43 4.5L46 31.83zM34.05 32.9c2.53.2 7.07-1.2 7.03 2.76-1.5-3.1-5.13-1.3-7.76-1.72l.73-1.04zm22.35 5.4l3.65-3.88c-.62 3.1-3.83 4.44-6.33 5.75l1.82-4.5.23.7.63 1.94zm-15.03-1.38c1.02.06 1.9.45 2.64 1.15-.14 2.04-3.8.42-2.64-1.15zm14.65 4.18c1-1.12 3.98-.64 3.8 1.12-1.32-.1-2.68-.33-3.8-1.12zm-7.76 2.04c-.07-1.8 2.98-1.9 3.87-.73-1.16.7-2.55.75-3.87.73zm12-.84c1.7-.82 4.27 1.35 3.85 3.14-1.46-.8-2.67-1.98-3.85-3.14zm-25.15 1.74c4.22.5 8.25-1.5 12.45-.85-3.4 1.13-7.88.1-10.6 2.42l-1.86-1.57z"/><path opacity=".45" d="M57.88 47.7l5.88-2.16c.1 2.36-4.12 3.34-5.88 2.16zm-18.73-.88c1.22.2 1.94.87 2.17 2-1.6.26-2.3-.4-2.17-2zM51 48.64c1.55-.52 3.16-.86 4.8-.78-.1 1.98-3.65 1.93-4.8.78zm-8.74.16c1.84-.06 3.67.08 5.5.2-.7 1.58-5.26 1.88-5.5-.2zm32.32 3.66l.18.07c-.04-.02-.13-.05-.18-.07zM31.1 55.32c8-.85 15.92-2.84 24-2.24-8.57.7-17.07 1.95-25.58 3.17l1.58-.93zm44.62-2.18c1.66-.95 5.05 1.08 4.5 2.97-1.68-.7-3.12-1.83-4.5-2.97zM17.94 57.9c-2.96.18.35-3.48 1.1-.85l-1.1.85zm5.3-.86c.6-1.9 4.3-1.64 5.8-.66-1.85.7-3.83.95-5.8.66zm57.98-.46l1.57 1.9-.86 2.47c-2.25.14-4.55.16-6.6-.93l6.7-.1-.82-3.33zm-32.8 2.24a30.14 30.14 0 0 1 8.88-.78c-2.67.7-5.42 1.08-8.16 1.43l-.72-.65zm13.17-.77c3.43-.22 6.84.12 10.2.83-3.4.27-6.9.27-10.2-.83zm10.68.9l2 .7-.74.56-1.03-.35-.23-.9zm-51.64 1.2l.16.13-.16-.13zm13.54 1.84l9-2.24c.9 1.67.7 3.48.18 5.23l-.53-4.1c-2.93.04-5.72 1.13-8.66 1.1zm-12.76-1.23l3.8 2.74 4.64-.62c-1.63 1.15-3.63 1.1-5.54 1.2l-2.9-3.32z"/><path opacity=".45" d="M49.7 60.1c1.07.9 1.88 2 2.44 3.3-1.73 2.44-2.9 5.22-4.48 7.75l-.9.13c1.52-3.53 5.76-7.24 2.95-11.2zm-18.84 2.4c.9-.58 1.9-.75 2.94-.53-.6 1.6-1.6 1.78-2.94.53zm10.4 7.13c-.77-1.42.26-4.5 2.06-4.36-.2 1.64-.96 3.14-2.06 4.36zm14.4-3.15c4.03 1.33 9.05 2.7 11.06 6.8-2.97-2.25-6-4.63-9.74-5.42l2.44 5c-3.57 1.06-7.2 1.85-10.9 2.3 2.98-1.83 6.72-1.44 9.98-2.5-1.07-2-2.04-4.05-2.83-6.18zm-17.33 7.9c-.52-1.7.07-2.54 1.77-2.54a3.83 3.83 0 0 1-1.77 2.54zm5.04 1.83c.96-1.7 2.1-3.3 3.33-4.8.5 1.55-1.18 2.46-1.9 3.56l2.97.34-4.4.9zm23.44-2.82c3.5 3.13 3.1 8.5 1.97 12.65a22.91 22.91 0 0 0-2.62-.01c5.2-2.23 2.17-8.82.65-12.64zM32 75.2l.4 1 2.53 6.83-.32 1C33.4 81.2 31.83 78.4 32 75.2zm21.52 5.6c2.16-1.2 4.36-2.3 6.7-3.1l.66.2 1.25 2.4-2.08-1.74c-2.1.9-4.2 2.06-6.53 2.24zm-13.25 3.92c4.32-1.52 8.87-2.3 13.16-3.9l.18.95c-4.47.88-8.77 2.55-13.34 2.94z"/><path opacity=".45" d="M62.37 80.6c.86.63 1.43 1.46 1.72 2.48-1.78.05-2.35-.78-1.72-2.48zm-26.3 4.93a17.88 17.88 0 0 1 3.63-.68c.33 1.7-2.63 2-3.63 1.12v-.44z"/></g><path d="M57.15 11.43c3.83.62 7.1 2.67 10.08 5l-.3 1.07c-.47 1.74-.78 3.5-1.22 5.24-.36 1.05-.76 2.1-1.16 3.13l-2.5-7.57L59 20.03c.37-3-.6-5.9-1.85-8.6zm-18.7 6c3.9 1.06 8.06 3.5 8.5 7.9.15 1.75.36 3.5.72 5.2 2.68-.47 5.35-1.13 8.1-1.18 2.33.97.94 3.7.5 5.4l.65-3.67a85.46 85.46 0 0 0-1.6-.05c-3.12-.14-6.2.35-9.3.78-1.46-2.15-3.32-3.96-5.08-5.85-2.17-2.28-2-5.65-2.47-8.54zM32.42 76.2l4.45.3-2.67 1.4c3.53 4.36 9.36 2.13 13.96 1.32 3.98-.6 8.03-3.03 12.06-1.52-2.34.78-4.54 1.9-6.7 3.1l-.1.04c-4.3 1.6-8.84 2.37-13.16 3.9l-.57.13c-1.24.1-2.45.33-3.63.68l-1.12-2.5-2.53-6.83z" fill="#161616"/><path d="M34.34 17.04l2.5.01.67.08.95.3c.47 2.9.3 6.26 2.47 8.54 1.76 1.9 3.62 3.7 5.08 5.85l-1.14 3.73-.86 2.5c-.74-.7-1.62-1.1-2.64-1.15l-.3-1.25c.04-3.97-4.5-2.57-7.03-2.76h-.67c-.4-1.05-1.2-1.7-2.38-1.96-1.8-1.1-3.33-2.56-5-3.83h1.27c3.93.02 7.85-.24 11.75-.77-.48-1.6-.95-3.2-1.66-4.7l-.33-.55c-.86-1.38-1.78-2.7-2.7-4.06zm24.66 3l3.05-1.72 2.5 7.57 1.16-3.13 2.46.43c1.16.24 2.25.68 3.25 1.34.04.02.12.07.17.1l.9.65 1.93 2.4.27 2.03.08.98c-4.16.33-9-1.9-12.72.34-.68 1.13-1.26 2.32-2 3.4-1.2 1.32-2.42 2.6-3.65 3.88l-.63-1.94.47-1.6c.45-1.7 1.84-4.43-.5-5.4-2.74.05-5.4.7-8.1 1.18-.36-1.7-.57-3.45-.72-5.2l11.7-1.55.34-3.77zM52.13 42.4l3.3-1.66.58.34c1.1.8 2.47 1.02 3.8 1.12l.46.1c1.18 1.16 2.4 2.33 3.85 3.14l-.36.1c-2 .6-3.93 1.4-5.88 2.16l-2.06.15c-1.65-.08-3.26.26-4.8.78l-3.24.38-5.5-.2-.94.01c-.23-1.13-.95-1.8-2.17-2L37 45.62c2.7-2.32 7.18-1.3 10.6-2.42l.7-.05c1.32.02 2.7-.02 3.87-.73zm2.97 10.68c5.55-.8 11.57 1.1 16.78-1.43l2.7.8c.05.02.14.05.18.07l.96.6c1.4 1.14 2.83 2.27 4.5 2.97l1 .47.82 3.33-6.7.1-1.07-.4-2-.7-.5-.06c-3.35-.7-6.76-1.05-10.2-.83-1.43.02-2.86.02-4.3-.01-2.98-.18-5.97.07-8.88.78l.72.65.55.64c2.8 3.95-1.43 7.66-2.95 11.2l-.06.1c-1.24 1.5-2.37 3.1-3.33 4.8l4.4-.9c.2-.03.56-.1.74-.13 3.7-.46 7.34-1.25 10.9-2.3l-2.44-5c3.73.8 6.77 3.17 9.74 5.42.02.03.07.08.1.1 1.52 3.82 4.54 10.4-.65 12.64-.8-.9-1.5-1.88-2.07-2.94-.3-1.02-.86-1.85-1.72-2.48l-.24-.3-1.25-2.4-.66-.2c-4.03-1.5-8.08.92-12.06 1.52-4.6.8-10.43 3.04-13.96-1.32l2.67-1.4 1.45-2.14a3.83 3.83 0 0 0 1.77-2.54 5.49 5.49 0 0 1 1.16-2.2c1.1-1.22 1.85-2.72 2.06-4.36l.06-.3c.53-1.75.7-3.56-.18-5.23-3.05.58-6.04 1.36-9 2.24l-.38-.02c-1.05-.22-2.03-.05-2.94.53a40.81 40.81 0 0 1-1 .38l-4.64.62-3.8-2.74-.62-.48c-.04-.03-.12-.1-.16-.13l-2.7-2.24L19 57c1.4-.16 2.8-.16 4.2-.01 1.96.3 3.94.04 5.8-.66l.47-.13c8.5-1.22 17-2.48 25.58-3.17z" fill="#040404"/></svg>