<svg xmlns="http://www.w3.org/2000/svg" width="133.333" height="133.333" viewBox="0 0 100 100"><g fill="#2a2a2a"><path opacity=".6" d="M22.27 16c.34-1.7 4.62-1.64 4.96.1-1.65.02-3.3.04-4.96-.1zm.1 2.5c-1.6 1.25-3.7-2.43-1.44-2.58.56.82 1.04 1.68 1.44 2.58zm5.7-2.12c.78-1.2 3.73-1.1 3.62.63-1.23.6-2.5-.18-3.62-.63zm28.17 1.78c4.58-1.6 9.5-2.28 14.34-2.02-4.78.67-9.54 1.5-14.34 2.02zm14.38-2.02c2.84-.3 5.82-.4 8.1 1.6-.45 1.3-1.3 2-2.6 2.06-3.68.34-7.33 1.34-11.05.9l11-1.66a4.81 4.81 0 0 0 .46-1.87c-1.97-.36-3.94-.76-5.93-1.05zm-38.03.6c3.02 1.2 3.72 4.3 3.54 7.24-1.9.75-4.25 1.85-5.96.01 1.76-.35 5.33.98 4.98-1.96.06-2.1-1.55-3.62-2.56-5.3zm18.83 2.5c.18-1.56 2.8-2.02 3.78-.93-1.03.92-2.46 1.2-3.78.93zm-.3 2.67c-1.62.8-3.26-2.8-1.13-2.82a5.47 5.47 0 0 1 1.13 2.82zm7.6-.33c1.96-.5 3.96-.82 5.98-.82-.66 2-4.42 1.98-5.98.82zm-6.83.28l5.78-.13c-.76 1.67-5.3 2.12-5.78.13zM29.38 23.5c.03.02.08.05.1.07-.02-.02-.07-.05-.1-.07zm32.7 5.62c4.28-1.65 9.7-3.1 13.64.14-4.35-2-9.16-1-13.64-.14zm-2.5.1l1.02-.38.76.53-2 .76.2-.9zm-26.4 2.73c.6-1.96 5.27-.74 5.24 1.17l-5.24-1.17zm32.46-.18c-.2-1.4 2.4-1.34 3.1-.48.84.68.87 3.26-.5 3.1l-.7-1.9-1.9-.72zm11.5-1.12l.52.1c.9 1.13-.33 3.65-1.83 3 .3-1.1.73-2.14 1.3-3.1zm-46.75 1.6l.98-.46.8.47-1.9.9.14-.9zm30.48.68c.6-1.63 1.58-1.83 2.95-.6-.92.55-1.9.75-2.95.6zm-33.26.38l.94-.54.82.4-1.83 1.06.07-.92zm19.75-.62l.76 1.95-.88-.2-.4-1 .5-.75zm6.3.96a39.34 39.34 0 0 1 6.01-.67l-5.36 1.26.56 4.65c-.73-1.66-.96-3.46-1.2-5.24zm-35.7 2.66c2.96-1.27 6.14-1.93 9.36-2.04a65.07 65.07 0 0 1-9.36 2.04zm22-1.16c2.16.08.8 4.4-1.05 3.9.27-1.32.66-2.6 1.05-3.9zM13.3 37.23c.08-1.78 3.08-2.04 3.98-.75-1.27.47-2.6.84-3.98.75zm35.1-2c.88 1.56 1.57 3.23 1.9 5-1.86-.35-2.78-3.43-1.9-5zm19.14 3.2l-.05-2.1.7.52-.66 1.58zm6.96-1.78c.01-.01.03-.05.04-.07-.01.02-.03.06-.04.07zM10.95 38.7l-.16-.45.16.45zm11.2 1.14c3.12-.97 6.28-1.8 9.5-2.33l-1.75 4.1 1.05-3.6c-2.87.85-5.77 1.74-8.8 1.83zm50.8 1.1c-.37-1.05-.17-2 .62-2.85 1.1 1.3.9 2.26-.62 2.85zM59.8 39.7l5.95-.98c-.4 2.3-4.38 2.1-5.95.98zm-41 .83c.87-.56 1.82-.78 2.85-.65-.54 1.7-1.5 1.9-2.85.65zm36.22-.5c1.13-.18 2.28-.23 3.43-.17.32 1.83-3.7 2-3.43.17zm-19.16 2.9c.05-1.17.64-1.9 1.76-2.2.45 1.57-.14 2.3-1.76 2.2zm14.57-2.17l.76 1.96-.9-.2-.4-1 .53-.77zm9.25 2.03a86.59 86.59 0 0 1 13.27-.87c-4.2 1.72-8.86 1-13.27.87zm-31.22 1.7a.62.62 0 0 0 .03-.1l-.03.1zm22.7-.7l3.32.95c.54 2.56-4.2 1.06-3.32-.95zM32.7 47.02c.22-1.12.84-1.87 1.88-2.24.45 1.6-.17 2.36-1.88 2.24zm-6.06 1.3c-.68-1.66-.17-2.5 1.53-2.52a3.31 3.31 0 0 1-1.53 2.52zm41.5-.2c4.38-1.43 9.08-2.75 13.7-1.64l-1.27.16c-4.15.46-8.3.8-12.43 1.48zm-33.45 2.1c-1.1.17-3.62-.03-2.56-1.74 1.53-.27 2.38.3 2.56 1.74zm29.1-1.13c.66-1.64 1.65-1.82 2.97-.55a4.47 4.47 0 0 1-2.97.55zm18.62-1.2c3.58 1.5 5.63 5.2 4.3 9l-.38-1.8c-.3-1.54-.73-3.06-1.13-4.57l-2.8-2.63zm-25.16 2.33c.12-2 3.6-2.08 4.73-.8-1.53.52-3.12.83-4.73.8zm-21.54.05c1.45-1.18 4.63.3 4.1 2.25-1.45-.6-2.77-1.43-4.1-2.25zm4.98 2.65L42 50.4c4.94 1.44 9.9-.17 14.88-.15-4.94 1.15-10.03 1.68-15.07.9l.28 4.93-3.58.2c.78-1.08 1.5-2.22 2.2-3.36zm25.24-.8c3.3-.5 6.6-1.5 9.94-1.1l1.3 2.76-2.23-2.65-8.74 1.66.01 7.3 4.03-.3-4.23 1.3-.1-9z"/><path opacity=".6" d="M8.84 67.54c4.24-5.62 9.43-10.42 14.55-15.2l-2.94 3.85c-2.48 2-4.68 4.32-6.63 6.84l-1.35 1.2L9 67.98l3.4.07c-1.02 1.88-3.78.4-5.02-.53l1.48.02zm39-13.6c3.32-.63 6.73-1.4 10.12-.85 2.65 1.93 3 5.47 3.14 8.5-3.2.38-6.37.84-9.5 1.55 1.34 4.32 6.07 2.43 9.3 1.95-.07 2.74.75 5.78-.28 8.35-3.74.7-7.5 1.37-11.28 1.62-.42-4.2-.45-8.4-.3-12.6.55 3.88.92 7.78 1.1 11.7 3.38-.25 6.74-.76 10.1-1.27l-.04-7.05c-2.02.35-4.02.86-6.08.93-1.62-.6-2.6-2.2-3.86-3.3 3.23-1.6 6.82-2.13 10.34-2.7-.56-2.24-.93-4.62-2.22-6.6-3.07-.7-6.24-.18-9.34-.1l-.06 7.57c-.68-2.5-.93-5.1-1.1-7.7zM32 53.45l.8.4c-.05 9.97.43 20.06-.83 29.96L32 53.45zm4.5 2.05l.1.04-.1-.04zm40.7-1.28c1.5 4.14.3 8.54-.2 12.75l.2-12.75zm-53 3.75l3.7-2.6-.7 7.12-.23-5.92-2.75 1.4zm17.92-1.5c1.36 7.84.58 15.93 3.05 23.6-1.2-2.2-1.95-4.64-2.08-7.15-.4-5.48-1.3-10.95-.97-16.46zm41.7 10.08c.1-3.64.4-7.34 2.18-10.6-.76 3.53-1.26 7.1-2.18 10.6zm-65.47-3.7c1.3-1.8 2.9-3.44 4.94-4.36-.05 2.06-2.9 4.46-4.94 4.36zm53-3.15c2.13-.88 3.85 2.06 2.06 3.5-1.1-.8-1.64-2.23-2.06-3.5zM26.1 81.87c-.65-6.35-.06-12.8 1.04-19.07.2 6.4-1.05 12.7-1.04 19.07zM12.8 68.04c.3-2.13 2-3.7 4.08-4.1l.24.2c-.72 1.86-2.4 3.33-4.32 3.9zm56.7-2.9c.5-1.62 1.4-1.88 2.75-.77-.74.76-1.66 1.02-2.75.77zm-3.38.08l1.67-.04-1.8.9.12-.86zm16.68 6.96c-.04-1.38.28-2.72.74-4 1.24.92 1.1 4.02-.74 4zm-6.74 1.4l.86-5.65.1 6.5c-3.82-1.65-7.84-2.83-12.05-2.6l.95-.13c3.55-1.05 7 .26 10.13 1.87zm6 2.34l.57-2.02.6.7-.3 1.03-.86.28zm-22 .94c4.35-.14 8.65-1.14 13-.9 1.36-.25 2.1.74 2.92 1.62-8.34-2.3-16.98 1.1-25.45.2 3.13-.7 6.33-.82 9.52-.93zm-10.52 1.12l.42-.08c.7 1.6-.8 4.4-2.6 4.16l2.2-4.08zm31.25 1.58l.8-1.96.52.76-.42 1-.9.2zm-4.22-1.36c1.13 1.18 2.4 2.23 3.62 3.32-1.12 1.56-5.15-1.58-3.62-3.32zm-31.16 2.5c0 .01.02.03.02.04 0-.01-.02-.03-.02-.04zm-19 1.68a2.4 2.4 0 0 0 .18.26 2.4 2.4 0 0 1-.18-.26z"/></g><path d="M20.93 15.9l1.34.1c1.65.14 3.3.12 4.96.1l.85.28c1.13.45 2.4 1.24 3.62.63l.9-.28c1 1.67 2.62 3.2 2.56 5.3.35 2.94-3.22 1.6-4.98 1.96l-.7-.42c-.02-.02-.07-.05-.1-.07-2.3-1.7-4.94-3-7-5-.4-.9-.88-1.76-1.44-2.58zm49.67.24h.04l5.93 1.05c-.03.66-.18 1.28-.46 1.87l-11 1.66-.4.03c-2.02 0-4.02.3-5.98.82l-1.06.15-5.78.13-.75.04a5.47 5.47 0 0 0-1.13-2.82l1.42.16c1.32.26 2.75-.01 3.78-.93a37.04 37.04 0 0 0 1.04-.14c4.8-.5 9.56-1.35 14.34-2.02zm-8.53 12.98c4.48-.87 9.3-1.85 13.64.14a26.76 26.76 0 0 1 1.42 1.4c-.58.97-1 2-1.3 3.1l-1.28 2.8c-.01.02-.03.06-.04.07l-.94 1.45c-.8.85-1 1.8-.62 2.85l.28.98h-.27a86.59 86.59 0 0 0-13.27.87c-1.9.18-3.85.47-5.2 1.96a125.82 125.82 0 0 1-3.32-.95l.03-1.07-.76-1.96-.15-.55c-.32-1.77-1-3.44-1.9-5l-.28-.57-.76-1.95-1.1-.86c4.27-1.2 8.75-1.23 13.13-1.7l2-.76.7-.26m3.56 2.66l-1.82.57c-1.37-1.24-2.36-1.04-2.95.6-.3.02-.9.04-1.2.05a39.34 39.34 0 0 0-6.01.67c.25 1.78.48 3.58 1.2 5.24l.17 1.14c-.27 1.83 3.75 1.66 3.43-.17l1.34-.17c1.57 1.12 5.54 1.3 5.95-.98l1.8-.3.66-1.58-.7-.52.73-1.93c1.37.17 1.34-2.4.5-3.1-.68-.86-3.28-.9-3.1.48zm-33.5.5l1.02-.3 5.24 1.17c.94.32 1.45 1 1.53 2.03l-1.05 3.9-.3 1.35-.96.33c-1.12.3-1.7 1.04-1.76 2.2l-.2 1.4-1.08.44c-1.04.37-1.66 1.12-1.88 2.24l-.56 1.47c-1.06 1.7 1.45 1.9 2.56 1.74l1.03.05c1.32.82 2.64 1.65 4.1 2.25l.88.4-2.2 3.36-2-.78-3.7-1.65-.8-.4-.04 30.37c-1.44 2.64-4.4.95-5.37-1.18a2.4 2.4 0 0 1-.18-.26l-.3-.5c-.01-6.38 1.23-12.68 1.04-19.07l.74-7.42-3.9 2.74-.68.37c-2.05.92-3.63 2.56-4.94 4.36l-1.25 1.3-.24-.2c-2.07.4-3.77 1.97-4.08 4.1l-.4.01-3.4-.07 3.48-3.75 1.35-1.2c1.95-2.52 4.15-4.83 6.63-6.84l2.94-3.85c1.02-1.4 2.02-2.8 3.25-4.02a3.31 3.31 0 0 0 1.53-2.52l.3-1.3c.01-.02.02-.06.03-.1l1.4-2.8 1.75-4.08c-3.22.53-6.38 1.36-9.5 2.33l-.5.04c-1.03-.13-1.98.1-2.85.65-2.5.72-7.12 1.6-7.84-1.84l-.16-.45-.35-.93 2.86-.08c1.37.1 2.7-.28 3.98-.75l.67-.16a65.07 65.07 0 0 0 9.36-2.04l.2-.04 1.83-1.06.9-.02 1.9-.9zm36 15.85c4.12-.68 8.28-1.02 12.43-1.48l1.84 1.27 2.8 2.63c.4 1.5.83 3.03 1.13 4.57l-.34.84c-1.77 3.26-2.08 6.96-2.18 10.6l-.28 1.62c-.46 1.3-.78 2.63-.74 4l-.18 1.72-.57 2.02-.46 1.68-.8 1.96-.6 1.95c-1.22-1.1-2.5-2.14-3.62-3.32l-.58-.6c-.8-.88-1.56-1.87-2.92-1.62-4.36-.24-8.66.76-13 .9-3.2.1-6.4.23-9.52.93l-1 .2c-.8 1.3-1.5 2.7-2.2 4.08l-1.92-1.32c0-.01-.02-.03-.02-.04l-.25-.62c-2.47-7.68-1.7-15.77-3.05-23.6l-.04-.38c-.14-1.64-.2-3.3-.28-4.93 5.04.78 10.13.25 15.07-.9l.4-.03c1.6.02 3.2-.3 4.73-.8l1.82-.33a4.47 4.47 0 0 0 2.97-.55l1.37-.42m-2.2 4.02c-.03 3-.01 6 .1 9 1.42-.4 2.83-.83 4.23-1.3l1.1-.1c.42 1.26.96 2.68 2.06 3.5l-1.2 1.17c-1.34-1.1-2.26-.85-2.75.77l-3.37.08-.12.86-.07 5.63-.95.13c4.2-.24 8.23.94 12.05 2.6l-.1-6.5.08-.96c.52-4.2 1.7-8.6.2-12.75 0-.1-.02-.3-.02-.4l-1.3-2.76c-3.35-.4-6.65.58-9.94 1.1m-18.1 1.8c.18 2.6.43 5.18 1.1 7.7l.08.82c-.14 4.2-.1 8.4.3 12.6 3.8-.25 7.54-.93 11.28-1.62 1.03-2.57.2-5.6.28-8.35-3.24.48-7.97 2.37-9.3-1.95 3.14-.7 6.32-1.17 9.5-1.55-.15-3.02-.5-6.56-3.14-8.5-3.4-.54-6.8.22-10.12.85z"/></svg>