<svg xmlns="http://www.w3.org/2000/svg" xmlns:xlink="http://www.w3.org/1999/xlink" width="132.997" height="106.12"><style><![CDATA[.B{stroke-width:.214}.C{stroke-linejoin:round}.D{fill:#4c5950}.E{stroke:#4c5950}.F{stroke-linecap:round}.G{stroke-width:2.214}.H{stroke:#fff2c8}.I{stroke-width:1.786}.J{fill:#d6a36e}]]></style><path fill="#fff2c8" d="M0 0h132.997v106.12H0z"/><g class="E"><path fill="#798" d="M97.356-56.664l9.37 1.38 33.557 9.146 7.84 4.036 12.583 12.134 2.08 12.225.732 6.017.078 3.885-.346 3.1-.77 2.336-1.115 2.015-1.46 1.693-1.808 1.37-2.153 1.05-2.276.864-2.398.68-2.52.495-2.642.31-2.764.125-2.886-.06-3.008-.244-3.13-.43-2.872-.298-2.615-.167-2.356-.035-2.1.096-1.84.227-1.583.358-1.326.5-1.067.62-1 .7-.93.758-.86.826-.792.895-.724.963-.654 1.032-.586 1.1-.517 1.168-.703 1.1-.89 1.03-1.075.962-1.26.893-1.696.9-2.134.9-3.32 1.15-6.763 2.085-10.286-3.56-6.613-5.74-15.293-.148-7.25-7.808 1.933-7.793.876-4.04.462-2.885.265-2.596.066-2.307-.06-2.307-.187-2.306-.314-2.305-.44-2.305-.3-2.29-.16-2.274-.02-2.257.12-2.242.345-2.497.57-2.755 1.05-3.827 2.297-7.35 8.182-7.307z" class="B"/><g fill="none" stroke-width=".107"><path d="M63.782-47.482c1.386-1.398 5.96-5.06 9.47-5.893 4.875-1.156 15.738-1.56 21.502-1.454 3.54.064 11.126 1.217 15.118 2.12 6.796 1.54 19.92 5.1 26.177 7.23 3.71 1.264 9.714 4.133 11.844 5.72 3.023 2.252 8.145 7.572 9.978 10.538 1.748 2.828 2.713 8.582 3.25 10.866.467 1.99.703 5.233.808 6.42.105 1.176.133 3.132.1 3.903a23.55 23.55 0 0 1-.313 2.865c-.117.598-.47 1.66-.667 2.126a12.93 12.93 0 0 1-.97 1.755c-.276.398-.91 1.132-1.26 1.46a13.26 13.26 0 0 1-1.577 1.192c-.442.273-1.418.744-1.93.97s-1.586.63-2.142.813-1.69.506-2.276.645-1.787.376-2.403.472a45.74 45.74 0 0 1-2.531.297c-.65.052-1.98.113-2.66.12a58.92 58.92 0 0 1-2.791-.058 76.32 76.32 0 0 1-2.927-.238c-.763-.08-2.28-.293-3.04-.38l-2.9-.302c-.698-.06-2.036-.145-2.674-.172s-1.853-.045-2.43-.038a43.26 43.26 0 0 0-2.191.098 30.41 30.41 0 0 0-1.957.238 21.06 21.06 0 0 0-1.732.386c-.393.113-1.155.382-1.515.55a13.43 13.43 0 0 0-1.449.826c-.456.312-1.46 1.054-1.974 1.517-.496.447-1.443 1.423-1.88 1.955-.427.52-1.163 1.62-1.503 2.17s-.868 1.68-1.195 2.184c-.317.49-1.007 1.423-1.407 1.834-.44.452-1.4 1.204-1.88 1.537-.403.28-1.262.738-1.694.946s-1.498.66-2.133.896c-.65.242-2.375.94-3.505 1.203-1.25.29-4.404 1.3-6.306 1.07-2.157-.26-6.506-1.813-8.63-2.878-2.004-1.005-4.738-3.73-6.07-4.5-.707-.403-2.598-.917-3.698-1.076-2.545-.367-8.51.048-11.495-1.117-2.334-.91-5.55-4.213-6.315-5.836-.777-1.648.284-5.1.473-6.55.17-1.304.775-3.452.95-4.34a70.07 70.07 0 0 0 .507-3.085c.096-.71.232-2.058.276-2.696a51.43 51.43 0 0 0 .083-2.509c.002-.61-.032-1.81-.064-2.404a58.67 58.67 0 0 0-.194-2.376c-.063-.584-.226-1.745-.316-2.322-.09-.587-.316-1.742-.404-2.316-.084-.545-.24-1.653-.292-2.218-.05-.536-.132-1.78-.137-2.487-.007-.914.03-2.776.093-3.72a35.87 35.87 0 0 1 .328-2.698c.103-.617.395-2.007.588-2.776.197-.788.676-2.842 1.124-4.053.477-1.287 1.26-4.927 2.76-6.44"/><path d="M66.424-45.885c1.467-1.193 6.053-4.004 9.3-4.737 3.924-.886 13.044-1.572 18.097-1.45 4.047.097 12.664 1.325 17.18 2.297 5.832 1.255 16.95 4.32 22.175 6.172 3.99 1.414 10.62 4.556 13.087 6.32 2.812 2.01 7.12 6.84 8.71 9.267 1.61 2.46 3.012 7.47 3.615 9.55.554 1.907.863 5.13 1 6.35.132 1.174.158 3.096.145 3.83-.013.758-.163 2.03-.256 2.543s-.375 1.392-.526 1.763c-.155.38-.538 1.064-.746 1.366s-.69.862-.96 1.112a9.36 9.36 0 0 1-1.244.935c-.36.21-1.32.68-1.926.91-.814.3-2.534.877-3.436 1.13-.685.193-1.943.448-2.505.542-.6.1-1.775.23-2.366.277-.608.05-1.862.106-2.507.113-.62.007-1.945-.017-2.652-.056-.656-.036-2.273-.177-3.236-.27l-5.41-.55c-1.395-.1-4.033-.215-5.273-.205-1.247.01-3.357.182-4.218.28-.7.08-1.867.334-2.335.466a17.44 17.44 0 0 0-2.05.768 17.26 17.26 0 0 0-1.842 1.074c-.517.36-1.576 1.186-2.1 1.666a26.29 26.29 0 0 0-1.907 1.995c-.47.568-1.292 1.758-1.68 2.348-.38.573-.975 1.684-1.293 2.158-.287.427-.873 1.23-1.21 1.56-.33.326-1.19 1.015-1.73 1.332a30.12 30.12 0 0 1-3.082 1.485c-.768.304-2.552.976-3.604 1.163-1.152.205-3.954.7-5.553.465-1.798-.263-5.395-1.504-7.163-2.324-1.784-.827-4.304-2.833-5.34-3.475-.515-.32-1.46-.882-1.92-1.027-.738-.233-3.03-.73-4.57-1.024-2.132-.408-6.765-.66-8.97-1.566-1.774-.73-4.35-3.014-5.025-4.184S60.728.616 60.79-.558s.615-3.254.784-4.204l.55-3.288a51.56 51.56 0 0 0 .299-2.861c.04-.642.098-2.156.07-3.027-.033-1.046-.176-3.53-.32-4.96-.164-1.632-.63-4.606-.78-5.966a48.43 48.43 0 0 1-.223-3.138c-.018-.832.036-2.434.088-3.203.047-.69.202-2.02.308-2.657.102-.618.388-2.007.6-2.77.213-.8.675-2.815 1.186-3.923.502-1.09 1.624-4.145 3.08-5.33"/><path d="M69.62-43.3c1.352-.91 5.492-3.05 8.36-3.628 3.282-.663 11.166-1.37 15.68-1.23 4.1.126 12.81 1.295 17.383 2.25 5.195 1.084 15.017 3.818 19.59 5.468 3.92 1.414 10.463 4.556 12.963 6.277 2.582 1.777 6.387 6.006 7.802 8.018 1.465 2.084 2.966 6.353 3.573 8.16.58 1.724.973 4.707 1.137 5.863.156 1.104.19 2.883.194 3.54.002.647-.107 1.682-.172 2.067-.06.353-.248 1-.394 1.267-.163.298-.625.973-.985 1.26-.394.315-1.442.902-2.07 1.178-.66.29-2.07.757-2.803.958-.6.164-1.907.437-2.613.53-.876.115-2.763.28-3.77.307-.724.02-2.513-.03-3.574-.102-1.632-.11-5.22-.486-7.187-.614-1.616-.105-4.507-.233-5.78-.23a56.37 56.37 0 0 0-4.446.247c-.853.09-2.356.374-3 .546a20.78 20.78 0 0 0-2.628.957c-.68.32-2.027 1.098-2.685 1.55-.62.425-1.86 1.406-2.456 1.978-.57.55-1.818 1.934-2.478 2.773-.922 1.173-2.422 3.493-3.22 4.474-.45.554-1.33 1.34-1.707 1.59-.506.335-1.732.888-2.416 1.14-.67.25-2.238.8-3.16.925-.956.13-3.235.336-4.508.125-1.397-.232-4.258-1.187-5.702-1.82-1.405-.616-3.732-2.207-4.85-2.803-.9-.475-2.642-1.376-3.544-1.678-1.026-.343-3.532-.842-4.964-1.168-1.8-.41-5.333-.918-6.907-1.54-1.21-.48-3.022-1.838-3.476-2.565-.422-.676-.47-2.622-.414-3.67.08-1.504.715-4.483.926-5.996.147-1.053.374-2.916.426-3.725a51.61 51.61 0 0 0 .056-3.746 113.4 113.4 0 0 0-.341-5.052c-.136-1.46-.503-4.126-.625-5.342-.097-.967-.224-2.62-.244-3.303-.022-.755.023-2.16.066-2.81.04-.623.18-1.848.28-2.445.1-.6.362-1.892.563-2.592.21-.727.652-2.482 1.153-3.38.464-.832 1.69-3.144 2.968-4.004"/><path d="M73.545-39.273c1.063-.565 4.43-2.06 6.815-2.452 2.71-.446 9.48-1.053 13.486-.89 3.86.158 12.145 1.217 16.517 2.115 4.666.96 13.42 3.406 17.467 4.867 3.65 1.318 9.69 4.245 12.016 5.775 2.278 1.5 5.567 4.996 6.776 6.586 1.257 1.653 2.654 5.07 3.2 6.53.533 1.43 1.008 3.997 1.126 5.055.12 1.08.115 2.912-.176 3.522-.287.6-1.59 1.096-2.134 1.318-.503.205-1.65.39-2.255.472-.662.088-2.172.216-3.017.23a68.21 68.21 0 0 1-3.714-.113c-1.425-.084-4.59-.378-6.34-.478-1.594-.09-4.596-.227-6.003-.226-1.353.001-3.805.117-4.897.233-1.02.108-2.98.447-3.9.7-1.035.285-3.058 1.027-4.03 1.482-.915.43-2.627 1.447-3.423 2.008a33.42 33.42 0 0 0-3.06 2.56c-.746.73-2.15 2.37-2.863 3.223-.796.954-2.086 2.823-2.793 3.553-.567.585-1.725 1.375-2.233 1.633a8.9 8.9 0 0 1-2.266.654c-.643.073-2.197.118-3.07-.05-.947-.182-3.04-.864-4.168-1.344-1.055-.45-3.2-1.757-4.45-2.323-1.2-.543-4.015-1.765-5.693-2.305-2.394-.77-6.817-1.557-8.6-2.3-.865-.358-1.974-1.587-2.1-2.133-.228-.978.38-3.318.524-4.64.125-1.148.405-3.4.47-4.514a65.33 65.33 0 0 0 .05-4.363c-.038-1.246-.228-3.81-.34-5.128-.117-1.363-.418-3.818-.52-4.917-.086-.926-.22-2.52-.235-3.188a26.08 26.08 0 0 1 .104-2.663c.1-.89.387-2.67.604-3.547.17-.69.56-2.03.913-2.587.317-.498 1.317-1.875 2.228-2.36"/><path d="M78.405-32.58c.6-.427 2.932-1.324 4.616-1.54 2.085-.268 7.65-.67 11.098-.478 3.432.192 10.9 1.12 14.884 1.932 4.123.842 11.777 2.985 15.285 4.228 3.224 1.142 8.415 3.657 10.387 4.87 1.87 1.15 4.41 3.742 5.32 4.786 1.028 1.183 1.995 3.322 2.308 3.99.133.283.168.906.01.957-.335.11-1.734-.007-2.762-.06l-5.685-.378c-1.55-.076-4.632-.21-6.165-.205-1.456.005-4.238.1-5.555.25s-3.836.58-5.038.874c-1.368.335-3.687 1.143-4.665 1.505-.598.22-1.736.756-2.268 1.064-.856.496-2.838 1.715-3.907 2.513a54.39 54.39 0 0 0-3.805 3.237c-.855.817-2.283 2.472-2.946 3.22C98.8-1 97.735.435 97.222.87c-.3.263-1.077.488-1.41.452-.464-.05-1.746-.53-2.56-.88-.927-.397-3.096-1.537-4.413-2.11-1.344-.584-4.12-1.61-5.495-2.196-1.338-.57-3.972-1.25-4.642-2.12-.64-.83-.38-3.266-.43-4.456-.048-1.18.082-3.67.044-4.977-.036-1.276-.233-4.013-.343-5.475l-.56-6.504c-.05-.873-.072-2.257.022-2.746.107-.562.365-2.012.97-2.443"/></g></g><g fill="none" class="C"><use xlink:href="#B" stroke="#a5a58c" class="G"/><use xlink:href="#B" class="F H I"/></g><g fill="none" class="C"><path stroke="#a5a58c" d="M46.738 32.463l-13.66-.364-21.123 2.772-28.39 2.475" class="G"/><path d="M46.738 32.463l-13.66-.364-21.123 2.772-28.39 2.475" class="F H I"/></g><g fill="none" class="C"><use xlink:href="#C" stroke-width="3.684" class="E"/><use xlink:href="#C" stroke="#798" stroke-width="3.255" class="F"/><use xlink:href="#C" stroke-width="2.21" class="E"/><g stroke="#798"><use xlink:href="#C" stroke-width="1.996" class="F"/><path fill="#798" d="M80.193 24c2.634-5.132 2.524-5.775.87-7.2l8.45 4.65c-2.57-.9-3.6-.987-6.234 4.144z" class="B"/></g><g class="E"><path d="M80.193 24c2.634-5.132 2.524-5.775.87-7.2m2.216 8.794c2.635-5.13 3.663-5.034 6.234-4.144" class="B F"/><path d="M76.745 38.636l-3.687-2.5" class="G"/></g><path d="M76.745 38.636l-3.687-2.5" class="F H I"/></g><g class="E"><g class="J B"><path d="M68.65 31.472l1.087.066-.08 1.32-1.086-.066z"/><g class="C D"><path d="M81.842 54l-7.75-1.52v-.8l7.75 1.52zm-7.008-5.306l-2.958-.58v-.8l2.958.58z"/><path d="M86.82 45.043l-1.134 5.78-3.102-.608-.74 3.775v-.8l.74-3.775 3.102.608 1.134-5.78z"/></g><path d="M81.842 53.2l-7.75-1.52.74-3.775-2.958-.58 1.135-5.78 13.808 2.7-1.134 5.78-3.102-.608z"/><g class="C D"><path d="M64.132 43.154l-4.466 4.788-2.287-2.85v-.4l2.287 2.85 4.466-4.788z"/><path d="M59.9 43.06l-2.53 2.03-3.936-4.908v-.4L57.38 44.7l2.53-2.03zm6.13-1.953l-1.9 2.047-5.635-7.025v-.4l5.635 7.025 1.9-2.047zm-12.92-5.58l-2.077 1.666-3.177-3.962v-.4l3.177 3.962 2.077-1.666zm1.432-1.15l-1.988.457-.584-2.548v-.4l.584 2.548 1.988-.457z"/><path d="M57.84 36.657l-1.413 1.134-2.983 2.392-.82-1.024v-.4l.82 1.024 4.396-3.526zm-2.236.1L54.026 34.8v-.4l1.578 1.968z"/><path d="M62.698 32.76l-4.86 3.897-3.872-4.827v-.4l3.872 4.827 4.86-3.897z"/></g><path d="M62.433 40.637l1.7 2.117-4.466 4.788-2.287-2.85z"/><path d="M59.9 42.66l-2.53 2.03-3.936-4.908 2.53-2.03 2 2.493zm-1.413-6.93l4.2-3.37 3.343 8.347-1.9 2.047zm-5.377-.604l-2.077 1.666-3.177-3.962 2.882-.66z"/><path d="M51.98 31.886l1.987-.456.585 2.547-1.988.457z"/><path d="M55.44 33.265l2.4 2.992-1.413 1.134-2.983 2.392-.82-1.024 2.982-2.392-1.578-1.968z"/><path d="M53.967 31.43l7.655-1.757 1.076 2.687-4.86 3.897z"/><g class="C D"><path d="M65.105 28.08l-2.458-.15v-.4l2.458.15z"/><path d="M65.15 25.198l-.044 2.882v-.4l.044-2.882z"/><path d="M67.684 25.237l-.046 2.997-2.533-.154v-.4l2.533.154.046-2.997zm-1.938-.03l-3.057-.047v-.4l3.057.047z"/><path d="M65.783 22.775l-.037 2.432v-.4l.037-2.432zm4.147 5.6l-2.293-.14v-.4l2.293.14z"/><path d="M69.975 25.547l-.044 2.827v-.4l.044-2.827z"/><path d="M71.427 25.57l-.788 2.847-.708-.043v-.4l.708.043.788-2.847zm.747-2.697l-.404 1.458-1.914-.03-.2 1.242-1.986-.03v-.4l1.986.03.2-1.242 1.914.03.404-1.458zm-5.684-.087l-3.762-.058v-.4l1.924.03 1.838.028zm-1.732-6.983l-.045 2.943v-.4l.045-2.943z"/><path d="M66.55 18.768l-.062 4.018v-.4l.062-4.018z"/><path d="M68.6 20.56l-2.077-.032v-.4l2.077.032z"/><path d="M68.673 15.84l-.072 4.72v-.4l.072-4.72z"/><path d="M71.817 20.61l-3.216-.05v-.4l3.216.05z"/></g><path d="M65.105 27.68l-2.458-.15.042-2.77 2.46.038z"/><path d="M65.15 24.798l2.535.04-.046 2.997-2.533-.154z"/><path d="M65.746 24.807l-3.057-.047.038-2.432 3.056.047zm4.184 3.167l-2.293-.14.04-2.722 2.296.035z"/><path d="M69.975 25.147l1.452.023-.788 2.847-.708-.043zm-2.295-.035l.043-2.707 4.453.068-.404 1.458-1.914-.03-.2 1.242zm-1.2-2.726l-3.762-.058.106-6.943 1.925.018-.045 2.943 1.838.022-.023 1.473z"/><path d="M68.6 20.16l-2.077-.032.072-4.707 2.077.02z"/><path d="M68.673 15.44l2.396.024.748 4.744-3.216-.05z"/><g class="C D"><path d="M74.422 24.908l-1.84-.51V24l1.84.51z"/><path d="M75.334 21.614l-.912 3.294v-.4l.912-3.294z"/><path d="M79.773 22.842l-.72 1.4-1.906-.528-.703 1.755-2.023-.56v-.4l2.023.56.703-1.755 1.906.528.72-1.4zM74.6 28.657l-3.135-.2v-.4l3.135.2z"/><path d="M74.524 24.937l-.433 1.566v-.4l.433-1.566zm.61 1.755l-.544 1.965v-.4l.544-1.965z"/><path d="M78.178 25.948l-1.457 2.84-2.13-.13v-.4l2.13.13 1.457-2.84zM81 20.43l-1.238 2.413-1.395-.386v-.4l1.395.386L81 20.03z"/><path d="M81.01 20.43l-3.826-1.112v-.4l3.826 1.112z"/><path d="M77.418 18.478l-.51 1.84-2.97-.822v-.4l2.97.822.51-1.84z"/><path d="M76.9 20.317l-.446 1.6-2.97-.822v-.4l2.97.822.446-1.6zm.998-3.607l-.5 1.77-2.97-.822v-.4l2.97.822.5-1.77z"/></g><path d="M74.422 24.508l-1.84-.51.912-3.295 1.84.5z"/><path d="M75.334 21.214l4.44 1.228-.72 1.4-1.906-.528-.703 1.755-2.023-.56.5-1.8z"/><path d="M74.59 28.257l-3.135-.19L72.582 24l1.942.538-.433 1.566 1.044.19z"/><path d="M75.543 24.82l2.635.73-1.457 2.84-2.13-.13zm3.55-5.348l1.917.557-1.238 2.413-1.395-.386z"/><path d="M77.185 18.917l.723-2.608 2.865 2.487.238 1.233z"/><path d="M73.94 19.095l.51-1.84 2.97.822-.51 1.84z"/><path d="M76.9 19.917l-.446 1.6-2.97-.822.445-1.6zm-2.462-2.66l.486-1.754 2.974.807-.5 1.77z"/><g class="C D"><path d="M93.48 33.8l-.2 2.864-2.133-.157v-.4l2.133.157.2-2.864zm-2.255 1.485l-3.568-.262v-.4l3.568.262zm1.86 3.85l-.5 6.686-2.17-1.137v-.4l2.17 1.137.5-6.686zM91.422 40.6l-1.97-1.033v-.4l1.97 1.033zm-2.922.8l-.924 1.765-3.865-2.024v-.4l3.865 2.024L88.5 41z"/><path d="M86.22 36.344l-2.52 4.808-2.213-1.16v-.4l2.213 1.16 2.52-4.808z"/><path d="M81.488 39.992l-3.894-2.04v-.4l3.894 2.04z"/><path d="M84.007 35.184l-2.52 4.808v-.4l2.52-4.808zm1.398-5.624l-1.554 2.966-2.424-1.336v-.4l2.424 1.336 1.554-2.966z"/><path d="M83.85 32.525l-1.06 2.023-2.52-1.32v-.4l2.52 1.32 1.06-2.023zm7.65-8.27l-1.65 3.215-1.044-.536v-.4l1.044.536.512-.996 1.138-2.22zm-2.207 1.73l-1.267-.582V25l1.267.582z"/><path d="M88.436 24.6l-.87 1.696-2.87-1.474v-.4l2.87 1.474.87-1.696z"/><path d="M89.05 23.406l-.614 1.195-2.723-1.76v-.4l2.723 1.76.614-1.195zm-2.053 2.6l-.784 1.527-2.302-1.182v-.4l2.302 1.182.784-1.527z"/><path d="M86.213 27.532l-1 1.93-2.292-1.2v-.4l2.292 1.2 1-1.93zm6.6-2.82l-.585 2.26v-.4l.585-2.26zm1.1 3.028l-.15 2.02-4.038-2.073v-.4l4.038 2.073.15-2.02z"/></g><path d="M93.48 33.4l-.2 2.864-2.133-.157.1-1.22-3.568-.262.12-1.643 3.568.262zm-3.06 3.938l2.666 1.397-.5 6.686-2.17-1.137.998-4.064-1.97-1.033zM88.5 41l-.924 1.765-3.865-2.024.925-1.765zm-4.493-6.226l2.213 1.16-2.52 4.808-2.213-1.16z"/><path d="M81.488 39.592l-3.894-2.04.88-1.554 1.566.82 1.754-3.194 2.213 1.16-1.7 3.227zm-.06-8.802l.993-1.935.5-.992 2.475 1.297-1.554 2.966-1.378-.76z"/><path d="M83.85 32.125l-1.06 2.023-2.52-1.32 1.155-2.038zm5.2-9.12l2.45.848-1.65 3.215-1.044-.536.488-.95L88.026 25z"/><path d="M88.436 24.2l-.87 1.696-2.87-1.474 1.018-1.983z"/><path d="M85.713 22.44l.788-.316 2.55.882-.614 1.195zm-1.803 3.5l.784-1.527 2.302 1.182-.784 1.527z"/><path d="M86.213 27.132l-1 1.93-2.292-1.2.98-1.912zm3.524.156l1.762-3.434 1.324.458-.585 2.26 1.686.77-.15 2.02-1.994-1.024z"/><g class="C D"><path d="M75.622 53.585l-.524 1.624-1.82-.548-.452 1.403-.682 2.113-1.445-.848v-.4l1.445.848 1.134-3.516 1.82.548.524-1.624zm-7.26 2.373L65.7 54.395v-.4l2.663 1.563z"/><path d="M69.514 52.386l-1.152 3.572v-.4l1.152-3.572z"/><path d="M72.127 52.9L70.7 57.33l-2.337-1.37v-.4l2.337 1.372 1.428-4.43zM65.7 54.395l-2.715-1.593v-.4l2.715 1.593z"/><path d="M66.536 51.802l-.837 2.593v-.4l.837-2.593z"/></g><path d="M72.127 52.5l3.495.686-.524 1.624-1.82-.548-.452 1.403-.682 2.113-1.445-.848 1.012-3.14zm-3.765 3.058L65.7 53.995l.837-2.593 2.978.584-.536 1.66z"/><path d="M69.514 51.986l2.613.513-1.428 4.43-2.337-1.37.44-1.362zm-3.814 2.01l-2.715-1.593.562-1.587 3 .587z"/><g class="C D"><path d="M64.12 63.926l-4.556-1.48v-.4l4.557 1.48zm.16-9.426l-.712 2.008v-.4l.712-2.008z"/><path d="M64.755 57.117l-1.508 4.254v-.4l1.508-4.253zm.058 4.857l-.692 1.952v-.4l.692-1.952z"/><path d="M72.205 64.183l-.683 2.12-7.4-2.376v-.4l7.4 2.376.683-2.12zm-4.572-1.62l-2.692-.955v-.4l2.692.955z"/><path d="M69.425 57.51l-.632 1.783-1.16 3.27v-.4l1.792-5.053z"/><path d="M73.572 59.943l-.747 2.32-3.17-1.44-.76 2.188-1.264-.448v-.4l1.264.448.76-2.188 3.17 1.44.747-2.32z"/></g><path d="M64.12 63.526l-1.596-.52-2.96-.96 3.147-8.877 1.57.92-.712 2.008 1.187.62-.726 2.05-.782 2.204 1.566.604z"/><path d="M72.205 63.783l-.683 2.12-7.4-2.376.82-2.318z"/><path d="M67.633 62.162l-1.62-.575-1.072-.38 1.976-5.57.998.585 1.51.886-.632 1.783-.67 1.888z"/><path d="M69.425 57.11l4.147 2.434-.747 2.32-3.17-1.44-.76 2.188-1.264-.448.812-2.3z"/><g class="C D"><path d="M65.9 68.72l-1.818-.5v-.4l1.818.5zm1-3.06l-.98 3.06v-.4l.98-3.06z"/><path d="M67.754 69.218L65.9 68.72v-.4l1.844.498z"/><path d="M68.707 66.24l-.953 2.978v-.4l.953-2.978z"/><path d="M71.277 67.063l-.922 2.857-1.32-.357-1.28-.345v-.4l1.28.345 1.32.357.922-2.857zm-5.967-1.9l-1.197 3.027-3.953-1.284-.67 2.15-1.618-.525v-.4l1.618.525.67-2.15 3.953 1.284 1.197-3.027zm-5.455 6.84l-.283 1.018-3.205.92v-.4l3.205-.92.283-1.018zm-1.52-.422l-1.218-.338v-.4l1.218.338z"/><path d="M59.072 68.9l-.738 2.66v-.4l.738-2.66zm3.463 3.252L61 72.6l-.672-2.345v-.4L61 72.2l1.525-.437z"/></g><path d="M65.9 68.32l-1.818-.49 1.217-3.076 1.58.506z"/><path d="M67.754 68.818L65.9 68.32l.98-3.06 1.817.58z"/><path d="M68.707 65.84l2.57.823-.922 2.857-1.32-.357-1.28-.345.545-1.705zM57.87 68.12l1.473-5.305 5.967 1.938-1.197 3.027-3.953-1.284-.67 2.15zm1.985 3.474l-.283 1.018-3.205.92.75-2.697z"/><path d="M58.334 71.172l-1.218-.338.753-2.714 1.203.4zm4.2.6L61 72.2l-.672-2.345 1.525-.437z"/><g class="C D"><path d="M83.802 61.972l-.534 4.246-2.643-.653v-.4l2.643.653.534-4.246zm-6.367 2.805l-4.243-1.048v-.4l4.243 1.048z"/><path d="M78.547 60.278l-1.112 4.5v-.4l1.112-4.5zm6.087-4.925l-.25 1.987-1.435-.347-.867 4.424-2.734-.88v-.4l2.734.88.867-4.424 1.435.347.25-1.987zm-7.76 4.387l-1.324-.428-.847-.272v-.4l.847.272 1.324.428z"/><path d="M78.12 55.876l-.622 1.932-.623 1.93v-.4l1.245-3.863z"/><path d="M81.234 54.686l-.64 1.988-4.644-1.497v-.4l4.644 1.497.64-1.988z"/></g><path d="M81.682 60.888l2.12.684-.534 4.246-2.643-.653zm-4.247 3.49l-4.243-1.048 1.512-4.7 3.843 1.24-.685 2.774z"/><path d="M81.234 54.286l3.4.667-.25 1.987-1.435-.347-.867 4.424-2.734-.88 1.32-4.094zm-4.36 5.054l-1.324-.428-.847-.272 1.245-3.862 2.17.7-.622 1.932z"/><path d="M75.95 54.777l.464-1.437 4.82.946-.64 1.988z"/><g class="C D"><path d="M57.844 51.485l-1 2.85-.432 1.217-5.063-1.795v-.4l5.063 1.795 1.442-4.066z"/><path d="M56.402 55.55l-.99 2.797-.9 2.565-5.256-.908v-.4l5.256.908 1.9-5.362z"/></g><path d="M51.34 53.356l1.56-4.047 4.944 1.776-1 2.85-.432 1.217-3.2-1.135z"/><path d="M56.402 55.15l-.99 2.797-.9 2.565-5.256-.908 1.002-2.99 2.115.545 1.05-3.07z"/><g class="C D"><path d="M47.454 54.175l-.415 2.533-3.533-.578v-.4l3.533.578.415-2.533z"/><path d="M47.04 56.708l-.464 2.836-3.5-.604v-.4l3.5.604.464-2.836z"/><path d="M50.15 54.617l-1.7 5.25-1.874-.323v-.4l1.874.323 1.7-5.25zm-4.493-3.592l-1.295-.465v-.4l1.295.465z"/><path d="M46.903 47.555l-1.246 3.47v-.4l1.246-3.47z"/><path d="M49.226 48.4l-1.246 3.47-2.323-.834v-.4l2.323.834L49.226 48z"/><path d="M47.98 51.86l-.815 2.27-3.27-.535v-.4l3.27.535.815-2.27zm4.167-2.42l-1.27 3.294-2.843-1.022v-.4l2.843 1.022 1.27-3.294z"/><path d="M50.876 52.733l-.726 1.884-2.985-.49v-.4l2.985.49.726-1.884z"/></g><path d="M43.506 55.73l.4-2.537 3.558.582-.415 2.533z"/><path d="M47.04 56.308l-.464 2.836-3.5-.604.43-2.8z"/><path d="M47.454 53.775l2.696.442-1.7 5.25-1.874-.323zm-1.797-3.15l-1.295-.465.57-3.713 1.97.708z"/><path d="M46.903 47.155l2.323.835-1.246 3.47-2.323-.834z"/><path d="M47.98 51.46l-.815 2.27-3.27-.535.466-3.033zm.053-.15l1.193-3.3 2.92 1.05-1.27 3.294z"/><path d="M50.876 52.333l-.726 1.884-2.985-.49.868-2.417z"/><g class="C D"><path d="M48.284 41.747l-2.138-2.8v-.4l2.138 2.8z"/><path d="M51.562 39.117l-3.278 2.63v-.4l3.278-2.63z"/><path d="M53.1 41.048l-3.64 2.256-1.188-1.557v-.4l1.188 1.557 3.64-2.256zm-5.468 1.164l-.378 2.46-1.95-.3v-.4l1.95.3.378-2.46zM58.96 48.34l-.848 2.392-5.1-1.828v-.4l5.1 1.828.848-2.392z"/><path d="M54.998 43.4l-1.976 5.502-3.4-1.225v-.4l3.4 1.225L54.998 43z"/></g><path d="M48.284 41.347l-2.138-2.8 3.213-2.576 2.203 2.747L49.9 40.05z"/><path d="M51.562 38.717l1.55 1.93-3.64 2.256-1.188-1.557zm-6.25 5.256l.378-2.46 1.95.3-.378 2.46zM54.998 43l3.962 4.938-.848 2.392-5.1-1.828z"/><path d="M53.11 40.648L54.998 43l-1.976 5.502-3.4-1.225z"/><g class="C D"><path d="M53.72 20.52l-1.1 1.282v-.4l1.1-1.282zm1.935 4.064L54.46 26.5l-5.112-4.686v-.4L54.46 26.1l1.196-1.915zm-5.9 1.978l-2.062-3.123v-.4l2.062 3.123z"/><path d="M51.934 24.185l-2.18 2.377v-.4l2.18-2.377z"/><path d="M51.315 28.924l-.988-1.495-.572-.867v-.4l.572.867.988 1.495zm1.787-3.327l-1.332.88v-.4l1.332-.88z"/><path d="M52.757 27.972l-1.442.952v-.4l1.442-.952zm4.747-7.736l-1.87 2.038-2.443-2.24v-.4l2.443 2.24.756-.824 1.113-1.215z"/><path d="M53.978 19.24l-1.04-.955v-.4l1.04.955zm5.177-.805l-1.65 1.8-1.2-1.1v-.4l1.2 1.1 1.65-1.8zm-2.035-.175l-1.06-.964-.835.85-1.112-1.02v-.4l1.112 1.02.835-.85 1.06.964zm.303-1.393l-1.585-1.435v-.4l1.585 1.435z"/><path d="M60.13 14.206l-2.706 2.66v-.4l2.706-2.66z"/><path d="M62.026 16.25l-1.082.95-1.897-1.93v-.4l1.897 1.93 1.082-.95zm-.118 7.67l-.037 2.412-1.84-.028v-.4l1.84.028.037-2.412z"/></g><path d="M49.347 21.413l2.79-2.744 1.582 1.45-1.1 1.282 3.035 2.783L54.46 26.1l-3.285-3.01z"/><path d="M49.755 26.162l-2.062-3.123 1.654-1.626 2.587 2.372-.93 1.016z"/><path d="M51.315 28.524l-.988-1.495-.572-.867 2.774-1.83.573.866-1.332.88.987 1.495zm6.19-8.688l-1.87 2.038-2.443-2.24.786-.797-1.04-.955 1.176-1.157 2.358 2.162z"/><path d="M54.113 16.727l1.725-1.695 3.317 3.003-1.65 1.8-1.21-1.11.824-.866-1.06-.964-.835.85z"/><path d="M57.423 16.467l-1.585-1.435 2.838-2.79.553.596.9.97-.74.728z"/><path d="M59.047 14.87l1.082-1.063 1.897 2.043-1.082.95zm2.86 8.65l-.037 2.412-1.84-.028.037-2.413z"/><path d="M58.132 12.055l-3.355 3.298-1.852-3.3-2.03.924v-.4l2.03-.924 1.852 3.3 3.355-3.298zM52.9 17.187L51.27 18.8l-2.943-6.834v-.4L51.27 18.4l1.64-1.614z" class="C D"/><path d="M56.018 9.378l2.114 2.277-3.355 3.298-1.852-3.3-2.03.924 2.017 4.22-1.64 1.614-2.943-6.834 5.586-1.6z"/><g class="C D"><path d="M48.642 14.723l-3.37 1.452-.822-1.405-2 .74-1.088-1.65v-.4l1.088 1.65 2-.74.822 1.405 3.37-1.452zm-3.2-2.14l-.786-1.534v-.4l.786 1.534zm1.38-2.11l-1.743.463-.65-2.437v-.4l.648 2.438 1.743-.463zm3.846 8.928l-1.24 1.22-1 .982-.855-1.445-1.34 1.055-.82-1.243v-.4l.82 1.243 1.34-1.055.855 1.445 2.24-2.202z"/><path d="M45.403 19.97l-1.98-3v-.4l.867 1.314 1.113 1.686z"/><path d="M49.685 17.143l-4.282 2.828v-.4l4.282-2.828z"/></g><path d="M46.812 10.074l1.83 4.25-3.37 1.452-.822-1.405-1.99.74-1.088-1.65 4.062-1.28-.786-1.534z"/><path d="M44.42 8.1l1.42-.28.97 2.254-1.743.463zm5.265 8.643l.973 2.26-1.24 1.22-1 .982-.855-1.445-1.34 1.055-.82-1.243 1.474-.973 1.252-.827z"/><path d="M45.403 19.57l-1.98-3 5.22-2.248 1.043 2.42-2.402 1.586z"/><g class="C D"><path d="M37.914 27.875l-1.132 3.322-2.948-.078v-.4l2.948.078 1.132-3.322zM44.28 24.7l-1.293 1.406-2.034-1.87v-.4l2.034 1.87L44.28 24.3z"/><path d="M41.626 22.25l-1.032 3.03-1.228-.418-3.046-1.038v-.4l4.274 1.456 1.032-3.03zm9.017 8.3l-4.005.92-1.342-.036v-.4l1.342.036 4.005-.92zm-4.138-.008l-2.075-.834v-.4l2.075.834zm-1.055-2.6l-1.83-1.308v-.4l1.83 1.308z"/></g><path d="M37.914 27.475l-1.132 3.322-2.948-.078 1.415-4.152 1.582.54zm4.332-5.055l2.034 1.87-1.293 1.406-2.034-1.87z"/><path d="M41.626 21.85l-1.032 3.03-1.228-.418-3.046-1.038 1.14-3.346 2.97 1.263zm2.654 2.44l6.363 5.85-4.005.92-1.342-.036 1.2-.892-2.075-.834 1.02-1.765-1.83-1.308z"/><g class="C D"><path d="M45.27 21.223l-2.083 1.375-2.826-2.6v-.4l2.826 2.6 2.083-1.375z"/><path d="M40.362 20l-2.085-1.918v-.4l.625.576 1.46 1.342z"/><path d="M43.218 18.114L40.362 20v-.4l2.856-1.885zm5.155 7.806l-.72.783-1.6-1.48v-.4l1.6 1.48.72-.783z"/><path d="M46.042 25.222l-2.854-2.624v-.4l2.854 2.624z"/><path d="M47.13 24.038l-1.088 1.184v-.4l1.088-1.184z"/></g><path d="M43.218 17.714l2.053 3.11-2.083 1.375-2.826-2.6 1.224-.808z"/><path d="M40.362 19.6l-2.085-1.918 1.675-4.915 3.267 4.948-1.405.928zm6.768 4.038l1.243 1.882-.72.783-1.6-1.48z"/><path d="M46.042 24.822l-2.854-2.624 2.083-1.375 1.86 2.815z"/></g><path d="M73.1 13.884l.077-8M67.1 13.826l.078-8" stroke-width=".8"/><g class="J B"><g class="C D"><path d="M96.722 40.84l-2.992.444v-.4l2.992-.444z"/><path d="M100.426 40.3l-3.704.55-.537-3.614v-.4l.537 3.614 3.704-.55zm.447 2.667l-2.302.496v-.4l2.302-.496zm-1.908 1.803l-3.16.8-2.076-4.286v-.4l2.076 4.286 3.16-.8z"/><path d="M95.156 44.228l-.112 1.536-1.635-.12v-.4l1.635.12.112-1.536zm6.65 4.282l-1.904-.523-.2-1.182-1.9-.184-.25-1.5v-.4l.25 1.5 1.9.184.2 1.182 1.904.523z"/></g><path d="M96.722 40.44l-2.992.444.274-3.735 2.18-.323.307 2.066z"/><path d="M96.185 36.825l1.37-.204 2.265-.336.34 2.027.265 1.577-3.704.55-.235-1.582z"/><path d="M93.73 40.883l1.93-.287 4.766-.707.447 2.668-2.302.496.394 1.307-3.16.81-.667-1.376z"/><path d="M93.4 45.243l.113-1.535 1.634.12-.112 1.536zm4.142-.52l3.533-.904.72 4.293-1.904-.523-.2-1.182-1.9-.184z"/><path d="M105.312 49.476l-2.657-.73-.566-3.376v-.4l.566 3.376 1.744.48.913.25zm-2.38-6.588l-1.225.205-.48-2.855v-.4l.48 2.855 1.225-.205z" class="C D"/><path d="M105.312 49.076l-2.657-.73-.566-3.376 2.465-.414.342 2.04zm-2.38-6.588l-1.225.205-.48-2.855 1.225-.205z"/><g class="C D"><path d="M85.632 67.965l-1.58-1.58v-.4l1.58 1.58z"/><path d="M90.712 63.812l-5.08 4.153v-.4l5.08-4.153z"/><path d="M87.423 69.756l-1.79-1.79v-.4l1.79 1.79z"/><path d="M89.708 67.888l-2.285 1.868v-.4l2.285-1.868z"/><path d="M91.46 70.03l-2.07 1.692-1.966-1.966v-.4l1.966 1.966 2.07-1.692z"/><path d="M96.464 75.282l-2.196 1.32-4.88-4.88v-.4l4.88 4.88 2.196-1.32zm16.602-19.58l-5.187 4.24-1.13-1.38v-.4l1.13 1.38 5.187-4.24zm-4.386 1.103l-1.132-1.254v-.4l1.132 1.254zm.024-4.323l-.725 2.637-5.213-1.433v-.4l5.213 1.433.725-2.637z"/><path d="M111.817 62.727l-2.942-3.6v-.4l2.942 3.6z"/><path d="M116.406 58.976l-4.59 3.75v-.4l4.59-3.75z"/><path d="M119.147 61.663l-5.5 3.303-1.83-2.24v-.4l1.83 2.24 5.5-3.303zm-29.553-4.576l-2.7-3.316v-.4l2.7 3.316z"/><path d="M94.318 53.225l-4.724 3.862v-.4l4.724-3.862zm6.385-2.942l-.884 3.214-2.696-.742v-.4l2.696.742.884-3.214zM94 52.824l-2.797-3.422v-.4L94 52.424z"/><path d="M98.006 49.54L94 52.824v-.4l4.016-3.283zm-8.572 7.35l-4.582 3.145v-.4l4.582-3.145z"/></g><path d="M85.632 67.565l-1.58-1.58 5.253-4.294 1.406 1.72z"/><path d="M87.423 69.356l-1.79-1.79 2.48-2.03 1.595 1.952z"/><path d="M89.708 67.488l1.752 2.142-2.07 1.692-1.966-1.966z"/><path d="M96.464 74.882l-2.196 1.32-4.88-4.88 2.497-2.04zM110.2 52.494l1.34 1.314 1.526 1.495-5.187 4.24-1.13-1.38 1.93-1.755-1.132-1.254 1.457-1.46z"/><path d="M103.5 50.65l5.213 1.434-.725 2.637-5.213-1.433zm8.327 11.677l-2.942-3.6 1.546-1.263 1.517 1.708 2.768-2.263 1.7 1.666-2.896 2.368z"/><path d="M116.406 58.576l1.03 1 1.7 1.676-5.5 3.303-1.83-2.24 2.932-2.396zm-26.812-1.89l-2.7-3.316 4.3-4.37 3.125 3.823-3.035 2.482zm8.412-7.547l1.398.385 1.3.357-.884 3.214-2.696-.742.355-1.292z"/><path d="M94 52.424l-2.797-3.422 1.345-1.364 5.468 1.503zm-9.148 7.212l.606-4.82 1.426-1.446 2.55 3.12z"/><g class="C D"><path d="M62.836 76.855l-1.68-.747v-.4l1.68.747z"/><path d="M63.36 75.674l-.524 1.18v-.4l.524-1.18zm-2.597-.484l-.447-1.56v-.4l.447 1.56z"/><path d="M63.963 72.585l-.35 1.788-2.85.818v-.4l2.85-.818.35-1.788z"/></g><path d="M62.836 76.455l-1.68-.747.524-1.18 1.68.746z"/><path d="M60.763 74.79l-.447-1.56 3.647-1.046-.35 1.788z"/><path d="M77.528 68.696l-.986 4.332-2.29-.52v-.4l2.29.52.986-4.332z" class="C D"/><path d="M74.25 72.107l.593-3.042 2.684-.77-.986 4.332z"/><g class="C D"><path d="M81.85 69.568l-1.795.514-.56-1.95v-.4l.56 1.95 1.795-.514zm.396 2.688L80.95 70.97v-.4l1.296 1.286z"/><path d="M85.52 68.983l-3.273 3.273v-.4l3.273-3.273z"/></g><path d="M79.496 67.732l1.796-.515.56 1.95-1.795.514z"/><path d="M82.246 71.856L80.95 70.57l2.565-3.99 2.004 2.004z"/><path d="M30.314 58.994l-.57 3.735-.795.24-.983-3.262v-.4l.983 3.262.795-.24.57-3.735z" class="C D"/><path d="M27.965 59.307l2.35-.713-.57 3.735-.795.24z"/><g class="C D"><path d="M29.724 43.594l-3.37-.442v-.4l1.95.256 1.42.186z"/><path d="M30.307 39.143l-.583 4.45v-.4l.583-4.45zm1.203-5.83l-.4 2.98-3.804-.497v-.4l3.804.497.4-2.98zm2.383 2.25l-.336 2.204-2.587-.338v-.4l2.587.338.336-2.204z"/><path d="M34.265 33.13l-.372 2.43-2.633-.344v-.4l2.633.344.372-2.43zm-15.017 1.793l-.407 3.1-2.756.362-.394-3.005V35l.394 3.005 2.756-.362.407-3.1z"/></g><path d="M29.724 43.194l-3.37-.442.582-4.45 3.372.44-.256 1.953zm-2.41-7.797l.258-1.967 3.936-.517-.4 2.98zm3.655 1.63l.3-2.2 2.633.344-.336 2.204z"/><path d="M31.26 34.818l.25-1.905 2.756-.182-.372 2.43zM15.7 35l3.557-.467-.407 3.1-2.756.362z"/><g class="C D"><path d="M34.735 61.225l-4.143 1.25v-.4l4.143-1.25z"/><path d="M35.073 59.014l-.338 2.21v-.4l.338-2.21z"/><path d="M36.96 60.555l-1.6.482-.396-1.314v-.4l.396 1.314 1.6-.482zm-1.675-5.132l-.257 1.685-3.534-.54v-.4l3.534.54.257-1.685z"/><path d="M42.633 56.546l-.37 2.41-5.304 1.598v-.4l5.304-1.598.37-2.41z"/><path d="M43.44 51.294l-.807 5.252-1.745-.267v-.4l1.745.267.807-5.252zm-2.018 1.502l-1.47-.224v-.4l1.47.224z"/><path d="M43.823 48.802l-.383 2.492-5.632-.86v-.4l5.632.86.383-2.492z"/><path d="M38.314 47.12l-.29 1.903-.267 1.753-5.255-.802v-.4l5.255.802.267-1.753.29-1.903z"/></g><path d="M34.735 60.825l-4.143 1.25.618-4.05 3.863.6z"/><path d="M36.96 60.155l-1.6.482-.396-1.314 1.6-.482zm-5.466-3.987l.257-1.685 3.534.54-.257 1.685z"/><path d="M37.687 55.4l4.946.756-.37 2.41-5.304 1.598z"/><path d="M40.222 50.402l3.218.492-.807 5.252-1.745-.267.534-3.483-1.47-.224z"/><path d="M37.808 50.033l.506-3.312 5.51 1.68-.383 2.492z"/><path d="M32.5 49.575l.676-4.423 5.137 1.57-.29 1.903-.267 1.753-3.55-.542z"/><g class="C D"><path d="M45.722 36.438l-.43 2.796-5.708-.877v-.4l5.708.877.43-2.796z"/><path d="M46.182 33.448l-.46 3-5.707-.877v-.4l5.707.877.46-3zm-.89 5.786l-.275 1.788-2.695-.414v-.4l2.695.414.275-1.788z"/><path d="M45.018 41.022l-.32 2.083-2.614-.94v-.4l2.614.94.32-2.083z"/><path d="M42.084 42.165l-2.922-1.052v-.4l2.922 1.052z"/><path d="M42.598 38.82l-.514 3.345v-.4l.514-3.345zm-2.235-5.527L40 35.662l-2.487-.382v-.4l2.487.382.364-2.37zm-3.26 4.645l-2.7-.415v-.4l2.7.415z"/><path d="M37.828 33.226l-.724 4.712v-.4l.724-4.712zM39.6 38.32l-.43 2.793-5.03-1.8v-.4l5.03 1.8.43-2.793z"/></g><path d="M45.722 36.038l-.43 2.796-5.708-.877.43-2.796z"/><path d="M40.015 35.16l.348-2.268 5.82.155-.46 3zm2.308 5.048l.275-1.788 2.695.414-.275 1.788z"/><path d="M45.018 40.622l-.32 2.083-2.614-.94.24-1.557z"/><path d="M42.084 41.765l-2.922-1.052.423-2.756 3.013.463zm-4.572-6.885l.316-2.054 2.535.067-.364 2.37z"/><path d="M37.104 37.538l-2.7-.415.668-4.37 2.757.074z"/><path d="M39.59 37.92l-.43 2.793-5.03-1.8.272-1.78z"/><g class="C D"><path d="M44.574 43.9l-.63 4.092-3.4-1.038v-.4l3.4 1.038.63-4.092zm-3.756 1.932l-2.282-.727v-.4l2.282.727z"/><path d="M39.465 42.072l-1.274 4.174-2.796-.853v-.4l2.796.853 1.274-4.174z"/></g><path d="M39.465 41.672l5.11 1.84-.63 4.092-3.4-1.038.274-1.123-2.282-.727z"/><path d="M36.712 40.682l2.753 1-1.274 4.174-2.796-.853z"/><path d="M47.89 67.77l-2.25 3.89-2.357-1.184v-.4l2.357 1.184 2.25-3.89z" class="C D"/><path d="M45.216 66.228l2.675 1.14-2.25 3.89-2.357-1.184.752-1.497z"/><g class="C D"><path d="M54.283 61.687l-.533 1.92-.456 1.642-3.668-1.02v-.4l3.668 1.02.99-3.563z"/><path d="M53.294 65.25l-.982 3.536-1.062-.453v-.4l1.062.453.982-3.536zm-1.58 1.417l-2.517-.886v-.4l2.517.886zm-1.2-5.63l-.96 3.455-2.68-.744v-.4l1.4.385 1.292.36.96-3.455z"/><path d="M46.873 63.747l-2.35-.653v-.4l2.35.653z"/><path d="M47.758 60.56l-.885 3.187v-.4l.885-3.187zm1.796 3.93l-.774 2.8-3.07-1.3v-.4l3.07 1.3.774-2.788z"/><path d="M45.71 65.968l-2.166-.924v-.4l2.166.924z"/><path d="M46.365 63.606l-.656 2.362v-.4l.656-2.362z"/></g><path d="M49.626 63.83l.888-3.195 3.77.65-.533 1.92-.456 1.642-1.756-.488z"/><path d="M53.294 64.85l-.982 3.536-1.062-.453.463-1.666-2.517-.886.43-1.55 2.566.713z"/><path d="M47.758 60.16l2.756.476-.96 3.455-2.68-.744.396-1.424z"/><path d="M46.873 63.347l-2.35-.653 1.43-2.846 1.807.312z"/><path d="M46.365 63.206l3.19.885-.346 1.25-.428 1.54-3.07-1.31.362-1.304z"/><path d="M45.71 65.568l-2.166-.924.98-1.95 1.843.512z"/><path d="M29.865 65.298l-2.52 1.858-1.73-2.347v-.4l1.73 2.347 2.52-1.858z" class="C D"/><path d="M25.615 64.41l3.128-.943 1.122 1.432-2.52 1.858z"/><g class="C D"><path d="M39.906 65.078l-2.302-.772v-.4l2.302.772z"/><path d="M40.774 62.492l-.868 2.586v-.4l.868-2.586z"/><path d="M43.474 63.398l-1.236 2.462-1.165-.4-1.167-.392v-.4l2.332.782.43-.858.805-1.604z"/><path d="M45.127 60.106l-1.653 3.292-5.002-1.678v-.4l5.002 1.678 1.653-3.292z"/></g><path d="M39.906 64.678l-2.302-.772.868-2.586 2.302.772z"/><path d="M40.774 62.092l2.7.906-1.236 2.462-1.165-.4-1.167-.392.303-.902z"/><path d="M38.472 61.32l4.173-2.043 2.482.43-1.653 3.292-1.94-.65z"/><g class="C D"><path d="M37.317 69.406l-1.664-.835-1.29-.647v-.4l2.953 1.482z"/><path d="M39.187 65.68l-1.87 3.725v-.4l1.87-3.725z"/></g><path d="M37.317 69.006l-1.664-.835-1.29-.647 1.274-3.434 3.55 1.19-.816 1.625z"/></g></g><g stroke="#9a7" class="B"><path d="M131.087 64.26l3.35 1.824m-8.35-6.428l10 5.44m-10.056-7.35l10.953 5.966m-10.605-7.657l11.512 6.27m-10.722-7.72l11.63 6.334m-10.84-7.784l11.747 6.398m-10.957-7.848l11.864 6.462m-11.074-7.912l11.98 6.526m-11.2-7.976l12.098 6.6m-11.308-8.05l12.215 6.654M131.9 45.904l12.332 6.717m-11.544-8.167l12.45 6.78m-11.66-8.23l12.567 6.845m-11.777-8.295l12.684 6.9m-11.894-8.36l12.7 6.924m-11.016-7.88l11.12 6.056M123.333 55.9l10.434-19.155M121.8 55.583l10.645-19.54M120.7 54.494l10.434-19.156M119.58 53.405l9.918-18.208m-11.03 17.118l9.26-16.998m-10.37 15.91l8.6-15.8m-9.712 14.7l7.942-14.58M115.35 48.65l3.917-7.192"/><path d="M127.493 76.032l-10.8-9.944M127.4 77.84l-12.68-11.68m12.12 13.053l-13.5-12.43m12.73 13.6L112.1 67.53m13.196 14.044l-14.44-13.298m13.668 14.478l-14.912-13.73m14.14 14.9L108.37 69.768m14.6 15.345l-15.854-14.6m15.082 15.78L105.883 71.26m15.553 16.213L104.64 72.007m16.024 16.646l-17.268-15.9m16.496 17.08L102.153 73.5m16.967 17.513l-18.2-16.767m17.427 17.947l-18.68-17.2m17.908 18.38L98.424 75.74m18.38 18.813l-19.4-17.873m18.54 18.97L96.772 78m17.97 18.438l-18.105-16.67m16.726 17.292l-15-13.82m11.408 12.393l-9.7-8.922m6.088 7.497l-4.37-4.025"/><g class="E J"><path d="M116.42 69.18l-.73 1.032v-.24l.73-1.032zm.235 1.718l-.657.926-.966-.685-.632.892-1.754-1.244v-.24l1.754 1.244.632-.892.966.685.657-.926z" class="C D"/><path d="M114.665 67.698l1.755 1.243-.73 1.032.966.685-.657.926-.966-.685-.632.892-1.754-1.244 1.288-1.817z"/></g></g><defs ><style>@import url("https://fonts.googleapis.com/css?family=IM+Fell+Great+Primer")</style><path id="B" d="M92.9 47.1l17.814 4.9 9.613 9.422 5.094 4.7 2.78 2.44 2.164 1.752 2.114 1.585 2.064 1.42 2.53 1.607 2.996 1.796 4.444 2.526 8.837 4.888"/><path id="C" d="M81.736 24.802l-2.058 4.01-.178.34-.19.36-.205.38-.218.4-.23.42-.245.44-.258.46-.272.48-3.12 5.507-5.374 4.23-.43.353-.43.368-.428.383-.428.398-.428.412-.427.427-.427.442-3.836 4.112-.404.49-.383.522-.362.553-.34.586-.32.618-.296.65-.275.682-.253.715-.254.714-1.013 2.858-.76 2.143-.25.73-.25.747-.246.762-.243.78-.242.795-.24.8-.236.827-2.106 7.586-.307.87-.378.898-.45.926-.523.953-.596.98-.668 1.008-.74 1.036-7.3 9.573-.804 1.04-.795 1.016-.785.993-.778.97-.768.946-.76.923-.75.9-6.676 7.88-.826.83-.9.783-.995.738-1.08.69-1.163.645-1.248.6-1.33.553-1.417.508-11.33 4.06-1.272.533-1.128.56-.985.587-.84.614-.696.64-.553.667-.41.693-.53 1.44-.266.72-.828 2.25-1.7 4.6"/></defs></svg>